<svg width="700" height="95" viewBox="0 0 700 95" fill="none" xmlns="http://www.w3.org/2000/svg">
<rect x="0.5" y="0.5" width="699" height="94" rx="9.5" fill="white" stroke="#E6E6E6"/>
<path d="M85.864 28.16V29.76H85.096C85.112 30.832 85.32 32.112 86.072 33.12C86.808 32.128 87 30.864 87.016 29.76H86.312V28.16H90.376V29.76H88.904C88.92 31.344 89.432 32.992 91.048 33.824L89.992 35.264C88.968 34.72 88.344 33.84 87.96 32.816C87.624 33.872 87.048 34.816 86.056 35.392C85.08 34.816 84.504 33.888 84.168 32.848C83.8 33.872 83.176 34.736 82.184 35.264L81.128 33.824C82.696 33.008 83.24 31.312 83.24 29.76H81.672V28.16H85.864ZM83.336 38.688C83.32 36.96 85.208 35.936 88.264 35.936C91.336 35.936 93.24 36.96 93.256 38.688C93.24 40.448 91.336 41.44 88.264 41.44C85.208 41.44 83.32 40.448 83.336 38.688ZM85.352 38.688C85.336 39.504 86.344 39.888 88.264 39.872C90.184 39.888 91.208 39.504 91.208 38.688C91.208 37.904 90.184 37.52 88.264 37.504C86.344 37.52 85.336 37.904 85.352 38.688ZM91.144 35.776V27.2H93.128V30.656H94.6V32.32H93.128V35.776H91.144ZM99.3721 28.16V29.76H98.6041C98.6201 30.832 98.8281 32.112 99.5801 33.12C100.316 32.128 100.508 30.864 100.524 29.76H99.8201V28.16H103.884V29.76H102.412C102.428 31.344 102.94 32.992 104.556 33.824L103.5 35.264C102.476 34.72 101.852 33.84 101.468 32.816C101.132 33.872 100.556 34.816 99.5641 35.392C98.5881 34.816 98.0121 33.888 97.6761 32.848C97.3081 33.872 96.6841 34.736 95.6921 35.264L94.6361 33.824C96.2041 33.008 96.7481 31.312 96.7481 29.76H95.1801V28.16H99.3721ZM96.8441 38.688C96.8281 36.96 98.7161 35.936 101.772 35.936C104.844 35.936 106.748 36.96 106.764 38.688C106.748 40.448 104.844 41.44 101.772 41.44C98.7161 41.44 96.8281 40.448 96.8441 38.688ZM98.8601 38.688C98.8441 39.504 99.8521 39.888 101.772 39.872C103.692 39.888 104.716 39.504 104.716 38.688C104.716 37.904 103.692 37.52 101.772 37.504C99.8521 37.52 98.8441 37.904 98.8601 38.688ZM104.652 35.776V27.2H106.636V30.656H108.108V32.32H106.636V35.776H104.652Z" fill="#030303"/>
<path d="M143.352 27.392V37.792H142.2V27.392H143.352ZM132.216 35.072V28.704H137.592V31.296H139.544V27.648H140.696V37.376H139.544V32.32H137.592V35.072H132.216ZM133.368 34.08H136.44V29.696H133.368V34.08ZM134.264 40.96V36.48H135.48V39.936H143.8V40.96H134.264ZM156.316 34.592V35.616H151.996V38.496H157.788V39.52H145.084V38.496H150.78V35.616H146.716V28.512H156.156V29.536H147.964V31.52H155.868V32.512H147.964V34.592H156.316Z" fill="#999999"/>
<path d="M88.476 57.284V58.152H87.132V64.018C87.79 63.976 88.448 63.906 89.064 63.836L89.12 64.62C86.544 65.04 83.632 65.082 81.476 65.096L81.336 64.172L82.988 64.158V58.152H81.644V57.284H88.476ZM84.024 64.144C84.696 64.13 85.396 64.116 86.096 64.074V58.152H84.024V64.144ZM89.82 68.12V55.968H90.912V60.84H92.928V61.736H90.912V68.12H89.82ZM96.7676 56.416C98.5736 56.416 99.9036 57.522 99.9036 59.104C99.9036 60.686 98.5736 61.778 96.7676 61.792C94.9196 61.778 93.5896 60.686 93.6036 59.104C93.5896 57.522 94.9196 56.416 96.7676 56.416ZM94.6396 59.104C94.6396 60.168 95.5356 60.896 96.7676 60.896C97.9576 60.896 98.8676 60.168 98.8676 59.104C98.8676 58.04 97.9576 57.298 96.7676 57.312C95.5356 57.298 94.6396 58.04 94.6396 59.104ZM95.4516 63.668V62.772H103.348V65.712H96.5156V67.084H103.796V67.952H95.4796V64.9H102.284V63.668H95.4516ZM102.284 62.184V55.968H103.348V62.184H102.284ZM115.559 55.968V68.12H114.523V55.968H115.559ZM105.283 61.204C105.283 58.614 106.305 56.99 107.887 56.976C109.357 56.99 110.365 58.404 110.505 60.7H112.087V56.22H113.095V67.504H112.087V61.596H110.505C110.393 63.962 109.385 65.432 107.887 65.432C106.305 65.432 105.283 63.794 105.283 61.204ZM106.291 61.204C106.277 63.178 106.907 64.424 107.887 64.396C108.881 64.424 109.511 63.178 109.511 61.204C109.511 59.23 108.881 57.984 107.887 57.984C106.907 57.984 106.277 59.23 106.291 61.204ZM125.699 56.752C128.289 56.766 130.151 58.012 130.151 59.944C130.151 61.736 128.541 62.926 126.231 63.094V65.656H131.299V66.552H120.183V65.656H125.167V63.094C122.885 62.926 121.261 61.736 121.275 59.944C121.261 58.012 123.137 56.766 125.699 56.752ZM122.311 59.944C122.297 61.33 123.739 62.24 125.699 62.24C127.673 62.24 129.115 61.33 129.115 59.944C129.115 58.558 127.673 57.634 125.699 57.648C123.739 57.634 122.297 58.558 122.311 59.944ZM138.218 57.06V57.956H133.598V60.476H137.966V61.344H133.598V64.284C135.796 64.298 137.322 64.214 139.142 63.892L139.282 64.788C137.378 65.11 135.782 65.166 133.486 65.18H132.534V57.06H138.218ZM140.318 68.12V55.968H141.41V60.84H143.426V61.764H141.41V68.12H140.318ZM153.23 55.968V60.896H155.19V61.82H153.23V68.092H152.138V55.968H153.23ZM143.878 64.956C147.028 63.388 148.75 61.05 148.974 58.152H144.466V57.256H150.066C150.066 60.7 148.456 63.836 144.494 65.796L143.878 64.956ZM168.942 55.968V68.12H167.85V60.868H164.07V59.972H167.85V55.968H168.942ZM159.506 65.18V57.312H160.598V64.284C162.46 64.27 164.098 64.158 165.946 63.78L166.086 64.676C164.126 65.082 162.418 65.18 160.458 65.18H159.506ZM181.769 63.024V63.92H176.701V68.092H175.665V63.92H170.653V63.024H181.769ZM172.081 61.372V56.64H180.341V61.372H172.081ZM173.145 60.532H179.277V57.508H173.145V60.532ZM195.213 55.968V58.712H197.033V59.608H195.213V62.184H194.149V55.968H195.213ZM186.225 61.708V56.752H191.853V61.708H186.225ZM187.009 67.784V63.276H188.045V66.902C188.745 66.86 189.683 66.762 190.537 66.468L190.705 67.336C189.529 67.728 188.381 67.784 187.597 67.784H187.009ZM187.289 60.84H190.817V57.62H187.289V60.84ZM190.285 64.228V63.416H192.833V62.324H193.897V63.416H196.445V64.228H190.285ZM191.097 66.384C191.083 65.32 192.007 64.676 193.365 64.648C194.681 64.676 195.619 65.32 195.633 66.384C195.619 67.42 194.681 68.078 193.365 68.092C192.007 68.078 191.083 67.42 191.097 66.384ZM192.049 66.384C192.049 66.958 192.595 67.322 193.365 67.308C194.107 67.322 194.653 66.958 194.653 66.384C194.653 65.796 194.107 65.432 193.365 65.432C192.595 65.432 192.049 65.796 192.049 66.384ZM208.6 62.38V63.248H197.54V62.38H208.6ZM198.744 58.796C198.758 57.27 200.424 56.374 203.056 56.388C205.674 56.374 207.354 57.27 207.34 58.796C207.354 60.308 205.674 61.218 203.056 61.232C200.424 61.218 198.758 60.308 198.744 58.796ZM198.968 67.84V64.312H200.032V66.944H207.368V67.84H198.968ZM199.864 58.796C199.864 59.762 201.11 60.336 203.056 60.336C205.016 60.336 206.262 59.762 206.248 58.796C206.262 57.844 205.016 57.256 203.056 57.256C201.11 57.256 199.864 57.844 199.864 58.796ZM222.632 55.968V64.2H221.568V60.28H218.908V59.384H221.568V55.968H222.632ZM212.776 62.548C215.66 61.652 217.466 59.972 217.704 57.816H213.364V56.92H218.852C218.838 60.042 216.752 62.282 213.252 63.416L212.776 62.548ZM214.036 67.224C216.192 66.846 218.152 65.488 218.18 63.696V63.136H219.244V63.696C219.23 65.46 221.176 66.79 223.332 67.196L222.856 68.036C221.078 67.686 219.412 66.734 218.698 65.32C217.97 66.762 216.29 67.714 214.484 68.064L214.036 67.224ZM237.112 55.968V58.796H238.932V59.692H237.112V62.464H236.048V55.968H237.112ZM227.648 61.82C230.742 61.134 232.492 59.594 232.646 57.676H228.18V56.808H233.836C233.836 59.86 231.68 61.876 228.096 62.688L227.648 61.82ZM229.412 67.952V62.996H237.168V63.836H230.504V65.04H237.028V65.852H230.504V67.112H237.448V67.952H229.412ZM241.903 63.248V64.676H247.979V63.248H249.071V67.952H240.839V63.248H241.903ZM239.439 62.408V61.512H250.499V62.408H239.439ZM240.055 59.776C242.225 59.482 244.423 58.208 244.423 56.668V56.08H245.515V56.668C245.515 58.166 247.727 59.51 249.883 59.776L249.463 60.644C247.601 60.35 245.753 59.398 244.969 58.054C244.199 59.412 242.351 60.35 240.475 60.644L240.055 59.776ZM241.903 67.084H247.979V65.516H241.903V67.084ZM261.255 55.968V68.12H260.191V55.968H261.255ZM252.043 64.984V57.144H253.107V64.032C254.955 64.046 256.859 63.892 258.903 63.472L259.043 64.368C256.901 64.83 254.969 64.984 253.023 64.984H252.043ZM272.487 55.968V60.756H274.503V61.652H272.487V68.12H271.395V55.968H272.487ZM263.611 65.096V57.144H269.267V58.04H264.675V64.172C266.873 64.172 268.427 64.088 270.219 63.752L270.359 64.676C268.469 65.012 266.873 65.082 264.563 65.096H263.611ZM276.186 67.084C275.696 67.084 275.29 66.678 275.29 66.188C275.29 65.712 275.696 65.32 276.186 65.32C276.662 65.32 277.054 65.712 277.054 66.188C277.054 66.678 276.662 67.084 276.186 67.084ZM290.955 57.256V58.46C290.955 60 290.955 61.736 290.507 64.368L289.415 64.256C289.891 61.778 289.891 59.958 289.891 58.46V58.152H282.583V57.256H290.955ZM281.379 66.328V65.432H292.439V66.328H281.379ZM298.155 57.284V61.54H294.627V64.284C296.027 64.298 297.357 64.228 298.939 63.976L299.023 64.844C297.301 65.138 295.929 65.194 294.403 65.208H293.591V60.644H297.119V58.18H293.563V57.284H298.155ZM299.779 67.476V56.22H300.759V60.756H302.551V55.968H303.559V68.12H302.551V61.652H300.759V67.476H299.779ZM314.818 61.652V62.52H311.066V65.684H316.134V66.58H305.018V65.684H310.002V62.52H306.418V56.948H314.706V57.816H307.51V61.652H314.818ZM324.146 57.872C324.146 59.328 325.406 60.644 327.198 61.176L326.694 62.016C325.28 61.596 324.174 60.7 323.642 59.538C323.11 60.854 321.962 61.862 320.478 62.324L319.946 61.484C321.794 60.924 323.068 59.496 323.082 57.9V57.536H320.31V56.668H326.862V57.536H324.146V57.872ZM321.794 63.64V62.8H329.55V65.712H322.886V67.14H329.998V68.008H321.822V64.9H328.486V63.64H321.794ZM328.486 62.24V55.968H329.55V58.628H331.37V59.496H329.55V62.24H328.486ZM341.146 58.068V58.936H335.07V58.068H337.59V56.332H338.654V58.068H341.146ZM335.49 62.52C335.49 60.896 336.596 59.762 338.122 59.748C339.634 59.762 340.74 60.896 340.754 62.52C340.74 64.144 339.634 65.292 338.122 65.292C336.596 65.292 335.49 64.144 335.49 62.52ZM336.442 62.52C336.456 63.598 337.142 64.368 338.122 64.368C339.074 64.368 339.788 63.598 339.774 62.52C339.788 61.456 339.074 60.672 338.122 60.644C337.142 60.672 336.456 61.456 336.442 62.52ZM341.79 67.504V56.248H342.798V61.092H344.422V55.968H345.43V68.12H344.422V61.96H342.798V67.504H341.79ZM353.049 57.676C353.035 59.3 355.205 60.686 357.333 61.008L356.913 61.848C355.023 61.526 353.189 60.518 352.447 59.062C351.691 60.518 349.857 61.526 347.981 61.848L347.561 61.008C349.675 60.686 351.831 59.3 351.845 57.676V57.592H347.953V56.724H356.913V57.592H353.049V57.676ZM346.917 63.78V62.884H357.977V63.78H352.937V68.092H351.901V63.78H346.917ZM368.789 55.968V63.08H367.725V60.7H365.289V59.832H367.725V58.32H365.289V57.424H367.725V55.968H368.789ZM358.737 61.96C360.585 61.26 361.803 59.594 361.817 57.676V56.416H362.853V57.676C362.853 59.426 364.071 61.092 365.849 61.764L365.233 62.604C363.917 62.072 362.867 60.994 362.349 59.664C361.845 61.12 360.767 62.254 359.353 62.828L358.737 61.96ZM359.409 67.14C360.949 66.594 361.873 65.278 361.873 64.088V63.528H362.909V64.088C362.909 65.18 363.483 66.328 364.645 67C365.807 66.272 366.409 65.04 366.409 64.088V63.528H367.445V64.088C367.459 65.362 368.369 66.622 369.965 67.14L369.377 67.952C368.187 67.518 367.333 66.664 366.927 65.642C366.549 66.636 365.807 67.574 364.673 68.064C363.497 67.602 362.741 66.706 362.377 65.684C361.943 66.664 361.103 67.504 359.941 67.952L359.409 67.14ZM373.804 56.892C375.47 56.906 376.66 58.32 376.828 60.588H379.544V55.968H380.608V68.12H379.544V61.484H376.842C376.716 63.878 375.512 65.362 373.804 65.376C372.012 65.362 370.752 63.724 370.78 61.12C370.752 58.544 372.012 56.906 373.804 56.892ZM371.788 61.12C371.788 63.108 372.614 64.41 373.804 64.396C375.008 64.41 375.834 63.108 375.82 61.12C375.834 59.16 375.008 57.858 373.804 57.844C372.614 57.858 371.788 59.16 371.788 61.12ZM385.624 56.892C386.758 56.906 387.668 57.55 388.186 58.684H391.364V55.968H392.428V68.12H391.364V63.416H388.256C387.752 64.648 386.8 65.362 385.624 65.376C383.832 65.362 382.572 63.724 382.6 61.12C382.572 58.544 383.832 56.906 385.624 56.892ZM383.608 61.12C383.608 63.108 384.434 64.41 385.624 64.396C386.828 64.41 387.654 63.108 387.64 61.12C387.654 59.16 386.828 57.858 385.624 57.844C384.434 57.858 383.608 59.16 383.608 61.12ZM388.494 59.58C388.606 60.042 388.676 60.56 388.676 61.12C388.676 61.624 388.62 62.086 388.536 62.52H391.364V59.58H388.494ZM396.156 57.088L396.072 64.2H394.924L394.812 57.088H396.156ZM394.616 66.188C394.616 65.712 395.022 65.32 395.512 65.32C395.988 65.32 396.38 65.712 396.38 66.188C396.38 66.678 395.988 67.084 395.512 67.084C395.022 67.084 394.616 66.678 394.616 66.188Z" fill="black"/>
<path d="M402.874 55.716V68.4H401.838V55.716H402.874Z" fill="#ECECEC"/>
<circle cx="122.5" cy="34.5" r="2.5" fill="#CCCCCC"/>
<circle cx="47.5" cy="47.5" r="22" fill="white" stroke="#E6E6E6"/>
<g clip-path="url(#clip0_1_2)">
<path d="M36.5117 47.1551V46.0523H42.0556V47.1551H36.5117ZM36.5659 44.5141C36.9011 44.3484 37.202 44.1651 37.4673 43.9628C37.7326 43.7604 37.9665 43.5419 38.1676 43.3088C38.3644 43.0785 38.5156 42.8337 38.624 42.5712C38.731 42.3087 38.7909 42.033 38.8052 41.7441H40.0589C40.0503 41.9377 40.0303 42.1225 39.999 42.3028C39.9676 42.4817 39.9234 42.6548 39.8649 42.8205C40.066 42.9392 40.26 43.0609 40.4482 43.1827C40.6365 43.3044 40.8119 43.429 40.9774 43.558C41.1385 43.6959 41.3054 43.8455 41.4794 44.0068C41.6534 44.1681 41.8331 44.344 42.0157 44.5376L41.2241 45.4614C41.0672 45.2825 40.9075 45.1124 40.742 44.9511C40.5766 44.7898 40.4069 44.6358 40.2329 44.4892C40.0717 44.3748 39.9148 44.2634 39.7608 44.1578C39.6067 44.0522 39.4513 43.954 39.2944 43.8616L39.2145 43.9657C39.0847 44.127 38.9464 44.2795 38.7995 44.4247C38.6526 44.5698 38.4957 44.7033 38.3302 44.8279C38.1562 44.9614 37.9779 45.0816 37.7968 45.1901C37.6157 45.2986 37.4317 45.3954 37.2434 45.4834L36.5659 44.5141Z" fill="#0059FF"/>
<path d="M43.761 42.0431V45.9465H44.7309C44.8208 45.9465 44.9092 45.9451 44.999 45.9407C45.0889 45.9363 45.1773 45.9275 45.2672 45.9143C45.357 45.9099 45.4383 45.9011 45.5125 45.8879C45.5867 45.8747 45.6565 45.8571 45.7193 45.8351V46.8058C45.6594 46.841 45.5924 46.8674 45.5182 46.888C45.444 46.907 45.3613 46.9217 45.2729 46.9305C45.1745 46.9437 45.0789 46.9525 44.9862 46.9569C44.8921 46.9613 44.7994 46.9627 44.7052 46.9627H42.5801V42.0431H43.761ZM48.0541 43.7089V44.8438C48.0284 44.8438 48.0013 44.8438 47.9714 44.8468C47.9414 44.8497 47.9101 44.8526 47.8758 44.857C47.8416 44.857 47.8074 44.86 47.7731 44.8629C47.7389 44.8673 47.7032 44.8688 47.6647 44.8688C47.592 44.882 47.5235 44.8952 47.4579 44.9084C47.3923 44.9215 47.3296 44.9347 47.2697 44.9479V47.237H46.0887V41.958H47.2697V43.8276C47.3296 43.81 47.3923 43.7939 47.4579 43.7778C47.5235 43.7631 47.5948 43.7485 47.6719 43.7353C47.7104 43.7353 47.7475 43.7338 47.7831 43.7294C47.8188 43.725 47.8516 43.7235 47.8815 43.7235C47.9158 43.7191 47.9457 43.7162 47.9742 43.7133C48.0013 43.7118 48.0284 43.7103 48.0541 43.7103V43.7089Z" fill="#333333"/>
<path d="M50.3042 41.961C50.4126 41.9844 50.5181 42.0196 50.6194 42.0622C50.7135 42.1149 50.8005 42.178 50.8804 42.2528C50.9617 42.3276 51.0373 42.4141 51.11 42.5153C51.1742 42.6208 51.2341 42.7396 51.2883 42.8731C51.3439 43.0065 51.391 43.1517 51.4281 43.3086C51.4623 43.4743 51.4894 43.6561 51.5079 43.8526C51.5265 44.0491 51.5365 44.2617 51.5365 44.489C51.5365 44.7163 51.5265 44.9421 51.5079 45.1415C51.4894 45.341 51.4623 45.5184 51.4281 45.6768C51.3895 45.8425 51.3425 45.992 51.2883 46.1225C51.2327 46.2531 51.1728 46.3704 51.11 46.4701C51.0373 46.5757 50.9617 46.6651 50.8804 46.7384C50.7991 46.8132 50.7121 46.8719 50.6194 46.9159C50.5181 46.9642 50.4126 46.9994 50.3042 47.0214C50.1958 47.0434 50.0817 47.0537 49.9633 47.0537C49.8363 47.0537 49.718 47.0434 49.6096 47.0214C49.5012 46.9994 49.3999 46.9642 49.3072 46.9159C49.2045 46.8719 49.1132 46.8132 49.0291 46.7384C48.9463 46.6636 48.8722 46.5742 48.8094 46.4701C48.7367 46.3689 48.6754 46.2531 48.624 46.1225C48.5727 45.992 48.5299 45.8425 48.4971 45.6768C48.4586 45.5199 48.4315 45.341 48.4143 45.1415C48.3972 44.9421 48.3887 44.7251 48.3887 44.489C48.3887 44.2529 48.3972 44.0491 48.4143 43.8526C48.4315 43.6561 48.4586 43.4743 48.4971 43.3086C48.5313 43.1517 48.5741 43.0065 48.624 42.8731C48.6754 42.7396 48.7367 42.6208 48.8094 42.5153C48.8736 42.4141 48.9463 42.3276 49.0291 42.2528C49.1118 42.178 49.2045 42.1149 49.3072 42.0622C49.4013 42.0182 49.5012 41.9844 49.6096 41.961C49.718 41.9375 49.8363 41.9243 49.9633 41.9243C50.0817 41.9243 50.1958 41.936 50.3042 41.961ZM49.8634 43.0241C49.8321 43.0344 49.8035 43.0476 49.7779 43.0608C49.7436 43.0828 49.7137 43.1106 49.688 43.1429C49.6623 43.1751 49.6395 43.2177 49.6181 43.2704C49.5924 43.3232 49.5725 43.3878 49.5582 43.464C49.544 43.5403 49.5297 43.6253 49.5169 43.7162C49.4997 43.8174 49.4883 43.9318 49.4812 44.0608C49.4755 44.1899 49.4712 44.3336 49.4712 44.4905C49.4712 44.6562 49.4741 44.8043 49.4812 44.9333C49.4869 45.0624 49.4997 45.1723 49.5169 45.2647C49.5297 45.3659 49.544 45.4524 49.5582 45.5272C49.5725 45.602 49.5939 45.665 49.6181 45.7178C49.6395 45.7706 49.6623 45.8146 49.688 45.8483C49.7137 45.8835 49.7436 45.907 49.7779 45.9202C49.8035 45.9422 49.8321 45.9568 49.8634 45.9627C49.8948 45.9686 49.9276 45.973 49.9618 45.973C49.9875 45.973 50.0146 45.97 50.0446 45.9627C50.0745 45.9568 50.1059 45.9422 50.1401 45.9202C50.1658 45.907 50.1929 45.8835 50.22 45.8483C50.2471 45.8131 50.2742 45.7691 50.2999 45.7178C50.317 45.665 50.3355 45.602 50.3541 45.5272C50.3726 45.4524 50.3912 45.3659 50.4083 45.2647C50.4211 45.1723 50.4311 45.0624 50.4397 44.9333C50.4482 44.8043 50.4525 44.6562 50.4525 44.4905C50.4525 44.3336 50.4482 44.1899 50.4397 44.0608C50.4311 43.9318 50.4211 43.8174 50.4083 43.7162C50.3912 43.6238 50.3726 43.5403 50.3541 43.464C50.3355 43.3878 50.317 43.3232 50.2999 43.2704C50.2742 43.2177 50.2471 43.1751 50.22 43.1429C50.1929 43.1106 50.1658 43.0828 50.1401 43.0608C50.1059 43.0476 50.0745 43.0358 50.0446 43.0241C50.0146 43.0138 49.9875 43.008 49.9618 43.008C49.9276 43.008 49.8948 43.0138 49.8634 43.0241ZM52.0228 47.2385V41.958H53.2038V47.2385H52.0228Z" fill="#333333"/>
<path d="M54.192 42.9947H53.9053V42.0108H56.9746V42.9947H56.618V45.9729H56.9746V46.9569H53.9053V45.9729H54.192V42.9947ZM55.5954 45.9729V42.9947H55.2132V45.9729H55.5954ZM57.6692 44.8776C57.635 44.8908 57.5965 44.8996 57.5508 44.904C57.5066 44.9084 57.4567 44.9098 57.4011 44.9098C57.3369 44.9142 57.2741 44.9157 57.2128 44.9157H56.9347V43.8658H57.6678V41.958H58.7845V47.2458H57.6678V44.8776H57.6692Z" fill="#333333"/>
<path d="M36.9008 49.1157H36.6455V48.1846H39.3269V49.1157H39.0659V50.349H39.3269V51.2786H36.6455V50.349H36.9008V49.1157ZM41.0299 53.7202V52.7963H37.0406V51.6936H42.2023V53.7202H41.0299ZM38.1545 50.349V49.1157H37.8122V50.349H38.1545ZM41.1639 50.2595C41.1055 50.2727 41.0456 50.283 40.9828 50.2903C40.92 50.2976 40.8559 50.3006 40.7888 50.3006V51.4517H39.7491V48.1641H40.7888V49.2184H41.1639V48.1641H42.2037V51.4517H41.1639V50.2595Z" fill="#0059FF"/>
<path d="M46.5422 51.0643C46.6606 51.0643 46.7762 51.0643 46.8874 51.0613C46.9987 51.0599 47.1042 51.054 47.2069 51.0452C47.301 51.0452 47.3909 51.0393 47.4779 51.0291C47.5649 51.0188 47.6476 51.0056 47.7232 50.9924V51.9309C47.6633 51.9529 47.5948 51.972 47.5164 51.9866C47.4379 52.0013 47.3495 52.0115 47.2511 52.0159C47.1484 52.0291 47.0414 52.0379 46.9288 52.0423C46.8161 52.0467 46.7006 52.0482 46.5808 52.0482H45.8847V52.6524H47.9457V53.6363H42.6699V52.6524H44.7309V52.0482H42.9823V48.4336H47.6262V49.4175H44.0662V49.746H47.562V50.7299H44.0662V51.0643H46.5422Z" fill="#333333"/>
<path d="M48.5268 50.4279H50.3196V49.5026H48.5582V48.4864H51.4036V51.4118H49.6108V52.4148H51.5819V53.431H48.5254V50.4264L48.5268 50.4279ZM52.0354 53.714V48.4336H53.2164V53.714H52.0354Z" fill="#333333"/>
<path d="M56.2075 49.5776V49.0996C55.2648 49.2081 54.5103 49.9692 54.3848 50.9326H54.8512C54.9695 50.2302 55.5187 49.6788 56.2075 49.5776Z" fill="#0059FF"/>
<path d="M58.0244 50.934H58.4907C58.3652 49.9706 57.6107 49.2096 56.668 49.1011V49.5791C57.3569 49.6818 57.906 50.2331 58.0244 50.934Z" fill="#0059FF"/>
<path d="M54.8366 51.4077H54.373C54.46 52.4151 55.2317 53.2231 56.2058 53.3345V52.8565C55.487 52.7494 54.9193 52.1526 54.8366 51.4077Z" fill="#0059FF"/>
<path d="M56.668 52.8565V53.3345C57.6421 53.2231 58.4137 52.4151 58.5007 51.4077H58.0372C57.9545 52.1541 57.3868 52.7509 56.668 52.8565Z" fill="#0059FF"/>
<path d="M56.438 50.2744C55.9302 50.2744 55.5166 50.6997 55.5166 51.2217C55.5166 51.7437 55.9302 52.169 56.438 52.169C56.9457 52.169 57.3593 51.7437 57.3593 51.2217C57.3593 50.6997 56.9457 50.2744 56.438 50.2744ZM56.438 51.6939C56.1841 51.6939 55.9787 51.4812 55.9787 51.2217C55.9787 50.9621 56.1855 50.7495 56.438 50.7495C56.6904 50.7495 56.8972 50.9621 56.8972 51.2217C56.8972 51.4812 56.6904 51.6939 56.438 51.6939Z" fill="#0059FF"/>
<path d="M56.6682 49.1011V48.8328C56.6682 48.7023 56.5655 48.5952 56.4371 48.5952C56.3087 48.5952 56.2061 48.7008 56.2061 48.8328V49.1011C56.2816 49.0923 56.3587 49.0879 56.4371 49.0879C56.5156 49.0879 56.5926 49.0923 56.6682 49.1011Z" fill="#0059FF"/>
<path d="M56.4381 49.5615C56.5165 49.5615 56.5936 49.5674 56.6691 49.5791V49.1011C56.5936 49.0923 56.5165 49.0879 56.4381 49.0879C56.3596 49.0879 56.2826 49.0923 56.207 49.1011V49.5791C56.2826 49.5674 56.3596 49.5615 56.4381 49.5615Z" fill="#0059FF"/>
<path d="M56.207 53.3345V53.6102C56.207 53.7407 56.3097 53.8477 56.4381 53.8477C56.5665 53.8477 56.6691 53.7421 56.6691 53.6102V53.3345C56.5936 53.3433 56.5165 53.3477 56.4381 53.3477C56.3596 53.3477 56.2826 53.3433 56.207 53.3345Z" fill="#0059FF"/>
<path d="M56.4381 52.874C56.3596 52.874 56.2826 52.8682 56.207 52.8564V53.3345C56.2826 53.3433 56.3596 53.3477 56.4381 53.3477C56.5165 53.3477 56.5936 53.3433 56.6691 53.3345V52.8564C56.5936 52.8682 56.5165 52.874 56.4381 52.874Z" fill="#0059FF"/>
<path d="M58.7889 50.9341H58.4922C58.5036 51.0265 58.5107 51.1218 58.5107 51.2186C58.5107 51.2831 58.5079 51.3461 58.5022 51.4077H58.7889C58.9158 51.4077 59.0199 51.3021 59.0199 51.1702C59.0199 51.0382 58.9172 50.9326 58.7889 50.9326V50.9341Z" fill="#0059FF"/>
<path d="M58.4908 50.9341H58.0244C58.0401 51.0265 58.0487 51.1218 58.0487 51.2186C58.0487 51.2831 58.0444 51.3461 58.0372 51.4077H58.5008C58.5065 51.3447 58.5093 51.2816 58.5093 51.2186C58.5093 51.1218 58.5022 51.0279 58.4908 50.9341Z" fill="#0059FF"/>
<path d="M54.3845 50.9341H54.1178C53.9908 50.9341 53.8867 51.0397 53.8867 51.1716C53.8867 51.3036 53.9894 51.4092 54.1178 51.4092H54.3745C54.3688 51.3461 54.3659 51.2831 54.3659 51.22C54.3659 51.1232 54.3731 51.0294 54.3845 50.9355V50.9341Z" fill="#0059FF"/>
<path d="M54.8269 51.2171C54.8269 51.1203 54.8355 51.025 54.8511 50.9326H54.3848C54.3733 51.025 54.3662 51.1203 54.3662 51.2171C54.3662 51.2816 54.3691 51.3447 54.3748 51.4063H54.8383C54.8312 51.3432 54.8269 51.2801 54.8269 51.2171Z" fill="#0059FF"/>
<path d="M56.5253 51.9312C56.9065 51.9312 57.2156 51.6134 57.2156 51.2214C57.2156 50.8295 56.9065 50.5117 56.5253 50.5117C56.144 50.5117 55.835 50.8295 55.835 51.2214C55.835 51.6134 56.144 51.9312 56.5253 51.9312Z" fill="#0059FF"/>
</g>
<defs>
<clipPath id="clip0_1_2">
<rect width="22.5066" height="12.1034" fill="white" transform="translate(36.5117 41.7441)"/>
</clipPath>
</defs>
</svg>
