<svg width="700" height="220" viewBox="0 0 700 220" fill="none" xmlns="http://www.w3.org/2000/svg">
<rect x="0.5" y="0.5" width="699" height="219" rx="9.5" fill="white"/>
<rect x="0.5" y="0.5" width="699" height="219" rx="9.5" stroke="#E6E6E6"/>
<path d="M89.9688 35.0469C89.9688 36.2865 89.7057 37.3984 89.1797 38.3828C88.6589 39.362 87.8984 40.1953 86.8984 40.8828C85.8984 41.5651 84.6875 42.0885 83.2656 42.4531L82.5 40.9062C84.0729 40.5052 85.3125 39.9297 86.2188 39.1797C87.1302 38.4297 87.6667 37.5677 87.8281 36.5938H83.3281V35.0469H89.9688ZM94.3281 42.1719H92.3281V34.2344H94.3281V42.1719ZM94.3281 48.2656H84.8438V42.75H94.3281V48.2656ZM86.8281 46.7031H92.375V44.3125H86.8281V46.7031ZM103.899 36.1406C103.899 36.8698 103.881 37.5547 103.844 38.1953C103.808 38.8307 103.716 39.5365 103.571 40.3125L101.618 40.125C101.815 39.0365 101.925 37.9531 101.946 36.875H96.5863V35.25H103.899V36.1406ZM100.368 41.2578C101.982 41.1849 103.383 41.0625 104.571 40.8906L104.68 42.3281C103.373 42.5677 102.011 42.7266 100.594 42.8047C99.1774 42.8828 97.6175 42.9271 95.9144 42.9375L95.7425 41.3438C96.8727 41.3438 97.7529 41.3359 98.3831 41.3203V38.5312H100.368V41.2578ZM107.383 38.5469H109.102V40.2188H107.383V44.8594H105.336V34.2188H107.383V38.5469ZM107.821 48.1875H97.8363V43.9062H99.8363V46.5938H107.821V48.1875ZM122.438 43.7969H116.876V48.4531H114.907V43.7969H109.423V42.1719H122.438V43.7969ZM115.891 34.6875C116.902 34.6875 117.8 34.8203 118.587 35.0859C119.373 35.3516 119.985 35.7292 120.423 36.2188C120.86 36.7083 121.079 37.276 121.079 37.9219C121.079 38.5573 120.86 39.1146 120.423 39.5938C119.985 40.0729 119.373 40.4427 118.587 40.7031C117.8 40.9635 116.902 41.0938 115.891 41.0938C114.881 41.0938 113.985 40.9635 113.204 40.7031C112.423 40.4427 111.813 40.0729 111.376 39.5938C110.943 39.1146 110.73 38.5573 110.735 37.9219C110.73 37.276 110.943 36.7083 111.376 36.2188C111.813 35.7292 112.423 35.3516 113.204 35.0859C113.985 34.8203 114.881 34.6875 115.891 34.6875ZM115.891 36.2812C115.256 36.2812 114.704 36.3464 114.235 36.4766C113.766 36.6016 113.404 36.7891 113.149 37.0391C112.899 37.2839 112.777 37.5781 112.782 37.9219C112.777 38.2552 112.899 38.5417 113.149 38.7812C113.404 39.0208 113.766 39.2031 114.235 39.3281C114.704 39.4531 115.256 39.5156 115.891 39.5156C116.532 39.5156 117.087 39.4531 117.555 39.3281C118.024 39.2031 118.383 39.0208 118.633 38.7812C118.889 38.5417 119.016 38.2552 119.016 37.9219C119.016 37.5781 118.889 37.2839 118.633 37.0391C118.383 36.7891 118.024 36.6016 117.555 36.4766C117.087 36.3464 116.532 36.2812 115.891 36.2812Z" fill="#030303"/>
<path d="M145.531 35.6719C145.531 36.2969 145.773 36.8958 146.258 37.4688C146.747 38.0417 147.383 38.5234 148.164 38.9141C148.945 39.3047 149.755 39.5573 150.594 39.6719L150.094 40.6719C149.365 40.5521 148.659 40.3438 147.977 40.0469C147.294 39.7448 146.685 39.3698 146.148 38.9219C145.612 38.4688 145.198 37.9661 144.906 37.4141C144.62 37.9661 144.206 38.4688 143.664 38.9219C143.128 39.3698 142.518 39.7448 141.836 40.0469C141.154 40.3438 140.448 40.5521 139.719 40.6719L139.219 39.6719C140.062 39.5573 140.872 39.3073 141.648 38.9219C142.424 38.5312 143.055 38.0521 143.539 37.4844C144.023 36.9115 144.266 36.3073 144.266 35.6719V34.875H145.531V35.6719ZM151.219 43.2344H145.469V48.2656H144.266V43.2344H138.562V42.2031H151.219V43.2344ZM162.93 38H165.024V39.0156H162.93V42.7188H161.711V34.375H162.93V38ZM159.149 35.4062C159.149 36.5677 158.886 37.6302 158.36 38.5938C157.834 39.5573 157.081 40.3906 156.102 41.0938C155.123 41.7917 153.956 42.3385 152.602 42.7344L152.086 41.7344C153.201 41.4115 154.175 40.9896 155.008 40.4688C155.841 39.9427 156.498 39.3359 156.977 38.6484C157.461 37.9609 157.745 37.2188 157.828 36.4219H152.696V35.4062H159.149ZM158.539 42.875C159.466 42.875 160.271 42.9844 160.953 43.2031C161.641 43.4167 162.167 43.724 162.532 44.125C162.901 44.526 163.086 45 163.086 45.5469C163.086 46.1042 162.901 46.5859 162.532 46.9922C162.167 47.3932 161.641 47.7005 160.953 47.9141C160.271 48.1276 159.466 48.2344 158.539 48.2344C157.618 48.2344 156.813 48.1276 156.125 47.9141C155.443 47.7005 154.914 47.3932 154.539 46.9922C154.17 46.5859 153.987 46.1042 153.993 45.5469C153.987 45 154.17 44.526 154.539 44.125C154.914 43.724 155.446 43.4167 156.133 43.2031C156.821 42.9844 157.623 42.875 158.539 42.875ZM158.539 43.8594C157.868 43.8542 157.279 43.9193 156.774 44.0547C156.274 44.1901 155.886 44.388 155.61 44.6484C155.339 44.9036 155.206 45.2031 155.211 45.5469C155.206 45.8906 155.339 46.1927 155.61 46.4531C155.881 46.7083 156.269 46.9036 156.774 47.0391C157.279 47.1797 157.868 47.25 158.539 47.25C159.216 47.25 159.808 47.1797 160.313 47.0391C160.818 46.9036 161.209 46.7083 161.485 46.4531C161.761 46.1927 161.899 45.8906 161.899 45.5469C161.899 45.2031 161.761 44.9036 161.485 44.6484C161.209 44.388 160.818 44.1901 160.313 44.0547C159.808 43.9193 159.216 43.8542 158.539 43.8594ZM169.719 37.1406C169.719 37.651 169.834 38.1536 170.063 38.6484C170.298 39.1432 170.631 39.5885 171.063 39.9844C171.495 40.3802 172.001 40.6875 172.579 40.9062L171.938 41.8438C171.282 41.5885 170.714 41.2266 170.235 40.7578C169.761 40.2891 169.396 39.75 169.141 39.1406C168.876 39.8281 168.495 40.4453 168.001 40.9922C167.506 41.5339 166.928 41.9479 166.266 42.2344L165.594 41.2812C166.188 41.0208 166.706 40.6667 167.149 40.2188C167.597 39.7656 167.941 39.2708 168.18 38.7344C168.425 38.1927 168.548 37.6615 168.548 37.1406V35.25H169.719V37.1406ZM177.376 42.9688H176.204V39.1406H174.36V42.5312H173.204V34.6562H174.36V38.125H176.204V34.3906H177.376V42.9688ZM172.782 43.2812C173.74 43.2812 174.568 43.3802 175.266 43.5781C175.969 43.7708 176.508 44.0547 176.883 44.4297C177.264 44.7995 177.454 45.2448 177.454 45.7656C177.454 46.2812 177.264 46.724 176.883 47.0938C176.508 47.4635 175.969 47.7448 175.266 47.9375C174.568 48.1354 173.74 48.2344 172.782 48.2344C171.824 48.2344 170.993 48.1354 170.29 47.9375C169.587 47.7448 169.048 47.4635 168.673 47.0938C168.303 46.724 168.12 46.2812 168.126 45.7656C168.12 45.2448 168.303 44.7995 168.673 44.4297C169.048 44.0547 169.584 43.7708 170.282 43.5781C170.985 43.3802 171.818 43.2812 172.782 43.2812ZM172.782 44.2188C172.079 44.2188 171.467 44.2812 170.946 44.4062C170.425 44.526 170.027 44.7031 169.751 44.9375C169.475 45.1719 169.339 45.4479 169.344 45.7656C169.339 46.0781 169.475 46.349 169.751 46.5781C170.027 46.8073 170.423 46.9818 170.938 47.1016C171.459 47.2214 172.074 47.2812 172.782 47.2812C173.485 47.2812 174.094 47.2214 174.61 47.1016C175.126 46.9818 175.524 46.8073 175.805 46.5781C176.087 46.349 176.23 46.0781 176.235 45.7656C176.23 45.4479 176.087 45.1719 175.805 44.9375C175.524 44.7031 175.123 44.526 174.602 44.4062C174.087 44.2812 173.48 44.2188 172.782 44.2188Z" fill="#999999"/>
<circle cx="130.5" cy="41.5" r="2.5" fill="#CCCCCC"/>
<circle cx="50.5" cy="41.5" r="21" fill="white" stroke="#E6E6E6"/>
<g clip-path="url(#clip0_1_2)">
<path d="M40 41.1704V40.1167H45.2975V41.1704H40ZM40.0518 38.6469C40.3721 38.4885 40.6596 38.3134 40.9131 38.12C41.1666 37.9267 41.3901 37.7179 41.5823 37.4951C41.7704 37.2751 41.9148 37.0411 42.0184 36.7903C42.1206 36.5395 42.1779 36.276 42.1915 36H43.3895C43.3813 36.185 43.3622 36.3615 43.3322 36.5339C43.3023 36.7048 43.26 36.8701 43.2041 37.0285C43.3963 37.142 43.5817 37.2583 43.7616 37.3746C43.9415 37.4909 44.1091 37.61 44.2672 37.7333C44.4212 37.865 44.5806 38.0079 44.7469 38.1621C44.9132 38.3162 45.0849 38.4843 45.2594 38.6693L44.503 39.552C44.353 39.3811 44.2004 39.2186 44.0423 39.0644C43.8842 38.9103 43.722 38.7632 43.5558 38.623C43.4018 38.5138 43.2518 38.4073 43.1046 38.3064C42.9575 38.2055 42.8089 38.1116 42.659 38.0233L42.5827 38.1228C42.4586 38.277 42.3264 38.4227 42.1861 38.5614C42.0457 38.7001 41.8958 38.8276 41.7377 38.9467C41.5714 39.0742 41.401 39.1891 41.228 39.2928C41.0549 39.3965 40.8791 39.489 40.6992 39.5731L40.0518 38.6469Z" fill="#0059FF"/>
<path d="M46.9273 36.2859V40.0159H47.8541C47.9399 40.0159 48.0244 40.0145 48.1103 40.0103C48.1961 40.006 48.2806 39.9976 48.3665 39.985C48.4524 39.9808 48.53 39.9724 48.6009 39.9598C48.6718 39.9472 48.7386 39.9304 48.7985 39.9094V40.837C48.7413 40.8706 48.6772 40.8958 48.6064 40.9154C48.5355 40.9336 48.4564 40.9477 48.3719 40.9561C48.2779 40.9687 48.1866 40.9771 48.098 40.9813C48.0081 40.9855 47.9195 40.9869 47.8295 40.9869H45.7988V36.2859H46.9273ZM51.0296 37.8776V38.9622C51.005 38.9622 50.9791 38.9622 50.9505 38.965C50.9219 38.9678 50.8919 38.9706 50.8592 38.9748C50.8265 38.9748 50.7938 38.9776 50.7611 38.9804C50.7284 38.9846 50.6943 38.986 50.6575 38.986C50.588 38.9986 50.5226 39.0112 50.4599 39.0238C50.3972 39.0364 50.3372 39.049 50.28 39.0616V41.2489H49.1515V36.2046H50.28V37.9911C50.3372 37.9743 50.3972 37.9589 50.4599 37.9435C50.5226 37.9295 50.5907 37.9155 50.6643 37.9028C50.7011 37.9028 50.7365 37.9014 50.7706 37.8972C50.8047 37.893 50.836 37.8916 50.8647 37.8916C50.8974 37.8874 50.926 37.8846 50.9532 37.8818C50.9791 37.8804 51.005 37.879 51.0296 37.879V37.8776Z" fill="#333333"/>
<path d="M53.179 36.2074C53.2826 36.2298 53.3834 36.2634 53.4802 36.3041C53.5701 36.3545 53.6533 36.4148 53.7296 36.4862C53.8073 36.5577 53.8795 36.6404 53.949 36.737C54.0103 36.8379 54.0676 36.9514 54.1194 37.0789C54.1725 37.2064 54.2175 37.3452 54.2529 37.4951C54.2856 37.6534 54.3115 37.8272 54.3293 38.0149C54.347 38.2027 54.3565 38.4059 54.3565 38.6231C54.3565 38.8403 54.347 39.056 54.3293 39.2466C54.3115 39.4372 54.2856 39.6067 54.2529 39.758C54.2161 39.9164 54.1712 40.0593 54.1194 40.184C54.0662 40.3087 54.009 40.4208 53.949 40.5161C53.8795 40.617 53.8073 40.7024 53.7296 40.7725C53.6519 40.844 53.5688 40.9 53.4802 40.9421C53.3834 40.9883 53.2826 41.0219 53.179 41.0429C53.0754 41.064 52.9664 41.0738 52.8533 41.0738C52.732 41.0738 52.6188 41.064 52.5153 41.0429C52.4117 41.0219 52.3149 40.9883 52.2263 40.9421C52.1282 40.9 52.041 40.844 51.9606 40.7725C51.8815 40.701 51.8107 40.6156 51.7507 40.5161C51.6812 40.4194 51.6226 40.3087 51.5735 40.184C51.5244 40.0593 51.4836 39.9164 51.4522 39.758C51.4154 39.6081 51.3895 39.4372 51.3732 39.2466C51.3568 39.056 51.3486 38.8487 51.3486 38.6231C51.3486 38.3975 51.3568 38.2027 51.3732 38.0149C51.3895 37.8272 51.4154 37.6534 51.4522 37.4951C51.4849 37.3452 51.5258 37.2064 51.5735 37.0789C51.6226 36.9514 51.6812 36.8379 51.7507 36.737C51.812 36.6404 51.8815 36.5577 51.9606 36.4862C52.0396 36.4148 52.1282 36.3545 52.2263 36.3041C52.3163 36.262 52.4117 36.2298 52.5153 36.2074C52.6188 36.185 52.732 36.1724 52.8533 36.1724C52.9664 36.1724 53.0754 36.1836 53.179 36.2074ZM52.7579 37.2233C52.7279 37.2331 52.7006 37.2457 52.6761 37.2583C52.6434 37.2793 52.6147 37.3059 52.5902 37.3368C52.5657 37.3676 52.5439 37.4082 52.5234 37.4587C52.4989 37.5091 52.4798 37.5708 52.4662 37.6436C52.4526 37.7165 52.4389 37.7978 52.4267 37.8846C52.4103 37.9813 52.3994 38.0906 52.3926 38.2139C52.3871 38.3372 52.3831 38.4745 52.3831 38.6245C52.3831 38.7828 52.3858 38.9243 52.3926 39.0476C52.3981 39.1709 52.4103 39.276 52.4267 39.3643C52.4389 39.461 52.4526 39.5437 52.4662 39.6151C52.4798 39.6866 52.5003 39.7468 52.5234 39.7973C52.5439 39.8477 52.5657 39.8898 52.5902 39.922C52.6147 39.9556 52.6434 39.978 52.6761 39.9906C52.7006 40.0117 52.7279 40.0257 52.7579 40.0313C52.7878 40.0369 52.8192 40.0411 52.8519 40.0411C52.8764 40.0411 52.9023 40.0383 52.9309 40.0313C52.9596 40.0257 52.9895 40.0117 53.0223 39.9906C53.0468 39.978 53.0727 39.9556 53.0986 39.922C53.1245 39.8883 53.1504 39.8463 53.1749 39.7973C53.1912 39.7468 53.209 39.6866 53.2267 39.6151C53.2444 39.5437 53.2621 39.461 53.2785 39.3643C53.2907 39.276 53.3003 39.1709 53.3085 39.0476C53.3166 38.9243 53.3207 38.7828 53.3207 38.6245C53.3207 38.4745 53.3166 38.3372 53.3085 38.2139C53.3003 38.0906 53.2907 37.9813 53.2785 37.8846C53.2621 37.7964 53.2444 37.7165 53.2267 37.6436C53.209 37.5708 53.1912 37.5091 53.1749 37.4587C53.1504 37.4082 53.1245 37.3676 53.0986 37.3368C53.0727 37.3059 53.0468 37.2793 53.0223 37.2583C52.9895 37.2457 52.9596 37.2345 52.9309 37.2233C52.9023 37.2135 52.8764 37.2079 52.8519 37.2079C52.8192 37.2079 52.7878 37.2135 52.7579 37.2233ZM54.8213 41.2503V36.2046H55.9497V41.2503H54.8213Z" fill="#333333"/>
<path d="M56.8941 37.1952H56.6201V36.255H59.553V37.1952H59.2123V40.0411H59.553V40.9813H56.6201V40.0411H56.8941V37.1952ZM58.2351 40.0411V37.1952H57.8699V40.0411H58.2351ZM60.2168 38.9944C60.1841 39.007 60.1473 39.0154 60.1036 39.0196C60.0614 39.0238 60.0137 39.0252 59.9605 39.0252C59.8992 39.0294 59.8392 39.0308 59.7806 39.0308H59.5149V38.0276H60.2154V36.2046H61.2825V41.2573H60.2154V38.9944H60.2168Z" fill="#333333"/>
<path d="M40.3719 43.0437H40.1279V42.1539H42.6901V43.0437H42.4407V44.2221H42.6901V45.1104H40.1279V44.2221H40.3719V43.0437ZM44.3174 47.4434V46.5607H40.5054V45.507H45.4377V47.4434H44.3174ZM41.5699 44.2221V43.0437H41.2428V44.2221H41.5699ZM44.4455 44.1366C44.3897 44.1492 44.3324 44.159 44.2725 44.166C44.2125 44.173 44.1512 44.1758 44.0871 44.1758V45.2758H43.0936V42.1343H44.0871V43.1417H44.4455V42.1343H45.4391V45.2758H44.4455V44.1366Z" fill="#0059FF"/>
<path d="M49.585 44.9058C49.6981 44.9058 49.8085 44.9058 49.9148 44.903C50.0211 44.9016 50.122 44.896 50.2201 44.8876C50.31 44.8876 50.3959 44.882 50.479 44.8722C50.5622 44.8624 50.6412 44.8498 50.7135 44.8372V45.734C50.6562 45.755 50.5908 45.7732 50.5158 45.7872C50.4409 45.8012 50.3564 45.811 50.2623 45.8152C50.1642 45.8278 50.062 45.8362 49.9543 45.8404C49.8467 45.8447 49.7363 45.8461 49.6218 45.8461H48.9567V46.4233H50.9261V47.3636H45.8848V46.4233H47.8541V45.8461H46.1832V42.3921H50.6208V43.3323H47.219V43.6462H50.5594V44.5864H47.219V44.9058H49.585Z" fill="#333333"/>
<path d="M51.4809 44.2977H53.194V43.4136H51.5108V42.4425H54.2298V45.2379H52.5166V46.1964H54.4001V47.1674H51.4795V44.2963L51.4809 44.2977ZM54.8335 47.4378V42.3921H55.962V47.4378H54.8335Z" fill="#333333"/>
<path d="M58.8199 43.4851V43.0283C57.919 43.132 57.1981 43.8592 57.0781 44.7798H57.5238C57.6369 44.1086 58.1616 43.5818 58.8199 43.4851Z" fill="#0059FF"/>
<path d="M60.5559 44.7813H61.0015C60.8816 43.8607 60.1606 43.1335 59.2598 43.0298V43.4866C59.918 43.5847 60.4427 44.1115 60.5559 44.7813Z" fill="#0059FF"/>
<path d="M57.5103 45.2339H57.0674C57.1505 46.1965 57.8878 46.9686 58.8187 47.0751V46.6183C58.1318 46.516 57.5894 45.9457 57.5103 45.2339Z" fill="#0059FF"/>
<path d="M59.2598 46.6183V47.0751C60.1906 46.9686 60.9279 46.1965 61.0111 45.2339H60.5681C60.4891 45.9471 59.9467 46.5174 59.2598 46.6183Z" fill="#0059FF"/>
<path d="M59.0406 44.1509C58.5554 44.1509 58.1602 44.5572 58.1602 45.0561C58.1602 45.5549 58.5554 45.9612 59.0406 45.9612C59.5258 45.9612 59.921 45.5549 59.921 45.0561C59.921 44.5572 59.5258 44.1509 59.0406 44.1509ZM59.0406 45.5072C58.798 45.5072 58.6017 45.3041 58.6017 45.0561C58.6017 44.808 58.7993 44.6049 59.0406 44.6049C59.2818 44.6049 59.4794 44.808 59.4794 45.0561C59.4794 45.3041 59.2818 45.5072 59.0406 45.5072Z" fill="#0059FF"/>
<path d="M59.2599 43.0298V42.7734C59.2599 42.6487 59.1618 42.5464 59.0391 42.5464C58.9165 42.5464 58.8184 42.6473 58.8184 42.7734V43.0298C58.8906 43.0214 58.9642 43.0172 59.0391 43.0172C59.1141 43.0172 59.1877 43.0214 59.2599 43.0298Z" fill="#0059FF"/>
<path d="M59.0411 43.4697C59.1161 43.4697 59.1897 43.4753 59.2619 43.4865V43.0297C59.1897 43.0213 59.1161 43.0171 59.0411 43.0171C58.9661 43.0171 58.8925 43.0213 58.8203 43.0297V43.4865C58.8925 43.4753 58.9661 43.4697 59.0411 43.4697Z" fill="#0059FF"/>
<path d="M58.8203 47.0752V47.3386C58.8203 47.4633 58.9184 47.5656 59.0411 47.5656C59.1638 47.5656 59.2619 47.4647 59.2619 47.3386V47.0752C59.1897 47.0836 59.1161 47.0878 59.0411 47.0878C58.9661 47.0878 58.8925 47.0836 58.8203 47.0752Z" fill="#0059FF"/>
<path d="M59.0411 46.635C58.9661 46.635 58.8925 46.6294 58.8203 46.6182V47.075C58.8925 47.0834 58.9661 47.0876 59.0411 47.0876C59.1161 47.0876 59.1897 47.0834 59.2619 47.075V46.6182C59.1897 46.6294 59.1161 46.635 59.0411 46.635Z" fill="#0059FF"/>
<path d="M61.2864 44.7812H61.0029C61.0138 44.8695 61.0206 44.9605 61.0206 45.053C61.0206 45.1147 61.0179 45.1749 61.0125 45.2338H61.2864C61.4077 45.2338 61.5072 45.1329 61.5072 45.0068C61.5072 44.8807 61.4091 44.7798 61.2864 44.7798V44.7812Z" fill="#0059FF"/>
<path d="M61.0023 44.7812H60.5566C60.5716 44.8695 60.5798 44.9606 60.5798 45.0531C60.5798 45.1147 60.5757 45.175 60.5689 45.2338H61.0118C61.0173 45.1736 61.02 45.1133 61.02 45.0531C61.02 44.9606 61.0132 44.8709 61.0023 44.7812Z" fill="#0059FF"/>
<path d="M57.0782 44.7812H56.8233C56.702 44.7812 56.6025 44.8821 56.6025 45.0082C56.6025 45.1344 56.7007 45.2352 56.8233 45.2352H57.0686C57.0632 45.175 57.0605 45.1147 57.0605 45.0545C57.0605 44.962 57.0673 44.8723 57.0782 44.7827V44.7812Z" fill="#0059FF"/>
<path d="M57.5008 45.0516C57.5008 44.9591 57.5089 44.8681 57.5239 44.7798H57.0783C57.0674 44.8681 57.0605 44.9591 57.0605 45.0516C57.0605 45.1133 57.0633 45.1735 57.0687 45.2324H57.5117C57.5048 45.1721 57.5008 45.1119 57.5008 45.0516Z" fill="#0059FF"/>
<path d="M59.1235 45.7343C59.4878 45.7343 59.7831 45.4307 59.7831 45.0561C59.7831 44.6816 59.4878 44.3779 59.1235 44.3779C58.7592 44.3779 58.4639 44.6816 58.4639 45.0561C58.4639 45.4307 58.7592 45.7343 59.1235 45.7343Z" fill="#0059FF"/>
</g>
<path d="M661.286 187.117C660.728 187.117 660.228 187.023 659.786 186.836C659.349 186.648 659.001 186.385 658.743 186.045C658.49 185.705 658.353 185.312 658.333 184.867H659.4C659.419 185.129 659.513 185.359 659.681 185.559C659.853 185.758 660.077 185.912 660.355 186.021C660.632 186.127 660.939 186.18 661.275 186.18C661.642 186.18 661.972 186.117 662.265 185.992C662.562 185.863 662.792 185.688 662.956 185.465C663.124 185.238 663.208 184.98 663.208 184.691C663.208 184.379 663.126 184.104 662.962 183.865C662.802 183.627 662.568 183.441 662.259 183.309C661.95 183.176 661.579 183.109 661.146 183.109H660.454V182.184H661.146C661.486 182.184 661.788 182.123 662.054 182.002C662.32 181.881 662.525 181.711 662.669 181.492C662.818 181.273 662.892 181.02 662.892 180.73C662.892 180.453 662.825 180.207 662.693 179.992C662.564 179.777 662.38 179.611 662.142 179.494C661.904 179.373 661.626 179.312 661.31 179.312C661.005 179.312 660.72 179.367 660.454 179.477C660.189 179.586 659.972 179.742 659.804 179.945C659.636 180.145 659.544 180.379 659.529 180.648H658.509C658.529 180.211 658.665 179.822 658.919 179.482C659.173 179.139 659.511 178.873 659.933 178.686C660.355 178.494 660.818 178.398 661.322 178.398C661.845 178.398 662.302 178.502 662.693 178.709C663.087 178.912 663.39 179.188 663.601 179.535C663.812 179.883 663.915 180.262 663.911 180.672C663.915 181.148 663.788 181.557 663.531 181.896C663.273 182.236 662.919 182.469 662.47 182.594V182.652C662.833 182.711 663.148 182.834 663.413 183.021C663.683 183.205 663.888 183.441 664.029 183.73C664.173 184.016 664.243 184.336 664.24 184.691C664.243 185.148 664.116 185.562 663.859 185.934C663.601 186.301 663.245 186.59 662.792 186.801C662.343 187.012 661.841 187.117 661.286 187.117ZM668.101 177.918C668.617 177.922 669.078 178.021 669.484 178.217C669.894 178.412 670.214 178.686 670.445 179.037C670.679 179.385 670.796 179.781 670.796 180.227C670.796 180.672 670.679 181.07 670.445 181.422C670.214 181.77 669.894 182.041 669.484 182.236C669.078 182.428 668.617 182.523 668.101 182.523C667.578 182.523 667.111 182.428 666.701 182.236C666.291 182.041 665.97 181.77 665.74 181.422C665.509 181.07 665.394 180.672 665.394 180.227C665.394 179.781 665.509 179.385 665.74 179.037C665.97 178.686 666.291 178.412 666.701 178.217C667.111 178.021 667.578 177.922 668.101 177.918ZM668.101 178.691C667.757 178.691 667.447 178.758 667.169 178.891C666.896 179.02 666.681 179.201 666.525 179.436C666.369 179.666 666.292 179.93 666.296 180.227C666.292 180.527 666.369 180.795 666.525 181.029C666.681 181.264 666.896 181.447 667.169 181.58C667.447 181.709 667.757 181.773 668.101 181.773C668.441 181.773 668.748 181.709 669.021 181.58C669.298 181.447 669.515 181.264 669.671 181.029C669.828 180.795 669.906 180.527 669.906 180.227C669.906 179.93 669.828 179.666 669.671 179.436C669.515 179.201 669.298 179.02 669.021 178.891C668.748 178.758 668.441 178.691 668.101 178.691ZM673.75 182.887H672.835V177.531H673.75V182.887ZM673.75 185.898H667.902V187.07H674.125V187.809H667V185.207H672.835V184.129H666.976V183.391H673.75V185.898ZM686.688 185.184H685.762V181.188H683.617V180.426H685.762V177.543H686.688V185.184ZM686.98 187.727H679.996V184.492H680.922V186.953H686.98V187.727ZM681.672 179.688C681.672 180.133 681.779 180.568 681.994 180.994C682.213 181.416 682.516 181.791 682.902 182.119C683.293 182.447 683.738 182.695 684.238 182.863L683.758 183.602C683.176 183.391 682.664 183.078 682.223 182.664C681.785 182.246 681.453 181.766 681.227 181.223C681 181.824 680.656 182.355 680.195 182.816C679.734 183.273 679.195 183.617 678.578 183.848L678.098 183.098C678.605 182.918 679.061 182.656 679.463 182.312C679.865 181.965 680.18 181.564 680.406 181.111C680.633 180.654 680.746 180.18 680.746 179.688V179.148H678.391V178.387H684.004V179.148H681.672V179.688Z" fill="#999999"/>
<path d="M52.4351 95.6062L40.8681 107.202C40.6782 107.392 40.5274 107.618 40.4246 107.867C40.3217 108.115 40.2687 108.382 40.2686 108.651C40.2685 108.92 40.3213 109.187 40.424 109.436C40.5267 109.685 40.6773 109.911 40.8671 110.101C41.0569 110.292 41.2823 110.443 41.5304 110.546C41.7785 110.649 42.0444 110.702 42.313 110.702C42.5816 110.702 42.8475 110.649 43.0957 110.546C43.3439 110.443 43.5694 110.292 43.7594 110.102L55.3263 98.5066C56.4768 97.3533 57.1231 95.7891 57.1231 94.158C57.1231 92.527 56.4768 90.9628 55.3263 89.8094C54.1758 88.6561 52.6155 88.0082 50.9884 88.0082C49.3614 88.0082 47.8011 88.6561 46.6506 89.8094L35.0836 101.405C33.2066 103.335 32.1637 105.929 32.181 108.625C32.1982 111.32 33.2741 113.901 35.1757 115.807C37.0772 117.713 39.6513 118.791 42.3403 118.808C45.0292 118.825 47.6166 117.779 49.5418 115.897L61.1088 104.303L64 107.202L52.4351 118.797C51.1059 120.13 49.528 121.187 47.7914 121.908C46.0547 122.629 44.1934 123 42.3137 123C40.434 123 38.5727 122.629 36.8361 121.908C35.0995 121.187 33.5216 120.13 32.1924 118.797C30.8632 117.465 29.8089 115.883 29.0896 114.142C28.3702 112.401 28 110.535 28 108.651C28 106.767 28.3702 104.901 29.0896 103.16C29.8089 101.419 30.8632 99.837 32.1924 98.5045L43.7594 86.9111C45.6846 85.0291 48.2719 83.9833 50.9609 84.0002C53.6499 84.0171 56.2239 85.0953 58.1255 87.0013C60.0271 88.9073 61.103 91.4876 61.1202 94.1832C61.1374 96.8788 60.0946 99.4727 58.2175 101.403L46.6506 113.003C45.4998 114.156 43.9393 114.803 42.3123 114.803C40.6853 114.802 39.1251 114.154 37.9749 113.001C36.8247 111.847 36.1787 110.283 36.1791 108.651C36.1795 107.02 36.8262 105.456 37.9769 104.303L49.5418 92.7078L52.4351 95.6062Z" fill="#337AFF"/>
<path d="M85.9688 99.0469C85.9688 100.286 85.7057 101.398 85.1797 102.383C84.6589 103.362 83.8984 104.195 82.8984 104.883C81.8984 105.565 80.6875 106.089 79.2656 106.453L78.5 104.906C80.0729 104.505 81.3125 103.93 82.2188 103.18C83.1302 102.43 83.6667 101.568 83.8281 100.594H79.3281V99.0469H85.9688ZM90.3281 106.172H88.3281V98.2344H90.3281V106.172ZM90.3281 112.266H80.8438V106.75H90.3281V112.266ZM82.8281 110.703H88.375V108.312H82.8281V110.703ZM99.4144 100.094C99.4144 100.802 99.6149 101.495 100.016 102.172C100.422 102.849 101.008 103.438 101.774 103.938C102.545 104.438 103.446 104.776 104.477 104.953L103.602 106.609C102.383 106.37 101.321 105.924 100.414 105.273C99.5133 104.622 98.8284 103.831 98.3597 102.898C97.8805 103.826 97.1878 104.615 96.2816 105.266C95.3805 105.917 94.3258 106.365 93.1175 106.609L92.2581 104.953C93.2738 104.771 94.1618 104.43 94.9222 103.93C95.6826 103.43 96.2659 102.841 96.6722 102.164C97.0784 101.482 97.2842 100.792 97.2894 100.094V99.0625H99.4144V100.094ZM104.946 110.688H91.93V109.047H104.946V110.688ZM117.657 106.938H115.751V103.422H114.719V106.891H112.844V98.3906H114.719V101.797H115.751V98.2344H117.657V106.938ZM117.657 112.438H115.657V109.141H107.61V107.547H117.657V112.438ZM112.141 100.984H111.219V104.617C111.594 104.586 111.954 104.547 112.298 104.5L112.407 105.953C110.777 106.266 108.48 106.422 105.516 106.422L105.313 104.812C105.808 104.812 106.193 104.81 106.469 104.805V100.984H105.579V99.3594H112.141V100.984ZM108.298 104.773C108.548 104.768 108.928 104.755 109.438 104.734V100.984H108.298V104.773ZM125.884 112.766H118.462V111H125.884V112.766ZM133.923 100.781V101C133.913 101.953 133.884 102.82 133.837 103.602C133.79 104.378 133.689 105.255 133.533 106.234L131.564 106.078C131.704 105.161 131.798 104.336 131.845 103.602C131.892 102.867 131.921 102.078 131.931 101.234H126.548V99.6406H133.923V100.781ZM130.376 107.844C131.923 107.781 133.298 107.672 134.501 107.516L134.626 109C133.428 109.203 132.171 109.344 130.853 109.422C129.535 109.495 128.158 109.531 126.72 109.531H125.986L125.798 107.938H126.454C126.777 107.932 127.1 107.927 127.423 107.922C127.751 107.917 128.079 107.911 128.408 107.906V103.719H130.376V107.844ZM137.189 103.938H139.126V105.594H137.189V112.438H135.173V98.2188H137.189V103.938ZM151.728 112.438H149.838V98.2188H151.728V112.438ZM148.822 111.781H146.947V104.703H145.072V103.094H146.947V98.4531H148.822V111.781ZM143.931 102.031C143.931 103.323 144.155 104.497 144.603 105.555C145.056 106.607 145.77 107.411 146.744 107.969L145.572 109.438C144.957 109.073 144.434 108.589 144.002 107.984C143.574 107.38 143.239 106.682 142.994 105.891C142.739 106.755 142.39 107.518 141.947 108.18C141.504 108.841 140.968 109.365 140.338 109.75L139.134 108.281C139.801 107.875 140.348 107.341 140.775 106.68C141.207 106.013 141.52 105.284 141.713 104.492C141.91 103.701 142.009 102.88 142.009 102.031V101.266H139.681V99.6719H146.088V101.266H143.931V102.031ZM165.236 112.438H163.346V98.2188H165.236V112.438ZM162.33 111.781H160.455V104.703H158.58V103.094H160.455V98.4531H162.33V111.781ZM157.439 102.031C157.439 103.323 157.663 104.497 158.111 105.555C158.564 106.607 159.278 107.411 160.252 107.969L159.08 109.438C158.465 109.073 157.942 108.589 157.51 107.984C157.083 107.38 156.747 106.682 156.502 105.891C156.247 106.755 155.898 107.518 155.455 108.18C155.012 108.841 154.476 109.365 153.846 109.75L152.643 108.281C153.309 107.875 153.856 107.341 154.283 106.68C154.715 106.013 155.028 105.284 155.221 104.492C155.419 103.701 155.518 102.88 155.518 102.031V101.266H153.189V99.6719H159.596V101.266H157.439V102.031ZM179.385 105.734H173.916V106.625H177.838V110.094H169.916V110.875H178.213V112.344H167.963V108.75H175.869V108.047H167.948V106.625H171.932V105.734H166.479V104.281H179.385V105.734ZM173.901 99.3281H178.166V100.797H174.143C174.356 101.24 174.854 101.607 175.635 101.898C176.421 102.19 177.5 102.365 178.869 102.422L178.291 103.891C176.984 103.828 175.875 103.638 174.963 103.32C174.057 102.997 173.375 102.565 172.916 102.023C172.463 102.565 171.778 102.997 170.862 103.32C169.95 103.638 168.838 103.828 167.526 103.891L166.979 102.422C168.338 102.365 169.406 102.19 170.182 101.898C170.963 101.607 171.463 101.24 171.682 100.797H167.698V99.3281H171.932V98.2031H173.901V99.3281ZM186.893 112.766H179.471V111H186.893V112.766ZM187.386 109.297L191.448 105.562C191.849 105.177 192.159 104.857 192.378 104.602C192.602 104.346 192.774 104.094 192.893 103.844C193.013 103.589 193.073 103.318 193.073 103.031C193.073 102.703 192.995 102.417 192.839 102.172C192.688 101.927 192.474 101.74 192.198 101.609C191.927 101.474 191.62 101.406 191.276 101.406C190.745 101.406 190.321 101.565 190.003 101.883C189.685 102.195 189.526 102.62 189.526 103.156H187.292C187.287 102.427 187.451 101.789 187.784 101.242C188.123 100.695 188.597 100.273 189.206 99.9766C189.815 99.6797 190.516 99.5312 191.308 99.5312C192.104 99.5312 192.808 99.6745 193.417 99.9609C194.026 100.242 194.498 100.635 194.831 101.141C195.169 101.646 195.339 102.224 195.339 102.875C195.339 103.318 195.253 103.745 195.081 104.156C194.909 104.562 194.61 105.018 194.183 105.523C193.761 106.023 193.162 106.625 192.386 107.328L190.667 109V109.062H195.495V111H187.401L187.386 109.297ZM201.238 111.156C200.295 111.156 199.482 110.93 198.8 110.477C198.123 110.018 197.602 109.354 197.238 108.484C196.873 107.615 196.691 106.568 196.691 105.344C196.691 104.12 196.873 103.073 197.238 102.203C197.602 101.333 198.123 100.672 198.8 100.219C199.482 99.7604 200.295 99.5312 201.238 99.5312C202.175 99.5312 202.985 99.7604 203.667 100.219C204.349 100.672 204.873 101.336 205.238 102.211C205.602 103.081 205.784 104.125 205.784 105.344C205.784 106.573 205.602 107.622 205.238 108.492C204.873 109.362 204.349 110.023 203.667 110.477C202.99 110.93 202.18 111.156 201.238 111.156ZM201.238 109.219C201.675 109.219 202.053 109.078 202.37 108.797C202.693 108.516 202.941 108.091 203.113 107.523C203.29 106.956 203.378 106.255 203.378 105.422C203.378 104.125 203.191 103.141 202.816 102.469C202.441 101.792 201.915 101.453 201.238 101.453C200.56 101.453 200.034 101.792 199.659 102.469C199.284 103.141 199.097 104.125 199.097 105.422C199.097 106.255 199.183 106.956 199.355 107.523C199.532 108.091 199.779 108.516 200.097 108.797C200.42 109.078 200.8 109.219 201.238 109.219ZM207.074 109.297L211.136 105.562C211.537 105.177 211.847 104.857 212.066 104.602C212.29 104.346 212.462 104.094 212.582 103.844C212.701 103.589 212.761 103.318 212.761 103.031C212.761 102.703 212.683 102.417 212.527 102.172C212.376 101.927 212.162 101.74 211.886 101.609C211.615 101.474 211.308 101.406 210.964 101.406C210.433 101.406 210.009 101.565 209.691 101.883C209.373 102.195 209.214 102.62 209.214 103.156H206.98C206.975 102.427 207.139 101.789 207.472 101.242C207.811 100.695 208.285 100.273 208.894 99.9766C209.503 99.6797 210.204 99.5312 210.996 99.5312C211.792 99.5312 212.496 99.6745 213.105 99.9609C213.714 100.242 214.186 100.635 214.519 101.141C214.858 101.646 215.027 102.224 215.027 102.875C215.027 103.318 214.941 103.745 214.769 104.156C214.597 104.562 214.298 105.018 213.871 105.523C213.449 106.023 212.85 106.625 212.074 107.328L210.355 109V109.062H215.183V111H207.089L207.074 109.297ZM216.519 109.297L220.582 105.562C220.983 105.177 221.293 104.857 221.512 104.602C221.736 104.346 221.907 104.094 222.027 103.844C222.147 103.589 222.207 103.318 222.207 103.031C222.207 102.703 222.129 102.417 221.973 102.172C221.821 101.927 221.608 101.74 221.332 101.609C221.061 101.474 220.754 101.406 220.41 101.406C219.879 101.406 219.454 101.565 219.137 101.883C218.819 102.195 218.66 102.62 218.66 103.156H216.426C216.42 102.427 216.584 101.789 216.918 101.242C217.256 100.695 217.73 100.273 218.34 99.9766C218.949 99.6797 219.65 99.5312 220.441 99.5312C221.238 99.5312 221.941 99.6745 222.551 99.9609C223.16 100.242 223.631 100.635 223.965 101.141C224.303 101.646 224.473 102.224 224.473 102.875C224.473 103.318 224.387 103.745 224.215 104.156C224.043 104.562 223.743 105.018 223.316 105.523C222.894 106.023 222.295 106.625 221.519 107.328L219.801 109V109.062H224.629V111H216.535L216.519 109.297ZM230.856 111H228.496V101.922H228.434L225.84 103.547V101.469L228.637 99.6875H230.856V111ZM233.145 109.297L237.208 105.562C237.609 105.177 237.918 104.857 238.137 104.602C238.361 104.346 238.533 104.094 238.653 103.844C238.773 103.589 238.833 103.318 238.833 103.031C238.833 102.703 238.754 102.417 238.598 102.172C238.447 101.927 238.234 101.74 237.958 101.609C237.687 101.474 237.379 101.406 237.036 101.406C236.504 101.406 236.08 101.565 235.762 101.883C235.444 102.195 235.286 102.62 235.286 103.156H233.051C233.046 102.427 233.21 101.789 233.543 101.242C233.882 100.695 234.356 100.273 234.965 99.9766C235.575 99.6797 236.275 99.5312 237.067 99.5312C237.864 99.5312 238.567 99.6745 239.176 99.9609C239.786 100.242 240.257 100.635 240.59 101.141C240.929 101.646 241.098 102.224 241.098 102.875C241.098 103.318 241.012 103.745 240.84 104.156C240.668 104.562 240.369 105.018 239.942 105.523C239.52 106.023 238.921 106.625 238.145 107.328L236.426 109V109.062H241.254V111H233.161L233.145 109.297ZM246.794 111.156C245.976 111.156 245.242 111.016 244.591 110.734C243.945 110.448 243.434 110.052 243.059 109.547C242.69 109.036 242.497 108.458 242.481 107.812H244.856C244.872 108.089 244.966 108.333 245.137 108.547C245.309 108.76 245.541 108.927 245.833 109.047C246.124 109.161 246.45 109.219 246.809 109.219C247.179 109.219 247.51 109.154 247.802 109.023C248.098 108.888 248.328 108.703 248.489 108.469C248.656 108.234 248.736 107.969 248.731 107.672C248.736 107.365 248.651 107.091 248.473 106.852C248.302 106.612 248.054 106.427 247.731 106.297C247.408 106.161 247.028 106.094 246.591 106.094H245.544V104.359H246.591C246.955 104.359 247.281 104.297 247.567 104.172C247.854 104.047 248.078 103.87 248.239 103.641C248.401 103.411 248.481 103.151 248.481 102.859C248.481 102.573 248.411 102.32 248.27 102.102C248.135 101.883 247.942 101.714 247.692 101.594C247.442 101.469 247.153 101.406 246.825 101.406C246.492 101.406 246.184 101.466 245.903 101.586C245.627 101.701 245.403 101.867 245.231 102.086C245.065 102.299 244.976 102.547 244.966 102.828H242.716C242.726 102.188 242.911 101.617 243.27 101.117C243.63 100.617 244.119 100.229 244.739 99.9531C245.364 99.6719 246.059 99.5312 246.825 99.5312C247.596 99.5312 248.278 99.6719 248.872 99.9531C249.471 100.229 249.934 100.612 250.262 101.102C250.591 101.586 250.752 102.125 250.747 102.719C250.752 103.13 250.664 103.505 250.481 103.844C250.304 104.177 250.052 104.453 249.723 104.672C249.401 104.891 249.028 105.036 248.606 105.109V105.203C249.153 105.271 249.619 105.422 250.005 105.656C250.39 105.891 250.682 106.195 250.88 106.57C251.078 106.94 251.174 107.359 251.169 107.828C251.174 108.464 250.989 109.036 250.614 109.547C250.239 110.052 249.718 110.448 249.052 110.734C248.385 111.016 247.632 111.156 246.794 111.156ZM257.38 111H255.021V101.922H254.958L252.364 103.547V101.469L255.161 99.6875H257.38V111ZM260.451 111.141C260.211 111.141 259.99 111.081 259.787 110.961C259.583 110.841 259.422 110.682 259.302 110.484C259.188 110.281 259.133 110.062 259.138 109.828C259.133 109.594 259.188 109.378 259.302 109.18C259.422 108.982 259.583 108.826 259.787 108.711C259.99 108.591 260.211 108.531 260.451 108.531C260.675 108.531 260.886 108.591 261.083 108.711C261.287 108.826 261.448 108.982 261.568 109.18C261.688 109.378 261.747 109.594 261.747 109.828C261.747 110.062 261.688 110.281 261.568 110.484C261.448 110.682 261.287 110.841 261.083 110.961C260.886 111.081 260.675 111.141 260.451 111.141ZM263.287 102.516H265.568V103.938H265.662C265.855 103.51 266.146 103.148 266.537 102.852C266.928 102.555 267.443 102.406 268.084 102.406C268.724 102.406 269.305 102.573 269.826 102.906C270.347 103.234 270.758 103.727 271.06 104.383C271.368 105.034 271.521 105.828 271.521 106.766C271.521 107.682 271.37 108.471 271.068 109.133C270.771 109.789 270.362 110.289 269.842 110.633C269.326 110.971 268.74 111.141 268.084 111.141C267.454 111.141 266.941 110.997 266.545 110.711C266.154 110.419 265.86 110.062 265.662 109.641H265.599V114.188H263.287V102.516ZM265.553 106.75C265.553 107.26 265.623 107.708 265.763 108.094C265.904 108.474 266.11 108.771 266.381 108.984C266.651 109.193 266.974 109.297 267.349 109.297C267.928 109.297 268.373 109.065 268.685 108.602C269.003 108.138 269.162 107.521 269.162 106.75C269.162 105.99 269.003 105.383 268.685 104.93C268.373 104.477 267.928 104.25 267.349 104.25C266.776 104.25 266.334 104.474 266.021 104.922C265.709 105.365 265.553 105.974 265.553 106.75ZM275.826 111.141C275.17 111.141 274.581 110.971 274.061 110.633C273.54 110.289 273.128 109.789 272.826 109.133C272.524 108.471 272.373 107.682 272.373 106.766C272.373 105.828 272.527 105.034 272.834 104.383C273.141 103.727 273.555 103.234 274.076 102.906C274.602 102.573 275.186 102.406 275.826 102.406C276.467 102.406 276.98 102.555 277.365 102.852C277.751 103.148 278.04 103.51 278.232 103.938H278.311V99.6875H280.623V111H278.342V109.641H278.232C278.035 110.062 277.74 110.419 277.35 110.711C276.959 110.997 276.451 111.141 275.826 111.141ZM276.545 109.297C276.925 109.297 277.251 109.193 277.522 108.984C277.792 108.771 277.998 108.474 278.139 108.094C278.285 107.708 278.357 107.26 278.357 106.75C278.357 105.979 278.199 105.37 277.881 104.922C277.563 104.474 277.118 104.25 276.545 104.25C275.972 104.25 275.529 104.477 275.217 104.93C274.904 105.383 274.748 105.99 274.748 106.75C274.748 107.521 274.904 108.138 275.217 108.602C275.529 109.065 275.972 109.297 276.545 109.297ZM286.678 104.25H284.991V111H282.678V104.25H281.475V102.516H282.678V101.875C282.678 101 282.926 100.328 283.42 99.8594C283.915 99.3906 284.595 99.1562 285.459 99.1562C285.97 99.1562 286.428 99.2031 286.834 99.2969V101.047C286.506 101.016 286.272 101 286.131 101C285.751 101 285.465 101.081 285.272 101.242C285.084 101.404 284.991 101.656 284.991 102V102.516H286.678V104.25Z" fill="#337AFF"/>
<path d="M52.4351 146.606L40.8681 158.202C40.6782 158.392 40.5274 158.618 40.4246 158.867C40.3217 159.115 40.2687 159.382 40.2686 159.651C40.2685 159.92 40.3213 160.187 40.424 160.436C40.5267 160.685 40.6773 160.911 40.8671 161.101C41.0569 161.292 41.2823 161.443 41.5304 161.546C41.7785 161.649 42.0444 161.702 42.313 161.702C42.5816 161.702 42.8475 161.649 43.0957 161.546C43.3439 161.443 43.5694 161.292 43.7594 161.102L55.3263 149.507C56.4768 148.353 57.1231 146.789 57.1231 145.158C57.1231 143.527 56.4768 141.963 55.3263 140.809C54.1758 139.656 52.6155 139.008 50.9884 139.008C49.3614 139.008 47.8011 139.656 46.6506 140.809L35.0836 152.405C33.2066 154.335 32.1637 156.929 32.181 159.625C32.1982 162.32 33.2741 164.901 35.1757 166.807C37.0772 168.713 39.6513 169.791 42.3403 169.808C45.0292 169.825 47.6166 168.779 49.5418 166.897L61.1088 155.303L64 158.202L52.4351 169.797C51.1059 171.13 49.528 172.187 47.7914 172.908C46.0547 173.629 44.1934 174 42.3137 174C40.434 174 38.5727 173.629 36.8361 172.908C35.0995 172.187 33.5216 171.13 32.1924 169.797C30.8632 168.465 29.8089 166.883 29.0896 165.142C28.3702 163.401 28 161.535 28 159.651C28 157.767 28.3702 155.901 29.0896 154.16C29.8089 152.419 30.8632 150.837 32.1924 149.505L43.7594 137.911C45.6846 136.029 48.2719 134.983 50.9609 135C53.6499 135.017 56.2239 136.095 58.1255 138.001C60.0271 139.907 61.103 142.488 61.1202 145.183C61.1374 147.879 60.0946 150.473 58.2175 152.403L46.6506 164.003C45.4998 165.156 43.9393 165.803 42.3123 165.803C40.6853 165.802 39.1251 165.154 37.9749 164.001C36.8247 162.847 36.1787 161.283 36.1791 159.651C36.1795 158.02 36.8262 156.456 37.9769 155.303L49.5418 143.708L52.4351 146.606Z" fill="#337AFF"/>
<path d="M85.9688 148.047C85.9688 149.286 85.7057 150.398 85.1797 151.383C84.6589 152.362 83.8984 153.195 82.8984 153.883C81.8984 154.565 80.6875 155.089 79.2656 155.453L78.5 153.906C80.0729 153.505 81.3125 152.93 82.2188 152.18C83.1302 151.43 83.6667 150.568 83.8281 149.594H79.3281V148.047H85.9688ZM90.3281 155.172H88.3281V147.234H90.3281V155.172ZM90.3281 161.266H80.8438V155.75H90.3281V161.266ZM82.8281 159.703H88.375V157.312H82.8281V159.703ZM99.4144 149.094C99.4144 149.802 99.6149 150.495 100.016 151.172C100.422 151.849 101.008 152.438 101.774 152.938C102.545 153.438 103.446 153.776 104.477 153.953L103.602 155.609C102.383 155.37 101.321 154.924 100.414 154.273C99.5133 153.622 98.8284 152.831 98.3597 151.898C97.8805 152.826 97.1878 153.615 96.2816 154.266C95.3805 154.917 94.3258 155.365 93.1175 155.609L92.2581 153.953C93.2738 153.771 94.1618 153.43 94.9222 152.93C95.6826 152.43 96.2659 151.841 96.6722 151.164C97.0784 150.482 97.2842 149.792 97.2894 149.094V148.062H99.4144V149.094ZM104.946 159.688H91.93V158.047H104.946V159.688ZM117.657 155.938H115.751V152.422H114.719V155.891H112.844V147.391H114.719V150.797H115.751V147.234H117.657V155.938ZM117.657 161.438H115.657V158.141H107.61V156.547H117.657V161.438ZM112.141 149.984H111.219V153.617C111.594 153.586 111.954 153.547 112.298 153.5L112.407 154.953C110.777 155.266 108.48 155.422 105.516 155.422L105.313 153.812C105.808 153.812 106.193 153.81 106.469 153.805V149.984H105.579V148.359H112.141V149.984ZM108.298 153.773C108.548 153.768 108.928 153.755 109.438 153.734V149.984H108.298V153.773ZM125.884 161.766H118.462V160H125.884V161.766ZM133.923 149.781V150C133.913 150.953 133.884 151.82 133.837 152.602C133.79 153.378 133.689 154.255 133.533 155.234L131.564 155.078C131.704 154.161 131.798 153.336 131.845 152.602C131.892 151.867 131.921 151.078 131.931 150.234H126.548V148.641H133.923V149.781ZM130.376 156.844C131.923 156.781 133.298 156.672 134.501 156.516L134.626 158C133.428 158.203 132.171 158.344 130.853 158.422C129.535 158.495 128.158 158.531 126.72 158.531H125.986L125.798 156.938H126.454C126.777 156.932 127.1 156.927 127.423 156.922C127.751 156.917 128.079 156.911 128.408 156.906V152.719H130.376V156.844ZM137.189 152.938H139.126V154.594H137.189V161.438H135.173V147.219H137.189V152.938ZM151.728 161.438H149.838V147.219H151.728V161.438ZM148.822 160.781H146.947V153.703H145.072V152.094H146.947V147.453H148.822V160.781ZM143.931 151.031C143.931 152.323 144.155 153.497 144.603 154.555C145.056 155.607 145.77 156.411 146.744 156.969L145.572 158.438C144.957 158.073 144.434 157.589 144.002 156.984C143.574 156.38 143.239 155.682 142.994 154.891C142.739 155.755 142.39 156.518 141.947 157.18C141.504 157.841 140.968 158.365 140.338 158.75L139.134 157.281C139.801 156.875 140.348 156.341 140.775 155.68C141.207 155.013 141.52 154.284 141.713 153.492C141.91 152.701 142.009 151.88 142.009 151.031V150.266H139.681V148.672H146.088V150.266H143.931V151.031ZM165.236 161.438H163.346V147.219H165.236V161.438ZM162.33 160.781H160.455V153.703H158.58V152.094H160.455V147.453H162.33V160.781ZM157.439 151.031C157.439 152.323 157.663 153.497 158.111 154.555C158.564 155.607 159.278 156.411 160.252 156.969L159.08 158.438C158.465 158.073 157.942 157.589 157.51 156.984C157.083 156.38 156.747 155.682 156.502 154.891C156.247 155.755 155.898 156.518 155.455 157.18C155.012 157.841 154.476 158.365 153.846 158.75L152.643 157.281C153.309 156.875 153.856 156.341 154.283 155.68C154.715 155.013 155.028 154.284 155.221 153.492C155.419 152.701 155.518 151.88 155.518 151.031V150.266H153.189V148.672H159.596V150.266H157.439V151.031ZM179.385 154.734H173.916V155.625H177.838V159.094H169.916V159.875H178.213V161.344H167.963V157.75H175.869V157.047H167.948V155.625H171.932V154.734H166.479V153.281H179.385V154.734ZM173.901 148.328H178.166V149.797H174.143C174.356 150.24 174.854 150.607 175.635 150.898C176.421 151.19 177.5 151.365 178.869 151.422L178.291 152.891C176.984 152.828 175.875 152.638 174.963 152.32C174.057 151.997 173.375 151.565 172.916 151.023C172.463 151.565 171.778 151.997 170.862 152.32C169.95 152.638 168.838 152.828 167.526 152.891L166.979 151.422C168.338 151.365 169.406 151.19 170.182 150.898C170.963 150.607 171.463 150.24 171.682 149.797H167.698V148.328H171.932V147.203H173.901V148.328ZM186.893 161.766H179.471V160H186.893V161.766ZM187.386 158.297L191.448 154.562C191.849 154.177 192.159 153.857 192.378 153.602C192.602 153.346 192.774 153.094 192.893 152.844C193.013 152.589 193.073 152.318 193.073 152.031C193.073 151.703 192.995 151.417 192.839 151.172C192.688 150.927 192.474 150.74 192.198 150.609C191.927 150.474 191.62 150.406 191.276 150.406C190.745 150.406 190.321 150.565 190.003 150.883C189.685 151.195 189.526 151.62 189.526 152.156H187.292C187.287 151.427 187.451 150.789 187.784 150.242C188.123 149.695 188.597 149.273 189.206 148.977C189.815 148.68 190.516 148.531 191.308 148.531C192.104 148.531 192.808 148.674 193.417 148.961C194.026 149.242 194.498 149.635 194.831 150.141C195.169 150.646 195.339 151.224 195.339 151.875C195.339 152.318 195.253 152.745 195.081 153.156C194.909 153.562 194.61 154.018 194.183 154.523C193.761 155.023 193.162 155.625 192.386 156.328L190.667 158V158.062H195.495V160H187.401L187.386 158.297ZM201.238 160.156C200.295 160.156 199.482 159.93 198.8 159.477C198.123 159.018 197.602 158.354 197.238 157.484C196.873 156.615 196.691 155.568 196.691 154.344C196.691 153.12 196.873 152.073 197.238 151.203C197.602 150.333 198.123 149.672 198.8 149.219C199.482 148.76 200.295 148.531 201.238 148.531C202.175 148.531 202.985 148.76 203.667 149.219C204.349 149.672 204.873 150.336 205.238 151.211C205.602 152.081 205.784 153.125 205.784 154.344C205.784 155.573 205.602 156.622 205.238 157.492C204.873 158.362 204.349 159.023 203.667 159.477C202.99 159.93 202.18 160.156 201.238 160.156ZM201.238 158.219C201.675 158.219 202.053 158.078 202.37 157.797C202.693 157.516 202.941 157.091 203.113 156.523C203.29 155.956 203.378 155.255 203.378 154.422C203.378 153.125 203.191 152.141 202.816 151.469C202.441 150.792 201.915 150.453 201.238 150.453C200.56 150.453 200.034 150.792 199.659 151.469C199.284 152.141 199.097 153.125 199.097 154.422C199.097 155.255 199.183 155.956 199.355 156.523C199.532 157.091 199.779 157.516 200.097 157.797C200.42 158.078 200.8 158.219 201.238 158.219ZM207.074 158.297L211.136 154.562C211.537 154.177 211.847 153.857 212.066 153.602C212.29 153.346 212.462 153.094 212.582 152.844C212.701 152.589 212.761 152.318 212.761 152.031C212.761 151.703 212.683 151.417 212.527 151.172C212.376 150.927 212.162 150.74 211.886 150.609C211.615 150.474 211.308 150.406 210.964 150.406C210.433 150.406 210.009 150.565 209.691 150.883C209.373 151.195 209.214 151.62 209.214 152.156H206.98C206.975 151.427 207.139 150.789 207.472 150.242C207.811 149.695 208.285 149.273 208.894 148.977C209.503 148.68 210.204 148.531 210.996 148.531C211.792 148.531 212.496 148.674 213.105 148.961C213.714 149.242 214.186 149.635 214.519 150.141C214.858 150.646 215.027 151.224 215.027 151.875C215.027 152.318 214.941 152.745 214.769 153.156C214.597 153.562 214.298 154.018 213.871 154.523C213.449 155.023 212.85 155.625 212.074 156.328L210.355 158V158.062H215.183V160H207.089L207.074 158.297ZM216.519 158.297L220.582 154.562C220.983 154.177 221.293 153.857 221.512 153.602C221.736 153.346 221.907 153.094 222.027 152.844C222.147 152.589 222.207 152.318 222.207 152.031C222.207 151.703 222.129 151.417 221.973 151.172C221.821 150.927 221.608 150.74 221.332 150.609C221.061 150.474 220.754 150.406 220.41 150.406C219.879 150.406 219.454 150.565 219.137 150.883C218.819 151.195 218.66 151.62 218.66 152.156H216.426C216.42 151.427 216.584 150.789 216.918 150.242C217.256 149.695 217.73 149.273 218.34 148.977C218.949 148.68 219.65 148.531 220.441 148.531C221.238 148.531 221.941 148.674 222.551 148.961C223.16 149.242 223.631 149.635 223.965 150.141C224.303 150.646 224.473 151.224 224.473 151.875C224.473 152.318 224.387 152.745 224.215 153.156C224.043 153.562 223.743 154.018 223.316 154.523C222.894 155.023 222.295 155.625 221.519 156.328L219.801 158V158.062H224.629V160H216.535L216.519 158.297ZM230.856 160H228.496V150.922H228.434L225.84 152.547V150.469L228.637 148.688H230.856V160ZM233.145 158.297L237.208 154.562C237.609 154.177 237.918 153.857 238.137 153.602C238.361 153.346 238.533 153.094 238.653 152.844C238.773 152.589 238.833 152.318 238.833 152.031C238.833 151.703 238.754 151.417 238.598 151.172C238.447 150.927 238.234 150.74 237.958 150.609C237.687 150.474 237.379 150.406 237.036 150.406C236.504 150.406 236.08 150.565 235.762 150.883C235.444 151.195 235.286 151.62 235.286 152.156H233.051C233.046 151.427 233.21 150.789 233.543 150.242C233.882 149.695 234.356 149.273 234.965 148.977C235.575 148.68 236.275 148.531 237.067 148.531C237.864 148.531 238.567 148.674 239.176 148.961C239.786 149.242 240.257 149.635 240.59 150.141C240.929 150.646 241.098 151.224 241.098 151.875C241.098 152.318 241.012 152.745 240.84 153.156C240.668 153.562 240.369 154.018 239.942 154.523C239.52 155.023 238.921 155.625 238.145 156.328L236.426 158V158.062H241.254V160H233.161L233.145 158.297ZM246.794 160.156C245.976 160.156 245.242 160.016 244.591 159.734C243.945 159.448 243.434 159.052 243.059 158.547C242.69 158.036 242.497 157.458 242.481 156.812H244.856C244.872 157.089 244.966 157.333 245.137 157.547C245.309 157.76 245.541 157.927 245.833 158.047C246.124 158.161 246.45 158.219 246.809 158.219C247.179 158.219 247.51 158.154 247.802 158.023C248.098 157.888 248.328 157.703 248.489 157.469C248.656 157.234 248.736 156.969 248.731 156.672C248.736 156.365 248.651 156.091 248.473 155.852C248.302 155.612 248.054 155.427 247.731 155.297C247.408 155.161 247.028 155.094 246.591 155.094H245.544V153.359H246.591C246.955 153.359 247.281 153.297 247.567 153.172C247.854 153.047 248.078 152.87 248.239 152.641C248.401 152.411 248.481 152.151 248.481 151.859C248.481 151.573 248.411 151.32 248.27 151.102C248.135 150.883 247.942 150.714 247.692 150.594C247.442 150.469 247.153 150.406 246.825 150.406C246.492 150.406 246.184 150.466 245.903 150.586C245.627 150.701 245.403 150.867 245.231 151.086C245.065 151.299 244.976 151.547 244.966 151.828H242.716C242.726 151.188 242.911 150.617 243.27 150.117C243.63 149.617 244.119 149.229 244.739 148.953C245.364 148.672 246.059 148.531 246.825 148.531C247.596 148.531 248.278 148.672 248.872 148.953C249.471 149.229 249.934 149.612 250.262 150.102C250.591 150.586 250.752 151.125 250.747 151.719C250.752 152.13 250.664 152.505 250.481 152.844C250.304 153.177 250.052 153.453 249.723 153.672C249.401 153.891 249.028 154.036 248.606 154.109V154.203C249.153 154.271 249.619 154.422 250.005 154.656C250.39 154.891 250.682 155.195 250.88 155.57C251.078 155.94 251.174 156.359 251.169 156.828C251.174 157.464 250.989 158.036 250.614 158.547C250.239 159.052 249.718 159.448 249.052 159.734C248.385 160.016 247.632 160.156 246.794 160.156ZM257.38 160H255.021V150.922H254.958L252.364 152.547V150.469L255.161 148.688H257.38V160ZM260.451 160.141C260.211 160.141 259.99 160.081 259.787 159.961C259.583 159.841 259.422 159.682 259.302 159.484C259.188 159.281 259.133 159.062 259.138 158.828C259.133 158.594 259.188 158.378 259.302 158.18C259.422 157.982 259.583 157.826 259.787 157.711C259.99 157.591 260.211 157.531 260.451 157.531C260.675 157.531 260.886 157.591 261.083 157.711C261.287 157.826 261.448 157.982 261.568 158.18C261.688 158.378 261.747 158.594 261.747 158.828C261.747 159.062 261.688 159.281 261.568 159.484C261.448 159.682 261.287 159.841 261.083 159.961C260.886 160.081 260.675 160.141 260.451 160.141ZM263.287 151.516H265.568V152.938H265.662C265.855 152.51 266.146 152.148 266.537 151.852C266.928 151.555 267.443 151.406 268.084 151.406C268.724 151.406 269.305 151.573 269.826 151.906C270.347 152.234 270.758 152.727 271.06 153.383C271.368 154.034 271.521 154.828 271.521 155.766C271.521 156.682 271.37 157.471 271.068 158.133C270.771 158.789 270.362 159.289 269.842 159.633C269.326 159.971 268.74 160.141 268.084 160.141C267.454 160.141 266.941 159.997 266.545 159.711C266.154 159.419 265.86 159.062 265.662 158.641H265.599V163.188H263.287V151.516ZM265.553 155.75C265.553 156.26 265.623 156.708 265.763 157.094C265.904 157.474 266.11 157.771 266.381 157.984C266.651 158.193 266.974 158.297 267.349 158.297C267.928 158.297 268.373 158.065 268.685 157.602C269.003 157.138 269.162 156.521 269.162 155.75C269.162 154.99 269.003 154.383 268.685 153.93C268.373 153.477 267.928 153.25 267.349 153.25C266.776 153.25 266.334 153.474 266.021 153.922C265.709 154.365 265.553 154.974 265.553 155.75ZM275.826 160.141C275.17 160.141 274.581 159.971 274.061 159.633C273.54 159.289 273.128 158.789 272.826 158.133C272.524 157.471 272.373 156.682 272.373 155.766C272.373 154.828 272.527 154.034 272.834 153.383C273.141 152.727 273.555 152.234 274.076 151.906C274.602 151.573 275.186 151.406 275.826 151.406C276.467 151.406 276.98 151.555 277.365 151.852C277.751 152.148 278.04 152.51 278.232 152.938H278.311V148.688H280.623V160H278.342V158.641H278.232C278.035 159.062 277.74 159.419 277.35 159.711C276.959 159.997 276.451 160.141 275.826 160.141ZM276.545 158.297C276.925 158.297 277.251 158.193 277.522 157.984C277.792 157.771 277.998 157.474 278.139 157.094C278.285 156.708 278.357 156.26 278.357 155.75C278.357 154.979 278.199 154.37 277.881 153.922C277.563 153.474 277.118 153.25 276.545 153.25C275.972 153.25 275.529 153.477 275.217 153.93C274.904 154.383 274.748 154.99 274.748 155.75C274.748 156.521 274.904 157.138 275.217 157.602C275.529 158.065 275.972 158.297 276.545 158.297ZM286.678 153.25H284.991V160H282.678V153.25H281.475V151.516H282.678V150.875C282.678 150 282.926 149.328 283.42 148.859C283.915 148.391 284.595 148.156 285.459 148.156C285.97 148.156 286.428 148.203 286.834 148.297V150.047C286.506 150.016 286.272 150 286.131 150C285.751 150 285.465 150.081 285.272 150.242C285.084 150.404 284.991 150.656 284.991 151V151.516H286.678V153.25Z" fill="#337AFF"/>
<defs>
<clipPath id="clip0_1_2">
<rect width="21.5063" height="11.5655" fill="white" transform="translate(40 36)"/>
</clipPath>
</defs>
</svg>
