<svg width="775" height="87" viewBox="0 0 775 87" fill="none" xmlns="http://www.w3.org/2000/svg">
<rect x="0.5" y="0.5" width="774" height="86" rx="9.5" fill="white" stroke="#F3F3F3"/>
<rect x="24" y="15.875" width="29" height="20" rx="4" fill="#F3F3F3"/>
<path d="M42.26 26.055V26.675H38.68V27.605C40.32 27.685 41.29 28.215 41.3 29.135C41.29 30.105 40.17 30.645 38.3 30.655C36.42 30.645 35.31 30.105 35.3 29.135C35.31 28.215 36.27 27.685 37.92 27.605V26.675H34.36V26.055H42.26ZM34.8 24.915C36.3 24.755 37.75 23.995 37.82 23.015H35.08V22.395H41.56V23.015H38.8C38.86 23.995 40.29 24.755 41.82 24.915L41.54 25.515C40.12 25.345 38.79 24.715 38.31 23.745C37.83 24.715 36.5 25.345 35.08 25.515L34.8 24.915ZM36.08 29.135C36.08 29.705 36.91 30.055 38.3 30.055C39.68 30.055 40.52 29.705 40.52 29.135C40.52 28.545 39.68 28.205 38.3 28.195C36.91 28.205 36.08 28.545 36.08 29.135Z" fill="#666666"/>
<path d="M24.9531 49.5625H27.2969V58.9375H32.1719V60.875H24.9531V49.5625ZM33.3206 52.3906H35.6331V60.875H33.3206V52.3906ZM34.4769 51.2812C34.2477 51.2812 34.0342 51.2292 33.8363 51.125C33.6435 51.0156 33.4899 50.8724 33.3753 50.6953C33.2659 50.513 33.2113 50.3177 33.2113 50.1094C33.2113 49.8958 33.2659 49.6979 33.3753 49.5156C33.4899 49.3333 33.6435 49.1901 33.8363 49.0859C34.0342 48.9766 34.2477 48.9219 34.4769 48.9219C34.7008 48.9219 34.9092 48.9766 35.1019 49.0859C35.2946 49.1901 35.4456 49.3333 35.555 49.5156C35.6696 49.6979 35.7269 49.8958 35.7269 50.1094C35.7269 50.3177 35.6696 50.513 35.555 50.6953C35.4456 50.8724 35.2946 51.0156 35.1019 51.125C34.9092 51.2292 34.7008 51.2812 34.4769 51.2812ZM41.9537 54.9062C41.9069 54.6094 41.7584 54.3724 41.5084 54.1953C41.2584 54.013 40.9433 53.9219 40.5631 53.9219C40.3131 53.9219 40.0866 53.9609 39.8834 54.0391C39.6855 54.112 39.5293 54.2161 39.4147 54.3516C39.3001 54.4818 39.2454 54.6302 39.2506 54.7969C39.235 55.1979 39.5996 55.4792 40.3444 55.6406L41.86 55.9531C42.6829 56.125 43.2949 56.3984 43.6959 56.7734C44.1022 57.1484 44.3079 57.6406 44.3131 58.25C44.3079 58.8021 44.1465 59.2891 43.8287 59.7109C43.5162 60.1328 43.0761 60.4609 42.5084 60.6953C41.9407 60.9297 41.2871 61.0469 40.5475 61.0469C39.7923 61.0469 39.1386 60.9401 38.5866 60.7266C38.0345 60.5078 37.5996 60.1979 37.2819 59.7969C36.9694 59.3906 36.7819 58.9115 36.7194 58.3594H39.0475C39.0996 58.6927 39.2558 58.9453 39.5162 59.1172C39.7767 59.2891 40.1204 59.375 40.5475 59.375C40.9694 59.375 41.3079 59.2943 41.5631 59.1328C41.8235 58.9714 41.9537 58.7552 41.9537 58.4844C41.9537 58.2656 41.86 58.0885 41.6725 57.9531C41.4902 57.8125 41.1985 57.6979 40.7975 57.6094L39.3912 57.3281C38.5892 57.1719 37.9798 56.888 37.5631 56.4766C37.1465 56.0651 36.9433 55.5469 36.9537 54.9219C36.9485 54.3854 37.0918 53.9193 37.3834 53.5234C37.6751 53.1224 38.0918 52.8151 38.6334 52.6016C39.1751 52.388 39.8079 52.2812 40.5319 52.2812C41.235 52.2812 41.8496 52.388 42.3756 52.6016C42.9017 52.8151 43.3131 53.1198 43.61 53.5156C43.9121 53.9062 44.084 54.3698 44.1256 54.9062H41.9537ZM49.8838 54.125H48.29V58.2656C48.29 58.5781 48.3577 58.7969 48.4931 58.9219C48.6285 59.0469 48.8265 59.1146 49.0869 59.125C49.4202 59.125 49.7275 59.1094 50.0088 59.0781V60.9062C49.7327 60.9583 49.3213 60.9844 48.7744 60.9844C47.9046 60.9844 47.2197 60.7839 46.7197 60.3828C46.2197 59.9818 45.9723 59.3854 45.9775 58.5938V54.125H44.8056V52.3906H45.9775V50.3594H48.29V52.3906H49.8838V54.125ZM50.095 49.5625H59.3606V51.5H55.8919V60.875H53.5637V51.5H50.095V49.5625ZM60.4469 52.3906H62.7594V60.875H60.4469V52.3906ZM61.6031 51.2812C61.374 51.2812 61.1604 51.2292 60.9625 51.125C60.7698 51.0156 60.6161 50.8724 60.5016 50.6953C60.3922 50.513 60.3375 50.3177 60.3375 50.1094C60.3375 49.8958 60.3922 49.6979 60.5016 49.5156C60.6161 49.3333 60.7698 49.1901 60.9625 49.0859C61.1604 48.9766 61.374 48.9219 61.6031 48.9219C61.8271 48.9219 62.0354 48.9766 62.2281 49.0859C62.4208 49.1901 62.5719 49.3333 62.6813 49.5156C62.7958 49.6979 62.8531 49.8958 62.8531 50.1094C62.8531 50.3177 62.7958 50.513 62.6813 50.6953C62.5719 50.8724 62.4208 51.0156 62.2281 51.125C62.0354 51.2292 61.8271 51.2812 61.6031 51.2812ZM66.5488 60.875H64.2363V49.5625H66.5488V60.875ZM71.8694 61.0469C71.01 61.0469 70.2652 60.8698 69.635 60.5156C69.01 60.1615 68.5282 59.6562 68.1897 59C67.8511 58.3385 67.6819 57.5625 67.6819 56.6719C67.6819 55.8021 67.8485 55.0365 68.1819 54.375C68.5204 53.7083 68.9996 53.1927 69.6194 52.8281C70.2392 52.4635 70.9579 52.2812 71.7756 52.2812C72.536 52.2812 73.2157 52.4427 73.8147 52.7656C74.4189 53.0833 74.8928 53.5651 75.2366 54.2109C75.5855 54.8568 75.76 55.6458 75.76 56.5781V57.2344H69.9631C69.9631 57.6562 70.0412 58.0234 70.1975 58.3359C70.359 58.6484 70.5855 58.8906 70.8772 59.0625C71.1741 59.2292 71.5204 59.3125 71.9162 59.3125C72.2965 59.3125 72.6246 59.237 72.9006 59.0859C73.1767 58.9297 73.3746 58.7188 73.4944 58.4531H75.6975C75.5881 58.974 75.3642 59.4297 75.0256 59.8203C74.6871 60.2109 74.247 60.513 73.7053 60.7266C73.1689 60.9401 72.5569 61.0469 71.8694 61.0469ZM73.5725 55.7812C73.5725 55.4427 73.497 55.1406 73.3459 54.875C73.2001 54.6042 72.9944 54.3932 72.7287 54.2422C72.4631 54.0911 72.161 54.0156 71.8225 54.0156C71.4787 54.0156 71.1662 54.0938 70.885 54.25C70.609 54.4062 70.3876 54.6198 70.2209 54.8906C70.0595 55.1615 69.9735 55.4583 69.9631 55.7812H73.5725ZM87.0731 49.4531C87.0679 51.0365 86.8856 52.4609 86.5262 53.7266C86.1721 54.987 85.5315 56.1615 84.6044 57.25C83.6825 58.3385 82.4012 59.3073 80.7606 60.1562L79.6669 58.6562C80.7762 58.0677 81.6929 57.4401 82.4169 56.7734C83.146 56.1068 83.719 55.375 84.1356 54.5781L80.0106 54.9531L79.745 53.2656L84.7606 52.9688C84.9169 52.3958 85.0236 51.7552 85.0809 51.0469H80.5106V49.4531H87.0731ZM91.7606 62.3125H89.7762V55.1875H87.0419V53.5625H89.7762V48.0938H91.7606V62.3125ZM100.769 49.9688C100.769 50.6771 100.969 51.3698 101.37 52.0469C101.777 52.724 102.363 53.3125 103.128 53.8125C103.899 54.3125 104.8 54.651 105.831 54.8281L104.956 56.4844C103.738 56.2448 102.675 55.7995 101.769 55.1484C100.868 54.4974 100.183 53.7057 99.7141 52.7734C99.2349 53.7005 98.5422 54.4896 97.6359 55.1406C96.7349 55.7917 95.6802 56.2396 94.4719 56.4844L93.6125 54.8281C94.6281 54.6458 95.5161 54.3047 96.2766 53.8047C97.037 53.3047 97.6203 52.7161 98.0266 52.0391C98.4328 51.3568 98.6385 50.6667 98.6438 49.9688V48.9375H100.769V49.9688ZM106.3 60.5625H93.2844V58.9219H106.3V60.5625ZM118.777 56.4219H116.793V53.1094H114.355V51.4844H116.793V48.0938H118.777V56.4219ZM118.777 62.1562H109.214V57.0312H118.777V62.1562ZM111.214 60.5625H116.824V58.625H111.214V60.5625ZM113.964 50.4688H109.449V51.6406H113.527V53.1719H109.449V54.3906C110.558 54.3802 111.485 54.3516 112.23 54.3047C112.975 54.2578 113.725 54.1719 114.48 54.0469L114.652 55.6406C113.782 55.7917 112.902 55.8932 112.011 55.9453C111.126 55.9922 109.98 56.0156 108.574 56.0156H107.464V48.9062H113.964V50.4688ZM128.309 48.6875C129.027 48.6823 129.671 48.8073 130.238 49.0625C130.806 49.3125 131.251 49.6693 131.574 50.1328C131.897 50.5911 132.059 51.1146 132.059 51.7031C132.059 52.2865 131.897 52.8099 131.574 53.2734C131.251 53.7318 130.804 54.0885 130.231 54.3438C129.663 54.599 129.022 54.724 128.309 54.7188C127.59 54.724 126.947 54.599 126.379 54.3438C125.811 54.0885 125.366 53.7318 125.043 53.2734C124.725 52.8099 124.569 52.2865 124.574 51.7031C124.569 51.1146 124.725 50.5911 125.043 50.1328C125.366 49.6693 125.811 49.3125 126.379 49.0625C126.947 48.8073 127.59 48.6823 128.309 48.6875ZM128.309 50.2812C127.767 50.2812 127.33 50.4089 126.996 50.6641C126.663 50.9141 126.496 51.2604 126.496 51.7031C126.496 52.1406 126.663 52.4844 126.996 52.7344C127.33 52.9844 127.767 53.1042 128.309 53.0938C128.866 53.1042 129.314 52.9844 129.652 52.7344C129.996 52.4844 130.168 52.1406 130.168 51.7031C130.168 51.2604 129.996 50.9141 129.652 50.6641C129.314 50.4089 128.866 50.2812 128.309 50.2812ZM135.652 62.3125H133.684V48.1094H135.652V62.3125ZM123.699 55.5938C127.481 55.5938 130.522 55.4219 132.824 55.0781L132.949 56.5469C131.871 56.7604 130.684 56.9193 129.387 57.0234V61.8906H127.402V57.1406C126.486 57.1823 125.522 57.2031 124.512 57.2031C124.387 57.2135 124.199 57.2188 123.949 57.2188L123.699 55.5938ZM149.395 57.5938H147.504V48.1094H149.395V57.5938ZM146.567 56.3438H144.676V53.25H143.161V51.6406H144.676V48.3438H146.567V56.3438ZM141.661 51.0312C141.661 51.8438 141.872 52.5807 142.293 53.2422C142.715 53.9036 143.359 54.4062 144.223 54.75L143.239 56.2812C142.103 55.8542 141.265 55.0833 140.723 53.9688C140.463 54.5781 140.109 55.112 139.661 55.5703C139.213 56.0286 138.671 56.3906 138.036 56.6562L136.989 55.125C137.614 54.875 138.129 54.5365 138.536 54.1094C138.947 53.6771 139.247 53.1979 139.434 52.6719C139.627 52.1458 139.723 51.599 139.723 51.0312V50.7344H137.457V49.1094H143.786V50.7344H141.661V51.0312ZM145.457 57.2656C145.452 57.7812 145.624 58.2786 145.973 58.7578C146.322 59.2318 146.84 59.6432 147.528 59.9922C148.215 60.3359 149.046 60.5677 150.02 60.6875L149.332 62.2656C148.192 62.099 147.205 61.7865 146.372 61.3281C145.543 60.8698 144.908 60.3047 144.465 59.6328C144.012 60.3047 143.372 60.8698 142.543 61.3281C141.715 61.7865 140.734 62.099 139.598 62.2656L138.895 60.6875C139.869 60.5677 140.7 60.3359 141.387 59.9922C142.075 59.6432 142.59 59.2318 142.934 58.7578C143.283 58.2786 143.457 57.7812 143.457 57.2656V56.9062H145.457V57.2656ZM161.302 56.0938H154.474V49.2656H161.302V56.0938ZM156.443 54.5312H159.333V50.8594H156.443V54.5312ZM165.333 52.1875H167.255V53.8281H165.333V58.4688H163.333V48.0938H165.333V52.1875ZM165.849 62.0625H156.114V57.4531H158.099V60.4688H165.849V62.0625ZM180.56 55.2031H167.56V53.6406H180.56V55.2031ZM179.013 52.8594H169.185V48.375H178.904V49.9688H171.169V51.2969H179.013V52.8594ZM178.951 59.7656H171.029V60.6406H179.326V62.1875H169.076V58.3438H176.982V57.5469H169.06V56.0469H178.951V59.7656ZM193.021 62.3125H191.006V48.0938H193.021V62.3125ZM188.756 49.5781C188.756 51.099 188.55 52.4818 188.138 53.7266C187.732 54.9714 187.045 56.1146 186.076 57.1562C185.107 58.1927 183.803 59.099 182.162 59.875L181.115 58.2812C182.329 57.7083 183.329 57.0703 184.115 56.3672C184.907 55.6641 185.511 54.8854 185.928 54.0312C186.349 53.1719 186.615 52.2083 186.724 51.1406H181.881V49.5781H188.756Z" fill="#333333"/>
<rect x="623" y="26" width="115" height="35" rx="7" fill="#337AFF"/>
<path d="M667.025 37.828V41.384H668.621V42.812H667.025V46.284H665.289V37.828H667.025ZM656.945 44.688C657.855 44.688 658.891 44.688 659.969 44.66V43.96C658.625 43.764 657.785 43.092 657.785 42.14C657.785 40.992 658.989 40.292 660.837 40.292C662.671 40.292 663.875 40.992 663.889 42.14C663.875 43.092 663.035 43.764 661.705 43.96V44.59C662.727 44.548 663.749 44.464 664.701 44.352L664.841 45.528C662.209 46.004 659.325 46.032 657.141 46.032L656.945 44.688ZM657.281 40.012V38.724H659.969V37.716H661.705V38.724H664.393V40.012H657.281ZM658.541 48.132V46.788H667.025V50.26H665.289V48.132H658.541ZM659.465 42.14C659.451 42.602 659.955 42.868 660.837 42.868C661.705 42.868 662.209 42.602 662.209 42.14C662.209 41.664 661.705 41.454 660.837 41.44C659.955 41.454 659.451 41.664 659.465 42.14ZM679.32 37.828V46.76H677.584V37.828H679.32ZM669.1 41.748C669.1 39.928 670.598 38.612 672.516 38.612C674.42 38.612 675.904 39.928 675.904 41.748C675.904 43.61 674.42 44.912 672.516 44.912C670.598 44.912 669.1 43.61 669.1 41.748ZM670.808 41.748C670.794 42.798 671.536 43.386 672.516 43.4C673.454 43.386 674.182 42.798 674.168 41.748C674.182 40.74 673.454 40.138 672.516 40.124C671.536 40.138 670.794 40.74 670.808 41.748ZM670.976 50.036V45.864H672.74V48.636H679.656V50.036H670.976ZM690.552 37.8V42.7H692.372V44.128H690.552V50.26H688.816V37.8H690.552ZM680.668 41.076V39.676H683.468V37.996H685.232V39.676H687.976V41.076H680.668ZM681.172 44.744C681.158 42.994 682.516 41.762 684.364 41.776C686.17 41.762 687.528 42.994 687.528 44.744C687.528 46.466 686.17 47.698 684.364 47.684C682.516 47.698 681.158 46.466 681.172 44.744ZM682.852 44.744C682.838 45.696 683.468 46.27 684.364 46.256C685.218 46.27 685.848 45.696 685.848 44.744C685.848 43.778 685.218 43.19 684.364 43.176C683.468 43.19 682.838 43.778 682.852 44.744ZM703.016 37.8V50.26H701.252V37.8H703.016ZM692.6 46.732C695.806 45.206 697.22 43.246 697.5 40.488H693.244V39.116H699.264C699.278 42.882 697.948 46.032 693.496 48.132L692.6 46.732Z" fill="white"/>
</svg>
