<svg width="770" height="95" viewBox="0 0 770 95" fill="none" xmlns="http://www.w3.org/2000/svg">
<rect x="0.5" y="0.5" width="769" height="94" rx="9.5" fill="white"/>
<path d="M89.968 28.064C89.968 31.792 87.52 34.368 83.248 35.456L82.48 33.888C85.696 33.088 87.504 31.504 87.808 29.6H83.312V28.064H89.968ZM84.848 41.28V35.744H94.32V41.28H84.848ZM86.832 39.712H92.368V37.312H86.832V39.712ZM92.336 35.168V27.232H94.32V35.168H92.336ZM103.892 28.256V29.152C103.892 30.128 103.892 31.536 103.572 33.312L101.62 33.12C101.876 31.76 101.94 30.736 101.956 29.888H96.5961V28.256H103.892ZM95.7321 34.336C96.5321 34.336 97.4441 34.336 98.3881 34.32V31.52H100.372V34.256C101.78 34.192 103.236 34.08 104.564 33.888L104.692 35.328C101.716 35.872 98.3881 35.92 95.9241 35.936L95.7321 34.336ZM97.8441 41.184V36.896H99.8281V39.584H107.828V41.184H97.8441ZM105.332 37.856V27.2H107.38V31.552H109.108V33.216H107.38V37.856H105.332ZM122.424 35.168V36.8H116.888V41.44H114.904V36.8H109.432V35.168H122.424ZM110.744 30.912C110.728 28.944 112.84 27.696 115.896 27.68C118.936 27.696 121.08 28.944 121.08 30.912C121.08 32.848 118.936 34.096 115.896 34.08C112.84 34.096 110.728 32.848 110.744 30.912ZM112.792 30.912C112.776 31.936 113.976 32.512 115.896 32.512C117.816 32.512 119.016 31.936 119.032 30.912C119.016 29.872 117.816 29.28 115.896 29.28C113.976 29.28 112.776 29.872 112.792 30.912Z" fill="#030303"/>
<path d="M147.52 28.672C147.536 30.624 150.096 32.32 152.608 32.672L152.096 33.664C149.936 33.312 147.808 32.112 146.912 30.416C146.016 32.128 143.888 33.312 141.728 33.664L141.216 32.672C143.728 32.32 146.272 30.656 146.272 28.672V27.872H147.52V28.672ZM140.576 36.224V35.2H153.216V36.224H147.456V41.28H146.272V36.224H140.576ZM164.932 27.392V31.008H167.012V32H164.932V35.712H163.716V27.392H164.932ZM154.084 34.752C157.428 33.76 159.572 31.84 159.812 29.44H154.692V28.416H161.156C161.14 31.952 158.644 34.544 154.596 35.744L154.084 34.752ZM156.004 38.56C155.988 36.88 157.78 35.872 160.548 35.872C163.332 35.872 165.092 36.88 165.092 38.56C165.092 40.24 163.332 41.232 160.548 41.248C157.78 41.232 155.988 40.24 156.004 38.56ZM157.22 38.56C157.204 39.584 158.5 40.256 160.548 40.256C162.58 40.256 163.892 39.584 163.908 38.56C163.892 37.504 162.58 36.848 160.548 36.864C158.5 36.848 157.204 37.504 157.22 38.56ZM171.72 30.144C171.72 31.68 172.792 33.232 174.6 33.888L173.928 34.848C172.584 34.336 171.64 33.328 171.144 32.128C170.632 33.456 169.64 34.64 168.264 35.232L167.592 34.272C169.432 33.488 170.536 31.696 170.536 30.144V28.256H171.72V30.144ZM170.12 38.752C170.104 37.2 171.896 36.272 174.792 36.288C177.656 36.272 179.448 37.2 179.432 38.752C179.448 40.32 177.656 41.232 174.792 41.248C171.896 41.232 170.104 40.32 170.12 38.752ZM171.336 38.752C171.32 39.712 172.648 40.288 174.792 40.288C176.888 40.288 178.216 39.712 178.216 38.752C178.216 37.808 176.888 37.232 174.792 37.216C172.648 37.232 171.32 37.808 171.336 38.752ZM175.208 35.52V27.648H176.36V31.136H178.216V27.392H179.368V35.968H178.216V32.128H176.36V35.52H175.208Z" fill="#999999"/>
<path d="M92.5 55.968V68.12H91.436V55.968H92.5ZM82.952 61.12C82.952 58.544 84.24 56.906 86.06 56.892C87.852 56.906 89.154 58.544 89.168 61.12C89.154 63.724 87.852 65.362 86.06 65.376C84.24 65.362 82.952 63.724 82.952 61.12ZM83.988 61.12C83.988 63.108 84.828 64.41 86.06 64.396C87.264 64.41 88.104 63.108 88.104 61.12C88.104 59.16 87.264 57.858 86.06 57.844C84.828 57.858 83.988 59.16 83.988 61.12ZM104.376 55.968V68.12H103.312V61.736H100.4V60.84H103.312V55.968H104.376ZM94.3236 64.928C97.6276 63.332 99.1396 60.994 99.3636 58.152H94.8556V57.284H100.456C100.428 60.728 98.9716 63.78 94.9116 65.796L94.3236 64.928ZM117.259 65.684V66.608H106.143V65.684H111.127V63.416H107.515V59.664H114.795V57.76H107.487V56.864H115.859V60.532H108.579V62.52H116.139V63.416H112.191V65.684H117.259ZM130.675 55.968V59.076H132.495V59.972H130.675V63.024H129.611V55.968H130.675ZM121.211 58.096V57.228H124.291V55.856H125.355V57.228H128.435V58.096H121.211ZM121.911 60.784C121.883 59.496 123.059 58.67 124.823 58.656C126.573 58.67 127.735 59.496 127.735 60.784C127.735 62.086 126.573 62.926 124.823 62.912C123.059 62.926 121.883 62.086 121.911 60.784ZM122.919 60.784C122.919 61.582 123.675 62.114 124.823 62.1C125.957 62.114 126.727 61.582 126.727 60.784C126.727 60.014 125.957 59.482 124.823 59.496C123.675 59.482 122.919 60.014 122.919 60.784ZM123.003 67.952V63.556H124.067V64.844H129.611V63.556H130.675V67.952H123.003ZM124.067 67.084H129.611V65.712H124.067V67.084ZM137.314 59.216C137.3 61.442 138.812 63.668 140.59 64.48L139.946 65.348C138.56 64.662 137.356 63.22 136.782 61.47C136.222 63.318 135.018 64.858 133.59 65.572L132.918 64.676C134.738 63.85 136.236 61.526 136.25 59.216V57.004H137.314V59.216ZM141.934 68.12V55.968H142.998V68.12H141.934ZM154.23 55.968V60.756H156.246V61.652H154.23V68.12H153.138V55.968H154.23ZM145.354 65.096V57.144H151.01V58.04H146.418V64.172C148.616 64.172 150.17 64.088 151.962 63.752L152.102 64.676C150.212 65.012 148.616 65.082 146.306 65.096H145.354ZM171.23 60.812V61.708H169.27V68.092H168.178V55.968H169.27V60.812H171.23ZM160.366 65.012V57.144H161.43V64.116C163.194 64.116 165.014 63.976 167.002 63.556L167.142 64.48C165.056 64.886 163.166 65.012 161.318 65.012H160.366ZM181.089 55.968V60.98H183.105V61.876H181.089V68.12H180.025V55.968H181.089ZM171.597 58.796V57.9H174.733V56.108H175.797V57.9H178.821V58.796H171.597ZM172.297 62.604C172.283 60.952 173.543 59.804 175.265 59.804C177.001 59.804 178.247 60.952 178.261 62.604C178.247 64.242 177.001 65.39 175.265 65.376C173.543 65.39 172.283 64.242 172.297 62.604ZM173.333 62.604C173.319 63.71 174.145 64.48 175.265 64.48C176.399 64.48 177.225 63.71 177.225 62.604C177.225 61.498 176.399 60.7 175.265 60.7C174.145 60.7 173.319 61.498 173.333 62.604ZM193.497 55.968V68.12H192.433V55.968H193.497ZM183.949 61.12C183.949 58.544 185.237 56.906 187.057 56.892C188.849 56.906 190.151 58.544 190.165 61.12C190.151 63.724 188.849 65.362 187.057 65.376C185.237 65.362 183.949 63.724 183.949 61.12ZM184.985 61.12C184.985 63.108 185.825 64.41 187.057 64.396C188.261 64.41 189.101 63.108 189.101 61.12C189.101 59.16 188.261 57.858 187.057 57.844C185.825 57.858 184.985 59.16 184.985 61.12ZM205.344 55.968V63.192H204.28V55.968H205.344ZM195.6 59.58C195.586 57.886 196.93 56.738 198.792 56.724C200.626 56.738 201.956 57.886 201.956 59.58C201.956 61.26 200.626 62.394 198.792 62.408C196.93 62.394 195.586 61.26 195.6 59.58ZM196.636 59.58C196.636 60.714 197.532 61.484 198.792 61.512C200.024 61.484 200.92 60.714 200.92 59.58C200.92 58.432 200.024 57.648 198.792 57.648C197.532 57.648 196.636 58.432 196.636 59.58ZM197.168 65.768C197.182 64.298 198.736 63.444 201.284 63.444C203.804 63.444 205.372 64.298 205.372 65.768C205.372 67.238 203.804 68.078 201.284 68.092C198.736 68.078 197.182 67.238 197.168 65.768ZM198.26 65.768C198.26 66.678 199.394 67.224 201.284 67.224C203.16 67.224 204.322 66.678 204.308 65.768C204.322 64.83 203.16 64.298 201.284 64.284C199.394 64.298 198.26 64.83 198.26 65.768ZM213.188 57.76C213.188 59.832 215.568 61.68 217.696 62.072L217.192 62.968C215.358 62.548 213.44 61.246 212.642 59.482C211.844 61.246 209.926 62.548 208.092 62.968L207.588 62.072C209.702 61.666 212.054 59.832 212.068 57.76V56.808H213.188V57.76ZM207.14 66.468V65.572H218.256V66.468H207.14Z" fill="#999999"/>
<circle cx="47.5" cy="47.5" r="22.5" fill="#D9D9D9"/>
<circle cx="131.5" cy="34.5" r="2.5" fill="#D9D9D9"/>
<path d="M666.784 67V65.516L670.312 62.24C671.25 61.358 671.74 60.812 671.74 60.028C671.74 59.146 671.082 58.6 670.172 58.6C669.248 58.6 668.632 59.188 668.632 60.14H666.672C666.672 58.208 668.114 56.962 670.2 56.976C672.314 56.962 673.728 58.166 673.728 59.888C673.728 61.022 673.182 61.946 671.124 63.78L669.64 65.236V65.32H673.868V67H666.784ZM678.885 67.14C676.407 67.14 674.909 65.292 674.909 62.044C674.909 58.81 676.421 56.962 678.885 56.976C681.349 56.962 682.861 58.824 682.861 62.044C682.861 65.306 681.363 67.14 678.885 67.14ZM677.009 62.044C676.995 64.34 677.737 65.432 678.885 65.432C680.033 65.432 680.775 64.34 680.761 62.044C680.761 59.79 680.033 58.656 678.885 58.656C677.751 58.656 677.009 59.79 677.009 62.044ZM684.011 67V65.516L687.539 62.24C688.477 61.358 688.967 60.812 688.967 60.028C688.967 59.146 688.309 58.6 687.399 58.6C686.475 58.6 685.859 59.188 685.859 60.14H683.899C683.899 58.208 685.341 56.962 687.427 56.976C689.541 56.962 690.955 58.166 690.955 59.888C690.955 61.022 690.409 61.946 688.351 63.78L686.867 65.236V65.32H691.095V67H684.011ZM695.944 67.14C693.76 67.14 692.206 65.936 692.164 64.228H694.236C694.278 64.942 694.992 65.432 695.944 65.432C696.938 65.432 697.638 64.886 697.624 64.088C697.638 63.29 696.924 62.716 695.748 62.716H694.852V61.204H695.748C696.742 61.19 697.414 60.658 697.4 59.86C697.414 59.118 696.84 58.6 695.972 58.6C695.09 58.6 694.362 59.09 694.348 59.86H692.36C692.402 58.152 693.942 56.962 695.972 56.976C698.03 56.962 699.402 58.194 699.388 59.748C699.402 60.868 698.632 61.652 697.512 61.848V61.932C698.982 62.1 699.78 62.982 699.78 64.228C699.78 65.922 698.17 67.14 695.944 67.14ZM705.208 56.64L702.016 68.484H700.28L703.472 56.64H705.208ZM709.689 67.14C707.211 67.14 705.713 65.292 705.713 62.044C705.713 58.81 707.225 56.962 709.689 56.976C712.153 56.962 713.665 58.824 713.665 62.044C713.665 65.306 712.167 67.14 709.689 67.14ZM707.813 62.044C707.799 64.34 708.541 65.432 709.689 65.432C710.837 65.432 711.579 64.34 711.565 62.044C711.565 59.79 710.837 58.656 709.689 58.656C708.555 58.656 707.813 59.79 707.813 62.044ZM718.651 67.14C716.593 67.126 714.647 65.908 714.647 62.268C714.647 58.95 716.243 56.962 718.707 56.976C720.709 56.962 722.081 58.222 722.291 59.86H720.247C720.093 59.16 719.519 58.726 718.707 58.74C717.377 58.726 716.663 59.944 716.663 61.876H716.747C717.209 61.008 718.189 60.49 719.295 60.476C721.059 60.49 722.389 61.834 722.375 63.696C722.389 65.698 720.877 67.14 718.651 67.14ZM716.859 63.752C716.873 64.718 717.615 65.516 718.623 65.516C719.645 65.516 720.387 64.746 720.387 63.752C720.387 62.758 719.659 61.988 718.651 61.988C717.643 61.988 716.873 62.786 716.859 63.752ZM727.801 56.64L724.609 68.484H722.873L726.065 56.64H727.801ZM728.446 67V65.516L731.974 62.24C732.912 61.358 733.402 60.812 733.402 60.028C733.402 59.146 732.744 58.6 731.834 58.6C730.91 58.6 730.294 59.188 730.294 60.14H728.334C728.334 58.208 729.776 56.962 731.862 56.976C733.976 56.962 735.39 58.166 735.39 59.888C735.39 61.022 734.844 61.946 732.786 63.78L731.302 65.236V65.32H735.53V67H728.446ZM740.323 56.976C742.367 56.976 744.313 58.194 744.299 61.792C744.313 65.152 742.717 67.14 740.239 67.14C738.237 67.14 736.879 65.88 736.683 64.228H738.699C738.867 64.942 739.441 65.376 740.239 65.376C741.583 65.376 742.297 64.158 742.311 62.184H742.199C741.751 63.066 740.771 63.584 739.679 63.584C737.901 63.584 736.585 62.24 736.571 60.392C736.571 58.404 738.083 56.962 740.323 56.976ZM738.587 60.336C738.573 61.316 739.301 62.086 740.323 62.072C741.317 62.086 742.087 61.274 742.087 60.336C742.087 59.384 741.345 58.586 740.323 58.572C739.315 58.586 738.559 59.356 738.587 60.336Z" fill="#999999"/>
<circle cx="736" cy="36" r="9" fill="#FF3A3A"/>
<path d="M740.1 32.088V42H738.308L733.968 35.7H733.884V42H731.84V32.088H733.632L737.972 38.388H738.056V32.088H740.1Z" fill="white"/>
<rect x="0.5" y="0.5" width="769" height="94" rx="9.5" stroke="#EFEFEF"/>
</svg>
