<svg width="236" height="75" viewBox="0 0 236 75" fill="none" xmlns="http://www.w3.org/2000/svg">
<path d="M3.83984 15H1.30859L5.23047 3.6875H8.24609L12.1523 15H9.63672L8.78516 12.3906H4.69141L3.83984 15ZM5.28516 10.5625H8.19141L6.77734 6.23438H6.69922L5.28516 10.5625ZM15.4573 3.6875V15H13.1136V3.6875H15.4573ZM25.2548 5.4375C25.2627 8.10938 26.3408 10.7109 28.708 11.7344L27.4892 13.3281C25.9111 12.5625 24.8486 11.1406 24.2548 9.38281C23.6455 11.25 22.5517 12.7812 20.9267 13.5781L19.6767 11.9531C22.1142 10.8516 23.2236 8.10938 23.2392 5.4375V3.3125H25.2548V5.4375ZM27.1142 8.29688V6.6875H29.9111V2.21875H31.8798V16.4688H29.9111V8.29688H27.1142ZM45.2942 2.21875V16.4688H43.2786V2.21875H45.2942ZM34.0911 13.1406V3.34375H36.0911V6.8125H39.1536V3.34375H41.1223V13.1406H34.0911ZM36.0911 11.5312H39.1536V8.35938H36.0911V11.5312ZM54.3805 4.09375C54.3727 6.17969 56.2242 8.40625 59.443 8.95312L58.568 10.6094C56.0836 10.1172 54.2477 8.71875 53.3258 6.89844C52.3883 8.70312 50.5445 10.1094 48.0836 10.6094L47.2242 8.95312C50.3883 8.39062 52.2398 6.15625 52.2555 4.09375V3.0625H54.3805V4.09375ZM46.8961 14.6875V13.0469H59.9117V14.6875H46.8961ZM68.053 2.79688C70.1311 2.80469 71.6233 3.96875 71.6311 5.6875C71.6233 7.07812 70.6077 8.14062 69.0842 8.46875V9.50781C70.2014 9.4375 71.3108 9.33594 72.3498 9.1875L72.5061 10.6406C69.5764 11.1562 66.3186 11.2266 63.9436 11.2188L63.7405 9.64062C64.7248 9.64062 65.8733 9.63281 67.0842 9.60156V8.48438C65.5139 8.17188 64.467 7.10156 64.4748 5.6875C64.467 3.96875 65.9592 2.80469 68.053 2.79688ZM65.6155 16.1719V12.125H67.6155V14.5781H75.6311V16.1719H65.6155ZM66.3342 5.6875C66.3186 6.55469 67.0452 7.05469 68.053 7.0625C69.0764 7.05469 69.7561 6.55469 69.7561 5.6875C69.7561 4.79688 69.0686 4.3125 68.053 4.29688C67.0452 4.3125 66.3186 4.79688 66.3342 5.6875ZM73.1467 13.0781V2.23438H75.1467V6.70312H76.9592V8.35938H75.1467V13.0781H73.1467ZM82.6548 4.15625C82.647 6.05469 83.6236 7.8125 85.9048 8.51562L84.858 10.0781C83.3267 9.54688 82.2877 8.57031 81.6861 7.28906C81.0611 8.77344 79.9127 9.9375 78.2017 10.5156L77.1548 8.92188C79.5845 8.14062 80.6314 6.23438 80.6392 4.25V2.95312H82.6548V4.15625ZM79.5142 13.6875C79.5142 11.9375 81.3736 10.9141 84.4048 10.9219C87.4439 10.9141 89.3033 11.9375 89.3111 13.6875C89.3033 15.4453 87.4439 16.4453 84.4048 16.4375C81.3736 16.4453 79.5142 15.4453 79.5142 13.6875ZM81.4986 13.6875C81.4986 14.4766 82.522 14.8906 84.4048 14.8906C86.2955 14.8906 87.3189 14.4766 87.3267 13.6875C87.3189 12.875 86.2955 12.4688 84.4048 12.4688C82.522 12.4688 81.4986 12.875 81.4986 13.6875ZM84.608 6.45312V4.82812H87.2798V2.21875H89.2642V10.5469H87.2798V6.45312H84.608ZM94.0223 3.6875L93.8192 11.6094H91.8192L91.6161 3.6875H94.0223ZM91.5223 13.8281C91.5067 13.1094 92.1005 12.5234 92.8348 12.5312C93.5302 12.5234 94.1317 13.1094 94.1317 13.8281C94.1317 14.5547 93.5302 15.1406 92.8348 15.1406C92.1005 15.1406 91.5067 14.5547 91.5223 13.8281ZM101.164 15H98.6323L102.554 3.6875H105.57L109.476 15H106.96L106.109 12.3906H102.015L101.164 15ZM102.609 10.5625H105.515L104.101 6.23438H104.023L102.609 10.5625ZM112.781 3.6875V15H110.437V3.6875H112.781ZM117.664 13.2656V10.3438H114.742V8.39062H117.664V5.46875H119.617V8.39062H122.539V10.3438H119.617V13.2656H117.664ZM136.36 2.21875V10.9688H134.454V2.21875H136.36ZM123.875 7.48438C125.735 7.48438 128.844 7.44531 131.125 7.09375L131.266 8.42188C130.446 8.60156 129.547 8.72656 128.641 8.8125V10.8906H126.735V8.92969C125.735 8.96875 124.805 8.96875 124.063 8.96875L123.875 7.48438ZM124.469 4.82812C124.469 3.51562 125.735 2.70312 127.594 2.70312C129.461 2.70312 130.735 3.51562 130.735 4.82812C130.735 6.11719 129.461 6.96094 127.594 6.96875C125.735 6.96094 124.469 6.11719 124.469 4.82812ZM126.204 16.2812V11.4219H128.172V12.375H134.375V11.4219H136.36V16.2812H126.204ZM126.282 4.82812C126.274 5.34375 126.766 5.57031 127.594 5.57812C128.422 5.57031 128.954 5.34375 128.954 4.82812C128.954 4.32031 128.422 4.07812 127.594 4.07812C126.766 4.07812 126.274 4.32031 126.282 4.82812ZM128.172 14.75H134.375V13.8906H128.172V14.75ZM129.594 10.4688V9.14062H131.735V2.45312H133.61V10.9531H131.735V10.4688H129.594ZM153.11 2.21875V16.4375H151.189V9.20312H149.892V15.8125H148.032V2.59375H149.892V7.60938H151.189V2.21875H153.11ZM140.673 12.1406C143.571 10.4375 144.821 8.35156 145.087 5.5625H141.392V3.96875H147.032C147.025 7.9375 145.837 11.1875 141.829 13.5156L140.673 12.1406ZM156.759 2.85938V4.54688H159.665V2.85938H161.665V9.0625H154.775V2.85938H156.759ZM156.197 11.5312V9.98438H165.634V13.8438H158.181V14.7656H166.04V16.3438H156.228V12.4219H163.65V11.5312H156.197ZM156.759 7.5H159.665V6.04688H156.759V7.5ZM163.634 9.45312V2.21875H165.634V4.98438H167.556V6.59375H165.634V9.45312H163.634ZM179.775 3.64062V5.1875H176.963C177.01 6.30469 178.018 7.32812 180.119 7.71875L179.338 9.25C177.729 8.9375 176.619 8.22656 175.986 7.27344C175.361 8.32031 174.229 9.11719 172.557 9.45312L171.744 7.90625C173.893 7.5 174.893 6.38281 174.947 5.1875H172.119V3.64062H174.963V2.25H176.963V3.64062H179.775ZM171.26 10.0625C173.885 10.0625 177.385 10.0391 180.385 9.65625L180.51 11.0938C179.338 11.2969 178.135 11.4297 176.947 11.5156V16H174.963V11.625C173.729 11.6719 172.549 11.6719 171.51 11.6719L171.26 10.0625ZM181.244 16.4375V2.23438H183.213V16.4375H181.244ZM188.705 2.82812C190.518 2.8125 191.963 3.85156 192.354 5.375H194.737V2.21875H196.721V9.85938H194.737V6.96875H192.362C191.995 8.53125 190.534 9.59375 188.705 9.59375C186.518 9.59375 184.909 8.17188 184.924 6.1875C184.909 4.24219 186.518 2.8125 188.705 2.82812ZM186.815 6.1875C186.807 7.25 187.588 7.92188 188.705 7.92188C189.784 7.92188 190.557 7.25 190.565 6.1875C190.557 5.125 189.784 4.47656 188.705 4.48438C187.588 4.47656 186.807 5.125 186.815 6.1875ZM187.237 16.2812V10.4844H189.205V11.8594H194.737V10.4844H196.721V16.2812H187.237ZM189.205 14.6719H194.737V13.3906H189.205V14.6719ZM204.557 3.10938C204.55 6.77344 203.042 9.35938 199.12 10.9688L198.167 9.53125C199.807 8.89062 200.917 8.10938 201.612 7.16406L198.557 7.5L198.323 5.92188L202.346 5.71875C202.448 5.39844 202.518 5.07031 202.565 4.71875H198.917V3.10938H204.557ZM200.76 16.2812V11.0781H210.464V16.2812H200.76ZM202.729 14.6875H208.51V12.6719H202.729V14.6875ZM205.417 10.4375V2.48438H207.292V5.53125H208.573V2.23438H210.464V10.5625H208.573V7.15625H207.292V10.4375H205.417ZM224.769 13.125V14.7812H211.753V13.125H224.769ZM212.769 5.0625V3.46875H223.675V5.0625H221.675V9.375H223.612V10.9375H212.831V9.375H214.737V5.0625H212.769ZM216.737 9.375H219.706V5.0625H216.737V9.375ZM2.24609 29.6875C2.25391 26.75 3.16016 24.3047 4.65234 22.2031H6.85547C5.77734 23.7578 4.65234 26.8906 4.65234 29.6875C4.65234 32.4922 5.77734 35.6172 6.85547 37.1875H4.65234C3.16016 35.0781 2.25391 32.6328 2.24609 29.6875ZM20.348 32.125V33.7812H7.33234V32.125H20.348ZM8.34797 24.0625V22.4688H19.2542V24.0625H17.2542V28.375H19.1917V29.9375H8.41047V28.375H10.3167V24.0625H8.34797ZM12.3167 28.375H15.2855V24.0625H12.3167V28.375ZM33.8405 29.0781V30.6719H20.8248V29.0781H26.3405V27.9844H22.4498V24.0625H30.2623V23.0625H22.4186V21.5312H32.2623V25.4688H24.4342V26.4688H32.528V27.9844H28.3248V29.0781H33.8405ZM22.4655 35.5156V31.3906H24.4655V33.9219H32.5748V35.5156H22.4655ZM45.9423 28.5625V30.1406H35.8798V22.2656H45.833V23.875H37.9111V25.375H45.5048V26.9375H37.9111V28.5625H45.9423ZM34.3486 33.7812V32.1562H47.3642V33.7812H34.3486ZM51.1848 22.2656C52.8411 22.2656 54.1145 23.375 54.4192 25.0781H55.3567V21.4375H57.2005V31.375H55.3567V26.7031H54.3958C54.0598 28.3359 52.802 29.4219 51.1848 29.4219C49.2864 29.4219 47.9114 27.9375 47.9192 25.8438C47.9114 23.7109 49.2864 22.2656 51.1848 22.2656ZM49.7005 25.8438C49.6927 27.0234 50.3098 27.7031 51.1848 27.7031C52.052 27.7031 52.6848 27.0234 52.7005 25.8438C52.6848 24.6641 52.052 23.9531 51.1848 23.9531C50.3098 23.9531 49.6927 24.6641 49.7005 25.8438ZM50.4348 35.1875V30.4375H52.4348V33.5938H60.4348V35.1875H50.4348ZM58.1848 31.8125V21.2188H60.0755V31.8125H58.1848ZM72.9586 27.7969V29.3906H62.8961V22.4062H72.8492V24.0156H64.8648V27.7969H72.9586ZM61.3648 33.7031V32.0625H74.3805V33.7031H61.3648ZM78.8105 34.1719C76.4667 34.1641 75.0292 32.7812 75.0292 31C75.0292 29.6797 75.8652 28.8828 77.0995 28.0312C76.5058 27.2734 76.0136 26.4375 76.0136 25.4375C76.0136 23.7969 77.2402 22.5391 79.0917 22.5312C80.9042 22.5391 82.0214 23.7578 82.0136 25.1875C82.0214 26.2578 81.4667 27.1172 80.5136 27.7969L79.8495 28.2812L81.7402 30.4531C82.037 29.8984 82.2167 29.2344 82.2167 28.5H84.1386C84.1464 30.0312 83.748 31.2188 83.123 32.0469L84.8261 34H82.4042L81.7089 33.2188C80.8808 33.8828 79.8027 34.1641 78.8105 34.1719ZM77.2792 30.875C77.2792 31.6875 77.9198 32.3047 78.9198 32.2969C79.4433 32.2969 79.9745 32.1328 80.4589 31.8281L78.2948 29.4141L78.2167 29.4688C77.5761 29.9297 77.2792 30.4375 77.2792 30.875ZM77.998 25.4688C78.0058 25.9375 78.3027 26.4141 78.7323 26.9609L79.3261 26.5625C79.8964 26.2031 80.162 25.8047 80.1542 25.3125C80.162 24.875 79.7714 24.3984 79.1073 24.4062C78.4433 24.4062 78.0058 24.8906 77.998 25.4688ZM87.3186 22.1094V24.1406H89.2561V22.1094H91.0998V29H85.428V22.1094H87.3186ZM87.3186 32.0312V30.4375H97.1467V35.4375H95.1623V32.0312H87.3186ZM87.3186 27.4219H89.2561V25.6562H87.3186V27.4219ZM92.2092 29.7188V21.4844H94.0686V24.7031H95.2561V21.2344H97.1467V29.7969H95.2561V26.3125H94.0686V29.7188H92.2092ZM101.764 22.2656C103.42 22.2656 104.694 23.375 104.999 25.0781H105.936V21.4375H107.78V31.375H105.936V26.7031H104.975C104.639 28.3359 103.381 29.4219 101.764 29.4219C99.8658 29.4219 98.4908 27.9375 98.4986 25.8438C98.4908 23.7109 99.8658 22.2656 101.764 22.2656ZM100.28 25.8438C100.272 27.0234 100.889 27.7031 101.764 27.7031C102.631 27.7031 103.264 27.0234 103.28 25.8438C103.264 24.6641 102.631 23.9531 101.764 23.9531C100.889 23.9531 100.272 24.6641 100.28 25.8438ZM101.014 35.1875V30.4375H103.014V33.5938H111.014V35.1875H101.014ZM108.764 31.8125V21.2188H110.655V31.8125H108.764ZM123.538 27.7969V29.3906H113.475V22.4062H123.429V24.0156H115.444V27.7969H123.538ZM111.944 33.7031V32.0625H124.96V33.7031H111.944ZM130.015 29.6875C130.007 32.6328 129.101 35.0781 127.609 37.1875H125.405C126.484 35.6172 127.609 32.4922 127.609 29.6875C127.609 26.8906 126.484 23.7578 125.405 22.2031H127.609C129.101 24.3047 130.007 26.75 130.015 29.6875Z" fill="#333333"/>
<path d="M9.48047 45.5312V49.832H11.2266V50.5938H9.48047V55.9492H8.56641V45.5312H9.48047ZM1.35938 47.9688V47.207H4.04297V45.6602H4.95703V47.207H7.55859V47.9688H1.35938ZM1.95703 51.2266C1.95117 49.8203 3.0293 48.8359 4.51172 48.8359C5.98242 48.8359 7.05469 49.8203 7.06641 51.2266C7.05469 52.6387 5.98242 53.6172 4.51172 53.6172C3.0293 53.6172 1.95117 52.6387 1.95703 51.2266ZM2.83594 51.2266C2.83008 52.1758 3.53906 52.8438 4.51172 52.832C5.47266 52.8438 6.17578 52.1758 6.1875 51.2266C6.17578 50.2832 5.47266 49.6035 4.51172 49.6094C3.53906 49.6035 2.83008 50.2832 2.83594 51.2266ZM19.9163 45.9531V48.6602H13.635V50.0078H20.1389V50.7695H12.7092V47.9336H18.9788V46.7031H12.6858V45.9531H19.9163ZM11.5373 52.6094V51.8711H21.0764V52.6094H16.7405V55.9727H15.8264V52.6094H11.5373ZM26.9419 46.4805V51.2734H22.1255V46.4805H26.9419ZM23.0278 50.5352H26.0513V47.2305H23.0278V50.5352ZM23.3091 55.7266V52.4453H24.2114V54.9531H30.3052V55.7266H23.3091ZM28.9106 53.1719V45.5312H29.8247V48.707H31.395V49.4805H29.8247V53.1719H28.9106ZM40.7409 45.5312V55.9492H39.8503V45.5312H40.7409ZM31.9402 50.0312C31.946 47.8164 32.8249 46.416 34.1784 46.4102C35.4441 46.416 36.2995 47.6348 36.4167 49.5977H37.7644V45.7539H38.6433V55.4219H37.7644V50.3594H36.4226C36.3347 52.3867 35.4616 53.6582 34.1784 53.6523C32.8249 53.6582 31.946 52.2461 31.9402 50.0312ZM32.8073 50.0312C32.7956 51.7188 33.3347 52.7852 34.1784 52.7734C35.028 52.7852 35.5671 51.7188 35.5613 50.0312C35.5671 48.3379 35.028 47.2773 34.1784 47.2773C33.3347 47.2773 32.7956 48.3379 32.8073 50.0312ZM48.2062 46.7266C48.2062 48.127 49.2727 49.3457 50.7961 49.832L50.3039 50.5469C49.1379 50.1426 48.2297 49.3398 47.7785 48.291C47.3332 49.498 46.3723 50.4121 45.1242 50.8633L44.6555 50.125C46.2316 49.5859 47.298 48.2852 47.3039 46.7266V45.8945H48.2062V46.7266ZM46.2141 52.1875V51.4492H52.8586V53.9336H47.1398V55.082H53.2453V55.832H46.2375V53.2305H51.9445V52.1875H46.2141ZM51.9445 50.9805V45.5312H52.8586V47.8164H54.4289V48.5898H52.8586V50.9805H51.9445ZM60.8217 46.6094V47.3711H59.6616V52.5156C60.1655 52.4805 60.6635 52.4395 61.1381 52.3867L61.1967 53.0664C59.0873 53.3945 56.6498 53.4238 54.8569 53.4297L54.7631 52.6562C55.1909 52.6562 55.6655 52.6504 56.1577 52.6445V47.3711H55.0795V46.6094H60.8217ZM57.06 52.627C57.6166 52.6152 58.1967 52.5977 58.7709 52.5684V47.3711H57.06V52.627ZM60.6577 51.4492V50.6875H62.5678V48.9883H60.6577V48.2266H62.5678V45.5312H63.4819V55.9492H62.5678V51.4492H60.6577ZM74.5153 53.8516V54.6133H64.9762V53.8516H69.2653V51.6016H66.1012V46.2695H67.027V48.1562H72.4411V46.2695H73.3434V51.6016H70.1677V53.8516H74.5153ZM67.027 50.8516H72.4411V48.9062H67.027V50.8516ZM83.5331 48.6953V49.4336H76.3964V45.918H77.3105V48.6953H83.5331ZM75.0956 51.6016V50.8516H84.6347V51.6016H75.0956ZM76.3378 55.6914V52.668H77.2519V54.9297H83.5917V55.6914H76.3378ZM96.6469 45.543V53.1836H95.7211V49.1875H93.5766V48.4258H95.7211V45.543H96.6469ZM88.057 51.0977C89.5922 50.5586 90.7055 49.1816 90.7055 47.6875V47.1484H88.35V46.3867H93.9633V47.1484H91.6312V47.6875C91.6312 49.0352 92.6742 50.3418 94.1977 50.8633L93.7172 51.6016C92.5453 51.1738 91.6371 50.3008 91.1859 49.2227C90.7348 50.4297 89.7738 51.3848 88.5375 51.8477L88.057 51.0977ZM89.9555 55.7266V52.4922H90.8812V54.9531H96.9398V55.7266H89.9555ZM107.669 50.8633V51.625H103.426V53.7578H102.512V51.625H98.1295V50.8633H107.669ZM99.3483 55.7266V52.7266H100.274V54.9531H106.602V55.7266H99.3483ZM99.3717 49.668V46.0469H106.426V49.668H99.3717ZM100.274 48.9297H105.512V46.7734H100.274V48.9297ZM116.335 45.5312V49.7734H118.022V50.5469H116.335V55.9492H115.421V45.5312H116.335ZM108.343 53.2422C111.032 51.9062 112.497 49.8965 112.708 47.4297H108.823V46.6562H113.64C113.634 49.6035 112.251 52.293 108.858 53.9688L108.343 53.2422ZM124.55 46.5156V55H123.484V47.6172H123.437L121.374 48.9883V47.9219L123.484 46.5156H124.55ZM134.798 45.543V53.1602H133.884V45.543H134.798ZM126.443 48.8242C126.437 47.3242 127.615 46.2754 129.173 46.2695C130.732 46.2754 131.898 47.3242 131.904 48.8242C131.898 50.3418 130.732 51.3965 129.173 51.3906C127.615 51.3965 126.437 50.3418 126.443 48.8242ZM127.345 48.8242C127.334 49.8613 128.119 50.582 129.173 50.582C130.211 50.582 131.002 49.8613 131.002 48.8242C131.002 47.8047 130.211 47.0781 129.173 47.0781C128.119 47.0781 127.334 47.8047 127.345 48.8242ZM128.072 55.7266V52.3867H128.986V54.9531H135.127V55.7266H128.072ZM139.879 47.7812C139.885 49.0586 140.928 50.2012 142.469 50.6523L142.035 51.3906C140.84 51.0215 139.908 50.2422 139.445 49.2402C139 50.3711 138.039 51.2383 136.808 51.6602L136.34 50.9336C137.892 50.4531 138.971 49.2051 138.976 47.7812V47.5703H136.621V46.8086H138.976V45.4844H139.902V46.8086H142.234V47.5703H139.879V47.7812ZM137.676 54.0508C137.681 52.8613 138.982 52.1816 141.133 52.1875C143.283 52.1816 144.566 52.8613 144.566 54.0508C144.566 55.2402 143.283 55.9199 141.133 55.9141C138.982 55.9199 137.681 55.2402 137.676 54.0508ZM138.601 54.0508C138.59 54.7773 139.551 55.1992 141.133 55.1992C142.709 55.1992 143.67 54.7773 143.676 54.0508C143.67 53.3242 142.709 52.9141 141.133 52.9141C139.551 52.9141 138.59 53.3242 138.601 54.0508ZM143.558 51.9297V45.5312H144.473V48.25H146.043V49.0117H144.473V51.9297H143.558ZM149.33 46.0234C150.725 46.0176 151.791 46.832 151.99 48.0273H154.17V45.5312H155.096V51.1211H154.17V48.7891H151.996C151.815 50.0195 150.742 50.8398 149.33 50.8398C147.742 50.8398 146.617 49.8555 146.623 48.4258C146.617 47.0137 147.742 46.0176 149.33 46.0234ZM147.502 48.4258C147.502 49.375 148.258 50.0605 149.33 50.0664C150.379 50.0605 151.135 49.375 151.135 48.4258C151.135 47.4648 150.379 46.7969 149.33 46.8086C148.258 46.7969 147.502 47.4648 147.502 48.4258ZM148.381 55.8086V51.6484H149.307V52.9727H154.17V51.6484H155.096V55.8086H148.381ZM149.307 55.0586H154.17V53.7109H149.307V55.0586ZM164.799 46.2109V50.4531H159.913V46.2109H164.799ZM160.663 55.1992C162.456 55 164.178 53.9863 164.178 52.9492H161.096V52.2344H164.19V51.2148H165.104V52.2344H168.221V52.9492H165.128C165.122 53.9629 166.797 54.9766 168.585 55.1992L168.268 55.9141C166.704 55.6973 165.274 54.959 164.653 53.998C164.026 54.9824 162.561 55.6973 160.991 55.9141L160.663 55.1992ZM160.815 49.7266H163.897V46.9609H160.815V49.7266ZM167.049 51.5195V45.5312H167.952V51.5195H167.049ZM180.878 45.5312V55.9492H179.952V45.5312H180.878ZM172.394 53.2422C175.212 51.9062 176.653 49.9082 176.858 47.418H172.874V46.668H177.796C177.784 49.6621 176.39 52.3164 172.898 53.9922L172.394 53.2422ZM187.622 45.9883C187.616 47.2832 189.497 48.2793 191.372 48.5078L191.044 49.2109C189.404 48.9883 187.798 48.2559 187.142 47.1309C186.474 48.2559 184.863 48.9883 183.24 49.2109L182.923 48.5078C184.792 48.2793 186.673 47.2832 186.673 45.9883V45.5898H187.622V45.9883ZM182.396 50.6406V49.8906H191.888V50.6406H187.587V51.6836H190.669V54.0508H184.482V55.1055H190.986V55.832H183.568V53.3594H189.767V52.4102H183.544V51.6836H186.673V50.6406H182.396ZM198.791 48.332C198.791 50.166 200.004 52.0586 201.486 52.7852L200.924 53.5234C199.775 52.9258 198.814 51.6895 198.351 50.2422C197.888 51.7773 196.904 53.0957 195.732 53.7227L195.146 52.9844C196.67 52.2344 197.877 50.2363 197.888 48.332V46.4336H198.791V48.332ZM202.447 55.9492V45.5312H203.361V49.7617H205.107V50.5586H203.361V55.9492H202.447ZM208.301 46.0234C209.695 46.0176 210.762 46.832 210.961 48.0273H213.141V45.5312H214.066V51.1211H213.141V48.7891H210.967C210.785 50.0195 209.713 50.8398 208.301 50.8398C206.713 50.8398 205.588 49.8555 205.594 48.4258C205.588 47.0137 206.713 46.0176 208.301 46.0234ZM206.473 48.4258C206.473 49.375 207.229 50.0605 208.301 50.0664C209.35 50.0605 210.105 49.375 210.105 48.4258C210.105 47.4648 209.35 46.7969 208.301 46.8086C207.229 46.7969 206.473 47.4648 206.473 48.4258ZM207.352 55.8086V51.6484H208.277V52.9727H213.141V51.6484H214.066V55.8086H207.352ZM208.277 55.0586H213.141V53.7109H208.277V55.0586ZM223.647 45.5312V49.9727H225.311V50.7461H223.647V55.9492H222.721V45.5312H223.647ZM215.432 53.1719C216.281 53.1719 217.272 53.166 218.303 53.1367V51.9883C217.09 51.8477 216.299 51.1328 216.311 50.1016C216.299 48.9238 217.295 48.1621 218.772 48.168C220.225 48.1621 221.239 48.9238 221.244 50.1016C221.239 51.1387 220.436 51.8477 219.229 51.9883V53.1016C220.196 53.0547 221.18 52.9727 222.088 52.8438L222.147 53.5469C219.873 53.9336 217.412 53.957 215.584 53.957L215.432 53.1719ZM215.619 47.5586V46.8086H218.303V45.5547H219.229V46.8086H221.901V47.5586H215.619ZM217.166 50.1016C217.172 50.8223 217.805 51.2969 218.772 51.2852C219.721 51.2969 220.36 50.8223 220.365 50.1016C220.36 49.375 219.721 48.8828 218.772 48.8828C217.805 48.8828 217.172 49.375 217.166 50.1016ZM234.622 45.5312V55.9492H233.731V45.5312H234.622ZM225.821 50.0312C225.827 47.8164 226.706 46.416 228.059 46.4102C229.325 46.416 230.18 47.6348 230.297 49.5977H231.645V45.7539H232.524V55.4219H231.645V50.3594H230.303C230.215 52.3867 229.342 53.6582 228.059 53.6523C226.706 53.6582 225.827 52.2461 225.821 50.0312ZM226.688 50.0312C226.676 51.7188 227.215 52.7852 228.059 52.7734C228.909 52.7852 229.448 51.7188 229.442 50.0312C229.448 48.3379 228.909 47.2773 228.059 47.2773C227.215 47.2773 226.676 48.3379 226.688 50.0312ZM10.0312 61.5312V66.9453H9.10547V61.5312H10.0312ZM1.59375 65.8086C2.00977 65.8086 2.46094 65.8027 2.92969 65.7969V62.9844H1.88672V62.2461H7.52344V62.9844H6.46875V65.6562C7.00781 65.6152 7.53516 65.5625 8.03906 65.5039L8.08594 66.1836C6 66.4941 3.55078 66.5762 1.71094 66.5703L1.59375 65.8086ZM3.21094 68.1875V67.4492H10.0312V69.9336H4.14844V71.082H10.4297V71.832H3.24609V69.2422H9.11719V68.1875H3.21094ZM3.82031 65.7793C4.39453 65.7617 4.98633 65.7441 5.57812 65.709V62.9844H3.82031V65.7793ZM21.0881 69.8398V70.6133H11.5491V69.8398H13.9163V67.0332C13.0256 66.5703 12.4866 65.8203 12.4866 64.8711C12.4866 63.2598 14.0686 62.1992 16.2952 62.1875C18.5217 62.1992 20.1038 63.2598 20.1038 64.8711C20.1038 65.8027 19.5823 66.541 18.7209 67.0039V69.8398H21.0881ZM13.3772 64.8711C13.3713 66.0371 14.5842 66.8164 16.2952 66.8164C17.9885 66.8164 19.2131 66.0371 19.2131 64.8711C19.2131 63.7051 17.9885 62.9375 16.2952 62.9492C14.5842 62.9375 13.3713 63.7051 13.3772 64.8711ZM14.8186 69.8398H17.7952V67.3613C17.344 67.4785 16.8401 67.543 16.2952 67.543C15.762 67.543 15.2639 67.4844 14.8186 67.3672V69.8398ZM29.8247 61.543V64.9766H31.395V65.75H29.8247V69.3477H28.9106V61.543H29.8247ZM21.7036 63.5703V62.8203H24.352V61.543H25.2661V62.8203H27.9145V63.5703H21.7036ZM22.3013 66.0898C22.2954 64.9062 23.3032 64.1445 24.8091 64.1445C26.2973 64.1445 27.3052 64.9062 27.3169 66.0898C27.3052 67.2617 26.2973 68.0176 24.8091 68.0117C23.3032 68.0176 22.2954 67.2617 22.3013 66.0898ZM23.1802 66.0898C23.1743 66.8223 23.8247 67.2969 24.8091 67.2852C25.7817 67.2969 26.438 66.8223 26.4497 66.0898C26.438 65.3457 25.7817 64.8652 24.8091 64.8711C23.8247 64.8652 23.1743 65.3457 23.1802 66.0898ZM23.3091 71.7266V68.7266H24.2114V70.9531H30.3052V71.7266H23.3091ZM38.0752 64.332C38.0752 66.166 39.288 68.0586 40.7705 68.7852L40.208 69.5234C39.0595 68.9258 38.0986 67.6895 37.6357 66.2422C37.1728 67.7773 36.1884 69.0957 35.0166 69.7227L34.4306 68.9844C35.9541 68.2344 37.1611 66.2363 37.1728 64.332V62.4336H38.0752V64.332ZM41.7314 71.9492V61.5312H42.6455V65.7617H44.3916V66.5586H42.6455V71.9492H41.7314ZM47.5852 62.0234C48.9797 62.0176 50.0461 62.832 50.2453 64.0273H52.425V61.5312H53.3508V67.1211H52.425V64.7891H50.2512C50.0695 66.0195 48.9973 66.8398 47.5852 66.8398C45.9973 66.8398 44.8723 65.8555 44.8781 64.4258C44.8723 63.0137 45.9973 62.0176 47.5852 62.0234ZM45.757 64.4258C45.757 65.375 46.5129 66.0605 47.5852 66.0664C48.634 66.0605 49.3898 65.375 49.3898 64.4258C49.3898 63.4648 48.634 62.7969 47.5852 62.8086C46.5129 62.7969 45.757 63.4648 45.757 64.4258ZM46.6359 71.8086V67.6484H47.5617V68.9727H52.425V67.6484H53.3508V71.8086H46.6359ZM47.5617 71.0586H52.425V69.7109H47.5617V71.0586ZM63.7631 61.5312V71.9492H62.8842V61.5312H63.7631ZM54.8334 69.0312C57.101 67.6895 58.2377 65.8086 58.4194 63.6289H55.3022V62.8672H59.3334C59.3334 63.4004 59.2866 63.9277 59.1928 64.4375H60.7748V61.8125H61.6538V71.4219H60.7748V67.8125H58.8413V67.0508H60.7748V65.1992H59.0112C58.5073 66.9629 57.3647 68.5215 55.3959 69.6992L54.8334 69.0312ZM71.527 62.4922V63.1953H65.3747V62.4922H67.988V61.4727H68.902V62.4922H71.527ZM65.0231 67.4375C65.9079 67.4375 66.9274 67.4316 67.988 67.3965V66.6699C66.7516 66.5586 65.9606 66.002 65.9723 65.1523C65.9606 64.1855 66.9509 63.5938 68.4567 63.5938C69.9391 63.5938 70.9411 64.1855 70.9528 65.1523C70.9411 66.002 70.1384 66.5645 68.902 66.6699V67.3613C69.8747 67.3145 70.8591 67.2383 71.7731 67.1094L71.8434 67.7656C69.5583 68.1406 67.0387 68.1758 65.1637 68.1758L65.0231 67.4375ZM66.5348 69.7344V68.9961H73.5661V71.9492H72.6403V69.7344H66.5348ZM66.8395 65.1523C66.8395 65.6855 67.4782 66.043 68.4567 66.0312C69.4177 66.043 70.068 65.6855 70.0622 65.1523C70.068 64.584 69.4177 64.2383 68.4567 64.25C67.4782 64.2383 66.8395 64.584 66.8395 65.1523ZM72.6403 68.5039V61.5664H73.5661V68.5039H72.6403ZM78.7753 64.332C78.7695 66.2188 79.9823 68.1172 81.4941 68.8086L80.9433 69.5586C79.7597 68.9492 78.7812 67.707 78.3183 66.2246C77.8554 67.7832 76.8769 69.1191 75.6933 69.7461L75.0956 69.0078C76.6249 68.2578 77.832 66.2539 77.8378 64.332V62.4336H78.7753V64.332ZM80.3573 65.8438V65.0938H82.83V61.5312H83.7441V71.9727H82.83V65.8438H80.3573ZM91.5375 63.4648C91.5434 64.8535 92.5629 66.1191 94.1039 66.6523L93.6352 67.3672C92.4457 66.9453 91.5375 66.0957 91.0922 65.0176C90.6469 66.2012 89.6918 67.1211 88.4672 67.5664L87.975 66.8516C89.5336 66.3008 90.6234 64.959 90.6352 63.4648V63.0195H88.2562V62.2695H93.8812V63.0195H91.5375V63.4648ZM89.3344 69.1133V68.3633H96.1547V71.9492H95.2406V69.1133H89.3344ZM95.2406 67.8125V61.5312H96.1547V64.2852H97.725V65.0703H96.1547V67.8125H95.2406ZM101.727 63.1719C101.715 64.6602 102.776 65.9668 104.305 66.4883L103.79 67.2031C102.641 66.7754 101.739 65.9258 101.288 64.8301C100.842 66.0781 99.8932 67.0449 98.6334 67.5195L98.1295 66.7695C99.735 66.207 100.801 64.8242 100.813 63.207V62.1289H101.727V63.1719ZM99.8288 69.9805C99.8229 68.7266 101.153 68.0059 103.321 68.0117C105.483 68.0059 106.813 68.7266 106.813 69.9805C106.813 71.2227 105.483 71.9258 103.321 71.9258C101.153 71.9258 99.8229 71.2227 99.8288 69.9805ZM100.743 69.9805C100.737 70.7363 101.721 71.1934 103.321 71.1875C104.915 71.1934 105.899 70.7363 105.899 69.9805C105.899 69.2012 104.915 68.7383 103.321 68.7383C101.721 68.7383 100.737 69.2012 100.743 69.9805ZM103.532 64.5312V63.7695H105.852V61.5312H106.778V67.707H105.852V64.5312H103.532ZM113.077 68.082C115.216 68.082 116.511 68.7852 116.511 70.0039C116.511 71.2344 115.216 71.9375 113.077 71.9492C110.933 71.9375 109.626 71.2344 109.62 70.0039C109.626 68.7852 110.933 68.082 113.077 68.082ZM108.718 66.9922V62.1875H109.62V63.7812H112.655V62.1875H113.569V66.9922H108.718ZM109.62 66.2422H112.655V64.5078H109.62V66.2422ZM110.546 70.0039C110.534 70.7539 111.507 71.1992 113.077 71.1992C114.653 71.1992 115.614 70.7539 115.62 70.0039C115.614 69.2598 114.653 68.8203 113.077 68.8086C111.507 68.8203 110.534 69.2598 110.546 70.0039ZM115.503 67.8008V61.5312H116.417V64.1562H117.987V64.9414H116.417V67.8008H115.503ZM119.845 62.0703V63.6875H122.751V62.0703H123.653V64.0977H126.114V61.5312H127.04V67.2266H126.114V64.8711H123.653V66.8398H118.931V62.0703H119.845ZM119.845 66.0898H122.751V64.4141H119.845V66.0898ZM120.325 71.8086V67.7305H121.251V69.0078H126.114V67.7305H127.028V71.8086H120.325ZM121.251 71.0469H126.114V69.7461H121.251V71.0469Z" fill="#999999"/>
</svg>
