<svg width="261" height="328" viewBox="0 0 261 328" fill="none" xmlns="http://www.w3.org/2000/svg">
<rect x="0.5" y="44.5" width="260" height="283" rx="9.5" fill="white" stroke="#E6E6E6"/>
<path d="M91.5653 78.2969L95.6278 74.5625C96.0289 74.1771 96.3387 73.8568 96.5575 73.6016C96.7815 73.3464 96.9533 73.0938 97.0731 72.8438C97.1929 72.5885 97.2528 72.3177 97.2528 72.0312C97.2528 71.7031 97.1747 71.4167 97.0184 71.1719C96.8674 70.9271 96.6539 70.7396 96.3778 70.6094C96.107 70.474 95.7997 70.4062 95.4559 70.4062C94.9247 70.4062 94.5002 70.5651 94.1825 70.8828C93.8648 71.1953 93.7059 71.6198 93.7059 72.1562H91.4716C91.4664 71.4271 91.6304 70.7891 91.9637 70.2422C92.3023 69.6953 92.7762 69.2734 93.3856 68.9766C93.995 68.6797 94.6955 68.5312 95.4872 68.5312C96.2841 68.5312 96.9872 68.6745 97.5966 68.9609C98.2059 69.2422 98.6773 69.6354 99.0106 70.1406C99.3492 70.6458 99.5184 71.224 99.5184 71.875C99.5184 72.3177 99.4325 72.7448 99.2606 73.1562C99.0887 73.5625 98.7893 74.0182 98.3622 74.5234C97.9403 75.0234 97.3414 75.625 96.5653 76.3281L94.8466 78V78.0625H99.6747V80H91.5809L91.5653 78.2969ZM105.417 80.1562C104.474 80.1562 103.662 79.9297 102.98 79.4766C102.303 79.0182 101.782 78.3542 101.417 77.4844C101.053 76.6146 100.87 75.5677 100.87 74.3438C100.87 73.1198 101.053 72.0729 101.417 71.2031C101.782 70.3333 102.303 69.6719 102.98 69.2188C103.662 68.7604 104.474 68.5312 105.417 68.5312C106.355 68.5312 107.165 68.7604 107.847 69.2188C108.529 69.6719 109.053 70.3359 109.417 71.2109C109.782 72.0807 109.964 73.125 109.964 74.3438C109.964 75.5729 109.782 76.6224 109.417 77.4922C109.053 78.362 108.529 79.0234 107.847 79.4766C107.17 79.9297 106.36 80.1562 105.417 80.1562ZM105.417 78.2188C105.855 78.2188 106.232 78.0781 106.55 77.7969C106.873 77.5156 107.12 77.0911 107.292 76.5234C107.469 75.9557 107.558 75.2552 107.558 74.4219C107.558 73.125 107.37 72.1406 106.995 71.4688C106.62 70.7917 106.094 70.4531 105.417 70.4531C104.74 70.4531 104.214 70.7917 103.839 71.4688C103.464 72.1406 103.277 73.125 103.277 74.4219C103.277 75.2552 103.362 75.9557 103.534 76.5234C103.711 77.0911 103.959 77.5156 104.277 77.7969C104.599 78.0781 104.98 78.2188 105.417 78.2188ZM111.253 78.2969L115.316 74.5625C115.717 74.1771 116.027 73.8568 116.246 73.6016C116.47 73.3464 116.641 73.0938 116.761 72.8438C116.881 72.5885 116.941 72.3177 116.941 72.0312C116.941 71.7031 116.863 71.4167 116.707 71.1719C116.556 70.9271 116.342 70.7396 116.066 70.6094C115.795 70.474 115.488 70.4062 115.144 70.4062C114.613 70.4062 114.188 70.5651 113.871 70.8828C113.553 71.1953 113.394 71.6198 113.394 72.1562H111.16C111.154 71.4271 111.319 70.7891 111.652 70.2422C111.99 69.6953 112.464 69.2734 113.074 68.9766C113.683 68.6797 114.384 68.5312 115.175 68.5312C115.972 68.5312 116.675 68.6745 117.285 68.9609C117.894 69.2422 118.365 69.6354 118.699 70.1406C119.037 70.6458 119.207 71.224 119.207 71.875C119.207 72.3177 119.121 72.7448 118.949 73.1562C118.777 73.5625 118.477 74.0182 118.05 74.5234C117.628 75.0234 117.029 75.625 116.253 76.3281L114.535 78V78.0625H119.363V80H111.269L111.253 78.2969ZM124.902 80.1562C124.084 80.1562 123.35 80.0156 122.699 79.7344C122.053 79.4479 121.543 79.0521 121.168 78.5469C120.798 78.0365 120.605 77.4583 120.59 76.8125H122.965C122.98 77.0885 123.074 77.3333 123.246 77.5469C123.418 77.7604 123.65 77.9271 123.941 78.0469C124.233 78.1615 124.558 78.2188 124.918 78.2188C125.288 78.2188 125.618 78.1536 125.91 78.0234C126.207 77.888 126.436 77.7031 126.597 77.4688C126.764 77.2344 126.845 76.9688 126.84 76.6719C126.845 76.3646 126.759 76.0911 126.582 75.8516C126.41 75.612 126.163 75.4271 125.84 75.2969C125.517 75.1615 125.137 75.0938 124.699 75.0938H123.652V73.3594H124.699C125.064 73.3594 125.389 73.2969 125.676 73.1719C125.962 73.0469 126.186 72.8698 126.347 72.6406C126.509 72.4115 126.59 72.151 126.59 71.8594C126.59 71.5729 126.519 71.3203 126.379 71.1016C126.243 70.8828 126.051 70.7135 125.801 70.5938C125.551 70.4688 125.262 70.4062 124.933 70.4062C124.6 70.4062 124.293 70.4661 124.012 70.5859C123.736 70.7005 123.512 70.8672 123.34 71.0859C123.173 71.2995 123.084 71.5469 123.074 71.8281H120.824C120.834 71.1875 121.019 70.6172 121.379 70.1172C121.738 69.6172 122.228 69.2292 122.847 68.9531C123.472 68.6719 124.168 68.5312 124.933 68.5312C125.704 68.5312 126.387 68.6719 126.98 68.9531C127.579 69.2292 128.043 69.612 128.371 70.1016C128.699 70.5859 128.861 71.125 128.855 71.7188C128.861 72.1302 128.772 72.5052 128.59 72.8438C128.413 73.1771 128.16 73.4531 127.832 73.6719C127.509 73.8906 127.137 74.0365 126.715 74.1094V74.2031C127.262 74.2708 127.728 74.4219 128.113 74.6562C128.499 74.8906 128.79 75.1953 128.988 75.5703C129.186 75.9401 129.282 76.3594 129.277 76.8281C129.282 77.4635 129.097 78.0365 128.722 78.5469C128.347 79.0521 127.827 79.4479 127.16 79.7344C126.493 80.0156 125.741 80.1562 124.902 80.1562ZM142.129 77.6875H140.145V73.0312H136.613V71.4688H140.145V70.375H136.613V68.8125H140.145V67.2344H142.129V77.6875ZM142.473 81.1875H132.676V76.75H134.676V79.5938H142.473V81.1875ZM132.91 74.2031C133.827 74.1927 134.699 74.1536 135.528 74.0859C136.356 74.0182 137.197 73.9062 138.051 73.75L138.254 75.3594C137.27 75.5469 136.293 75.6745 135.324 75.7422C134.361 75.8099 133.28 75.8438 132.082 75.8438H130.942V68.125H132.91V74.2031ZM152.692 70.6875V70.6094H147.145V68.6875H155.13V70.6406L150.364 80H147.927L152.692 70.6875ZM167.95 75.4688H165.95V75.0156H163.372V73.8125H165.95V67.2344H167.95V75.4688ZM157.013 72.2344C160.304 72.2344 163.002 72.1354 165.107 71.9375L165.2 73.1719C164.013 73.3333 162.742 73.4479 161.388 73.5156V75.5H159.419V73.5938C158.502 73.6146 157.841 73.625 157.435 73.625C157.122 73.625 156.893 73.6198 156.747 73.6094H156.107L155.903 72.2344H157.013ZM167.95 79.2188H159.95V79.9531H168.278V81.3438H157.997V77.9375H165.966V77.2344H157.935V75.8906H167.95V79.2188ZM160.482 67.4219C161.179 67.4219 161.797 67.513 162.333 67.6953C162.875 67.8724 163.297 68.1224 163.599 68.4453C163.901 68.7682 164.054 69.1406 164.06 69.5625C164.054 70 163.901 70.3802 163.599 70.7031C163.302 71.0208 162.883 71.2656 162.341 71.4375C161.804 71.6042 161.185 71.6875 160.482 71.6875C159.758 71.6875 159.122 71.6042 158.575 71.4375C158.034 71.2656 157.614 71.0208 157.318 70.7031C157.021 70.3802 156.872 70 156.872 69.5625C156.872 69.1406 157.021 68.7682 157.318 68.4453C157.62 68.1172 158.044 67.8646 158.591 67.6875C159.138 67.5104 159.768 67.4219 160.482 67.4219ZM160.482 68.7344C159.945 68.7292 159.521 68.8021 159.208 68.9531C158.901 69.099 158.752 69.3021 158.763 69.5625C158.758 69.8281 158.906 70.0339 159.208 70.1797C159.515 70.3203 159.94 70.3906 160.482 70.3906C161.013 70.3906 161.432 70.3177 161.739 70.1719C162.047 70.026 162.2 69.8229 162.2 69.5625C162.2 69.3021 162.044 69.099 161.732 68.9531C161.419 68.8021 161.002 68.7292 160.482 68.7344Z" fill="#333333"/>
<path d="M38.1777 130.848C38.7012 130.852 39.1699 130.955 39.584 131.158C40.002 131.357 40.3301 131.637 40.5684 131.996C40.8066 132.352 40.9277 132.754 40.9316 133.203C40.9277 133.656 40.8066 134.061 40.5684 134.416C40.3301 134.771 40.002 135.049 39.584 135.248C39.1699 135.447 38.7012 135.547 38.1777 135.547C37.6504 135.547 37.1758 135.447 36.7539 135.248C36.3359 135.049 36.0078 134.771 35.7695 134.416C35.5312 134.061 35.4121 133.656 35.4121 133.203C35.4121 132.754 35.5312 132.352 35.7695 131.996C36.0078 131.637 36.3359 131.357 36.7539 131.158C37.1758 130.955 37.6504 130.852 38.1777 130.848ZM38.1777 131.785C37.8574 131.781 37.5684 131.838 37.3105 131.955C37.0566 132.072 36.8574 132.24 36.7129 132.459C36.5684 132.674 36.498 132.922 36.502 133.203C36.498 133.488 36.5664 133.74 36.707 133.959C36.8516 134.178 37.0508 134.348 37.3047 134.469C37.5625 134.586 37.8535 134.645 38.1777 134.645C38.498 134.645 38.7852 134.584 39.0391 134.463C39.293 134.342 39.4922 134.174 39.6367 133.959C39.7812 133.74 39.8535 133.488 39.8535 133.203C39.8535 132.922 39.7812 132.674 39.6367 132.459C39.4922 132.24 39.291 132.072 39.0332 131.955C38.7793 131.838 38.4941 131.781 38.1777 131.785ZM43.9082 135.84H42.7949V130.496H43.9082V135.84ZM43.9082 138.969H38.1191V139.977H44.2598V140.867H37.041V138.137H42.8066V137.211H37.0059V136.32H43.9082V138.969Z" fill="#333333"/>
<path d="M73.9316 136.66H72.8184V136.156H70.7676V135.453H72.8184V130.508H73.9316V136.66ZM65.9629 134.375C68.4043 134.375 70.4316 134.289 72.0449 134.117L72.1035 134.832C71.2168 134.953 70.209 135.043 69.0801 135.102V136.684H67.9785V135.148C67.4941 135.164 66.8027 135.172 65.9043 135.172H65.3066L65.1777 134.375H65.9629ZM73.9316 139.273H67.8848V140.082H74.248V140.891H66.7949V138.535H72.8301V137.785H66.748V137.012H73.9316V139.273ZM68.5879 130.684C69.1035 130.684 69.5586 130.75 69.9531 130.883C70.3477 131.012 70.6543 131.195 70.873 131.434C71.0957 131.672 71.209 131.949 71.2129 132.266C71.209 132.59 71.0977 132.871 70.8789 133.109C70.6602 133.344 70.3535 133.523 69.959 133.648C69.5645 133.773 69.1074 133.836 68.5879 133.836C68.0566 133.836 67.5918 133.773 67.1934 133.648C66.7988 133.523 66.4941 133.344 66.2793 133.109C66.0645 132.871 65.959 132.59 65.9629 132.266C65.959 131.949 66.0645 131.672 66.2793 131.434C66.498 131.195 66.8047 131.012 67.1992 130.883C67.5977 130.75 68.0605 130.684 68.5879 130.684ZM68.5879 131.434C68.2676 131.434 67.9883 131.469 67.75 131.539C67.5117 131.605 67.3281 131.701 67.1992 131.826C67.0703 131.951 67.0059 132.098 67.0059 132.266C67.0059 132.52 67.1484 132.721 67.4336 132.869C67.7188 133.014 68.1035 133.086 68.5879 133.086C69.0645 133.086 69.4453 133.012 69.7305 132.863C70.0156 132.715 70.1582 132.516 70.1582 132.266C70.1582 132.098 70.0938 131.951 69.9648 131.826C69.8359 131.701 69.6523 131.605 69.4141 131.539C69.1758 131.469 68.9004 131.434 68.5879 131.434Z" fill="#333333"/>
<path d="M103.428 134.891H105.01V135.828H103.428V140.996H102.314V130.496H103.428V134.891ZM95.0723 138.137C96.2637 138.137 97.1934 138.127 97.8613 138.107V137.041C97.4668 136.986 97.1211 136.873 96.8242 136.701C96.5312 136.529 96.3047 136.311 96.1445 136.045C95.9883 135.775 95.9121 135.473 95.916 135.137C95.9121 134.746 96.0137 134.402 96.2207 134.105C96.4316 133.809 96.7266 133.578 97.1055 133.414C97.4883 133.25 97.9277 133.168 98.4238 133.168C98.916 133.168 99.3516 133.25 99.7305 133.414C100.113 133.578 100.412 133.809 100.627 134.105C100.842 134.402 100.951 134.746 100.955 135.137C100.951 135.473 100.867 135.775 100.703 136.045C100.539 136.311 100.309 136.531 100.012 136.707C99.7148 136.879 99.3691 136.992 98.9746 137.047V138.061C99.9824 138.018 100.896 137.938 101.717 137.82L101.787 138.641C100.783 138.82 99.7598 138.936 98.7168 138.986C97.6777 139.037 96.5215 139.062 95.248 139.062L95.0723 138.137ZM101.564 132.629H95.2715V131.738H97.8613V130.52H98.9746V131.738H101.564V132.629ZM98.4238 134.035C98.1348 134.035 97.8789 134.08 97.6562 134.17C97.4336 134.26 97.2617 134.389 97.1406 134.557C97.0195 134.725 96.959 134.918 96.959 135.137C96.959 135.469 97.0918 135.732 97.3574 135.928C97.627 136.119 97.9824 136.215 98.4238 136.215C98.8652 136.215 99.2188 136.119 99.4844 135.928C99.7539 135.732 99.8887 135.469 99.8887 135.137C99.8887 134.918 99.8281 134.725 99.707 134.557C99.5859 134.389 99.4141 134.26 99.1914 134.17C98.9688 134.08 98.7129 134.035 98.4238 134.035Z" fill="#333333"/>
<path d="M130.58 131.422C130.576 131.879 130.742 132.32 131.078 132.746C131.418 133.168 131.877 133.527 132.455 133.824C133.033 134.117 133.662 134.309 134.342 134.398L133.908 135.312C133.338 135.223 132.797 135.066 132.285 134.844C131.773 134.621 131.32 134.346 130.926 134.018C130.531 133.689 130.223 133.322 130 132.916C129.773 133.322 129.463 133.689 129.068 134.018C128.678 134.346 128.229 134.621 127.721 134.844C127.213 135.062 126.674 135.219 126.104 135.312L125.658 134.398C126.338 134.309 126.965 134.117 127.539 133.824C128.113 133.531 128.568 133.174 128.904 132.752C129.244 132.326 129.416 131.883 129.42 131.422V130.848H130.58V131.422ZM134.775 137.258H130.51V140.996H129.42V137.258H125.201V136.344H134.775V137.258Z" fill="#333333"/>
<path d="M163.557 134.527H160.533V135.746H164.775V136.648H155.201V135.746H159.432V134.527H156.42V130.93H163.557V134.527ZM157.51 133.637H162.455V131.809H157.51V133.637ZM163.604 140.996H162.479V138.523H156.268V137.645H163.604V140.996Z" fill="#333333"/>
<path d="M193.592 131.82C193.592 132.391 193.576 132.898 193.545 133.344C193.518 133.789 193.443 134.293 193.322 134.855H194.811V135.77H185.201V134.855H192.197C192.322 134.309 192.402 133.816 192.438 133.379C192.473 132.941 192.49 132.461 192.49 131.938H186.408V131.023H193.592V131.82ZM193.604 140.867H186.373V137.105H193.604V140.867ZM187.463 139.965H192.502V137.984H187.463V139.965Z" fill="#333333"/>
<path d="M223.721 136.766H220.545V138.816H224.811V139.73H215.201V138.816H219.432V136.766H216.408V131.305H223.615V132.219H217.533V133.566H223.393V134.445H217.533V135.875H223.721V136.766Z" fill="#333333"/>
<path d="M221.283 182H219.982V174.805H219.936L217.908 176.129V174.898L220.018 173.516H221.283V182Z" fill="#333333"/>
<path d="M37.1816 205.062L40.123 202.098C40.4785 201.723 40.75 201.422 40.9375 201.195C41.125 200.969 41.2676 200.748 41.3652 200.533C41.4668 200.314 41.5176 200.086 41.5176 199.848C41.5176 199.574 41.4492 199.334 41.3125 199.127C41.1758 198.92 40.9883 198.76 40.75 198.646C40.5117 198.533 40.2441 198.477 39.9473 198.477C39.6387 198.477 39.3672 198.539 39.1328 198.664C38.8984 198.789 38.7168 198.965 38.5879 199.191C38.4629 199.418 38.4004 199.68 38.4004 199.977H37.1816C37.1777 199.469 37.2949 199.02 37.5332 198.629C37.7715 198.238 38.1035 197.936 38.5293 197.721C38.9551 197.506 39.4355 197.398 39.9707 197.398C40.5098 197.398 40.9883 197.504 41.4062 197.715C41.8281 197.922 42.1562 198.209 42.3906 198.576C42.625 198.943 42.7441 199.355 42.748 199.812C42.7441 200.137 42.6816 200.449 42.5605 200.75C42.4395 201.047 42.2324 201.379 41.9395 201.746C41.6465 202.109 41.2324 202.555 40.6973 203.082L38.9746 204.828V204.898H42.8887V206H37.1816V205.062Z" fill="#333333"/>
<path d="M39.9062 221.398C40.4766 221.398 41.002 221.527 41.4824 221.785C41.9668 222.039 42.3613 222.469 42.666 223.074C42.9746 223.676 43.1289 224.469 43.1289 225.453C43.1289 226.434 42.9941 227.273 42.7246 227.973C42.459 228.672 42.0762 229.205 41.5762 229.572C41.0801 229.936 40.4922 230.117 39.8125 230.117C39.3008 230.117 38.8398 230.02 38.4297 229.824C38.0234 229.625 37.6914 229.35 37.4336 228.998C37.1797 228.643 37.0195 228.234 36.9531 227.773H38.2305C38.3203 228.145 38.502 228.441 38.7754 228.664C39.0527 228.883 39.3984 228.992 39.8125 228.992C40.2461 228.992 40.6172 228.871 40.9258 228.629C41.2383 228.383 41.4766 228.029 41.6406 227.568C41.8086 227.104 41.8945 226.551 41.8984 225.91H41.793C41.5625 226.27 41.2559 226.551 40.873 226.754C40.4941 226.957 40.0781 227.059 39.625 227.059C39.1211 227.059 38.6602 226.939 38.2422 226.701C37.8242 226.463 37.4922 226.131 37.2461 225.705C37.0039 225.279 36.8828 224.801 36.8828 224.27C36.8828 223.734 37.0078 223.248 37.2578 222.811C37.5117 222.373 37.8672 222.029 38.3242 221.779C38.7852 221.525 39.3125 221.398 39.9062 221.398ZM39.9297 222.477C39.5938 222.477 39.2891 222.557 39.0156 222.717C38.7422 222.873 38.5273 223.088 38.3711 223.361C38.2148 223.631 38.1367 223.926 38.1367 224.246C38.1367 224.57 38.2129 224.867 38.3652 225.137C38.5176 225.406 38.7285 225.619 38.998 225.775C39.2676 225.928 39.5703 226.004 39.9062 226.004C40.2383 226.004 40.543 225.922 40.8203 225.758C41.0977 225.594 41.3164 225.377 41.4766 225.107C41.6406 224.834 41.7227 224.543 41.7227 224.234C41.7227 223.93 41.6445 223.643 41.4883 223.373C41.3359 223.104 41.1211 222.887 40.8438 222.723C40.5703 222.559 40.2656 222.477 39.9297 222.477Z" fill="#333333"/>
<path d="M37.6649 254H36.3641V246.805H36.3173L34.2899 248.129V246.898L36.3993 245.516H37.6649V254ZM42.6749 254.117C42.0968 254.117 41.5655 253.99 41.0812 253.736C40.6007 253.479 40.2062 253.047 39.8976 252.441C39.5929 251.836 39.4405 251.035 39.4405 250.039C39.4405 249.066 39.5734 248.232 39.839 247.537C40.1085 246.838 40.4913 246.307 40.9874 245.943C41.4874 245.58 42.0773 245.398 42.757 245.398C43.2648 245.398 43.7218 245.498 44.128 245.697C44.5382 245.893 44.8702 246.166 45.1241 246.518C45.378 246.869 45.5382 247.27 45.6046 247.719H44.3273C44.2413 247.359 44.0616 247.07 43.7882 246.852C43.5148 246.633 43.171 246.523 42.757 246.523C42.3234 246.523 41.9503 246.646 41.6378 246.893C41.3292 247.135 41.0929 247.486 40.9288 247.947C40.7648 248.404 40.6827 248.949 40.6827 249.582H40.7765C41.007 249.223 41.3116 248.941 41.6905 248.738C42.0734 248.535 42.4952 248.434 42.9562 248.434C43.4562 248.434 43.9152 248.555 44.3331 248.797C44.7511 249.035 45.0812 249.367 45.3234 249.793C45.5655 250.215 45.6866 250.691 45.6866 251.223C45.6866 251.766 45.5616 252.258 45.3116 252.699C45.0616 253.137 44.7081 253.482 44.2511 253.736C43.7941 253.99 43.2687 254.117 42.6749 254.117ZM42.6398 253.039C42.9757 253.039 43.2804 252.959 43.5538 252.799C43.8273 252.639 44.0421 252.422 44.1984 252.148C44.3546 251.875 44.4327 251.574 44.4327 251.246C44.4327 250.926 44.3566 250.631 44.2042 250.361C44.0519 250.092 43.8409 249.879 43.5714 249.723C43.3058 249.566 43.007 249.488 42.6749 249.488C42.3351 249.488 42.0245 249.57 41.7433 249.734C41.4659 249.895 41.2452 250.111 41.0812 250.385C40.921 250.654 40.839 250.945 40.8351 251.258C40.839 251.57 40.9191 251.863 41.0753 252.137C41.2316 252.41 41.4464 252.629 41.7198 252.793C41.9972 252.957 42.3038 253.039 42.6398 253.039Z" fill="#333333"/>
<path d="M33.5575 277.062L36.4989 274.098C36.8544 273.723 37.1259 273.422 37.3134 273.195C37.5009 272.969 37.6434 272.748 37.7411 272.533C37.8427 272.314 37.8934 272.086 37.8934 271.848C37.8934 271.574 37.8251 271.334 37.6884 271.127C37.5516 270.92 37.3641 270.76 37.1259 270.646C36.8876 270.533 36.62 270.477 36.3231 270.477C36.0145 270.477 35.743 270.539 35.5087 270.664C35.2743 270.789 35.0927 270.965 34.9637 271.191C34.8387 271.418 34.7762 271.68 34.7762 271.977H33.5575C33.5536 271.469 33.6708 271.02 33.9091 270.629C34.1473 270.238 34.4794 269.936 34.9052 269.721C35.3309 269.506 35.8114 269.398 36.3466 269.398C36.8856 269.398 37.3641 269.504 37.7821 269.715C38.204 269.922 38.5321 270.209 38.7665 270.576C39.0009 270.943 39.12 271.355 39.1239 271.812C39.12 272.137 39.0575 272.449 38.9364 272.75C38.8153 273.047 38.6083 273.379 38.3153 273.746C38.0223 274.109 37.6083 274.555 37.0731 275.082L35.3505 276.828V276.898H39.2645V278H33.5575V277.062ZM43.4659 278.117C42.8878 278.117 42.3683 278.02 41.9073 277.824C41.4503 277.629 41.089 277.355 40.8234 277.004C40.5616 276.648 40.423 276.242 40.4073 275.785H41.7198C41.7355 276.031 41.8195 276.246 41.9718 276.43C42.128 276.613 42.3351 276.756 42.5929 276.857C42.8507 276.955 43.1378 277.004 43.4542 277.004C43.7902 277.004 44.0929 276.945 44.3624 276.828C44.632 276.711 44.8429 276.549 44.9952 276.342C45.1476 276.131 45.2238 275.891 45.2238 275.621C45.2238 275.344 45.1476 275.096 44.9952 274.877C44.8429 274.658 44.6222 274.488 44.3331 274.367C44.048 274.242 43.7081 274.18 43.3136 274.18H42.587V273.125H43.3136C43.63 273.125 43.9132 273.068 44.1632 272.955C44.4132 272.842 44.6066 272.684 44.7433 272.48C44.8839 272.277 44.9542 272.043 44.9542 271.777C44.9542 271.52 44.8937 271.293 44.7726 271.098C44.6515 270.902 44.4796 270.75 44.257 270.641C44.0343 270.531 43.7745 270.477 43.4777 270.477C43.1886 270.477 42.921 270.527 42.6749 270.629C42.4288 270.73 42.2296 270.875 42.0773 271.062C41.9288 271.25 41.8488 271.469 41.837 271.719H40.5948C40.6066 271.27 40.7413 270.869 40.9991 270.518C41.2609 270.162 41.6105 269.887 42.048 269.691C42.4855 269.496 42.9659 269.398 43.4894 269.398C44.0284 269.398 44.503 269.502 44.9132 269.709C45.3273 269.916 45.6456 270.197 45.8683 270.553C46.0909 270.904 46.2003 271.289 46.1964 271.707C46.2003 272.184 46.0655 272.59 45.7921 272.926C45.5226 273.258 45.1573 273.48 44.6964 273.594V273.652C45.2706 273.734 45.7179 273.955 46.0382 274.314C46.3624 274.674 46.5245 275.125 46.5245 275.668C46.5245 276.133 46.3917 276.553 46.1261 276.928C45.8605 277.299 45.4952 277.59 45.0304 277.801C44.5655 278.012 44.0441 278.117 43.4659 278.117Z" fill="#333333"/>
<path d="M36.4345 302.117C35.8563 302.117 35.3368 302.02 34.8759 301.824C34.4188 301.629 34.0575 301.355 33.7919 301.004C33.5302 300.648 33.3915 300.242 33.3759 299.785H34.6884C34.704 300.031 34.788 300.246 34.9403 300.43C35.0966 300.613 35.3036 300.756 35.5614 300.857C35.8192 300.955 36.1063 301.004 36.4227 301.004C36.7587 301.004 37.0614 300.945 37.3309 300.828C37.6005 300.711 37.8114 300.549 37.9637 300.342C38.1161 300.131 38.1923 299.891 38.1923 299.621C38.1923 299.344 38.1161 299.096 37.9637 298.877C37.8114 298.658 37.5907 298.488 37.3016 298.367C37.0165 298.242 36.6766 298.18 36.2821 298.18H35.5555V297.125H36.2821C36.5985 297.125 36.8817 297.068 37.1317 296.955C37.3817 296.842 37.5751 296.684 37.7118 296.48C37.8524 296.277 37.9227 296.043 37.9227 295.777C37.9227 295.52 37.8622 295.293 37.7411 295.098C37.62 294.902 37.4481 294.75 37.2255 294.641C37.0028 294.531 36.743 294.477 36.4462 294.477C36.1571 294.477 35.8895 294.527 35.6434 294.629C35.3973 294.73 35.1981 294.875 35.0458 295.062C34.8973 295.25 34.8173 295.469 34.8055 295.719H33.5634C33.5751 295.27 33.7098 294.869 33.9677 294.518C34.2294 294.162 34.579 293.887 35.0165 293.691C35.454 293.496 35.9345 293.398 36.4579 293.398C36.997 293.398 37.4716 293.502 37.8817 293.709C38.2958 293.916 38.6141 294.197 38.8368 294.553C39.0595 294.904 39.1688 295.289 39.1649 295.707C39.1688 296.184 39.0341 296.59 38.7606 296.926C38.4911 297.258 38.1259 297.48 37.6649 297.594V297.652C38.2391 297.734 38.6864 297.955 39.0067 298.314C39.3309 298.674 39.493 299.125 39.493 299.668C39.493 300.133 39.3602 300.553 39.0946 300.928C38.829 301.299 38.4637 301.59 37.9989 301.801C37.5341 302.012 37.0126 302.117 36.4345 302.117ZM43.6241 302.117C42.9718 302.117 42.4113 301.947 41.9425 301.607C41.4777 301.268 41.1222 300.771 40.8761 300.119C40.63 299.463 40.507 298.676 40.507 297.758C40.507 296.848 40.63 296.066 40.8761 295.414C41.1261 294.758 41.4855 294.258 41.9542 293.914C42.423 293.57 42.9796 293.398 43.6241 293.398C44.2687 293.398 44.8253 293.57 45.2941 293.914C45.7628 294.258 46.1202 294.758 46.3663 295.414C46.6163 296.066 46.7413 296.848 46.7413 297.758C46.7413 298.676 46.6183 299.461 46.3722 300.113C46.1261 300.766 45.7687 301.264 45.2999 301.607C44.8312 301.947 44.2726 302.117 43.6241 302.117ZM43.6241 301.004C44.007 301.004 44.3351 300.881 44.6085 300.635C44.882 300.385 45.0909 300.018 45.2355 299.533C45.38 299.049 45.4523 298.457 45.4523 297.758C45.4523 297.062 45.378 296.471 45.2296 295.982C45.0851 295.49 44.8761 295.119 44.6027 294.869C44.3292 294.615 44.003 294.488 43.6241 294.488C43.2452 294.488 42.9191 294.615 42.6456 294.869C42.3722 295.119 42.1613 295.49 42.0128 295.982C41.8683 296.471 41.796 297.062 41.796 297.758C41.796 298.457 41.8683 299.049 42.0128 299.533C42.1573 300.018 42.3663 300.385 42.6398 300.635C42.9132 300.881 43.2413 301.004 43.6241 301.004Z" fill="#333333"/>
<path d="M70.0176 206.117C69.4395 206.117 68.9199 206.02 68.459 205.824C68.002 205.629 67.6406 205.355 67.375 205.004C67.1133 204.648 66.9746 204.242 66.959 203.785H68.2715C68.2871 204.031 68.3711 204.246 68.5234 204.43C68.6797 204.613 68.8867 204.756 69.1445 204.857C69.4023 204.955 69.6895 205.004 70.0059 205.004C70.3418 205.004 70.6445 204.945 70.9141 204.828C71.1836 204.711 71.3945 204.549 71.5469 204.342C71.6992 204.131 71.7754 203.891 71.7754 203.621C71.7754 203.344 71.6992 203.096 71.5469 202.877C71.3945 202.658 71.1738 202.488 70.8848 202.367C70.5996 202.242 70.2598 202.18 69.8652 202.18H69.1387V201.125H69.8652C70.1816 201.125 70.4648 201.068 70.7148 200.955C70.9648 200.842 71.1582 200.684 71.2949 200.48C71.4355 200.277 71.5059 200.043 71.5059 199.777C71.5059 199.52 71.4453 199.293 71.3242 199.098C71.2031 198.902 71.0312 198.75 70.8086 198.641C70.5859 198.531 70.3262 198.477 70.0293 198.477C69.7402 198.477 69.4727 198.527 69.2266 198.629C68.9805 198.73 68.7812 198.875 68.6289 199.062C68.4805 199.25 68.4004 199.469 68.3887 199.719H67.1465C67.1582 199.27 67.293 198.869 67.5508 198.518C67.8125 198.162 68.1621 197.887 68.5996 197.691C69.0371 197.496 69.5176 197.398 70.041 197.398C70.5801 197.398 71.0547 197.502 71.4648 197.709C71.8789 197.916 72.1973 198.197 72.4199 198.553C72.6426 198.904 72.752 199.289 72.748 199.707C72.752 200.184 72.6172 200.59 72.3438 200.926C72.0742 201.258 71.709 201.48 71.248 201.594V201.652C71.8223 201.734 72.2695 201.955 72.5898 202.314C72.9141 202.674 73.0762 203.125 73.0762 203.668C73.0762 204.133 72.9434 204.553 72.6777 204.928C72.4121 205.299 72.0469 205.59 71.582 205.801C71.1172 206.012 70.5957 206.117 70.0176 206.117Z" fill="#333333"/>
<path d="M67.7001 230H66.3993V222.805H66.3524L64.3251 224.129V222.898L66.4345 221.516H67.7001V230ZM72.5695 230.117C71.9171 230.117 71.3566 229.947 70.8878 229.607C70.423 229.268 70.0675 228.771 69.8214 228.119C69.5753 227.463 69.4523 226.676 69.4523 225.758C69.4523 224.848 69.5753 224.066 69.8214 223.414C70.0714 222.758 70.4308 222.258 70.8995 221.914C71.3683 221.57 71.9249 221.398 72.5695 221.398C73.214 221.398 73.7706 221.57 74.2394 221.914C74.7081 222.258 75.0655 222.758 75.3116 223.414C75.5616 224.066 75.6866 224.848 75.6866 225.758C75.6866 226.676 75.5636 227.461 75.3175 228.113C75.0714 228.766 74.714 229.264 74.2452 229.607C73.7765 229.947 73.2179 230.117 72.5695 230.117ZM72.5695 229.004C72.9523 229.004 73.2804 228.881 73.5538 228.635C73.8273 228.385 74.0363 228.018 74.1808 227.533C74.3253 227.049 74.3976 226.457 74.3976 225.758C74.3976 225.062 74.3234 224.471 74.1749 223.982C74.0304 223.49 73.8214 223.119 73.548 222.869C73.2745 222.615 72.9484 222.488 72.5695 222.488C72.1905 222.488 71.8644 222.615 71.5909 222.869C71.3175 223.119 71.1066 223.49 70.9581 223.982C70.8136 224.471 70.7413 225.062 70.7413 225.758C70.7413 226.457 70.8136 227.049 70.9581 227.533C71.1027 228.018 71.3116 228.385 71.5851 228.635C71.8585 228.881 72.1866 229.004 72.5695 229.004Z" fill="#333333"/>
<path d="M68.0458 254H66.745V246.805H66.6981L64.6708 248.129V246.898L66.7802 245.516H68.0458V254ZM74.0402 246.688V246.617H69.6691V245.516H75.3761V246.664L71.6027 254H70.255L74.0402 246.688Z" fill="#333333"/>
<path d="M63.5868 277.062L66.5282 274.098C66.8837 273.723 67.1552 273.422 67.3427 273.195C67.5302 272.969 67.6727 272.748 67.7704 272.533C67.872 272.314 67.9227 272.086 67.9227 271.848C67.9227 271.574 67.8544 271.334 67.7177 271.127C67.5809 270.92 67.3934 270.76 67.1552 270.646C66.9169 270.533 66.6493 270.477 66.3524 270.477C66.0438 270.477 65.7723 270.539 65.538 270.664C65.3036 270.789 65.122 270.965 64.993 271.191C64.868 271.418 64.8055 271.68 64.8055 271.977H63.5868C63.5829 271.469 63.7001 271.02 63.9384 270.629C64.1766 270.238 64.5087 269.936 64.9345 269.721C65.3602 269.506 65.8407 269.398 66.3759 269.398C66.9149 269.398 67.3934 269.504 67.8114 269.715C68.2333 269.922 68.5614 270.209 68.7958 270.576C69.0302 270.943 69.1493 271.355 69.1532 271.812C69.1493 272.137 69.0868 272.449 68.9657 272.75C68.8446 273.047 68.6376 273.379 68.3446 273.746C68.0516 274.109 67.6376 274.555 67.1024 275.082L65.3798 276.828V276.898H69.2938V278H63.5868V277.062ZM70.1085 275.305L73.8585 269.516H75.4523V275.258H76.6124V276.348H75.4523V278H74.2335V276.348H70.1085V275.305ZM74.2335 275.258V271.051H74.1398L71.4679 275.188V275.258H74.2335Z" fill="#333333"/>
<path d="M67.4481 302.117C66.87 302.117 66.3505 302.02 65.8895 301.824C65.4325 301.629 65.0712 301.355 64.8055 301.004C64.5438 300.648 64.4052 300.242 64.3895 299.785H65.702C65.7177 300.031 65.8016 300.246 65.954 300.43C66.1102 300.613 66.3173 300.756 66.5751 300.857C66.8329 300.955 67.12 301.004 67.4364 301.004C67.7723 301.004 68.0751 300.945 68.3446 300.828C68.6141 300.711 68.8251 300.549 68.9774 300.342C69.1298 300.131 69.2059 299.891 69.2059 299.621C69.2059 299.344 69.1298 299.096 68.9774 298.877C68.8251 298.658 68.6044 298.488 68.3153 298.367C68.0302 298.242 67.6903 298.18 67.2958 298.18H66.5692V297.125H67.2958C67.6122 297.125 67.8954 297.068 68.1454 296.955C68.3954 296.842 68.5887 296.684 68.7255 296.48C68.8661 296.277 68.9364 296.043 68.9364 295.777C68.9364 295.52 68.8759 295.293 68.7548 295.098C68.6337 294.902 68.4618 294.75 68.2391 294.641C68.0165 294.531 67.7567 294.477 67.4598 294.477C67.1708 294.477 66.9032 294.527 66.6571 294.629C66.411 294.73 66.2118 294.875 66.0595 295.062C65.911 295.25 65.8309 295.469 65.8192 295.719H64.577C64.5887 295.27 64.7235 294.869 64.9813 294.518C65.243 294.162 65.5927 293.887 66.0302 293.691C66.4677 293.496 66.9481 293.398 67.4716 293.398C68.0106 293.398 68.4852 293.502 68.8954 293.709C69.3095 293.916 69.6278 294.197 69.8505 294.553C70.0731 294.904 70.1825 295.289 70.1786 295.707C70.1825 296.184 70.0477 296.59 69.7743 296.926C69.5048 297.258 69.1395 297.48 68.6786 297.594V297.652C69.2528 297.734 69.7001 297.955 70.0204 298.314C70.3446 298.674 70.5067 299.125 70.5067 299.668C70.5067 300.133 70.3739 300.553 70.1083 300.928C69.8427 301.299 69.4774 301.59 69.0126 301.801C68.5477 302.012 68.0262 302.117 67.4481 302.117ZM74.9073 302H73.6066V294.805H73.5597L71.5323 296.129V294.898L73.6417 293.516H74.9073V302Z" fill="#333333"/>
<path d="M96.7539 203.305L100.504 197.516H102.098V203.258H103.258V204.348H102.098V206H100.879V204.348H96.7539V203.305ZM100.879 203.258V199.051H100.785L98.1133 203.188V203.258H100.879Z" fill="#333333"/>
<path d="M98.7137 230H97.413V222.805H97.3661L95.3387 224.129V222.898L97.4481 221.516H98.7137V230ZM103.853 230H102.552V222.805H102.505L100.478 224.129V222.898L102.587 221.516H103.853V230Z" fill="#333333"/>
<path d="M93.663 277.062L96.6044 274.098C96.9598 273.723 97.2313 273.422 97.4188 273.195C97.6063 272.969 97.7489 272.748 97.8466 272.533C97.9481 272.314 97.9989 272.086 97.9989 271.848C97.9989 271.574 97.9305 271.334 97.7938 271.127C97.6571 270.92 97.4696 270.76 97.2313 270.646C96.993 270.533 96.7255 270.477 96.4286 270.477C96.12 270.477 95.8485 270.539 95.6141 270.664C95.3798 270.789 95.1981 270.965 95.0692 271.191C94.9442 271.418 94.8817 271.68 94.8817 271.977H93.663C93.6591 271.469 93.7762 271.02 94.0145 270.629C94.2528 270.238 94.5848 269.936 95.0106 269.721C95.4364 269.506 95.9169 269.398 96.452 269.398C96.9911 269.398 97.4696 269.504 97.8876 269.715C98.3095 269.922 98.6376 270.209 98.872 270.576C99.1063 270.943 99.2255 271.355 99.2294 271.812C99.2255 272.137 99.163 272.449 99.0419 272.75C98.9208 273.047 98.7137 273.379 98.4208 273.746C98.1278 274.109 97.7137 274.555 97.1786 275.082L95.4559 276.828V276.898H99.37V278H93.663V277.062ZM103.443 278.117C102.915 278.117 102.437 278.018 102.007 277.818C101.577 277.615 101.235 277.338 100.982 276.986C100.728 276.631 100.591 276.23 100.571 275.785H101.825C101.849 276.023 101.935 276.238 102.083 276.43C102.232 276.621 102.425 276.771 102.663 276.881C102.901 276.986 103.161 277.039 103.443 277.039C103.782 277.039 104.085 276.963 104.351 276.811C104.62 276.658 104.831 276.449 104.984 276.184C105.136 275.914 105.212 275.613 105.212 275.281C105.212 274.941 105.134 274.637 104.978 274.367C104.821 274.094 104.605 273.881 104.327 273.729C104.05 273.572 103.735 273.492 103.384 273.488C102.669 273.488 102.173 273.738 101.896 274.238H100.677L101.228 269.516H106.032V270.617H102.294L102.013 272.996H102.095C102.275 272.824 102.505 272.686 102.786 272.58C103.071 272.475 103.372 272.422 103.689 272.422C104.212 272.422 104.685 272.543 105.107 272.785C105.532 273.027 105.864 273.363 106.103 273.793C106.345 274.223 106.466 274.707 106.466 275.246C106.466 275.797 106.337 276.291 106.079 276.729C105.821 277.166 105.462 277.508 105.001 277.754C104.544 277.996 104.025 278.117 103.443 278.117Z" fill="#333333"/>
<path d="M129.994 206.117C129.467 206.117 128.988 206.018 128.559 205.818C128.129 205.615 127.787 205.338 127.533 204.986C127.279 204.631 127.143 204.23 127.123 203.785H128.377C128.4 204.023 128.486 204.238 128.635 204.43C128.783 204.621 128.977 204.771 129.215 204.881C129.453 204.986 129.713 205.039 129.994 205.039C130.334 205.039 130.637 204.963 130.902 204.811C131.172 204.658 131.383 204.449 131.535 204.184C131.688 203.914 131.764 203.613 131.764 203.281C131.764 202.941 131.686 202.637 131.529 202.367C131.373 202.094 131.156 201.881 130.879 201.729C130.602 201.572 130.287 201.492 129.936 201.488C129.221 201.488 128.725 201.738 128.447 202.238H127.229L127.779 197.516H132.584V198.617H128.846L128.564 200.996H128.646C128.826 200.824 129.057 200.686 129.338 200.58C129.623 200.475 129.924 200.422 130.24 200.422C130.764 200.422 131.236 200.543 131.658 200.785C132.084 201.027 132.416 201.363 132.654 201.793C132.896 202.223 133.018 202.707 133.018 203.246C133.018 203.797 132.889 204.291 132.631 204.729C132.373 205.166 132.014 205.508 131.553 205.754C131.096 205.996 130.576 206.117 129.994 206.117Z" fill="#333333"/>
<path d="M127.835 230H126.534V222.805H126.487L124.46 224.129V222.898L126.569 221.516H127.835V230ZM129.751 229.062L132.693 226.098C133.048 225.723 133.319 225.422 133.507 225.195C133.694 224.969 133.837 224.748 133.935 224.533C134.036 224.314 134.087 224.086 134.087 223.848C134.087 223.574 134.019 223.334 133.882 223.127C133.745 222.92 133.558 222.76 133.319 222.646C133.081 222.533 132.814 222.477 132.517 222.477C132.208 222.477 131.937 222.539 131.702 222.664C131.468 222.789 131.286 222.965 131.157 223.191C131.032 223.418 130.97 223.68 130.97 223.977H129.751C129.747 223.469 129.864 223.02 130.103 222.629C130.341 222.238 130.673 221.936 131.099 221.721C131.525 221.506 132.005 221.398 132.54 221.398C133.079 221.398 133.558 221.504 133.976 221.715C134.398 221.922 134.726 222.209 134.96 222.576C135.194 222.943 135.314 223.355 135.318 223.812C135.314 224.137 135.251 224.449 135.13 224.75C135.009 225.047 134.802 225.379 134.509 225.746C134.216 226.109 133.802 226.555 133.267 227.082L131.544 228.828V228.898H135.458V230H129.751V229.062Z" fill="#333333"/>
<path d="M123.563 277.062L126.505 274.098C126.86 273.723 127.132 273.422 127.319 273.195C127.507 272.969 127.649 272.748 127.747 272.533C127.849 272.314 127.899 272.086 127.899 271.848C127.899 271.574 127.831 271.334 127.694 271.127C127.557 270.92 127.37 270.76 127.132 270.646C126.893 270.533 126.626 270.477 126.329 270.477C126.02 270.477 125.749 270.539 125.515 270.664C125.28 270.789 125.099 270.965 124.97 271.191C124.845 271.418 124.782 271.68 124.782 271.977H123.563C123.559 271.469 123.677 271.02 123.915 270.629C124.153 270.238 124.485 269.936 124.911 269.721C125.337 269.506 125.817 269.398 126.352 269.398C126.891 269.398 127.37 269.504 127.788 269.715C128.21 269.922 128.538 270.209 128.772 270.576C129.007 270.943 129.126 271.355 129.13 271.812C129.126 272.137 129.063 272.449 128.942 272.75C128.821 273.047 128.614 273.379 128.321 273.746C128.028 274.109 127.614 274.555 127.079 275.082L125.356 276.828V276.898H129.27V278H123.563V277.062ZM133.554 278.117C132.976 278.117 132.444 277.99 131.96 277.736C131.48 277.479 131.085 277.047 130.776 276.441C130.472 275.836 130.319 275.035 130.319 274.039C130.319 273.066 130.452 272.232 130.718 271.537C130.987 270.838 131.37 270.307 131.866 269.943C132.366 269.58 132.956 269.398 133.636 269.398C134.144 269.398 134.601 269.498 135.007 269.697C135.417 269.893 135.749 270.166 136.003 270.518C136.257 270.869 136.417 271.27 136.484 271.719H135.206C135.12 271.359 134.941 271.07 134.667 270.852C134.394 270.633 134.05 270.523 133.636 270.523C133.202 270.523 132.829 270.646 132.517 270.893C132.208 271.135 131.972 271.486 131.808 271.947C131.644 272.404 131.562 272.949 131.562 273.582H131.655C131.886 273.223 132.191 272.941 132.569 272.738C132.952 272.535 133.374 272.434 133.835 272.434C134.335 272.434 134.794 272.555 135.212 272.797C135.63 273.035 135.96 273.367 136.202 273.793C136.444 274.215 136.566 274.691 136.566 275.223C136.566 275.766 136.441 276.258 136.191 276.699C135.941 277.137 135.587 277.482 135.13 277.736C134.673 277.99 134.148 278.117 133.554 278.117ZM133.519 277.039C133.855 277.039 134.159 276.959 134.433 276.799C134.706 276.639 134.921 276.422 135.077 276.148C135.234 275.875 135.312 275.574 135.312 275.246C135.312 274.926 135.235 274.631 135.083 274.361C134.931 274.092 134.72 273.879 134.45 273.723C134.185 273.566 133.886 273.488 133.554 273.488C133.214 273.488 132.903 273.57 132.622 273.734C132.345 273.895 132.124 274.111 131.96 274.385C131.8 274.654 131.718 274.945 131.714 275.258C131.718 275.57 131.798 275.863 131.954 276.137C132.11 276.41 132.325 276.629 132.599 276.793C132.876 276.957 133.183 277.039 133.519 277.039Z" fill="#333333"/>
<path d="M160.105 206.117C159.527 206.117 158.996 205.99 158.512 205.736C158.031 205.479 157.637 205.047 157.328 204.441C157.023 203.836 156.871 203.035 156.871 202.039C156.871 201.066 157.004 200.232 157.27 199.537C157.539 198.838 157.922 198.307 158.418 197.943C158.918 197.58 159.508 197.398 160.188 197.398C160.695 197.398 161.152 197.498 161.559 197.697C161.969 197.893 162.301 198.166 162.555 198.518C162.809 198.869 162.969 199.27 163.035 199.719H161.758C161.672 199.359 161.492 199.07 161.219 198.852C160.945 198.633 160.602 198.523 160.188 198.523C159.754 198.523 159.381 198.646 159.068 198.893C158.76 199.135 158.523 199.486 158.359 199.947C158.195 200.404 158.113 200.949 158.113 201.582H158.207C158.438 201.223 158.742 200.941 159.121 200.738C159.504 200.535 159.926 200.434 160.387 200.434C160.887 200.434 161.346 200.555 161.764 200.797C162.182 201.035 162.512 201.367 162.754 201.793C162.996 202.215 163.117 202.691 163.117 203.223C163.117 203.766 162.992 204.258 162.742 204.699C162.492 205.137 162.139 205.482 161.682 205.736C161.225 205.99 160.699 206.117 160.105 206.117ZM160.07 205.039C160.406 205.039 160.711 204.959 160.984 204.799C161.258 204.639 161.473 204.422 161.629 204.148C161.785 203.875 161.863 203.574 161.863 203.246C161.863 202.926 161.787 202.631 161.635 202.361C161.482 202.092 161.271 201.879 161.002 201.723C160.736 201.566 160.438 201.488 160.105 201.488C159.766 201.488 159.455 201.57 159.174 201.734C158.896 201.895 158.676 202.111 158.512 202.385C158.352 202.654 158.27 202.945 158.266 203.258C158.27 203.57 158.35 203.863 158.506 204.137C158.662 204.41 158.877 204.629 159.15 204.793C159.428 204.957 159.734 205.039 160.07 205.039Z" fill="#333333"/>
<path d="M157.659 230H156.358V222.805H156.311L154.284 224.129V222.898L156.393 221.516H157.659V230ZM162.587 230.117C162.009 230.117 161.489 230.02 161.028 229.824C160.571 229.629 160.21 229.355 159.944 229.004C159.683 228.648 159.544 228.242 159.528 227.785H160.841C160.857 228.031 160.941 228.246 161.093 228.43C161.249 228.613 161.456 228.756 161.714 228.857C161.972 228.955 162.259 229.004 162.575 229.004C162.911 229.004 163.214 228.945 163.484 228.828C163.753 228.711 163.964 228.549 164.116 228.342C164.269 228.131 164.345 227.891 164.345 227.621C164.345 227.344 164.269 227.096 164.116 226.877C163.964 226.658 163.743 226.488 163.454 226.367C163.169 226.242 162.829 226.18 162.435 226.18H161.708V225.125H162.435C162.751 225.125 163.034 225.068 163.284 224.955C163.534 224.842 163.728 224.684 163.864 224.48C164.005 224.277 164.075 224.043 164.075 223.777C164.075 223.52 164.015 223.293 163.894 223.098C163.773 222.902 163.601 222.75 163.378 222.641C163.155 222.531 162.896 222.477 162.599 222.477C162.31 222.477 162.042 222.527 161.796 222.629C161.55 222.73 161.351 222.875 161.198 223.062C161.05 223.25 160.97 223.469 160.958 223.719H159.716C159.728 223.27 159.862 222.869 160.12 222.518C160.382 222.162 160.732 221.887 161.169 221.691C161.607 221.496 162.087 221.398 162.61 221.398C163.15 221.398 163.624 221.502 164.034 221.709C164.448 221.916 164.767 222.197 164.989 222.553C165.212 222.904 165.321 223.289 165.318 223.707C165.321 224.184 165.187 224.59 164.913 224.926C164.644 225.258 164.278 225.48 163.818 225.594V225.652C164.392 225.734 164.839 225.955 165.159 226.314C165.484 226.674 165.646 227.125 165.646 227.668C165.646 228.133 165.513 228.553 165.247 228.928C164.982 229.299 164.616 229.59 164.151 229.801C163.687 230.012 163.165 230.117 162.587 230.117Z" fill="#333333"/>
<path d="M153.944 277.062L156.886 274.098C157.241 273.723 157.513 273.422 157.7 273.195C157.888 272.969 158.03 272.748 158.128 272.533C158.229 272.314 158.28 272.086 158.28 271.848C158.28 271.574 158.212 271.334 158.075 271.127C157.938 270.92 157.751 270.76 157.513 270.646C157.274 270.533 157.007 270.477 156.71 270.477C156.401 270.477 156.13 270.539 155.895 270.664C155.661 270.789 155.479 270.965 155.35 271.191C155.225 271.418 155.163 271.68 155.163 271.977H153.944C153.94 271.469 154.057 271.02 154.296 270.629C154.534 270.238 154.866 269.936 155.292 269.721C155.718 269.506 156.198 269.398 156.733 269.398C157.272 269.398 157.751 269.504 158.169 269.715C158.591 269.922 158.919 270.209 159.153 270.576C159.388 270.943 159.507 271.355 159.511 271.812C159.507 272.137 159.444 272.449 159.323 272.75C159.202 273.047 158.995 273.379 158.702 273.746C158.409 274.109 157.995 274.555 157.46 275.082L155.737 276.828V276.898H159.651V278H153.944V277.062ZM164.919 270.688V270.617H160.548V269.516H166.255V270.664L162.482 278H161.134L164.919 270.688Z" fill="#333333"/>
<path d="M191.471 198.688V198.617H187.1V197.516H192.807V198.664L189.033 206H187.686L191.471 198.688Z" fill="#333333"/>
<path d="M187.595 230H186.294V222.805H186.247L184.22 224.129V222.898L186.329 221.516H187.595V230ZM189.323 227.305L193.073 221.516H194.667V227.258H195.827V228.348H194.667V230H193.448V228.348H189.323V227.305ZM193.448 227.258V223.051H193.355L190.683 227.188V227.258H193.448Z" fill="#333333"/>
<path d="M183.593 277.062L186.534 274.098C186.89 273.723 187.161 273.422 187.349 273.195C187.536 272.969 187.679 272.748 187.776 272.533C187.878 272.314 187.929 272.086 187.929 271.848C187.929 271.574 187.86 271.334 187.724 271.127C187.587 270.92 187.399 270.76 187.161 270.646C186.923 270.533 186.655 270.477 186.358 270.477C186.05 270.477 185.778 270.539 185.544 270.664C185.309 270.789 185.128 270.965 184.999 271.191C184.874 271.418 184.811 271.68 184.811 271.977H183.593C183.589 271.469 183.706 271.02 183.944 270.629C184.182 270.238 184.515 269.936 184.94 269.721C185.366 269.506 185.847 269.398 186.382 269.398C186.921 269.398 187.399 269.504 187.817 269.715C188.239 269.922 188.567 270.209 188.802 270.576C189.036 270.943 189.155 271.355 189.159 271.812C189.155 272.137 189.093 272.449 188.972 272.75C188.85 273.047 188.643 273.379 188.35 273.746C188.057 274.109 187.643 274.555 187.108 275.082L185.386 276.828V276.898H189.3V278H183.593V277.062ZM193.454 278.117C192.849 278.117 192.308 278.016 191.831 277.812C191.359 277.609 190.989 277.328 190.724 276.969C190.462 276.605 190.333 276.195 190.337 275.738C190.333 275.383 190.409 275.053 190.566 274.748C190.722 274.439 190.935 274.186 191.204 273.986C191.478 273.783 191.778 273.656 192.107 273.605V273.559C191.821 273.492 191.568 273.369 191.345 273.189C191.126 273.006 190.956 272.781 190.835 272.516C190.714 272.25 190.653 271.965 190.653 271.66C190.653 271.23 190.775 270.844 191.017 270.5C191.259 270.156 191.593 269.887 192.019 269.691C192.444 269.496 192.923 269.398 193.454 269.398C193.982 269.398 194.456 269.496 194.878 269.691C195.304 269.887 195.636 270.156 195.874 270.5C196.116 270.844 196.239 271.23 196.243 271.66C196.239 271.965 196.175 272.25 196.05 272.516C195.929 272.781 195.759 273.006 195.54 273.189C195.321 273.369 195.071 273.492 194.79 273.559V273.605C195.114 273.656 195.411 273.783 195.681 273.986C195.954 274.186 196.169 274.439 196.325 274.748C196.485 275.053 196.568 275.383 196.571 275.738C196.568 276.195 196.433 276.605 196.167 276.969C195.901 277.328 195.532 277.609 195.06 277.812C194.587 278.016 194.052 278.117 193.454 278.117ZM193.454 277.051C193.818 277.051 194.134 276.992 194.403 276.875C194.677 276.758 194.888 276.594 195.036 276.383C195.185 276.168 195.259 275.922 195.259 275.645C195.259 275.355 195.181 275.096 195.025 274.865C194.868 274.635 194.653 274.455 194.38 274.326C194.107 274.197 193.798 274.133 193.454 274.133C193.107 274.133 192.794 274.197 192.517 274.326C192.239 274.455 192.023 274.635 191.866 274.865C191.714 275.096 191.642 275.355 191.65 275.645C191.642 275.922 191.71 276.166 191.855 276.377C191.999 276.588 192.208 276.754 192.482 276.875C192.759 276.992 193.083 277.051 193.454 277.051ZM193.454 273.113C193.747 273.113 194.009 273.059 194.239 272.949C194.474 272.836 194.655 272.678 194.784 272.475C194.913 272.271 194.978 272.039 194.978 271.777C194.978 271.52 194.913 271.291 194.784 271.092C194.655 270.889 194.476 270.732 194.245 270.623C194.015 270.51 193.751 270.453 193.454 270.453C193.146 270.453 192.874 270.508 192.64 270.617C192.405 270.727 192.224 270.883 192.095 271.086C191.97 271.285 191.907 271.516 191.907 271.777C191.907 272.039 191.974 272.271 192.107 272.475C192.239 272.678 192.423 272.836 192.657 272.949C192.892 273.059 193.157 273.113 193.454 273.113Z" fill="#333333"/>
<path d="M220.006 206.117C219.4 206.117 218.859 206.016 218.383 205.812C217.91 205.609 217.541 205.328 217.275 204.969C217.014 204.605 216.885 204.195 216.889 203.738C216.885 203.383 216.961 203.053 217.117 202.748C217.273 202.439 217.486 202.186 217.756 201.986C218.029 201.783 218.33 201.656 218.658 201.605V201.559C218.373 201.492 218.119 201.369 217.896 201.189C217.678 201.006 217.508 200.781 217.387 200.516C217.266 200.25 217.205 199.965 217.205 199.66C217.205 199.23 217.326 198.844 217.568 198.5C217.811 198.156 218.145 197.887 218.57 197.691C218.996 197.496 219.475 197.398 220.006 197.398C220.533 197.398 221.008 197.496 221.43 197.691C221.855 197.887 222.188 198.156 222.426 198.5C222.668 198.844 222.791 199.23 222.795 199.66C222.791 199.965 222.727 200.25 222.602 200.516C222.48 200.781 222.311 201.006 222.092 201.189C221.873 201.369 221.623 201.492 221.342 201.559V201.605C221.666 201.656 221.963 201.783 222.232 201.986C222.506 202.186 222.721 202.439 222.877 202.748C223.037 203.053 223.119 203.383 223.123 203.738C223.119 204.195 222.984 204.605 222.719 204.969C222.453 205.328 222.084 205.609 221.611 205.812C221.139 206.016 220.604 206.117 220.006 206.117ZM220.006 205.051C220.369 205.051 220.686 204.992 220.955 204.875C221.229 204.758 221.439 204.594 221.588 204.383C221.736 204.168 221.811 203.922 221.811 203.645C221.811 203.355 221.732 203.096 221.576 202.865C221.42 202.635 221.205 202.455 220.932 202.326C220.658 202.197 220.35 202.133 220.006 202.133C219.658 202.133 219.346 202.197 219.068 202.326C218.791 202.455 218.574 202.635 218.418 202.865C218.266 203.096 218.193 203.355 218.201 203.645C218.193 203.922 218.262 204.166 218.406 204.377C218.551 204.588 218.76 204.754 219.033 204.875C219.311 204.992 219.635 205.051 220.006 205.051ZM220.006 201.113C220.299 201.113 220.561 201.059 220.791 200.949C221.025 200.836 221.207 200.678 221.336 200.475C221.465 200.271 221.529 200.039 221.529 199.777C221.529 199.52 221.465 199.291 221.336 199.092C221.207 198.889 221.027 198.732 220.797 198.623C220.566 198.51 220.303 198.453 220.006 198.453C219.697 198.453 219.426 198.508 219.191 198.617C218.957 198.727 218.775 198.883 218.646 199.086C218.521 199.285 218.459 199.516 218.459 199.777C218.459 200.039 218.525 200.271 218.658 200.475C218.791 200.678 218.975 200.836 219.209 200.949C219.443 201.059 219.709 201.113 220.006 201.113Z" fill="#333333"/>
<path d="M217.765 230H216.464V222.805H216.417L214.39 224.129V222.898L216.499 221.516H217.765V230ZM222.564 230.117C222.036 230.117 221.558 230.018 221.128 229.818C220.698 229.615 220.357 229.338 220.103 228.986C219.849 228.631 219.712 228.23 219.693 227.785H220.946C220.97 228.023 221.056 228.238 221.204 228.43C221.353 228.621 221.546 228.771 221.784 228.881C222.023 228.986 222.282 229.039 222.564 229.039C222.903 229.039 223.206 228.963 223.472 228.811C223.741 228.658 223.952 228.449 224.105 228.184C224.257 227.914 224.333 227.613 224.333 227.281C224.333 226.941 224.255 226.637 224.099 226.367C223.943 226.094 223.726 225.881 223.448 225.729C223.171 225.572 222.857 225.492 222.505 225.488C221.79 225.488 221.294 225.738 221.017 226.238H219.798L220.349 221.516H225.153V222.617H221.415L221.134 224.996H221.216C221.396 224.824 221.626 224.686 221.907 224.58C222.193 224.475 222.493 224.422 222.81 224.422C223.333 224.422 223.806 224.543 224.228 224.785C224.653 225.027 224.985 225.363 225.224 225.793C225.466 226.223 225.587 226.707 225.587 227.246C225.587 227.797 225.458 228.291 225.2 228.729C224.943 229.166 224.583 229.508 224.122 229.754C223.665 229.996 223.146 230.117 222.564 230.117Z" fill="#333333"/>
<path d="M213.563 277.062L216.505 274.098C216.86 273.723 217.132 273.422 217.319 273.195C217.507 272.969 217.649 272.748 217.747 272.533C217.849 272.314 217.899 272.086 217.899 271.848C217.899 271.574 217.831 271.334 217.694 271.127C217.557 270.92 217.37 270.76 217.132 270.646C216.893 270.533 216.626 270.477 216.329 270.477C216.02 270.477 215.749 270.539 215.515 270.664C215.28 270.789 215.099 270.965 214.97 271.191C214.845 271.418 214.782 271.68 214.782 271.977H213.563C213.559 271.469 213.677 271.02 213.915 270.629C214.153 270.238 214.485 269.936 214.911 269.721C215.337 269.506 215.817 269.398 216.352 269.398C216.891 269.398 217.37 269.504 217.788 269.715C218.21 269.922 218.538 270.209 218.772 270.576C219.007 270.943 219.126 271.355 219.13 271.812C219.126 272.137 219.063 272.449 218.942 272.75C218.821 273.047 218.614 273.379 218.321 273.746C218.028 274.109 217.614 274.555 217.079 275.082L215.356 276.828V276.898H219.27V278H213.563V277.062ZM223.355 269.398C223.925 269.398 224.45 269.527 224.931 269.785C225.415 270.039 225.81 270.469 226.114 271.074C226.423 271.676 226.577 272.469 226.577 273.453C226.577 274.434 226.443 275.273 226.173 275.973C225.907 276.672 225.525 277.205 225.025 277.572C224.528 277.936 223.941 278.117 223.261 278.117C222.749 278.117 222.288 278.02 221.878 277.824C221.472 277.625 221.14 277.35 220.882 276.998C220.628 276.643 220.468 276.234 220.401 275.773H221.679C221.769 276.145 221.95 276.441 222.224 276.664C222.501 276.883 222.847 276.992 223.261 276.992C223.694 276.992 224.066 276.871 224.374 276.629C224.687 276.383 224.925 276.029 225.089 275.568C225.257 275.104 225.343 274.551 225.347 273.91H225.241C225.011 274.27 224.704 274.551 224.321 274.754C223.943 274.957 223.526 275.059 223.073 275.059C222.569 275.059 222.109 274.939 221.691 274.701C221.273 274.463 220.941 274.131 220.694 273.705C220.452 273.279 220.331 272.801 220.331 272.27C220.331 271.734 220.456 271.248 220.706 270.811C220.96 270.373 221.316 270.029 221.773 269.779C222.234 269.525 222.761 269.398 223.355 269.398ZM223.378 270.477C223.042 270.477 222.737 270.557 222.464 270.717C222.191 270.873 221.976 271.088 221.819 271.361C221.663 271.631 221.585 271.926 221.585 272.246C221.585 272.57 221.661 272.867 221.814 273.137C221.966 273.406 222.177 273.619 222.446 273.775C222.716 273.928 223.019 274.004 223.355 274.004C223.687 274.004 223.991 273.922 224.269 273.758C224.546 273.594 224.765 273.377 224.925 273.107C225.089 272.834 225.171 272.543 225.171 272.234C225.171 271.93 225.093 271.643 224.937 271.373C224.784 271.104 224.569 270.887 224.292 270.723C224.019 270.559 223.714 270.477 223.378 270.477Z" fill="#333333"/>
<path fill-rule="evenodd" clip-rule="evenodd" d="M230.162 68.3055C229.899 68.6481 229.963 69.1394 230.305 69.403L236.281 74L230.305 78.597C229.963 78.8606 229.899 79.3519 230.162 79.6945C230.426 80.0371 230.917 80.1012 231.26 79.8377L237.505 75.0339L237.027 74.4135L237.505 75.0339C238.183 74.5117 238.183 73.4883 237.505 72.9661L237.027 73.5865L237.505 72.9661L231.26 68.1623C230.917 67.8988 230.426 67.9629 230.162 68.3055Z" fill="#808080"/>
<path fill-rule="evenodd" clip-rule="evenodd" d="M30.8515 79.6945C31.115 79.3519 31.0509 78.8606 30.7084 78.597L24.7322 74L30.7084 69.403C31.0509 69.1394 31.115 68.6481 30.8515 68.3055C30.588 67.9629 30.0966 67.8988 29.754 68.1623L23.5091 72.9661L23.9862 73.5865L23.5091 72.9661C22.8303 73.4883 22.8303 74.5117 23.5091 75.0339L23.9862 74.4135L23.5091 75.0339L29.754 79.8377C30.0966 80.1012 30.588 80.0371 30.8515 79.6945Z" fill="#808080"/>
<circle cx="100" cy="250" r="12" fill="#337AFF"/>
<circle cx="220" cy="250" r="12" fill="#337AFF"/>
<rect x="99" y="238" width="121" height="24" fill="#337AFF"/>
<path d="M127.665 254H126.364V246.805H126.317L124.29 248.129V246.898L126.399 245.516H127.665V254ZM132.476 245.398C133.046 245.398 133.571 245.527 134.052 245.785C134.536 246.039 134.931 246.469 135.235 247.074C135.544 247.676 135.698 248.469 135.698 249.453C135.698 250.434 135.564 251.273 135.294 251.973C135.028 252.672 134.646 253.205 134.146 253.572C133.65 253.936 133.062 254.117 132.382 254.117C131.87 254.117 131.409 254.02 130.999 253.824C130.593 253.625 130.261 253.35 130.003 252.998C129.749 252.643 129.589 252.234 129.523 251.773H130.8C130.89 252.145 131.071 252.441 131.345 252.664C131.622 252.883 131.968 252.992 132.382 252.992C132.816 252.992 133.187 252.871 133.495 252.629C133.808 252.383 134.046 252.029 134.21 251.568C134.378 251.104 134.464 250.551 134.468 249.91H134.362C134.132 250.27 133.825 250.551 133.443 250.754C133.064 250.957 132.648 251.059 132.194 251.059C131.691 251.059 131.23 250.939 130.812 250.701C130.394 250.463 130.062 250.131 129.816 249.705C129.573 249.279 129.452 248.801 129.452 248.27C129.452 247.734 129.577 247.248 129.827 246.811C130.081 246.373 130.437 246.029 130.894 245.779C131.355 245.525 131.882 245.398 132.476 245.398ZM132.499 246.477C132.163 246.477 131.859 246.557 131.585 246.717C131.312 246.873 131.097 247.088 130.941 247.361C130.784 247.631 130.706 247.926 130.706 248.246C130.706 248.57 130.782 248.867 130.935 249.137C131.087 249.406 131.298 249.619 131.568 249.775C131.837 249.928 132.14 250.004 132.476 250.004C132.808 250.004 133.112 249.922 133.39 249.758C133.667 249.594 133.886 249.377 134.046 249.107C134.21 248.834 134.292 248.543 134.292 248.234C134.292 247.93 134.214 247.643 134.058 247.373C133.905 247.104 133.691 246.887 133.413 246.723C133.14 246.559 132.835 246.477 132.499 246.477Z" fill="white"/>
<path d="M153.599 253.062L156.54 250.098C156.895 249.723 157.167 249.422 157.354 249.195C157.542 248.969 157.684 248.748 157.782 248.533C157.884 248.314 157.934 248.086 157.934 247.848C157.934 247.574 157.866 247.334 157.729 247.127C157.593 246.92 157.405 246.76 157.167 246.646C156.929 246.533 156.661 246.477 156.364 246.477C156.056 246.477 155.784 246.539 155.55 246.664C155.315 246.789 155.134 246.965 155.005 247.191C154.88 247.418 154.817 247.68 154.817 247.977H153.599C153.595 247.469 153.712 247.02 153.95 246.629C154.188 246.238 154.52 245.936 154.946 245.721C155.372 245.506 155.852 245.398 156.388 245.398C156.927 245.398 157.405 245.504 157.823 245.715C158.245 245.922 158.573 246.209 158.807 246.576C159.042 246.943 159.161 247.355 159.165 247.812C159.161 248.137 159.099 248.449 158.977 248.75C158.856 249.047 158.649 249.379 158.356 249.746C158.063 250.109 157.649 250.555 157.114 251.082L155.391 252.828V252.898H159.306V254H153.599V253.062ZM163.448 254.117C162.796 254.117 162.235 253.947 161.767 253.607C161.302 253.268 160.946 252.771 160.7 252.119C160.454 251.463 160.331 250.676 160.331 249.758C160.331 248.848 160.454 248.066 160.7 247.414C160.95 246.758 161.31 246.258 161.778 245.914C162.247 245.57 162.804 245.398 163.448 245.398C164.093 245.398 164.65 245.57 165.118 245.914C165.587 246.258 165.944 246.758 166.191 247.414C166.441 248.066 166.566 248.848 166.566 249.758C166.566 250.676 166.443 251.461 166.196 252.113C165.95 252.766 165.593 253.264 165.124 253.607C164.655 253.947 164.097 254.117 163.448 254.117ZM163.448 253.004C163.831 253.004 164.159 252.881 164.433 252.635C164.706 252.385 164.915 252.018 165.06 251.533C165.204 251.049 165.276 250.457 165.276 249.758C165.276 249.062 165.202 248.471 165.054 247.982C164.909 247.49 164.7 247.119 164.427 246.869C164.153 246.615 163.827 246.488 163.448 246.488C163.069 246.488 162.743 246.615 162.47 246.869C162.196 247.119 161.985 247.49 161.837 247.982C161.693 248.471 161.62 249.062 161.62 249.758C161.62 250.457 161.693 251.049 161.837 251.533C161.982 252.018 162.191 252.385 162.464 252.635C162.737 252.881 163.066 253.004 163.448 253.004Z" fill="white"/>
<path d="M184.612 253.062L187.554 250.098C187.909 249.723 188.181 249.422 188.368 249.195C188.556 248.969 188.698 248.748 188.796 248.533C188.897 248.314 188.948 248.086 188.948 247.848C188.948 247.574 188.88 247.334 188.743 247.127C188.606 246.92 188.419 246.76 188.181 246.646C187.942 246.533 187.675 246.477 187.378 246.477C187.069 246.477 186.798 246.539 186.563 246.664C186.329 246.789 186.147 246.965 186.018 247.191C185.893 247.418 185.831 247.68 185.831 247.977H184.612C184.608 247.469 184.725 247.02 184.964 246.629C185.202 246.238 185.534 245.936 185.96 245.721C186.386 245.506 186.866 245.398 187.401 245.398C187.94 245.398 188.419 245.504 188.837 245.715C189.259 245.922 189.587 246.209 189.821 246.576C190.056 246.943 190.175 247.355 190.179 247.812C190.175 248.137 190.112 248.449 189.991 248.75C189.87 249.047 189.663 249.379 189.37 249.746C189.077 250.109 188.663 250.555 188.128 251.082L186.405 252.828V252.898H190.319V254H184.612V253.062ZM194.732 254H193.431V246.805H193.384L191.357 248.129V246.898L193.466 245.516H194.732V254Z" fill="white"/>
<path d="M97.6942 254H96.3934V246.805H96.3466L94.3192 248.129V246.898L96.4286 245.516H97.6942V254ZM102.575 254.117C101.97 254.117 101.429 254.016 100.952 253.812C100.48 253.609 100.11 253.328 99.8448 252.969C99.5831 252.605 99.4542 252.195 99.4581 251.738C99.4542 251.383 99.5304 251.053 99.6866 250.748C99.8429 250.439 100.056 250.186 100.325 249.986C100.599 249.783 100.9 249.656 101.228 249.605V249.559C100.943 249.492 100.689 249.369 100.466 249.189C100.247 249.006 100.077 248.781 99.9562 248.516C99.8351 248.25 99.7745 247.965 99.7745 247.66C99.7745 247.23 99.8956 246.844 100.138 246.5C100.38 246.156 100.714 245.887 101.14 245.691C101.566 245.496 102.044 245.398 102.575 245.398C103.103 245.398 103.577 245.496 103.999 245.691C104.425 245.887 104.757 246.156 104.995 246.5C105.237 246.844 105.36 247.23 105.364 247.66C105.36 247.965 105.296 248.25 105.171 248.516C105.05 248.781 104.88 249.006 104.661 249.189C104.443 249.369 104.193 249.492 103.911 249.559V249.605C104.235 249.656 104.532 249.783 104.802 249.986C105.075 250.186 105.29 250.439 105.446 250.748C105.607 251.053 105.689 251.383 105.693 251.738C105.689 252.195 105.554 252.605 105.288 252.969C105.023 253.328 104.653 253.609 104.181 253.812C103.708 254.016 103.173 254.117 102.575 254.117ZM102.575 253.051C102.939 253.051 103.255 252.992 103.525 252.875C103.798 252.758 104.009 252.594 104.157 252.383C104.306 252.168 104.38 251.922 104.38 251.645C104.38 251.355 104.302 251.096 104.146 250.865C103.989 250.635 103.775 250.455 103.501 250.326C103.228 250.197 102.919 250.133 102.575 250.133C102.228 250.133 101.915 250.197 101.638 250.326C101.36 250.455 101.144 250.635 100.987 250.865C100.835 251.096 100.763 251.355 100.771 251.645C100.763 251.922 100.831 252.166 100.976 252.377C101.12 252.588 101.329 252.754 101.603 252.875C101.88 252.992 102.204 253.051 102.575 253.051ZM102.575 249.113C102.868 249.113 103.13 249.059 103.36 248.949C103.595 248.836 103.776 248.678 103.905 248.475C104.034 248.271 104.099 248.039 104.099 247.777C104.099 247.52 104.034 247.291 103.905 247.092C103.776 246.889 103.597 246.732 103.366 246.623C103.136 246.51 102.872 246.453 102.575 246.453C102.267 246.453 101.995 246.508 101.761 246.617C101.526 246.727 101.345 246.883 101.216 247.086C101.091 247.285 101.028 247.516 101.028 247.777C101.028 248.039 101.095 248.271 101.228 248.475C101.36 248.678 101.544 248.836 101.778 248.949C102.013 249.059 102.278 249.113 102.575 249.113Z" fill="white"/>
<path d="M213.733 253.062L216.675 250.098C217.03 249.723 217.302 249.422 217.489 249.195C217.677 248.969 217.819 248.748 217.917 248.533C218.018 248.314 218.069 248.086 218.069 247.848C218.069 247.574 218.001 247.334 217.864 247.127C217.727 246.92 217.54 246.76 217.302 246.646C217.063 246.533 216.796 246.477 216.499 246.477C216.19 246.477 215.919 246.539 215.684 246.664C215.45 246.789 215.268 246.965 215.14 247.191C215.015 247.418 214.952 247.68 214.952 247.977H213.733C213.729 247.469 213.847 247.02 214.085 246.629C214.323 246.238 214.655 245.936 215.081 245.721C215.507 245.506 215.987 245.398 216.522 245.398C217.061 245.398 217.54 245.504 217.958 245.715C218.38 245.922 218.708 246.209 218.942 246.576C219.177 246.943 219.296 247.355 219.3 247.812C219.296 248.137 219.233 248.449 219.112 248.75C218.991 249.047 218.784 249.379 218.491 249.746C218.198 250.109 217.784 250.555 217.249 251.082L215.526 252.828V252.898H219.44V254H213.733V253.062ZM220.63 253.062L223.571 250.098C223.927 249.723 224.198 249.422 224.386 249.195C224.573 248.969 224.716 248.748 224.814 248.533C224.915 248.314 224.966 248.086 224.966 247.848C224.966 247.574 224.898 247.334 224.761 247.127C224.624 246.92 224.437 246.76 224.198 246.646C223.96 246.533 223.693 246.477 223.396 246.477C223.087 246.477 222.816 246.539 222.581 246.664C222.347 246.789 222.165 246.965 222.036 247.191C221.911 247.418 221.849 247.68 221.849 247.977H220.63C220.626 247.469 220.743 247.02 220.982 246.629C221.22 246.238 221.552 245.936 221.978 245.721C222.403 245.506 222.884 245.398 223.419 245.398C223.958 245.398 224.437 245.504 224.855 245.715C225.276 245.922 225.605 246.209 225.839 246.576C226.073 246.943 226.193 247.355 226.196 247.812C226.193 248.137 226.13 248.449 226.009 248.75C225.888 249.047 225.681 249.379 225.388 249.746C225.095 250.109 224.681 250.555 224.146 251.082L222.423 252.828V252.898H226.337V254H220.63V253.062Z" fill="white"/>
<rect x="0.5" y="0.5" width="204" height="32" rx="9.5" fill="white"/>
<path d="M10.916 20.0977L14.293 16.543C14.7396 16.0736 15.0791 15.6953 15.3115 15.4082C15.5485 15.1165 15.7262 14.8363 15.8447 14.5674C15.9678 14.2939 16.0293 14.0091 16.0293 13.7129C16.0293 13.3848 15.9427 13.0931 15.7695 12.8379C15.5964 12.5827 15.3594 12.3844 15.0586 12.2432C14.7624 12.1019 14.4297 12.0312 14.0605 12.0312C13.6732 12.0312 13.3337 12.1087 13.042 12.2637C12.7503 12.4186 12.5247 12.6374 12.3652 12.9199C12.2103 13.2025 12.1328 13.526 12.1328 13.8906H10.9707C10.9661 13.3164 11.0983 12.8083 11.3672 12.3662C11.6406 11.9242 12.0166 11.5801 12.4951 11.334C12.9736 11.0879 13.5091 10.9648 14.1016 10.9648C14.6895 10.9648 15.2158 11.0856 15.6807 11.3271C16.1501 11.5687 16.5169 11.8991 16.7812 12.3184C17.0456 12.7376 17.1777 13.2025 17.1777 13.7129C17.1777 14.0911 17.1094 14.4535 16.9727 14.7998C16.8359 15.1416 16.6058 15.5221 16.2822 15.9414C15.9632 16.3561 15.5052 16.8711 14.9082 17.4863L12.6387 19.8242V19.9062H17.3555V21H10.9297L10.916 20.0977ZM22.1067 21.1367C21.3776 21.1367 20.7532 20.9385 20.2337 20.542C19.7187 20.1455 19.3245 19.5667 19.0511 18.8057C18.7822 18.0446 18.6477 17.1263 18.6477 16.0508C18.6477 14.9889 18.7845 14.0775 19.0579 13.3164C19.3313 12.5508 19.7278 11.9674 20.2473 11.5664C20.7669 11.1654 21.3867 10.9648 22.1067 10.9648C22.8268 10.9648 23.4466 11.1654 23.9661 11.5664C24.4856 11.9674 24.8821 12.5508 25.1555 13.3164C25.429 14.0775 25.5657 14.9889 25.5657 16.0508C25.5657 17.1263 25.429 18.0446 25.1555 18.8057C24.8867 19.5667 24.4925 20.1455 23.9729 20.542C23.4534 20.9385 22.8313 21.1367 22.1067 21.1367ZM22.1067 20.043C22.5807 20.043 22.9863 19.888 23.3235 19.5781C23.6608 19.2682 23.9182 18.8148 24.096 18.2178C24.2737 17.6208 24.3626 16.8984 24.3626 16.0508C24.3626 15.2031 24.2737 14.4785 24.096 13.877C23.9182 13.2754 23.6608 12.8174 23.3235 12.5029C22.9863 12.1885 22.5807 12.0312 22.1067 12.0312C21.6328 12.0312 21.2249 12.1885 20.8831 12.5029C20.5458 12.8174 20.2861 13.2754 20.1038 13.877C19.9261 14.4785 19.8372 15.2031 19.8372 16.0508C19.8372 16.8984 19.9261 17.6208 20.1038 18.2178C20.2815 18.8148 20.539 19.2682 20.8762 19.5781C21.218 19.888 21.6282 20.043 22.1067 20.043ZM26.9127 20.0977L30.2896 16.543C30.7362 16.0736 31.0757 15.6953 31.3082 15.4082C31.5451 15.1165 31.7229 14.8363 31.8414 14.5674C31.9644 14.2939 32.0259 14.0091 32.0259 13.7129C32.0259 13.3848 31.9393 13.0931 31.7662 12.8379C31.593 12.5827 31.356 12.3844 31.0552 12.2432C30.759 12.1019 30.4263 12.0312 30.0572 12.0312C29.6698 12.0312 29.3303 12.1087 29.0386 12.2637C28.747 12.4186 28.5214 12.6374 28.3619 12.9199C28.2069 13.2025 28.1295 13.526 28.1295 13.8906H26.9673C26.9628 13.3164 27.0949 12.8083 27.3638 12.3662C27.6373 11.9242 28.0132 11.5801 28.4918 11.334C28.9703 11.0879 29.5058 10.9648 30.0982 10.9648C30.6861 10.9648 31.2125 11.0856 31.6773 11.3271C32.1467 11.5687 32.5136 11.8991 32.7779 12.3184C33.0422 12.7376 33.1744 13.2025 33.1744 13.7129C33.1744 14.0911 33.106 14.4535 32.9693 14.7998C32.8326 15.1416 32.6024 15.5221 32.2789 15.9414C31.9599 16.3561 31.5018 16.8711 30.9048 17.4863L28.6353 19.8242V19.9062H33.3521V21H26.9263L26.9127 20.0977ZM38.2811 21.1367C37.6294 21.1367 37.0461 21.0273 36.5311 20.8086C36.0207 20.5898 35.6151 20.2822 35.3143 19.8857C35.0181 19.4893 34.8586 19.0312 34.8358 18.5117H36.0799C36.1027 18.8171 36.2121 19.0859 36.408 19.3184C36.6086 19.5508 36.8706 19.7308 37.1942 19.8584C37.5177 19.9814 37.8755 20.043 38.2674 20.043C38.6958 20.043 39.0809 19.9701 39.4227 19.8242C39.769 19.6738 40.0379 19.4688 40.2293 19.209C40.4253 18.9447 40.5233 18.6439 40.5233 18.3066C40.5233 17.9421 40.4276 17.6208 40.2362 17.3428C40.0493 17.0648 39.7759 16.8483 39.4159 16.6934C39.0558 16.5384 38.6229 16.4609 38.117 16.4609H37.3104V15.3809H38.117C38.5135 15.3809 38.8667 15.3102 39.1766 15.1689C39.4865 15.0277 39.7258 14.8294 39.8944 14.5742C40.0676 14.319 40.1541 14.0228 40.1541 13.6855C40.1541 13.362 40.0767 13.0749 39.9217 12.8242C39.7713 12.5736 39.5571 12.3799 39.2791 12.2432C39.0011 12.1019 38.6776 12.0312 38.3084 12.0312C37.953 12.0312 37.6203 12.0951 37.3104 12.2227C37.0005 12.3503 36.7476 12.5326 36.5516 12.7695C36.3556 13.002 36.2485 13.2754 36.2303 13.5898H35.0409C35.0636 13.0794 35.2232 12.626 35.5194 12.2295C35.8156 11.8285 36.2098 11.5186 36.702 11.2998C37.1942 11.0765 37.7342 10.9648 38.3221 10.9648C38.9328 10.9648 39.466 11.0856 39.9217 11.3271C40.382 11.5641 40.7352 11.8854 40.9813 12.291C41.2274 12.6966 41.3482 13.1387 41.3436 13.6172C41.3482 14.1732 41.2 14.6494 40.8993 15.0459C40.5985 15.4424 40.186 15.7135 39.662 15.8594V15.9277C40.0858 15.9961 40.4526 16.1396 40.7625 16.3584C41.077 16.5726 41.3162 16.8483 41.4803 17.1855C41.6489 17.5182 41.731 17.8919 41.7264 18.3066C41.731 18.8398 41.5829 19.3229 41.2821 19.7559C40.9813 20.1842 40.5666 20.5215 40.0379 20.7676C39.5138 21.0137 38.9282 21.1367 38.2811 21.1367ZM43.757 21.082C43.5974 21.082 43.4493 21.0433 43.3126 20.9658C43.1805 20.8838 43.0734 20.7744 42.9913 20.6377C42.9139 20.501 42.8774 20.3529 42.882 20.1934C42.8774 20.0384 42.9139 19.8949 42.9913 19.7627C43.0734 19.626 43.1805 19.5189 43.3126 19.4414C43.4493 19.3594 43.5974 19.3184 43.757 19.3184C43.9119 19.3184 44.0555 19.3594 44.1876 19.4414C44.3243 19.5189 44.4314 19.626 44.5089 19.7627C44.5909 19.8949 44.632 20.0384 44.632 20.1934C44.632 20.3529 44.5909 20.501 44.5089 20.6377C44.4314 20.7744 44.3243 20.8838 44.1876 20.9658C44.0555 21.0433 43.9119 21.082 43.757 21.082ZM52.6305 21.1367C51.9014 21.1367 51.277 20.9385 50.7575 20.542C50.2425 20.1455 49.8483 19.5667 49.5749 18.8057C49.306 18.0446 49.1716 17.1263 49.1716 16.0508C49.1716 14.9889 49.3083 14.0775 49.5817 13.3164C49.8552 12.5508 50.2516 11.9674 50.7712 11.5664C51.2907 11.1654 51.9105 10.9648 52.6305 10.9648C53.3506 10.9648 53.9704 11.1654 54.4899 11.5664C55.0095 11.9674 55.4059 12.5508 55.6794 13.3164C55.9528 14.0775 56.0895 14.9889 56.0895 16.0508C56.0895 17.1263 55.9528 18.0446 55.6794 18.8057C55.4105 19.5667 55.0163 20.1455 54.4968 20.542C53.9772 20.9385 53.3552 21.1367 52.6305 21.1367ZM52.6305 20.043C53.1045 20.043 53.5101 19.888 53.8473 19.5781C54.1846 19.2682 54.4421 18.8148 54.6198 18.2178C54.7975 17.6208 54.8864 16.8984 54.8864 16.0508C54.8864 15.2031 54.7975 14.4785 54.6198 13.877C54.4421 13.2754 54.1846 12.8174 53.8473 12.5029C53.5101 12.1885 53.1045 12.0312 52.6305 12.0312C52.1566 12.0312 51.7487 12.1885 51.4069 12.5029C51.0697 12.8174 50.8099 13.2754 50.6276 13.877C50.4499 14.4785 50.361 15.2031 50.361 16.0508C50.361 16.8984 50.4499 17.6208 50.6276 18.2178C50.8054 18.8148 51.0628 19.2682 51.4001 19.5781C51.7419 19.888 52.152 20.043 52.6305 20.043ZM62.0302 12.2637V12.1953H56.7939V11.1016H63.3017V12.25L58.7763 21H57.4912L62.0302 12.2637ZM63.76 21.082C63.6005 21.082 63.4524 21.0433 63.3157 20.9658C63.1835 20.8838 63.0764 20.7744 62.9944 20.6377C62.9169 20.501 62.8804 20.3529 62.885 20.1934C62.8804 20.0384 62.9169 19.8949 62.9944 19.7627C63.0764 19.626 63.1835 19.5189 63.3157 19.4414C63.4524 19.3594 63.6005 19.3184 63.76 19.3184C63.9149 19.3184 64.0585 19.3594 64.1907 19.4414C64.3274 19.5189 64.4345 19.626 64.512 19.7627C64.594 19.8949 64.635 20.0384 64.635 20.1934C64.635 20.3529 64.594 20.501 64.512 20.6377C64.4345 20.7744 64.3274 20.8838 64.1907 20.9658C64.0585 21.0433 63.9149 21.082 63.76 21.082ZM72.8934 21H71.6492V12.3867H71.5945L69.1883 13.9863V12.7422L71.6492 11.1016H72.8934V21ZM78.5606 21.1367C77.877 21.1367 77.2664 21.0205 76.7286 20.7881C76.1954 20.5511 75.7807 20.223 75.4845 19.8037C75.1882 19.3844 75.0424 18.9082 75.047 18.375C75.0424 17.9557 75.1267 17.5661 75.2999 17.2061C75.4776 16.8415 75.7214 16.5407 76.0313 16.3037C76.3412 16.0667 76.683 15.9186 77.0567 15.8594V15.8047C76.7331 15.7272 76.4483 15.5837 76.2022 15.374C75.9561 15.1598 75.7647 14.8978 75.628 14.5879C75.4958 14.278 75.4298 13.9453 75.4298 13.5898C75.4298 13.0931 75.5642 12.6442 75.8331 12.2432C76.1065 11.8421 76.4802 11.5299 76.9542 11.3066C77.4327 11.0788 77.9682 10.9648 78.5606 10.9648C79.1531 10.9648 79.6863 11.0788 80.1602 11.3066C80.6387 11.5299 81.0147 11.8421 81.2882 12.2432C81.5616 12.6396 81.7006 13.0885 81.7052 13.5898C81.7006 13.9453 81.6277 14.278 81.4864 14.5879C81.3497 14.8978 81.1583 15.1598 80.9122 15.374C80.6661 15.5837 80.3835 15.7272 80.0645 15.8047V15.8594C80.4337 15.9186 80.7709 16.0667 81.0762 16.3037C81.3861 16.5407 81.63 16.8415 81.8077 17.2061C81.99 17.5661 82.0834 17.9557 82.088 18.375C82.0834 18.9082 81.9307 19.3844 81.63 19.8037C81.3292 20.223 80.9122 20.5511 80.379 20.7881C79.8458 21.0205 79.2397 21.1367 78.5606 21.1367ZM78.5606 20.0566C79.0255 20.0566 79.4311 19.9837 79.7774 19.8379C80.1238 19.6921 80.3904 19.487 80.5772 19.2227C80.7641 18.9583 80.8575 18.653 80.8575 18.3066C80.8575 17.9466 80.7572 17.623 80.5567 17.3359C80.3608 17.0443 80.0873 16.8164 79.7364 16.6523C79.3901 16.4883 78.9981 16.4062 78.5606 16.4062C78.1231 16.4062 77.7289 16.4883 77.378 16.6523C77.0271 16.8164 76.7537 17.0443 76.5577 17.3359C76.3617 17.623 76.2683 17.9466 76.2774 18.3066C76.2683 18.653 76.3549 18.9583 76.5372 19.2227C76.724 19.487 76.9906 19.6921 77.337 19.8379C77.6833 19.9837 78.0912 20.0566 78.5606 20.0566ZM78.5606 15.3672C78.9298 15.3672 79.2624 15.2965 79.5587 15.1553C79.8549 15.014 80.085 14.8158 80.2491 14.5605C80.4177 14.3053 80.502 14.0137 80.502 13.6855C80.502 13.362 80.42 13.0749 80.2559 12.8242C80.0964 12.5736 79.8686 12.3799 79.5723 12.2432C79.2807 12.1019 78.9434 12.0312 78.5606 12.0312C78.1733 12.0312 77.8315 12.1019 77.5352 12.2432C77.2436 12.3799 77.018 12.5736 76.8585 12.8242C76.699 13.0749 76.6192 13.362 76.6192 13.6855C76.6192 14.0137 76.7012 14.3053 76.8653 14.5605C77.0339 14.8158 77.2641 15.014 77.5557 15.1553C77.852 15.2965 78.1869 15.3672 78.5606 15.3672ZM87.0924 15.9004C87.3112 15.6452 87.555 15.4515 87.8239 15.3193C88.0927 15.1872 88.3776 15.1211 88.6784 15.1211C88.9062 15.1211 89.1295 15.1553 89.3483 15.2236C89.567 15.2874 89.8496 15.3854 90.1959 15.5176C90.5104 15.6497 90.777 15.75 90.9957 15.8184C91.2191 15.8822 91.4401 15.9141 91.6588 15.9141C91.9642 15.9141 92.249 15.8411 92.5133 15.6953C92.7776 15.5495 93.0123 15.3353 93.2174 15.0527V16.1875C92.7663 16.707 92.2376 16.9668 91.6315 16.9668C91.4036 16.9668 91.1803 16.9349 90.9616 16.8711C90.7428 16.8027 90.4603 16.7025 90.1139 16.5703C89.7995 16.4382 89.5306 16.3402 89.3073 16.2764C89.0885 16.208 88.8652 16.1738 88.6373 16.1738C88.3366 16.1738 88.054 16.2467 87.7897 16.3926C87.5299 16.5384 87.2975 16.7526 87.0924 17.0352V15.9004ZM98.4133 20.0977L101.79 16.543C102.237 16.0736 102.576 15.6953 102.809 15.4082C103.046 15.1165 103.224 14.8363 103.342 14.5674C103.465 14.2939 103.527 14.0091 103.527 13.7129C103.527 13.3848 103.44 13.0931 103.267 12.8379C103.094 12.5827 102.857 12.3844 102.556 12.2432C102.26 12.1019 101.927 12.0312 101.558 12.0312C101.17 12.0312 100.831 12.1087 100.539 12.2637C100.248 12.4186 100.022 12.6374 99.8625 12.9199C99.7076 13.2025 99.6301 13.526 99.6301 13.8906H98.468C98.4634 13.3164 98.5956 12.8083 98.8645 12.3662C99.1379 11.9242 99.5139 11.5801 99.9924 11.334C100.471 11.0879 101.006 10.9648 101.599 10.9648C102.187 10.9648 102.713 11.0856 103.178 11.3271C103.647 11.5687 104.014 11.8991 104.279 12.3184C104.543 12.7376 104.675 13.2025 104.675 13.7129C104.675 14.0911 104.607 14.4535 104.47 14.7998C104.333 15.1416 104.103 15.5221 103.779 15.9414C103.46 16.3561 103.002 16.8711 102.405 17.4863L100.136 19.8242V19.9062H104.853V21H98.427L98.4133 20.0977ZM109.604 21.1367C108.875 21.1367 108.25 20.9385 107.731 20.542C107.216 20.1455 106.822 19.5667 106.548 18.8057C106.279 18.0446 106.145 17.1263 106.145 16.0508C106.145 14.9889 106.282 14.0775 106.555 13.3164C106.829 12.5508 107.225 11.9674 107.745 11.5664C108.264 11.1654 108.884 10.9648 109.604 10.9648C110.324 10.9648 110.944 11.1654 111.463 11.5664C111.983 11.9674 112.379 12.5508 112.653 13.3164C112.926 14.0775 113.063 14.9889 113.063 16.0508C113.063 17.1263 112.926 18.0446 112.653 18.8057C112.384 19.5667 111.99 20.1455 111.47 20.542C110.951 20.9385 110.329 21.1367 109.604 21.1367ZM109.604 20.043C110.078 20.043 110.484 19.888 110.821 19.5781C111.158 19.2682 111.416 18.8148 111.593 18.2178C111.771 17.6208 111.86 16.8984 111.86 16.0508C111.86 15.2031 111.771 14.4785 111.593 13.877C111.416 13.2754 111.158 12.8174 110.821 12.5029C110.484 12.1885 110.078 12.0312 109.604 12.0312C109.13 12.0312 108.722 12.1885 108.38 12.5029C108.043 12.8174 107.783 13.2754 107.601 13.877C107.423 14.4785 107.334 15.2031 107.334 16.0508C107.334 16.8984 107.423 17.6208 107.601 18.2178C107.779 18.8148 108.036 19.2682 108.374 19.5781C108.715 19.888 109.125 20.043 109.604 20.043ZM114.41 20.0977L117.787 16.543C118.233 16.0736 118.573 15.6953 118.805 15.4082C119.042 15.1165 119.22 14.8363 119.339 14.5674C119.462 14.2939 119.523 14.0091 119.523 13.7129C119.523 13.3848 119.437 13.0931 119.263 12.8379C119.09 12.5827 118.853 12.3844 118.552 12.2432C118.256 12.1019 117.924 12.0312 117.554 12.0312C117.167 12.0312 116.828 12.1087 116.536 12.2637C116.244 12.4186 116.019 12.6374 115.859 12.9199C115.704 13.2025 115.627 13.526 115.627 13.8906H114.465C114.46 13.3164 114.592 12.8083 114.861 12.3662C115.135 11.9242 115.511 11.5801 115.989 11.334C116.468 11.0879 117.003 10.9648 117.595 10.9648C118.183 10.9648 118.71 11.0856 119.175 11.3271C119.644 11.5687 120.011 11.8991 120.275 12.3184C120.539 12.7376 120.672 13.2025 120.672 13.7129C120.672 14.0911 120.603 14.4535 120.467 14.7998C120.33 15.1416 120.1 15.5221 119.776 15.9414C119.457 16.3561 118.999 16.8711 118.402 17.4863L116.133 19.8242V19.9062H120.849V21H114.424L114.41 20.0977ZM125.778 21.1367C125.127 21.1367 124.543 21.0273 124.028 20.8086C123.518 20.5898 123.112 20.2822 122.812 19.8857C122.515 19.4893 122.356 19.0312 122.333 18.5117H123.577C123.6 18.8171 123.709 19.0859 123.905 19.3184C124.106 19.5508 124.368 19.7308 124.691 19.8584C125.015 19.9814 125.373 20.043 125.765 20.043C126.193 20.043 126.578 19.9701 126.92 19.8242C127.266 19.6738 127.535 19.4688 127.727 19.209C127.923 18.9447 128.021 18.6439 128.021 18.3066C128.021 17.9421 127.925 17.6208 127.733 17.3428C127.547 17.0648 127.273 16.8483 126.913 16.6934C126.553 16.5384 126.12 16.4609 125.614 16.4609H124.808V15.3809H125.614C126.011 15.3809 126.364 15.3102 126.674 15.1689C126.984 15.0277 127.223 14.8294 127.392 14.5742C127.565 14.319 127.651 14.0228 127.651 13.6855C127.651 13.362 127.574 13.0749 127.419 12.8242C127.269 12.5736 127.054 12.3799 126.776 12.2432C126.498 12.1019 126.175 12.0312 125.806 12.0312C125.45 12.0312 125.118 12.0951 124.808 12.2227C124.498 12.3503 124.245 12.5326 124.049 12.7695C123.853 13.002 123.746 13.2754 123.728 13.5898H122.538C122.561 13.0794 122.72 12.626 123.017 12.2295C123.313 11.8285 123.707 11.5186 124.199 11.2998C124.691 11.0765 125.231 10.9648 125.819 10.9648C126.43 10.9648 126.963 11.0856 127.419 11.3271C127.879 11.5641 128.232 11.8854 128.479 12.291C128.725 12.6966 128.845 13.1387 128.841 13.6172C128.845 14.1732 128.697 14.6494 128.397 15.0459C128.096 15.4424 127.683 15.7135 127.159 15.8594V15.9277C127.583 15.9961 127.95 16.1396 128.26 16.3584C128.574 16.5726 128.814 16.8483 128.978 17.1855C129.146 17.5182 129.228 17.8919 129.224 18.3066C129.228 18.8398 129.08 19.3229 128.779 19.7559C128.479 20.1842 128.064 20.5215 127.535 20.7676C127.011 21.0137 126.425 21.1367 125.778 21.1367ZM131.254 21.082C131.095 21.082 130.947 21.0433 130.81 20.9658C130.678 20.8838 130.571 20.7744 130.489 20.6377C130.411 20.501 130.375 20.3529 130.379 20.1934C130.375 20.0384 130.411 19.8949 130.489 19.7627C130.571 19.626 130.678 19.5189 130.81 19.4414C130.947 19.3594 131.095 19.3184 131.254 19.3184C131.409 19.3184 131.553 19.3594 131.685 19.4414C131.822 19.5189 131.929 19.626 132.006 19.7627C132.088 19.8949 132.129 20.0384 132.129 20.1934C132.129 20.3529 132.088 20.501 132.006 20.6377C131.929 20.7744 131.822 20.8838 131.685 20.9658C131.553 21.0433 131.409 21.082 131.254 21.082ZM140.128 21.1367C139.399 21.1367 138.774 20.9385 138.255 20.542C137.74 20.1455 137.346 19.5667 137.072 18.8057C136.803 18.0446 136.669 17.1263 136.669 16.0508C136.669 14.9889 136.806 14.0775 137.079 13.3164C137.352 12.5508 137.749 11.9674 138.268 11.5664C138.788 11.1654 139.408 10.9648 140.128 10.9648C140.848 10.9648 141.468 11.1654 141.987 11.5664C142.507 11.9674 142.903 12.5508 143.177 13.3164C143.45 14.0775 143.587 14.9889 143.587 16.0508C143.587 17.1263 143.45 18.0446 143.177 18.8057C142.908 19.5667 142.514 20.1455 141.994 20.542C141.474 20.9385 140.852 21.1367 140.128 21.1367ZM140.128 20.043C140.602 20.043 141.007 19.888 141.345 19.5781C141.682 19.2682 141.939 18.8148 142.117 18.2178C142.295 17.6208 142.384 16.8984 142.384 16.0508C142.384 15.2031 142.295 14.4785 142.117 13.877C141.939 13.2754 141.682 12.8174 141.345 12.5029C141.007 12.1885 140.602 12.0312 140.128 12.0312C139.654 12.0312 139.246 12.1885 138.904 12.5029C138.567 12.8174 138.307 13.2754 138.125 13.877C137.947 14.4785 137.858 15.2031 137.858 16.0508C137.858 16.8984 137.947 17.6208 138.125 18.2178C138.303 18.8148 138.56 19.2682 138.897 19.5781C139.239 19.888 139.649 20.043 140.128 20.043ZM149.527 12.2637V12.1953H144.291V11.1016H150.799V12.25L146.274 21H144.988L149.527 12.2637ZM151.257 21.082C151.098 21.082 150.95 21.0433 150.813 20.9658C150.681 20.8838 150.574 20.7744 150.492 20.6377C150.414 20.501 150.378 20.3529 150.382 20.1934C150.378 20.0384 150.414 19.8949 150.492 19.7627C150.574 19.626 150.681 19.5189 150.813 19.4414C150.95 19.3594 151.098 19.3184 151.257 19.3184C151.412 19.3184 151.556 19.3594 151.688 19.4414C151.825 19.5189 151.932 19.626 152.009 19.7627C152.091 19.8949 152.132 20.0384 152.132 20.1934C152.132 20.3529 152.091 20.501 152.009 20.6377C151.932 20.7744 151.825 20.8838 151.688 20.9658C151.556 21.0433 151.412 21.082 151.257 21.082ZM156.877 20.0977L160.254 16.543C160.701 16.0736 161.04 15.6953 161.272 15.4082C161.509 15.1165 161.687 14.8363 161.806 14.5674C161.929 14.2939 161.99 14.0091 161.99 13.7129C161.99 13.3848 161.904 13.0931 161.73 12.8379C161.557 12.5827 161.32 12.3844 161.02 12.2432C160.723 12.1019 160.391 12.0312 160.021 12.0312C159.634 12.0312 159.295 12.1087 159.003 12.2637C158.711 12.4186 158.486 12.6374 158.326 12.9199C158.171 13.2025 158.094 13.526 158.094 13.8906H156.932C156.927 13.3164 157.059 12.8083 157.328 12.3662C157.602 11.9242 157.978 11.5801 158.456 11.334C158.935 11.0879 159.47 10.9648 160.062 10.9648C160.65 10.9648 161.177 11.0856 161.642 11.3271C162.111 11.5687 162.478 11.8991 162.742 12.3184C163.007 12.7376 163.139 13.2025 163.139 13.7129C163.139 14.0911 163.07 14.4535 162.934 14.7998C162.797 15.1416 162.567 15.5221 162.243 15.9414C161.924 16.3561 161.466 16.8711 160.869 17.4863L158.6 19.8242V19.9062H163.316V21H156.891L156.877 20.0977ZM164.814 20.0977L168.191 16.543C168.637 16.0736 168.977 15.6953 169.209 15.4082C169.446 15.1165 169.624 14.8363 169.742 14.5674C169.866 14.2939 169.927 14.0091 169.927 13.7129C169.927 13.3848 169.84 13.0931 169.667 12.8379C169.494 12.5827 169.257 12.3844 168.956 12.2432C168.66 12.1019 168.327 12.0312 167.958 12.0312C167.571 12.0312 167.231 12.1087 166.94 12.2637C166.648 12.4186 166.422 12.6374 166.263 12.9199C166.108 13.2025 166.031 13.526 166.031 13.8906H164.868C164.864 13.3164 164.996 12.8083 165.265 12.3662C165.538 11.9242 165.914 11.5801 166.393 11.334C166.871 11.0879 167.407 10.9648 167.999 10.9648C168.587 10.9648 169.114 11.0856 169.578 11.3271C170.048 11.5687 170.415 11.8991 170.679 12.3184C170.943 12.7376 171.075 13.2025 171.075 13.7129C171.075 14.0911 171.007 14.4535 170.87 14.7998C170.734 15.1416 170.504 15.5221 170.18 15.9414C169.861 16.3561 169.403 16.8711 168.806 17.4863L166.536 19.8242V19.9062H171.253V21H164.827L164.814 20.0977Z" fill="#333333"/>
<path d="M190.786 20.6353C190.385 21.1439 189.615 21.1439 189.214 20.6353L185.212 15.5519C184.696 14.8959 185.163 13.9333 185.998 13.9333L194.002 13.9333C194.837 13.9333 195.304 14.8959 194.788 15.5519L190.786 20.6353Z" fill="#999999"/>
<rect x="0.5" y="0.5" width="204" height="32" rx="9.5" stroke="#CCCCCC"/>
</svg>
