<svg width="378" height="78" viewBox="0 0 378 78" fill="none" xmlns="http://www.w3.org/2000/svg">
<g filter="url(#filter0_d_1647_26308)">
<rect x="6" y="6" width="360" height="60" rx="10" fill="#FCF5F5" shape-rendering="crispEdges"/>
<path d="M34.784 33.88V34.552H27.68V30.808H34.736V31.48H28.592V32.32H34.448V32.968H28.592V33.88H34.784ZM26.432 36.088V35.344H35.912V36.088H26.432ZM27.584 37.552V36.88H34.688V39.136H28.496V40.144H35V40.84H27.608V38.464H33.8V37.552H27.584ZM45.1311 30.544V38.2H44.2431V30.544H45.1311ZM37.0671 32.032V31.288H41.8431V34.288H38.0031V35.944C39.9351 35.956 41.3031 35.896 42.9471 35.608L43.0431 36.376C41.3391 36.664 39.9471 36.724 37.9551 36.736H37.0911V33.568H40.9311V32.032H37.0671ZM38.3151 40.72V37.624H39.2271V39.952H45.4431V40.72H38.3151ZM57.9982 30.544V40.96H57.0622V30.544H57.9982ZM49.5022 38.176C50.4022 38.176 51.4222 38.164 52.4782 38.128V37C51.2182 36.856 50.4022 36.148 50.4142 35.104C50.4022 33.928 51.4102 33.16 52.9102 33.16C54.4222 33.16 55.4422 33.928 55.4302 35.104C55.4422 36.136 54.6382 36.844 53.3902 36.988V38.092C54.3982 38.044 55.4302 37.972 56.3902 37.84L56.4622 38.56C54.1222 38.92 51.5782 38.956 49.6462 38.944L49.5022 38.176ZM49.7182 32.56V31.816H52.4782V30.544H53.3902V31.816H56.1022V32.56H49.7182ZM51.2782 35.104C51.2662 35.824 51.9502 36.292 52.9102 36.28C53.8822 36.292 54.5542 35.824 54.5662 35.104C54.5542 34.372 53.8822 33.88 52.9102 33.88C51.9502 33.88 51.2662 34.372 51.2782 35.104ZM68.1533 30.544V38.464H67.2413V37.384H65.0813V36.712H67.2413V30.544H68.1533ZM59.5133 35.368C61.4573 35.356 64.0733 35.344 66.3053 35.056L66.3533 35.728C65.4293 35.884 64.4573 35.98 63.4973 36.028V38.104H62.5853V36.076C61.5293 36.112 60.5093 36.112 59.6333 36.112L59.5133 35.368ZM60.3533 32.776C60.3533 31.684 61.3973 30.964 62.9453 30.976C64.4693 30.964 65.5133 31.684 65.5133 32.776C65.5133 33.892 64.4693 34.588 62.9453 34.6C61.3973 34.588 60.3533 33.892 60.3533 32.776ZM61.0253 40.72V37.672H61.9373V39.952H68.4173V40.72H61.0253ZM61.2413 32.776C61.2293 33.46 61.9253 33.904 62.9453 33.904C63.9293 33.904 64.6253 33.46 64.6493 32.776C64.6253 32.116 63.9293 31.66 62.9453 31.672C61.9253 31.66 61.2293 32.116 61.2413 32.776ZM78.3324 30.544V36.736H77.4204V34.024H75.3084V33.256H77.4204V30.544H78.3324ZM69.7404 35.92C71.3004 35.356 72.4044 33.94 72.4044 32.44V32.056H70.0524V31.288H75.6684V32.056H73.3404V32.44C73.3284 33.796 74.3724 35.092 75.9084 35.608L75.4284 36.352C74.2524 35.932 73.3404 35.056 72.8844 33.988C72.4284 35.212 71.4684 36.172 70.2204 36.64L69.7404 35.92ZM71.3964 39.016C71.3844 37.78 72.7164 37.072 74.8764 37.072C77.0484 37.072 78.3804 37.78 78.3804 39.016C78.3804 40.228 77.0484 40.936 74.8764 40.936C72.7164 40.936 71.3844 40.228 71.3964 39.016ZM72.3084 39.016C72.2964 39.76 73.2924 40.216 74.8764 40.216C76.4724 40.216 77.4684 39.76 77.4684 39.016C77.4684 38.248 76.4724 37.792 74.8764 37.792C73.2924 37.792 72.2964 38.248 72.3084 39.016ZM89.3755 38.848V39.616H79.8475V38.848H84.1195V36.592H80.9755V31.264H81.8875V33.16H87.2875V31.264H88.1995V36.592H85.0315V38.848H89.3755ZM81.8875 35.848H87.2875V33.904H81.8875V35.848ZM98.5706 30.544V36.112H97.6586V30.544H98.5706ZM90.2186 33.448C90.2066 32.008 91.3586 31.036 92.9546 31.048C94.5266 31.036 95.6666 32.008 95.6666 33.448C95.6666 34.852 94.5266 35.836 92.9546 35.824C91.3586 35.836 90.2066 34.852 90.2186 33.448ZM91.1066 33.448C91.1066 34.384 91.8746 35.056 92.9546 35.056C94.0106 35.056 94.7786 34.384 94.7786 33.448C94.7786 32.488 94.0106 31.816 92.9546 31.816C91.8746 31.816 91.1066 32.488 91.1066 33.448ZM91.8266 40.816V36.64H92.7386V37.912H97.6586V36.64H98.5706V40.816H91.8266ZM92.7386 40.048H97.6586V38.656H92.7386V40.048ZM108.678 30.544V40.96H107.766V30.544H108.678ZM100.782 38.272V31.552H101.694V37.456C103.278 37.468 104.91 37.336 106.662 36.976L106.782 37.744C104.946 38.14 103.29 38.272 101.622 38.272H100.782ZM118.305 30.544V34.648H120.033V35.416H118.305V40.96H117.369V30.544H118.305ZM110.697 38.368V31.552H115.545V32.32H111.609V37.576C113.493 37.576 114.825 37.504 116.361 37.216L116.481 38.008C114.861 38.296 113.493 38.356 111.513 38.368H110.697ZM121.476 40.072C121.056 40.072 120.708 39.724 120.708 39.304C120.708 38.896 121.056 38.56 121.476 38.56C121.884 38.56 122.22 38.896 122.22 39.304C122.22 39.724 121.884 40.072 121.476 40.072ZM133.991 30.544V34.648H135.719V35.416H133.991V40.96H133.055V30.544H133.991ZM126.383 38.368V31.552H131.231V32.32H127.295V37.576C129.179 37.576 130.511 37.504 132.047 37.216L132.167 38.008C130.547 38.296 129.179 38.356 127.199 38.368H126.383ZM139.754 33.328C139.742 35.236 141.038 37.144 142.562 37.84L142.01 38.584C140.822 37.996 139.79 36.76 139.298 35.26C138.818 36.844 137.786 38.164 136.562 38.776L135.986 38.008C137.546 37.3 138.83 35.308 138.842 33.328V31.432H139.754V33.328ZM143.714 40.96V30.544H144.626V40.96H143.714ZM158.477 38.872V39.664H148.949V38.872H153.221V36.928H150.125V33.712H156.365V32.08H150.101V31.312H157.277V34.456H151.037V36.16H157.517V36.928H154.133V38.872H158.477ZM167.288 31.648V32.68C167.288 34 167.288 35.488 166.904 37.744L165.968 37.648C166.376 35.524 166.376 33.964 166.376 32.68V32.416H160.112V31.648H167.288ZM159.08 39.424V38.656H168.56V39.424H159.08ZM177.803 30.544V38.152H176.891V30.544H177.803ZM169.451 33.832C169.439 32.32 170.615 31.276 172.187 31.264C173.735 31.276 174.899 32.32 174.899 33.832C174.899 35.344 173.735 36.4 172.187 36.376C170.615 36.4 169.439 35.344 169.451 33.832ZM170.339 33.832C170.339 34.864 171.119 35.584 172.187 35.584C173.207 35.584 174.011 34.864 174.011 33.832C174.011 32.812 173.207 32.08 172.187 32.08C171.119 32.08 170.339 32.812 170.339 33.832ZM171.083 40.72V37.384H171.995V39.952H178.139V40.72H171.083ZM184.526 32.344V33.088H179.318V32.344H181.478V30.856H182.39V32.344H184.526ZM179.678 36.16C179.678 34.768 180.626 33.796 181.934 33.784C183.23 33.796 184.178 34.768 184.19 36.16C184.178 37.552 183.23 38.536 181.934 38.536C180.626 38.536 179.678 37.552 179.678 36.16ZM180.494 36.16C180.506 37.084 181.094 37.744 181.934 37.744C182.75 37.744 183.362 37.084 183.35 36.16C183.362 35.248 182.75 34.576 181.934 34.552C181.094 34.576 180.506 35.248 180.494 36.16ZM185.078 40.432V30.784H185.942V34.936H187.334V30.544H188.198V40.96H187.334V35.68H185.942V40.432H185.078ZM194.73 32.008C194.718 33.4 196.578 34.588 198.402 34.864L198.042 35.584C196.422 35.308 194.85 34.444 194.214 33.196C193.566 34.444 191.994 35.308 190.386 35.584L190.026 34.864C191.838 34.588 193.686 33.4 193.698 32.008V31.936H190.362V31.192H198.042V31.936H194.73V32.008ZM189.474 37.24V36.472H198.954V37.24H194.634V40.936H193.746V37.24H189.474ZM202.677 33.496C202.689 35.152 203.493 36.94 204.885 37.768L204.357 38.464C203.349 37.864 202.629 36.76 202.257 35.5C201.873 36.88 201.105 38.068 200.061 38.704L199.485 38.008C200.925 37.168 201.801 35.32 201.789 33.544V31.504H202.677V33.496ZM203.733 35.056V34.264H205.485V30.76H206.373V40.432H205.485V35.056H203.733ZM207.645 40.96V30.544H208.533V40.96H207.645ZM219.264 38.848V39.616H209.736V38.848H212.088V36.028C211.2 35.572 210.66 34.816 210.672 33.88C210.66 32.26 212.244 31.204 214.464 31.192C216.696 31.204 218.28 32.26 218.28 33.88C218.28 34.804 217.752 35.548 216.888 36.004V38.848H219.264ZM211.56 33.88C211.548 35.032 212.76 35.812 214.464 35.824C216.168 35.812 217.392 35.032 217.392 33.88C217.392 32.704 216.168 31.936 214.464 31.936C212.76 31.936 211.548 32.704 211.56 33.88ZM213 38.848H215.976V36.364C215.52 36.484 215.016 36.544 214.464 36.544C213.936 36.544 213.444 36.484 213 36.376V38.848ZM220.971 40.072C220.551 40.072 220.203 39.724 220.203 39.304C220.203 38.896 220.551 38.56 220.971 38.56C221.379 38.56 221.715 38.896 221.715 39.304C221.715 39.724 221.379 40.072 220.971 40.072Z" fill="#FF0000"/>
<rect x="6.5" y="6.5" width="359" height="59" rx="9.5" stroke="#FF0000" shape-rendering="crispEdges"/>
</g>
<defs>
<filter id="filter0_d_1647_26308" x="0" y="0" width="378" height="78" filterUnits="userSpaceOnUse" color-interpolation-filters="sRGB">
<feFlood flood-opacity="0" result="BackgroundImageFix"/>
<feColorMatrix in="SourceAlpha" type="matrix" values="0 0 0 0 0 0 0 0 0 0 0 0 0 0 0 0 0 0 127 0" result="hardAlpha"/>
<feOffset dx="3" dy="3"/>
<feGaussianBlur stdDeviation="4.5"/>
<feComposite in2="hardAlpha" operator="out"/>
<feColorMatrix type="matrix" values="0 0 0 0 0.808333 0 0 0 0 0.808333 0 0 0 0 0.808333 0 0 0 0.47 0"/>
<feBlend mode="normal" in2="BackgroundImageFix" result="effect1_dropShadow_1647_26308"/>
<feBlend mode="normal" in="SourceGraphic" in2="effect1_dropShadow_1647_26308" result="shape"/>
</filter>
</defs>
</svg>
