<svg width="489" height="38" viewBox="0 0 489 38" fill="none" xmlns="http://www.w3.org/2000/svg">
<g clip-path="url(#clip0_949_12927)">
<path d="M0 37.2699V29.7499H38.87V37.2699H0ZM0.38 19.2699C2.73 18.1399 4.84 16.8899 6.7 15.5099C8.56 14.1299 10.2 12.6399 11.61 11.0499C12.99 9.47988 14.05 7.80988 14.81 6.01988C15.56 4.22988 15.98 2.34988 16.08 0.379883H24.87C24.81 1.69988 24.67 2.95988 24.45 4.18988C24.23 5.40988 23.92 6.58988 23.51 7.71988C24.92 8.52988 26.28 9.35988 27.6 10.1899C28.92 11.0199 30.15 11.8699 31.31 12.7499C32.44 13.6899 33.61 14.7099 34.83 15.8099C36.05 16.9099 37.31 18.1099 38.59 19.4299L33.04 25.7299C31.94 24.5099 30.82 23.3499 29.66 22.2499C28.5 21.1499 27.31 20.0999 26.09 19.0999C24.96 18.3199 23.86 17.5599 22.78 16.8399C21.7 16.1199 20.61 15.4499 19.51 14.8199L18.95 15.5299C18.04 16.6299 17.07 17.6699 16.04 18.6599C15.01 19.6499 13.91 20.5599 12.75 21.4099C11.53 22.3199 10.28 23.1399 9.01 23.8799C7.74 24.6199 6.45 25.2799 5.13 25.8799L0.38 19.2699Z" fill="#0059FF"/>
<path d="M50.8298 2.41984V29.0298H57.6298C58.2598 29.0298 58.8798 29.0198 59.5098 28.9898C60.1398 28.9598 60.7598 28.8998 61.3898 28.8098C62.0198 28.7798 62.5898 28.7198 63.1098 28.6298C63.6298 28.5398 64.1198 28.4198 64.5598 28.2698V34.8898C64.1398 35.1298 63.6698 35.3098 63.1498 35.4498C62.6298 35.5798 62.0498 35.6798 61.4298 35.7398C60.7398 35.8298 60.0698 35.8898 59.4198 35.9198C58.7598 35.9498 58.1098 35.9598 57.4498 35.9598H42.5498V2.41984H50.8298ZM80.9298 13.7798V21.5198C80.7498 21.5198 80.5598 21.5198 80.3498 21.5398C80.1398 21.5598 79.9198 21.5798 79.6798 21.6098C79.4398 21.6098 79.1998 21.6298 78.9598 21.6498C78.7198 21.6798 78.4698 21.6898 78.1998 21.6898C77.6898 21.7798 77.2098 21.8698 76.7498 21.9598C76.2898 22.0498 75.8498 22.1398 75.4298 22.2298V37.8398H67.1498V1.83984H75.4298V14.5898C75.8498 14.4698 76.2898 14.3598 76.7498 14.2498C77.2098 14.1498 77.7098 14.0498 78.2498 13.9598C78.5198 13.9598 78.7798 13.9498 79.0298 13.9198C79.2798 13.8898 79.5098 13.8798 79.7198 13.8798C79.9598 13.8498 80.1698 13.8298 80.3698 13.8098C80.5598 13.7998 80.7498 13.7898 80.9298 13.7898V13.7798Z" fill="#1D1D1B"/>
<path d="M96.6995 1.85986C97.4595 2.01986 98.1995 2.25986 98.9095 2.54986C99.5695 2.90986 100.18 3.33986 100.74 3.84986C101.31 4.35986 101.84 4.94986 102.35 5.63986C102.8 6.35986 103.22 7.16986 103.6 8.07986C103.99 8.98986 104.32 9.97986 104.58 11.0499C104.82 12.1799 105.01 13.4199 105.14 14.7599C105.27 16.0999 105.34 17.5499 105.34 19.0999C105.34 20.6499 105.27 22.1899 105.14 23.5499C105.01 24.9099 104.82 26.1199 104.58 27.1999C104.31 28.3299 103.98 29.3499 103.6 30.2399C103.21 31.1299 102.79 31.9299 102.35 32.6099C101.84 33.3299 101.31 33.9399 100.74 34.4399C100.17 34.9499 99.5595 35.3499 98.9095 35.6499C98.1995 35.9799 97.4595 36.2199 96.6995 36.3699C95.9395 36.5199 95.1395 36.5899 94.3095 36.5899C93.4195 36.5899 92.5895 36.5199 91.8295 36.3699C91.0695 36.2199 90.3595 35.9799 89.7095 35.6499C88.9895 35.3499 88.3495 34.9499 87.7595 34.4399C87.1795 33.9299 86.6595 33.3199 86.2195 32.6099C85.7095 31.9199 85.2795 31.1299 84.9195 30.2399C84.5595 29.3499 84.2595 28.3299 84.0295 27.1999C83.7595 26.1299 83.5695 24.9099 83.4495 23.5499C83.3295 22.1899 83.2695 20.7099 83.2695 19.0999C83.2695 17.4899 83.3295 16.0999 83.4495 14.7599C83.5695 13.4199 83.7595 12.1799 84.0295 11.0499C84.2695 9.97986 84.5695 8.98986 84.9195 8.07986C85.2795 7.16986 85.7095 6.35986 86.2195 5.63986C86.6695 4.94986 87.1795 4.35986 87.7595 3.84986C88.3395 3.33986 88.9895 2.90986 89.7095 2.54986C90.3695 2.24986 91.0695 2.01986 91.8295 1.85986C92.5895 1.69986 93.4195 1.60986 94.3095 1.60986C95.1395 1.60986 95.9395 1.68986 96.6995 1.85986ZM93.6095 9.10986C93.3895 9.17986 93.1895 9.26986 93.0095 9.35986C92.7695 9.50986 92.5595 9.69986 92.3795 9.91986C92.1995 10.1399 92.0395 10.4299 91.8895 10.7899C91.7095 11.1499 91.5695 11.5899 91.4695 12.1099C91.3695 12.6299 91.2695 13.2099 91.1795 13.8299C91.0595 14.5199 90.9795 15.2999 90.9295 16.1799C90.8895 17.0599 90.8595 18.0399 90.8595 19.1099C90.8595 20.2399 90.8795 21.2499 90.9295 22.1299C90.9695 23.0099 91.0595 23.7599 91.1795 24.3899C91.2695 25.0799 91.3695 25.6699 91.4695 26.1799C91.5695 26.6899 91.7195 27.1199 91.8895 27.4799C92.0395 27.8399 92.1995 28.1399 92.3795 28.3699C92.5595 28.6099 92.7695 28.7699 93.0095 28.8599C93.1895 29.0099 93.3895 29.1099 93.6095 29.1499C93.8295 29.1899 94.0595 29.2199 94.2995 29.2199C94.4795 29.2199 94.6695 29.1999 94.8795 29.1499C95.0895 29.1099 95.3095 29.0099 95.5495 28.8599C95.7295 28.7699 95.9195 28.6099 96.1095 28.3699C96.2995 28.1299 96.4895 27.8299 96.6695 27.4799C96.7895 27.1199 96.9195 26.6899 97.0495 26.1799C97.1795 25.6699 97.3095 25.0799 97.4295 24.3899C97.5195 23.7599 97.5895 23.0099 97.6495 22.1299C97.7095 21.2499 97.7395 20.2399 97.7395 19.1099C97.7395 18.0399 97.7095 17.0599 97.6495 16.1799C97.5895 15.2999 97.5195 14.5199 97.4295 13.8299C97.3095 13.1999 97.1795 12.6299 97.0495 12.1099C96.9195 11.5899 96.7895 11.1499 96.6695 10.7899C96.4895 10.4299 96.2995 10.1399 96.1095 9.91986C95.9195 9.69986 95.7295 9.50986 95.5495 9.35986C95.3095 9.26986 95.0895 9.18986 94.8795 9.10986C94.6695 9.03986 94.4795 8.99986 94.2995 8.99986C94.0595 8.99986 93.8295 9.03986 93.6095 9.10986ZM108.75 37.8499V1.83986H117.03V37.8499H108.75Z" fill="#1D1D1B"/>
<path d="M123.96 8.90984H121.95V2.19984H143.47V8.90984H140.97V29.2198H143.47V35.9298H121.95V29.2198H123.96V8.90984ZM133.8 29.2198V8.90984H131.12V29.2198H133.8ZM148.34 21.7498C148.1 21.8398 147.83 21.8998 147.51 21.9298C147.2 21.9598 146.85 21.9698 146.46 21.9698C146.01 21.9998 145.57 22.0098 145.14 22.0098H143.19V14.8498H148.33V1.83984H156.16V37.8898H148.33V21.7398L148.34 21.7498Z" fill="#1D1D1B"/>
<path d="M162.84 6.49H161.05V0.14H179.85V6.49H178.02V14.9H179.85V21.24H161.05V14.9H162.84V6.49ZM191.79 37.89V31.59H163.83V24.07H200.02V37.89H191.8H191.79ZM171.63 14.91V6.49H169.23V14.9H171.63V14.91ZM192.73 14.3C192.32 14.39 191.9 14.46 191.46 14.51C191.02 14.56 190.57 14.58 190.1 14.58V22.43H182.81V0H190.1V7.19H192.73V0H200.02V22.42H192.73V14.29V14.3Z" fill="#0059FF"/>
<path d="M230.45 19.7798C231.28 19.7798 232.09 19.7798 232.87 19.7598C233.65 19.7498 234.39 19.7098 235.11 19.6498C235.77 19.6498 236.4 19.6098 237.01 19.5398C237.62 19.4698 238.2 19.3798 238.73 19.2898V25.6898C238.31 25.8398 237.83 25.9698 237.28 26.0698C236.73 26.1698 236.11 26.2398 235.42 26.2698C234.7 26.3598 233.95 26.4198 233.16 26.4498C232.37 26.4798 231.56 26.4898 230.72 26.4898H225.84V30.6098H240.29V37.3198H203.3V30.6098H217.75V26.4898H205.49V1.83984H238.05V8.54984H213.09V10.7898H237.6V17.4998H213.09V19.7798H230.45Z" fill="#1D1D1B"/>
<path d="M244.36 15.4398H256.93V9.12984H244.58V2.19984H264.53V22.1498H251.96V28.9898H265.78V35.9198H244.35V15.4398H244.36ZM268.96 37.8498V1.83984H277.24V37.8498H268.96Z" fill="#1D1D1B"/>
<path d="M314.14 2.63984V9.34984H302.06V29.2498H308.86C309.49 29.2498 310.11 29.2398 310.74 29.2098C311.37 29.1798 311.99 29.1198 312.62 29.0298C313.25 28.9998 313.82 28.9398 314.34 28.8498C314.86 28.7598 315.35 28.6398 315.79 28.4898V34.8898C315.37 35.1298 314.9 35.3098 314.38 35.4498C313.86 35.5798 313.28 35.6798 312.66 35.7398C311.97 35.8298 311.3 35.8898 310.65 35.9198C309.99 35.9498 309.34 35.9598 308.68 35.9598H293.78V2.63984H314.13H314.14ZM318.39 37.8398V1.83984H326.67V37.8498H318.39V37.8398Z" fill="#1D1D1B"/>
<path d="M351.08 2.63984V6.52984C350.99 7.92984 350.83 9.31984 350.59 10.6898C350.35 12.0598 350.04 13.4298 349.65 14.8098C349.29 15.9398 348.9 17.0498 348.49 18.1198C348.07 19.1898 347.62 20.2398 347.15 21.2498C347.27 21.3698 347.39 21.4698 347.51 21.5598C347.63 21.6498 347.76 21.7398 347.91 21.8298C348.39 22.2798 348.85 22.7198 349.3 23.1498C349.75 23.5798 350.2 24.0098 350.64 24.4198C351.03 24.8698 351.42 25.3198 351.82 25.7798C352.22 26.2398 352.62 26.6998 353.01 27.1398C353.19 27.4098 353.37 27.6698 353.55 27.9198C353.73 28.1698 353.91 28.4198 354.09 28.6598C354.27 28.9298 354.46 29.1898 354.65 29.4398C354.84 29.6898 355.03 29.9498 355.21 30.2198L350.02 35.7698C349.63 35.1698 349.24 34.6098 348.86 34.0698C348.48 33.5298 348.1 33.0098 347.74 32.4998C347.32 32.0498 346.91 31.6098 346.49 31.1598C346.07 30.7098 345.66 30.2698 345.24 29.8198C344.88 29.5498 344.54 29.2698 344.21 28.9698C343.88 28.6698 343.55 28.3598 343.23 28.0298C342.96 28.4198 342.69 28.7898 342.4 29.1498C342.12 29.5098 341.84 29.8498 341.57 30.1798C340.62 31.3398 339.62 32.4198 338.6 33.3998C337.57 34.3798 336.52 35.2898 335.45 36.1298L330.04 30.3198C330.87 29.6598 331.69 28.9598 332.48 28.1998C333.27 27.4398 334.04 26.6598 334.78 25.8498C335.5 25.0798 336.17 24.2798 336.79 23.4598C337.42 22.6398 338.03 21.7798 338.62 20.8898C339.16 20.0298 339.66 19.1498 340.12 18.2498C340.58 17.3598 340.99 16.4298 341.35 15.4798C341.68 14.5898 341.95 13.6598 342.18 12.7098C342.4 11.7598 342.57 10.7898 342.69 9.79984H331.6V2.63984H351.1H351.08ZM370.4 13.7798V21.5198C370.22 21.5198 370.03 21.5198 369.82 21.5398C369.61 21.5598 369.39 21.5798 369.15 21.6098C368.91 21.6098 368.67 21.6298 368.43 21.6498C368.19 21.6798 367.94 21.6898 367.67 21.6898C367.16 21.7798 366.68 21.8698 366.22 21.9598C365.76 22.0498 365.32 22.1398 364.9 22.2298V37.8398H356.62V1.83984H364.9V14.5898C365.32 14.4698 365.76 14.3598 366.22 14.2498C366.68 14.1498 367.18 14.0498 367.72 13.9598C367.99 13.9598 368.25 13.9498 368.5 13.9198C368.75 13.8898 368.98 13.8798 369.19 13.8798C369.43 13.8498 369.64 13.8298 369.84 13.8098C370.03 13.7998 370.22 13.7898 370.4 13.7898V13.7798Z" fill="#1D1D1B"/>
<path d="M379.69 23.5799C378.3 23.0999 377.07 22.3699 376 21.3899C374.9 20.4699 374.08 19.2899 373.54 17.8599C373 16.4299 372.73 14.7599 372.73 12.8499C372.73 11.9599 372.8 11.0999 372.93 10.2799C373.06 9.45992 373.28 8.68992 373.58 7.97992C373.85 7.28992 374.18 6.64992 374.56 6.05992C374.95 5.45992 375.41 4.90992 375.95 4.40992C376.46 3.92992 377.02 3.50992 377.65 3.13992C378.28 2.76992 378.95 2.44992 379.66 2.17992C380.35 1.93992 381.08 1.75992 381.85 1.61992C382.62 1.47992 383.46 1.41992 384.35 1.41992C385.18 1.41992 386 1.48992 386.79 1.61992C387.58 1.74992 388.33 1.93992 389.05 2.17992C389.74 2.44992 390.38 2.76992 391 3.13992C391.61 3.50992 392.19 3.93992 392.72 4.40992C393.2 4.91992 393.64 5.46992 394.04 6.05992C394.44 6.65992 394.81 7.29992 395.14 7.97992C395.41 8.69992 395.62 9.45992 395.77 10.2799C395.92 11.0999 395.99 11.9599 395.99 12.8499C395.99 14.7599 395.71 16.4299 395.16 17.8599C394.61 19.2899 393.8 20.4699 392.72 21.3899C391.62 22.3699 390.37 23.1099 388.99 23.5799C387.6 24.0599 386.06 24.2999 384.36 24.2999C382.66 24.2999 381.07 24.0599 379.69 23.5799ZM382.53 25.9099V31.0499H407.45V37.7599H374.71V25.9099H382.54H382.53ZM384.97 16.8699C385.19 16.8399 385.44 16.7799 385.71 16.6899C385.92 16.6599 386.13 16.5899 386.36 16.4699C386.59 16.3499 386.8 16.1999 387.01 16.0199C387.19 15.8999 387.36 15.7299 387.52 15.5099C387.68 15.2899 387.84 15.0399 387.99 14.7699C388.11 14.5299 388.21 14.2599 388.28 13.9399C388.35 13.6299 388.39 13.2599 388.39 12.8399C388.39 12.4799 388.35 12.1499 388.28 11.8299C388.2 11.5199 388.11 11.2299 387.99 10.9599C387.84 10.7199 387.68 10.4999 387.52 10.2899C387.36 10.0799 387.19 9.88992 387.01 9.70992C386.8 9.58992 386.58 9.46992 386.36 9.34992C386.14 9.22992 385.92 9.12992 385.71 9.03992C385.44 8.97992 385.2 8.92992 384.97 8.87992C384.75 8.83992 384.55 8.80992 384.37 8.80992C384.13 8.80992 383.89 8.82992 383.65 8.87992C383.41 8.91992 383.19 8.97992 382.98 9.03992C382.71 9.12992 382.47 9.22992 382.26 9.34992C382.05 9.46992 381.86 9.58992 381.68 9.70992C381.47 9.88992 381.28 10.0799 381.12 10.2899C380.96 10.4999 380.83 10.7199 380.74 10.9599C380.59 11.2299 380.49 11.5199 380.43 11.8299C380.37 12.1399 380.34 12.4799 380.34 12.8399C380.34 13.2599 380.37 13.6199 380.43 13.9399C380.49 14.2599 380.59 14.5299 380.74 14.7699C380.83 15.0399 380.96 15.2799 381.12 15.5099C381.28 15.7399 381.47 15.9099 381.68 16.0199C381.86 16.1999 382.05 16.3499 382.26 16.4699C382.47 16.5899 382.71 16.6599 382.98 16.6899C383.19 16.7799 383.41 16.8399 383.65 16.8699C383.89 16.8999 384.13 16.9099 384.37 16.9099C384.55 16.9099 384.75 16.8999 384.97 16.8699ZM399.17 26.7599V1.83992H407V26.7499H399.17V26.7599Z" fill="#1D1D1B"/>
<path d="M433.61 7.42984H419.48V9.03984H433.39V14.4098H419.48V16.1098H430.3C430.57 16.1398 430.83 16.1498 431.08 16.1498C431.33 16.1498 431.59 16.1398 431.86 16.1098H432.58C432.82 16.1098 433.06 16.0998 433.3 16.0698C433.51 16.0698 433.72 16.0598 433.95 16.0298C434.18 15.9998 434.41 15.9598 434.64 15.8998V21.1798C434.31 21.2998 433.94 21.3998 433.52 21.4698C433.1 21.5398 432.64 21.5998 432.13 21.6298C431.59 21.6898 430.97 21.7298 430.27 21.7398C429.57 21.7598 428.77 21.7398 427.88 21.7198H411.87V1.83984H433.61V7.42984ZM445.24 37.8498H413.88V23.8898H445.24V37.8498ZM437.41 32.0398V29.7098H421.71V32.0398H437.41ZM437.45 22.2898V1.83984H445.23V22.2798H437.45V22.2898Z" fill="#1D1D1B"/>
<path d="M468.631 8.69018V5.43018C462.021 6.17018 456.731 11.3602 455.851 17.9302H459.121C459.951 13.1402 463.801 9.38018 468.631 8.69018Z" fill="#0059FF"/>
<path d="M481.38 17.9302H484.65C483.77 11.3602 478.48 6.17018 471.87 5.43018V8.69018C476.7 9.39018 480.55 13.1502 481.38 17.9302Z" fill="#0059FF"/>
<path d="M459.03 21.1699H455.78C456.39 28.0399 461.8 33.5499 468.63 34.3099V31.0499C463.59 30.3199 459.61 26.2499 459.03 21.1699Z" fill="#0059FF"/>
<path d="M471.86 31.0499V34.3099C478.69 33.5499 484.1 28.0399 484.71 21.1699H481.46C480.88 26.2599 476.9 30.3299 471.86 31.0499Z" fill="#0059FF"/>
<path d="M470.25 13.4399C466.69 13.4399 463.79 16.3399 463.79 19.8999C463.79 23.4599 466.69 26.3599 470.25 26.3599C473.81 26.3599 476.71 23.4599 476.71 19.8999C476.71 16.3399 473.81 13.4399 470.25 13.4399ZM470.25 23.1199C468.47 23.1199 467.03 21.6699 467.03 19.8999C467.03 18.1299 468.48 16.6799 470.25 16.6799C472.02 16.6799 473.47 18.1299 473.47 19.8999C473.47 21.6699 472.02 23.1199 470.25 23.1199Z" fill="#0059FF"/>
<path d="M471.86 5.42998V3.59998C471.86 2.70998 471.14 1.97998 470.24 1.97998C469.34 1.97998 468.62 2.69998 468.62 3.59998V5.42998C469.15 5.36998 469.69 5.33998 470.24 5.33998C470.79 5.33998 471.33 5.36998 471.86 5.42998Z" fill="#0059FF"/>
<path d="M470.251 8.56984C470.801 8.56984 471.341 8.60984 471.871 8.68984V5.42984C471.341 5.36984 470.801 5.33984 470.251 5.33984C469.701 5.33984 469.161 5.36984 468.631 5.42984V8.68984C469.161 8.60984 469.701 8.56984 470.251 8.56984Z" fill="#0059FF"/>
<path d="M468.631 34.3101V36.1901C468.631 37.0801 469.351 37.8101 470.251 37.8101C471.151 37.8101 471.871 37.0901 471.871 36.1901V34.3101C471.341 34.3701 470.801 34.4001 470.251 34.4001C469.701 34.4001 469.161 34.3701 468.631 34.3101Z" fill="#0059FF"/>
<path d="M470.251 31.1698C469.701 31.1698 469.161 31.1298 468.631 31.0498V34.3098C469.161 34.3698 469.701 34.3998 470.251 34.3998C470.801 34.3998 471.341 34.3698 471.871 34.3098V31.0498C471.341 31.1298 470.801 31.1698 470.251 31.1698Z" fill="#0059FF"/>
<path d="M486.73 17.9299H484.65C484.73 18.5599 484.78 19.2099 484.78 19.8699C484.78 20.3099 484.76 20.7399 484.72 21.1599H486.73C487.62 21.1599 488.35 20.4399 488.35 19.5399C488.35 18.6399 487.63 17.9199 486.73 17.9199V17.9299Z" fill="#0059FF"/>
<path d="M484.64 17.9302H481.37C481.48 18.5602 481.54 19.2102 481.54 19.8702C481.54 20.3102 481.51 20.7402 481.46 21.1602H484.71C484.75 20.7302 484.77 20.3002 484.77 19.8702C484.77 19.2102 484.72 18.5702 484.64 17.9302Z" fill="#0059FF"/>
<path d="M455.85 17.9302H453.98C453.09 17.9302 452.36 18.6502 452.36 19.5502C452.36 20.4502 453.08 21.1702 453.98 21.1702H455.78C455.74 20.7402 455.72 20.3102 455.72 19.8802C455.72 19.2202 455.77 18.5802 455.85 17.9402V17.9302Z" fill="#0059FF"/>
<path d="M458.951 19.8702C458.951 19.2102 459.011 18.5602 459.121 17.9302H455.851C455.771 18.5602 455.721 19.2102 455.721 19.8702C455.721 20.3102 455.741 20.7402 455.781 21.1602H459.031C458.981 20.7302 458.951 20.3002 458.951 19.8702Z" fill="#0059FF"/>
<path d="M470.86 24.7298C473.533 24.7298 475.7 22.5629 475.7 19.8898C475.7 17.2167 473.533 15.0498 470.86 15.0498C468.186 15.0498 466.02 17.2167 466.02 19.8898C466.02 22.5629 468.186 24.7298 470.86 24.7298Z" fill="#0059FF"/>
</g>
<defs>
<clipPath id="clip0_949_12927">
<rect width="488.34" height="37.89" fill="white"/>
</clipPath>
</defs>
</svg>
