<svg width="378" height="79" viewBox="0 0 378 79" fill="none" xmlns="http://www.w3.org/2000/svg">
<g filter="url(#filter0_d_1_4334)">
<rect x="6" y="6.0752" width="360" height="60" rx="10" fill="white" shape-rendering="crispEdges"/>
<path d="M34.7891 33.958V34.626H27.6758V30.876H34.7305V31.5439H28.6016V32.3994H34.4492V33.0439H28.6016V33.958H34.7891ZM26.4336 36.1611V35.4229H35.9141V36.1611H26.4336ZM27.5703 37.6377V36.958H34.6953V39.208H28.5078V40.2158H35.0117V40.9072H27.5938V38.5518H33.793V37.6377H27.5703ZM45.1428 30.6182V38.2822H44.2405V30.6182H45.1428ZM37.0803 32.1064V31.3564H41.8381V34.3682H37.9944V36.0322C39.9338 36.0322 41.2991 35.9736 42.9514 35.6807L43.0452 36.4424C41.3459 36.7354 39.9455 36.7939 37.9475 36.8057H37.1038V33.6416H40.9241V32.1064H37.0803ZM38.3108 40.8018V37.6846H39.2366V40.0283H45.4475V40.8018H38.3108ZM57.9988 30.6064V41.0244H57.0847V30.6064H57.9988ZM49.5144 38.2471C50.405 38.2412 51.4245 38.2354 52.4792 38.2002V37.0635C51.2253 36.9346 50.4167 36.2197 50.4284 35.1768C50.4167 33.999 51.4187 33.2373 52.9245 33.2432C54.4304 33.2373 55.4499 33.999 55.4441 35.1768C55.4499 36.208 54.6413 36.9229 53.405 37.0635V38.165C54.4128 38.1182 55.4323 38.0479 56.3933 37.9189L56.4636 38.6221C54.1374 38.9971 51.5886 39.0322 49.655 39.0322L49.5144 38.2471ZM49.737 32.6455V31.8955H52.4792V30.6182H53.405V31.8955H56.1238V32.6455H49.737ZM51.2839 35.1768C51.278 35.8975 51.9577 36.3721 52.9245 36.3604C53.8972 36.3721 54.571 35.8975 54.5652 35.1768C54.571 34.4502 53.8972 33.958 52.9245 33.958C51.9577 33.958 51.278 34.4502 51.2839 35.1768ZM68.1767 30.6182V38.5283H67.2509V37.4502H65.0947V36.7822H67.2509V30.6182H68.1767ZM59.5283 35.4463C61.4677 35.4346 64.081 35.417 66.3134 35.1416L66.372 35.8096C65.4463 35.9561 64.4677 36.0498 63.5127 36.1084V38.165H62.5869V36.1553C61.5322 36.1963 60.5302 36.1963 59.6572 36.1963L59.5283 35.4463ZM60.372 32.8564C60.3662 31.7607 61.4091 31.04 62.9502 31.04C64.4795 31.04 65.5224 31.7607 65.5283 32.8564C65.5224 33.9697 64.4795 34.6611 62.9502 34.6611C61.4091 34.6611 60.3662 33.9697 60.372 32.8564ZM61.0283 40.8018V37.7549H61.9541V40.0283H68.4345V40.8018H61.0283ZM61.2509 32.8564C61.2392 33.5361 61.9306 33.9756 62.9502 33.9814C63.9404 33.9756 64.6435 33.5361 64.6494 32.8564C64.6435 32.1885 63.9404 31.7314 62.9502 31.7432C61.9306 31.7314 61.2392 32.1885 61.2509 32.8564ZM78.3547 30.6064V36.8174H77.4289V34.0869H75.3312V33.3252H77.4289V30.6064H78.3547ZM69.7648 35.9854C71.3117 35.4287 72.4133 34.0166 72.4133 32.5283V32.1416H70.0578V31.3682H75.6711V32.1416H73.3391V32.5166C73.3391 33.876 74.382 35.1709 75.9055 35.6924L75.425 36.4307C74.259 36.0088 73.3508 35.1299 72.8996 34.0576C72.4543 35.2764 71.4875 36.249 70.2453 36.7236L69.7648 35.9854ZM71.4055 39.0791C71.3996 37.8545 72.7297 37.1396 74.8977 37.1455C77.0598 37.1396 78.3898 37.8545 78.3898 39.0791C78.3898 40.3096 77.0598 41.0127 74.8977 41.0244C72.7297 41.0127 71.3996 40.3096 71.4055 39.0791ZM72.3195 39.0791C72.3137 39.835 73.298 40.292 74.8977 40.2861C76.4914 40.292 77.4758 39.835 77.4758 39.0791C77.4758 38.3174 76.4914 37.8604 74.8977 37.8604C73.298 37.8604 72.3137 38.3174 72.3195 39.0791ZM89.3881 38.9268V39.6885H79.8491V38.9268H84.1381V36.6768H80.9741V31.3447H81.8998V33.2314H87.3139V31.3447H88.2163V36.6768H85.0405V38.9268H89.3881ZM81.8998 35.9268H87.3139V33.9814H81.8998V35.9268ZM98.5817 30.6064V36.1963H97.6677V30.6064H98.5817ZM90.2262 33.5127C90.2204 32.0889 91.3747 31.1104 92.9567 31.1221C94.5387 31.1104 95.6813 32.0889 95.6872 33.5127C95.6813 34.9307 94.5387 35.9092 92.9567 35.9033C91.3747 35.9092 90.2204 34.9307 90.2262 33.5127ZM91.1286 33.5127C91.1169 34.4619 91.8845 35.1357 92.9567 35.1416C94.0173 35.1357 94.7848 34.4619 94.7848 33.5127C94.7848 32.5576 94.0173 31.8896 92.9567 31.8955C91.8845 31.8896 91.1169 32.5576 91.1286 33.5127ZM91.8317 40.8838V36.7236H92.7458V37.9893H97.6677V36.7236H98.5817V40.8838H91.8317ZM92.7458 40.1338H97.6677V38.7275H92.7458V40.1338ZM108.701 30.6064V41.0244H107.787V30.6064H108.701ZM100.791 38.3408V31.6377H101.693V37.5439C103.287 37.5322 104.928 37.4092 106.674 37.04L106.803 37.8252C104.951 38.2119 103.305 38.3408 101.635 38.3408H100.791ZM118.305 30.6064V34.7314H120.051V35.5049H118.305V41.0479H117.391V30.6064H118.305ZM110.699 38.4346V31.626H115.563V32.3877H111.613V37.6611C113.5 37.6553 114.83 37.5732 116.383 37.2861L116.5 38.083C114.865 38.376 113.5 38.4346 111.52 38.4346H110.699ZM121.475 40.1455C121.065 40.1396 120.713 39.7998 120.725 39.3838C120.713 38.9736 121.065 38.6338 121.475 38.6338C121.891 38.6338 122.231 38.9736 122.225 39.3838C122.231 39.7998 121.891 40.1396 121.475 40.1455ZM133.991 30.6064V34.7314H135.737V35.5049H133.991V41.0479H133.077V30.6064H133.991ZM126.386 38.4346V31.626H131.249V32.3877H127.3V37.6611C129.186 37.6553 130.516 37.5732 132.069 37.2861L132.186 38.083C130.552 38.376 129.186 38.4346 127.206 38.4346H126.386ZM139.763 33.4072C139.757 35.3115 141.052 37.2217 142.587 37.9189L142.025 38.6455C140.835 38.0713 139.81 36.835 139.312 35.3525C138.831 36.9229 137.806 38.2412 136.587 38.8564L136.001 38.083C137.554 37.374 138.837 35.3818 138.849 33.4072V31.5088H139.763V33.4072ZM143.724 41.0479V30.6064H144.65V41.0479H143.724ZM158.502 38.9619V39.7354H148.963V38.9619H153.252V36.9932H150.158V33.7822H156.392V32.1416H150.134V31.3799H157.295V34.5322H151.072V36.2314H157.541V36.9932H154.154V38.9619H158.502ZM167.308 31.7197V32.7627C167.308 34.0752 167.308 35.5576 166.922 37.8252L165.984 37.7314C166.406 35.5986 166.406 34.04 166.406 32.7627V32.4814H160.125V31.7197H167.308ZM159.094 39.4893V38.7275H168.586V39.4893H159.094ZM177.826 30.6182V38.2354H176.912V30.6182H177.826ZM169.471 33.8994C169.465 32.3994 170.643 31.3506 172.201 31.3447C173.76 31.3506 174.926 32.3994 174.932 33.8994C174.926 35.417 173.76 36.4717 172.201 36.4658C170.643 36.4717 169.465 35.417 169.471 33.8994ZM170.373 33.8994C170.361 34.9365 171.147 35.6572 172.201 35.6572C173.238 35.6572 174.029 34.9365 174.029 33.8994C174.029 32.8799 173.238 32.1533 172.201 32.1533C171.147 32.1533 170.361 32.8799 170.373 33.8994ZM171.1 40.8018V37.4619H172.014V40.0283H178.154V40.8018H171.1ZM184.559 32.4111V33.1611H179.332V32.4111H181.5V30.9229H182.414V32.4111H184.559ZM179.707 36.2314C179.707 34.8486 180.651 33.8701 181.946 33.8643C183.258 33.8701 184.196 34.8486 184.207 36.2314C184.196 37.6318 183.258 38.6162 181.946 38.6221C180.651 38.6162 179.707 37.6318 179.707 36.2314ZM180.528 36.2314C180.528 37.1572 181.119 37.8193 181.946 37.8135C182.778 37.8193 183.387 37.1572 183.387 36.2314C183.387 35.3174 182.778 34.6494 181.946 34.6377C181.119 34.6494 180.528 35.3174 180.528 36.2314ZM185.098 40.5088V30.8643H185.965V35.001H187.348V30.6064H188.227V41.0244H187.348V35.7627H185.965V40.5088H185.098ZM194.749 32.083C194.743 33.4775 196.6 34.6611 198.417 34.9307L198.077 35.6572C196.454 35.3818 194.866 34.5146 194.233 33.2607C193.6 34.5146 192.012 35.3818 190.413 35.6572L190.049 34.9307C191.86 34.6611 193.711 33.4775 193.717 32.083V32.0127H190.378V31.2627H198.077V32.0127H194.749V32.083ZM189.487 37.3096V36.5479H198.979V37.3096H194.667V41.0244H193.764V37.3096H189.487ZM202.712 33.5713C202.712 35.2295 203.52 37.0166 204.903 37.8369L204.376 38.5518C203.368 37.9424 202.647 36.8291 202.284 35.5576C201.903 36.9463 201.13 38.1416 200.087 38.7744L199.501 38.083C200.942 37.2393 201.821 35.3936 201.821 33.6064V31.5908H202.712V33.5713ZM203.755 35.1299V34.3447H205.524V30.8291H206.391V40.4971H205.524V35.1299H203.755ZM207.657 41.0244V30.6064H208.548V41.0244H207.657ZM219.288 38.915V39.6885H209.749V38.915H212.116V36.1084C211.226 35.6455 210.687 34.8955 210.687 33.9463C210.687 32.335 212.269 31.2744 214.495 31.2627C216.722 31.2744 218.304 32.335 218.304 33.9463C218.304 34.8779 217.782 35.6162 216.921 36.0791V38.915H219.288ZM211.577 33.9463C211.571 35.1123 212.784 35.8916 214.495 35.8916C216.189 35.8916 217.413 35.1123 217.413 33.9463C217.413 32.7803 216.189 32.0127 214.495 32.0244C212.784 32.0127 211.571 32.7803 211.577 33.9463ZM213.019 38.915H215.995V36.4365C215.544 36.5537 215.04 36.6182 214.495 36.6182C213.962 36.6182 213.464 36.5596 213.019 36.4424V38.915ZM220.982 40.1455C220.572 40.1396 220.22 39.7998 220.232 39.3838C220.22 38.9736 220.572 38.6338 220.982 38.6338C221.398 38.6338 221.738 38.9736 221.732 39.3838C221.738 39.7998 221.398 40.1396 220.982 40.1455Z" fill="#666666"/>
<rect x="6.5" y="6.5752" width="359" height="59" rx="9.5" stroke="#E6E6E6" shape-rendering="crispEdges"/>
</g>
<defs>
<filter id="filter0_d_1_4334" x="0" y="0.0751953" width="378" height="78" filterUnits="userSpaceOnUse" color-interpolation-filters="sRGB">
<feFlood flood-opacity="0" result="BackgroundImageFix"/>
<feColorMatrix in="SourceAlpha" type="matrix" values="0 0 0 0 0 0 0 0 0 0 0 0 0 0 0 0 0 0 127 0" result="hardAlpha"/>
<feOffset dx="3" dy="3"/>
<feGaussianBlur stdDeviation="4.5"/>
<feComposite in2="hardAlpha" operator="out"/>
<feColorMatrix type="matrix" values="0 0 0 0 0.808333 0 0 0 0 0.808333 0 0 0 0 0.808333 0 0 0 0.47 0"/>
<feBlend mode="normal" in2="BackgroundImageFix" result="effect1_dropShadow_1_4334"/>
<feBlend mode="normal" in="SourceGraphic" in2="effect1_dropShadow_1_4334" result="shape"/>
</filter>
</defs>
</svg>
