<svg width="378" height="78" viewBox="0 0 378 78" fill="none" xmlns="http://www.w3.org/2000/svg">
<g filter="url(#filter0_d_1647_26310)">
<rect x="6" y="6" width="360" height="60" rx="10" fill="#F4FBF5" shape-rendering="crispEdges"/>
<path d="M34.7891 34.5508H27.6758V30.8008H34.7305V31.4688H28.6016V32.3242H34.4492V32.9688H28.6016V33.8828H34.7891V34.5508ZM35.9141 36.0859H26.4336V35.3477H35.9141V36.0859ZM34.6953 39.1328H28.5078V40.1406H35.0117V40.832H27.5938V38.4766H33.793V37.5625H27.5703V36.8828H34.6953V39.1328ZM45.1428 38.207H44.2405V30.543H45.1428V38.207ZM45.4475 40.7266H38.3108V37.6094H39.2366V39.9531H45.4475V40.7266ZM41.8381 34.293H37.9944V35.957C39.0373 35.957 39.928 35.9336 40.6663 35.8867C41.4084 35.8359 42.1702 35.7422 42.9514 35.6055L43.0452 36.3672C42.2444 36.5039 41.467 36.5977 40.7131 36.6484C39.9592 36.6953 39.0373 36.7227 37.9475 36.7305H37.1038V33.5664H40.9241V32.0312H37.0803V31.2812H41.8381V34.293ZM57.9988 40.9492H57.0847V30.5312H57.9988V40.9492ZM49.5144 38.1719C50.8152 38.1641 51.8034 38.1504 52.4792 38.1309V36.9883C52.0652 36.9453 51.7019 36.8398 51.3894 36.6719C51.0808 36.5039 50.8425 36.2871 50.6745 36.0215C50.5066 35.752 50.4245 35.4453 50.4284 35.1016C50.4245 34.7148 50.5261 34.377 50.7331 34.0879C50.9402 33.7949 51.2331 33.5684 51.612 33.4082C51.9909 33.248 52.4284 33.168 52.9245 33.168C53.4206 33.168 53.8581 33.248 54.237 33.4082C54.6198 33.5684 54.9167 33.7949 55.1277 34.0879C55.3386 34.377 55.4441 34.7148 55.4441 35.1016C55.4441 35.4414 55.3601 35.7461 55.1921 36.0156C55.0241 36.2812 54.7859 36.498 54.4773 36.666C54.1726 36.8301 53.8152 36.9355 53.405 36.9824V38.0957C54.5378 38.0449 55.5339 37.9609 56.3933 37.8438L56.4636 38.5469C55.4284 38.7148 54.3523 38.8262 53.2351 38.8809C52.1179 38.9316 50.9245 38.957 49.655 38.957L49.5144 38.1719ZM56.1238 32.5703H49.737V31.8203H52.4792V30.543H53.405V31.8203H56.1238V32.5703ZM52.9245 33.8828C52.6081 33.8828 52.3249 33.9336 52.0749 34.0352C51.8249 34.1367 51.6296 34.2812 51.489 34.4688C51.3523 34.6523 51.2839 34.8633 51.2839 35.1016C51.2839 35.3398 51.3523 35.5488 51.489 35.7285C51.6296 35.9082 51.8249 36.0469 52.0749 36.1445C52.3249 36.2422 52.6081 36.2891 52.9245 36.2852C53.2448 36.2891 53.528 36.2441 53.7741 36.1504C54.0241 36.0527 54.2175 35.9141 54.3542 35.7344C54.4948 35.5508 54.5652 35.3398 54.5652 35.1016C54.5652 34.8633 54.4948 34.6523 54.3542 34.4688C54.2175 34.2812 54.0241 34.1367 53.7741 34.0352C53.528 33.9336 53.2448 33.8828 52.9245 33.8828ZM68.1767 38.4531H67.2509V37.375H65.0947V36.707H67.2509V30.543H68.1767V38.4531ZM68.4345 40.7266H61.0283V37.6797H61.9541V39.9531H68.4345V40.7266ZM59.5283 35.3711C60.958 35.3633 62.2002 35.3418 63.2548 35.3066C64.3134 35.2715 65.333 35.1914 66.3134 35.0664L66.372 35.7344C65.5127 35.8711 64.5595 35.9707 63.5127 36.0332V38.0898H62.5869V36.0801C61.8095 36.1074 61.0205 36.1211 60.2197 36.1211H59.6572L59.5283 35.3711ZM62.9502 30.9648C63.4541 30.9648 63.8994 31.041 64.2861 31.1934C64.6767 31.3418 64.9795 31.5547 65.1943 31.832C65.413 32.1055 65.5244 32.4219 65.5283 32.7812C65.5244 33.1484 65.413 33.4688 65.1943 33.7422C64.9795 34.0117 64.6767 34.2207 64.2861 34.3691C63.8994 34.5137 63.4541 34.5859 62.9502 34.5859C62.4423 34.5859 61.9931 34.5137 61.6025 34.3691C61.2119 34.2207 60.9091 34.0117 60.6943 33.7422C60.4795 33.4688 60.372 33.1484 60.372 32.7812C60.372 32.4219 60.4795 32.1055 60.6943 31.832C60.9091 31.5547 61.2119 31.3418 61.6025 31.1934C61.9931 31.041 62.4423 30.9648 62.9502 30.9648ZM62.9502 31.668C62.6142 31.6641 62.3173 31.709 62.0595 31.8027C61.8017 31.8965 61.6005 32.0293 61.456 32.2012C61.3154 32.3691 61.247 32.5625 61.2509 32.7812C61.247 33.0039 61.3154 33.2012 61.456 33.373C61.5966 33.541 61.7959 33.6719 62.0537 33.7656C62.3154 33.8594 62.6142 33.9062 62.9502 33.9062C63.2744 33.9062 63.5654 33.8594 63.8232 33.7656C64.081 33.6719 64.2822 33.541 64.4267 33.373C64.5713 33.2012 64.6455 33.0039 64.6494 32.7812C64.6455 32.5625 64.5693 32.3691 64.4209 32.2012C64.2763 32.0293 64.0752 31.8965 63.8173 31.8027C63.5634 31.709 63.2744 31.6641 62.9502 31.668ZM78.3547 36.7422H77.4289V34.0117H75.3312V33.25H77.4289V30.5312H78.3547V36.7422ZM74.8977 37.0703C75.6203 37.0703 76.2434 37.1465 76.7668 37.2988C77.2902 37.4512 77.6906 37.6719 77.968 37.9609C78.2492 38.25 78.3898 38.5977 78.3898 39.0039C78.3898 39.4102 78.2492 39.7578 77.968 40.0469C77.6906 40.3398 77.2902 40.5625 76.7668 40.7148C76.2434 40.8672 75.6203 40.9453 74.8977 40.9492C74.175 40.9453 73.552 40.8672 73.0285 40.7148C72.5051 40.5625 72.1027 40.3398 71.8215 40.0469C71.5441 39.7578 71.4055 39.4102 71.4055 39.0039C71.4055 38.5977 71.5441 38.25 71.8215 37.9609C72.1027 37.6719 72.5051 37.4512 73.0285 37.2988C73.552 37.1465 74.175 37.0703 74.8977 37.0703ZM74.8977 37.7852C74.3703 37.7852 73.9113 37.834 73.5207 37.9316C73.1301 38.0293 72.8312 38.1699 72.6242 38.3535C72.4172 38.5371 72.3156 38.7539 72.3195 39.0039C72.3156 39.25 72.4172 39.4648 72.6242 39.6484C72.8312 39.8281 73.1301 39.9668 73.5207 40.0645C73.9113 40.1621 74.3703 40.2109 74.8977 40.2109C75.425 40.2109 75.882 40.1621 76.2687 40.0645C76.6594 39.9668 76.9582 39.8281 77.1652 39.6484C77.3723 39.4648 77.4758 39.25 77.4758 39.0039C77.4758 38.7539 77.3723 38.5371 77.1652 38.3535C76.9582 38.1699 76.6594 38.0293 76.2687 37.9316C75.882 37.834 75.425 37.7852 74.8977 37.7852ZM73.3391 32.4414C73.3391 32.8906 73.4465 33.3262 73.6613 33.748C73.8762 34.166 74.177 34.5391 74.5637 34.8672C74.9543 35.1914 75.4016 35.4414 75.9055 35.6172L75.425 36.3555C74.843 36.1445 74.3312 35.832 73.8898 35.418C73.4523 35.0039 73.1223 34.5254 72.8996 33.9824C72.673 34.5918 72.3273 35.1309 71.8625 35.5996C71.4016 36.0645 70.8625 36.4141 70.2453 36.6484L69.7648 35.9102C70.2766 35.7227 70.7336 35.4531 71.1359 35.1016C71.5383 34.7461 71.8508 34.3379 72.0734 33.877C72.3 33.416 72.4133 32.9414 72.4133 32.4531V32.0664H70.0578V31.293H75.6711V32.0664H73.3391V32.4414ZM89.3881 39.6133H79.8491V38.8516H84.1381V36.6016H80.9741V31.2695H81.8998V33.1562H87.3139V31.2695H88.2163V36.6016H85.0405V38.8516H89.3881V39.6133ZM87.3139 35.8516V33.9062H81.8998V35.8516H87.3139ZM98.5817 36.1211H97.6677V30.5312H98.5817V36.1211ZM92.7458 37.9141H97.6677V36.6484H98.5817V40.8086H91.8317V36.6484H92.7458V37.9141ZM97.6677 40.0586V38.6523H92.7458V40.0586H97.6677ZM92.9567 31.0469C93.4802 31.043 93.9489 31.1406 94.363 31.3398C94.777 31.5391 95.1012 31.8223 95.3356 32.1895C95.57 32.5527 95.6872 32.9688 95.6872 33.4375C95.6872 33.9023 95.57 34.3164 95.3356 34.6797C95.1012 35.043 94.777 35.3262 94.363 35.5293C93.9489 35.7285 93.4802 35.8281 92.9567 35.8281C92.4333 35.8281 91.9645 35.7285 91.5505 35.5293C91.1364 35.3262 90.8122 35.043 90.5778 34.6797C90.3434 34.3164 90.2262 33.9023 90.2262 33.4375C90.2262 32.9688 90.3434 32.5527 90.5778 32.1895C90.8122 31.8223 91.1364 31.5391 91.5505 31.3398C91.9645 31.1406 92.4333 31.043 92.9567 31.0469ZM92.9567 31.8203C92.6052 31.8164 92.2887 31.8848 92.0075 32.0254C91.7302 32.1621 91.5134 32.3535 91.3571 32.5996C91.2009 32.8457 91.1247 33.125 91.1286 33.4375C91.1247 33.75 91.2009 34.0312 91.3571 34.2812C91.5134 34.5273 91.7302 34.7207 92.0075 34.8613C92.2887 34.998 92.6052 35.0664 92.9567 35.0664C93.3044 35.0664 93.6169 34.998 93.8942 34.8613C94.1716 34.7207 94.3884 34.5273 94.5446 34.2812C94.7048 34.0312 94.7848 33.75 94.7848 33.4375C94.7848 33.125 94.7048 32.8457 94.5446 32.5996C94.3884 32.3535 94.1716 32.1621 93.8942 32.0254C93.6169 31.8848 93.3044 31.8164 92.9567 31.8203ZM108.701 40.9492H107.787V30.5312H108.701V40.9492ZM101.693 37.4688C103.455 37.4609 105.115 37.293 106.674 36.9648L106.803 37.75C105.916 37.9336 105.053 38.0664 104.213 38.1484C103.373 38.2266 102.514 38.2656 101.635 38.2656H100.791V31.5625H101.693V37.4688ZM118.305 34.6562H120.051V35.4297H118.305V40.9727H117.391V30.5312H118.305V34.6562ZM115.563 32.3125H111.613V37.5859C112.586 37.5859 113.436 37.5586 114.162 37.5039C114.889 37.4492 115.629 37.3516 116.383 37.2109L116.5 38.0078C115.731 38.1484 114.975 38.2422 114.233 38.2891C113.49 38.3359 112.586 38.3594 111.52 38.3594H110.699V31.5508H115.563V32.3125ZM121.475 40.0703C121.338 40.0703 121.211 40.0371 121.094 39.9707C120.981 39.9004 120.889 39.8066 120.819 39.6895C120.752 39.5723 120.721 39.4453 120.725 39.3086C120.721 39.1758 120.752 39.0527 120.819 38.9395C120.889 38.8223 120.981 38.7305 121.094 38.6641C121.211 38.5938 121.338 38.5586 121.475 38.5586C121.608 38.5586 121.731 38.5938 121.844 38.6641C121.961 38.7305 122.053 38.8223 122.12 38.9395C122.19 39.0527 122.225 39.1758 122.225 39.3086C122.225 39.4453 122.19 39.5723 122.12 39.6895C122.053 39.8066 121.961 39.9004 121.844 39.9707C121.731 40.0371 121.608 40.0703 121.475 40.0703ZM133.991 34.6562H135.737V35.4297H133.991V40.9727H133.077V30.5312H133.991V34.6562ZM131.249 32.3125H127.3V37.5859C128.272 37.5859 129.122 37.5586 129.849 37.5039C130.575 37.4492 131.315 37.3516 132.069 37.2109L132.186 38.0078C131.417 38.1484 130.661 38.2422 129.919 38.2891C129.177 38.3359 128.272 38.3594 127.206 38.3594H126.386V31.5508H131.249V32.3125ZM139.763 33.332C139.759 33.9492 139.884 34.5625 140.138 35.1719C140.392 35.7773 140.735 36.3164 141.169 36.7891C141.603 37.2617 142.075 37.6133 142.587 37.8438L142.025 38.5703C141.431 38.2773 140.892 37.8418 140.407 37.2637C139.927 36.6816 139.564 36.0215 139.317 35.2832C139.075 36.0684 138.712 36.7715 138.228 37.3926C137.743 38.0098 137.196 38.4727 136.587 38.7812L136.001 38.0078C136.513 37.7695 136.985 37.4082 137.419 36.9238C137.853 36.4355 138.198 35.877 138.456 35.248C138.714 34.6152 138.845 33.9766 138.849 33.332V31.4336H139.763V33.332ZM144.65 40.9727H143.724V30.5312H144.65V40.9727ZM158.502 39.6602H148.963V38.8867H153.252V36.918H150.158V33.707H156.392V32.0664H150.134V31.3047H157.295V34.457H151.072V36.1562H157.541V36.918H154.154V38.8867H158.502V39.6602ZM167.308 32.6875C167.308 33.2852 167.301 33.8066 167.285 34.252C167.273 34.6973 167.24 35.2168 167.185 35.8105C167.131 36.4043 167.043 37.0508 166.922 37.75L165.984 37.6562C166.113 36.9961 166.209 36.375 166.271 35.793C166.334 35.207 166.371 34.6914 166.383 34.2461C166.398 33.7969 166.406 33.2773 166.406 32.6875V32.4062H160.125V31.6445H167.308V32.6875ZM168.586 39.4141H159.094V38.6523H168.586V39.4141ZM177.826 38.1602H176.912V30.543H177.826V38.1602ZM178.154 40.7266H171.1V37.3867H172.014V39.9531H178.154V40.7266ZM172.201 31.2695C172.717 31.2695 173.182 31.3789 173.596 31.5977C174.014 31.8125 174.34 32.1152 174.574 32.5059C174.813 32.8926 174.932 33.332 174.932 33.8242C174.932 34.3242 174.813 34.7695 174.574 35.1602C174.34 35.5469 174.014 35.8496 173.596 36.0684C173.182 36.2832 172.717 36.3906 172.201 36.3906C171.686 36.3906 171.219 36.2832 170.801 36.0684C170.387 35.8496 170.061 35.5469 169.822 35.1602C169.588 34.7695 169.471 34.3242 169.471 33.8242C169.471 33.332 169.588 32.8926 169.822 32.5059C170.061 32.1152 170.387 31.8125 170.801 31.5977C171.219 31.3789 171.686 31.2695 172.201 31.2695ZM172.201 32.0781C171.854 32.0781 171.539 32.1523 171.258 32.3008C170.981 32.4492 170.762 32.6562 170.602 32.9219C170.445 33.1875 170.369 33.4883 170.373 33.8242C170.369 34.1641 170.445 34.4688 170.602 34.7383C170.762 35.0039 170.981 35.2109 171.258 35.3594C171.539 35.5078 171.854 35.582 172.201 35.582C172.541 35.582 172.85 35.5078 173.127 35.3594C173.408 35.2109 173.629 35.0039 173.789 34.7383C173.949 34.4688 174.029 34.1641 174.029 33.8242C174.029 33.4922 173.949 33.1934 173.789 32.9277C173.629 32.6621 173.408 32.4551 173.127 32.3066C172.85 32.1543 172.541 32.0781 172.201 32.0781ZM184.559 33.0859H179.332V32.3359H181.5V30.8477H182.414V32.3359H184.559V33.0859ZM181.946 33.7891C182.379 33.7891 182.766 33.8906 183.106 34.0938C183.45 34.293 183.717 34.5723 183.909 34.9316C184.104 35.291 184.203 35.6992 184.207 36.1562C184.203 36.6172 184.104 37.0293 183.909 37.3926C183.717 37.752 183.45 38.0352 183.106 38.2422C182.766 38.4453 182.379 38.5469 181.946 38.5469C181.516 38.5469 181.131 38.4453 180.791 38.2422C180.451 38.0352 180.186 37.75 179.994 37.3867C179.803 37.0234 179.707 36.6133 179.707 36.1562C179.707 35.7031 179.803 35.2969 179.994 34.9375C180.186 34.5742 180.451 34.293 180.791 34.0938C181.131 33.8906 181.516 33.7891 181.946 33.7891ZM181.946 34.5625C181.676 34.5664 181.432 34.6387 181.213 34.7793C180.998 34.916 180.83 35.1055 180.709 35.3477C180.588 35.5859 180.528 35.8555 180.528 36.1562C180.528 36.4609 180.588 36.7344 180.709 36.9766C180.834 37.2188 181.004 37.4082 181.219 37.5449C181.434 37.6777 181.676 37.7422 181.946 37.7383C182.219 37.7422 182.465 37.6777 182.684 37.5449C182.903 37.4082 183.075 37.2188 183.2 36.9766C183.325 36.7344 183.387 36.4609 183.387 36.1562C183.387 35.8555 183.325 35.5859 183.2 35.3477C183.075 35.1055 182.903 34.916 182.684 34.7793C182.465 34.6387 182.219 34.5664 181.946 34.5625ZM188.227 40.9492H187.348V35.6875H185.965V40.4336H185.098V30.7891H185.965V34.9258H187.348V30.5312H188.227V40.9492ZM194.749 32.0078C194.745 32.4531 194.919 32.8789 195.27 33.2852C195.622 33.6875 196.081 34.0273 196.647 34.3047C197.213 34.582 197.803 34.7656 198.417 34.8555L198.077 35.582C197.526 35.4883 196.995 35.332 196.483 35.1133C195.975 34.8945 195.524 34.6211 195.129 34.293C194.735 33.9609 194.436 33.5918 194.233 33.1855C194.03 33.5918 193.731 33.959 193.336 34.2871C192.942 34.6152 192.491 34.8906 191.983 35.1133C191.479 35.332 190.956 35.4883 190.413 35.582L190.049 34.8555C190.659 34.7656 191.247 34.582 191.813 34.3047C192.379 34.0273 192.838 33.6875 193.19 33.2852C193.542 32.8789 193.717 32.4531 193.717 32.0078V31.9375H190.378V31.1875H198.077V31.9375H194.749V32.0078ZM198.979 37.2344H194.667V40.9492H193.764V37.2344H189.487V36.4727H198.979V37.2344ZM202.712 33.4961C202.712 34.0508 202.8 34.6055 202.975 35.1602C203.151 35.7148 203.403 36.2207 203.731 36.6777C204.063 37.1348 204.454 37.4961 204.903 37.7617L204.376 38.4766C203.887 38.1797 203.464 37.7715 203.104 37.252C202.749 36.7285 202.475 36.1406 202.284 35.4883C202.089 36.1914 201.802 36.8242 201.423 37.3867C201.044 37.9492 200.598 38.3867 200.087 38.6992L199.501 38.0078C199.97 37.7344 200.38 37.3613 200.731 36.8887C201.083 36.4121 201.352 35.8828 201.54 35.3008C201.727 34.7148 201.821 34.125 201.821 33.5312V31.5156H202.712V33.4961ZM208.548 40.9492H207.657V30.5312H208.548V40.9492ZM206.391 40.4219H205.524V35.0547H203.755V34.2695H205.524V30.7539H206.391V40.4219ZM219.288 39.6133H209.749V38.8398H212.116V36.0273C211.663 35.793 211.312 35.4922 211.062 35.125C210.812 34.7539 210.687 34.3359 210.687 33.8711C210.687 33.3398 210.849 32.873 211.173 32.4707C211.497 32.0645 211.946 31.75 212.521 31.5273C213.099 31.3047 213.757 31.1914 214.495 31.1875C215.233 31.1914 215.89 31.3047 216.464 31.5273C217.042 31.75 217.493 32.0645 217.817 32.4707C218.142 32.873 218.304 33.3398 218.304 33.8711C218.304 34.3281 218.183 34.7402 217.94 35.1074C217.698 35.4707 217.358 35.7695 216.921 36.0039V38.8398H219.288V39.6133ZM214.495 31.9492C213.929 31.9453 213.425 32.0234 212.983 32.1836C212.542 32.3438 212.196 32.5703 211.946 32.8633C211.7 33.1523 211.577 33.4883 211.577 33.8711C211.577 34.2539 211.7 34.5938 211.946 34.8906C212.196 35.1836 212.542 35.4121 212.983 35.5762C213.425 35.7363 213.929 35.8164 214.495 35.8164C215.058 35.8164 215.56 35.7344 216.001 35.5703C216.442 35.4062 216.788 35.1777 217.038 34.8848C217.288 34.5918 217.413 34.2539 217.413 33.8711C217.413 33.4883 217.288 33.1523 217.038 32.8633C216.788 32.5703 216.442 32.3438 216.001 32.1836C215.56 32.0234 215.058 31.9453 214.495 31.9492ZM215.995 38.8398V36.3613C215.53 36.4824 215.03 36.543 214.495 36.543C213.956 36.543 213.464 36.4844 213.019 36.3672V38.8398H215.995ZM220.982 40.0703C220.845 40.0703 220.718 40.0371 220.601 39.9707C220.488 39.9004 220.396 39.8066 220.325 39.6895C220.259 39.5723 220.228 39.4453 220.232 39.3086C220.228 39.1758 220.259 39.0527 220.325 38.9395C220.396 38.8223 220.488 38.7305 220.601 38.6641C220.718 38.5938 220.845 38.5586 220.982 38.5586C221.115 38.5586 221.238 38.5938 221.351 38.6641C221.468 38.7305 221.56 38.8223 221.626 38.9395C221.697 39.0527 221.732 39.1758 221.732 39.3086C221.732 39.4453 221.697 39.5723 221.626 39.6895C221.56 39.8066 221.468 39.9004 221.351 39.9707C221.238 40.0371 221.115 40.0703 220.982 40.0703Z" fill="#07A320"/>
<rect x="6.5" y="6.5" width="359" height="59" rx="9.5" stroke="#07A320" shape-rendering="crispEdges"/>
</g>
<defs>
<filter id="filter0_d_1647_26310" x="0" y="0" width="378" height="78" filterUnits="userSpaceOnUse" color-interpolation-filters="sRGB">
<feFlood flood-opacity="0" result="BackgroundImageFix"/>
<feColorMatrix in="SourceAlpha" type="matrix" values="0 0 0 0 0 0 0 0 0 0 0 0 0 0 0 0 0 0 127 0" result="hardAlpha"/>
<feOffset dx="3" dy="3"/>
<feGaussianBlur stdDeviation="4.5"/>
<feComposite in2="hardAlpha" operator="out"/>
<feColorMatrix type="matrix" values="0 0 0 0 0.808333 0 0 0 0 0.808333 0 0 0 0 0.808333 0 0 0 0.47 0"/>
<feBlend mode="normal" in2="BackgroundImageFix" result="effect1_dropShadow_1647_26310"/>
<feBlend mode="normal" in="SourceGraphic" in2="effect1_dropShadow_1647_26310" result="shape"/>
</filter>
</defs>
</svg>
