<svg width="378" height="109" viewBox="0 0 378 109" fill="none" xmlns="http://www.w3.org/2000/svg">
<g filter="url(#filter0_d_1_4330)">
<rect x="6" y="6.5752" width="360" height="90" rx="10" fill="white" shape-rendering="crispEdges"/>
<path d="M37.7578 45.0166V46.4521H26.3691V45.0166H31.168V43.1436H27.6816V38.96H34.7227V37.5928H27.668V36.1982H36.4453V40.3271H29.4316V41.7217H36.7324V43.1436H32.9043V45.0166H37.7578ZM48.1419 36.54V38.0303C48.135 39.7393 48.135 41.4277 47.6907 44.0049L45.927 43.8545C46.3987 41.4619 46.3987 39.6846 46.4055 38.0303V37.9346H39.3645V36.54H48.1419ZM38.1888 46.2061V44.7705H49.5364V46.2061H38.1888ZM60.4263 35.4053V44.3467H58.6763V35.4053H60.4263ZM50.1998 39.3291C50.1998 37.5039 51.69 36.1914 53.6041 36.1982C55.5113 36.1914 57.0015 37.5039 57.0084 39.3291C57.0015 41.1816 55.5113 42.4873 53.6041 42.4873C51.69 42.4873 50.1998 41.1816 50.1998 39.3291ZM51.9088 39.3291C51.8951 40.3682 52.6265 40.9697 53.6041 40.9697C54.5474 40.9697 55.2789 40.3682 55.2857 39.3291C55.2789 38.3174 54.5474 37.709 53.6041 37.7158C52.6265 37.709 51.8951 38.3174 51.9088 39.3291ZM52.0865 47.6143V43.4443H53.8502V46.2197H60.7545V47.6143H52.0865ZM75.1788 35.3916V41.6943H73.4425V35.3916H75.1788ZM64.7198 40.3545C66.798 39.7324 67.7277 38.167 67.7277 36.6221V35.665H69.546V36.6221C69.5323 38.1328 70.4347 39.5752 72.4718 40.1631L71.6241 41.5029C70.1954 41.0928 69.2111 40.2246 68.6437 39.1172C68.0831 40.3271 67.0646 41.2773 65.5812 41.7217L64.7198 40.3545ZM66.839 43.5811V42.2275H75.1925V45.6045H68.5753V46.3701H75.5343V47.751H66.8663V44.3057H73.4562V43.5811H66.839ZM87.3812 35.3916V47.833H85.7133V41.5986H84.6879V47.2314H83.0473V35.5967H84.6879V40.1904H85.7133V35.3916H87.3812ZM76.4574 43.5537H77.5102V38.208H76.6898V36.7998H82.432V38.208H81.6254V43.376C81.9467 43.3418 82.2543 43.3076 82.5414 43.2666L82.6371 44.5381C80.7299 44.9414 78.1869 44.9893 76.6488 44.9893L76.4574 43.5537ZM79.0824 43.5264C79.4037 43.5127 79.7387 43.5059 80.0668 43.4854V38.208H79.0824V43.5264Z" fill="#333333"/>
<path d="M34.7891 60.458V61.126H27.6758V57.376H34.7305V58.0439H28.6016V58.8994H34.4492V59.5439H28.6016V60.458H34.7891ZM26.4336 62.6611V61.9229H35.9141V62.6611H26.4336ZM27.5703 64.1377V63.458H34.6953V65.708H28.5078V66.7158H35.0117V67.4072H27.5938V65.0518H33.793V64.1377H27.5703ZM45.1428 57.1182V64.7822H44.2405V57.1182H45.1428ZM37.0803 58.6064V57.8564H41.8381V60.8682H37.9944V62.5322C39.9338 62.5322 41.2991 62.4736 42.9514 62.1807L43.0452 62.9424C41.3459 63.2354 39.9455 63.2939 37.9475 63.3057H37.1038V60.1416H40.9241V58.6064H37.0803ZM38.3108 67.3018V64.1846H39.2366V66.5283H45.4475V67.3018H38.3108ZM57.9988 57.1064V67.5244H57.0847V57.1064H57.9988ZM49.5144 64.7471C50.405 64.7412 51.4245 64.7354 52.4792 64.7002V63.5635C51.2253 63.4346 50.4167 62.7197 50.4284 61.6768C50.4167 60.499 51.4187 59.7373 52.9245 59.7432C54.4304 59.7373 55.4499 60.499 55.4441 61.6768C55.4499 62.708 54.6413 63.4229 53.405 63.5635V64.665C54.4128 64.6182 55.4323 64.5479 56.3933 64.4189L56.4636 65.1221C54.1374 65.4971 51.5886 65.5322 49.655 65.5322L49.5144 64.7471ZM49.737 59.1455V58.3955H52.4792V57.1182H53.405V58.3955H56.1238V59.1455H49.737ZM51.2839 61.6768C51.278 62.3975 51.9577 62.8721 52.9245 62.8604C53.8972 62.8721 54.571 62.3975 54.5652 61.6768C54.571 60.9502 53.8972 60.458 52.9245 60.458C51.9577 60.458 51.278 60.9502 51.2839 61.6768ZM68.1767 57.1182V65.0283H67.2509V63.9502H65.0947V63.2822H67.2509V57.1182H68.1767ZM59.5283 61.9463C61.4677 61.9346 64.081 61.917 66.3134 61.6416L66.372 62.3096C65.4463 62.4561 64.4677 62.5498 63.5127 62.6084V64.665H62.5869V62.6553C61.5322 62.6963 60.5302 62.6963 59.6572 62.6963L59.5283 61.9463ZM60.372 59.3564C60.3662 58.2607 61.4091 57.54 62.9502 57.54C64.4795 57.54 65.5224 58.2607 65.5283 59.3564C65.5224 60.4697 64.4795 61.1611 62.9502 61.1611C61.4091 61.1611 60.3662 60.4697 60.372 59.3564ZM61.0283 67.3018V64.2549H61.9541V66.5283H68.4345V67.3018H61.0283ZM61.2509 59.3564C61.2392 60.0361 61.9306 60.4756 62.9502 60.4814C63.9404 60.4756 64.6435 60.0361 64.6494 59.3564C64.6435 58.6885 63.9404 58.2314 62.9502 58.2432C61.9306 58.2314 61.2392 58.6885 61.2509 59.3564ZM78.3547 57.1064V63.3174H77.4289V60.5869H75.3312V59.8252H77.4289V57.1064H78.3547ZM69.7648 62.4854C71.3117 61.9287 72.4133 60.5166 72.4133 59.0283V58.6416H70.0578V57.8682H75.6711V58.6416H73.3391V59.0166C73.3391 60.376 74.382 61.6709 75.9055 62.1924L75.425 62.9307C74.259 62.5088 73.3508 61.6299 72.8996 60.5576C72.4543 61.7764 71.4875 62.749 70.2453 63.2236L69.7648 62.4854ZM71.4055 65.5791C71.3996 64.3545 72.7297 63.6396 74.8977 63.6455C77.0598 63.6396 78.3898 64.3545 78.3898 65.5791C78.3898 66.8096 77.0598 67.5127 74.8977 67.5244C72.7297 67.5127 71.3996 66.8096 71.4055 65.5791ZM72.3195 65.5791C72.3137 66.335 73.298 66.792 74.8977 66.7861C76.4914 66.792 77.4758 66.335 77.4758 65.5791C77.4758 64.8174 76.4914 64.3604 74.8977 64.3604C73.298 64.3604 72.3137 64.8174 72.3195 65.5791ZM89.3881 65.4268V66.1885H79.8491V65.4268H84.1381V63.1768H80.9741V57.8447H81.8998V59.7314H87.3139V57.8447H88.2163V63.1768H85.0405V65.4268H89.3881ZM81.8998 62.4268H87.3139V60.4814H81.8998V62.4268ZM98.5817 57.1064V62.6963H97.6677V57.1064H98.5817ZM90.2262 60.0127C90.2204 58.5889 91.3747 57.6104 92.9567 57.6221C94.5387 57.6104 95.6813 58.5889 95.6872 60.0127C95.6813 61.4307 94.5387 62.4092 92.9567 62.4033C91.3747 62.4092 90.2204 61.4307 90.2262 60.0127ZM91.1286 60.0127C91.1169 60.9619 91.8845 61.6357 92.9567 61.6416C94.0173 61.6357 94.7848 60.9619 94.7848 60.0127C94.7848 59.0576 94.0173 58.3896 92.9567 58.3955C91.8845 58.3896 91.1169 59.0576 91.1286 60.0127ZM91.8317 67.3838V63.2236H92.7458V64.4893H97.6677V63.2236H98.5817V67.3838H91.8317ZM92.7458 66.6338H97.6677V65.2275H92.7458V66.6338ZM108.701 57.1064V67.5244H107.787V57.1064H108.701ZM100.791 64.8408V58.1377H101.693V64.0439C103.287 64.0322 104.928 63.9092 106.674 63.54L106.803 64.3252C104.951 64.7119 103.305 64.8408 101.635 64.8408H100.791ZM118.305 57.1064V61.2314H120.051V62.0049H118.305V67.5479H117.391V57.1064H118.305ZM110.699 64.9346V58.126H115.563V58.8877H111.613V64.1611C113.5 64.1553 114.83 64.0732 116.383 63.7861L116.5 64.583C114.865 64.876 113.5 64.9346 111.52 64.9346H110.699ZM121.475 66.6455C121.065 66.6396 120.713 66.2998 120.725 65.8838C120.713 65.4736 121.065 65.1338 121.475 65.1338C121.891 65.1338 122.231 65.4736 122.225 65.8838C122.231 66.2998 121.891 66.6396 121.475 66.6455ZM133.991 57.1064V61.2314H135.737V62.0049H133.991V67.5479H133.077V57.1064H133.991ZM126.386 64.9346V58.126H131.249V58.8877H127.3V64.1611C129.186 64.1553 130.516 64.0732 132.069 63.7861L132.186 64.583C130.552 64.876 129.186 64.9346 127.206 64.9346H126.386ZM139.763 59.9072C139.757 61.8115 141.052 63.7217 142.587 64.4189L142.025 65.1455C140.835 64.5713 139.81 63.335 139.312 61.8525C138.831 63.4229 137.806 64.7412 136.587 65.3564L136.001 64.583C137.554 63.874 138.837 61.8818 138.849 59.9072V58.0088H139.763V59.9072ZM143.724 67.5479V57.1064H144.65V67.5479H143.724ZM158.502 65.4619V66.2354H148.963V65.4619H153.252V63.4932H150.158V60.2822H156.392V58.6416H150.134V57.8799H157.295V61.0322H151.072V62.7314H157.541V63.4932H154.154V65.4619H158.502ZM167.308 58.2197V59.2627C167.308 60.5752 167.308 62.0576 166.922 64.3252L165.984 64.2314C166.406 62.0986 166.406 60.54 166.406 59.2627V58.9814H160.125V58.2197H167.308ZM159.094 65.9893V65.2275H168.586V65.9893H159.094ZM177.826 57.1182V64.7354H176.912V57.1182H177.826ZM169.471 60.3994C169.465 58.8994 170.643 57.8506 172.201 57.8447C173.76 57.8506 174.926 58.8994 174.932 60.3994C174.926 61.917 173.76 62.9717 172.201 62.9658C170.643 62.9717 169.465 61.917 169.471 60.3994ZM170.373 60.3994C170.361 61.4365 171.147 62.1572 172.201 62.1572C173.238 62.1572 174.029 61.4365 174.029 60.3994C174.029 59.3799 173.238 58.6533 172.201 58.6533C171.147 58.6533 170.361 59.3799 170.373 60.3994ZM171.1 67.3018V63.9619H172.014V66.5283H178.154V67.3018H171.1ZM184.559 58.9111V59.6611H179.332V58.9111H181.5V57.4229H182.414V58.9111H184.559ZM179.707 62.7314C179.707 61.3486 180.651 60.3701 181.946 60.3643C183.258 60.3701 184.196 61.3486 184.207 62.7314C184.196 64.1318 183.258 65.1162 181.946 65.1221C180.651 65.1162 179.707 64.1318 179.707 62.7314ZM180.528 62.7314C180.528 63.6572 181.119 64.3193 181.946 64.3135C182.778 64.3193 183.387 63.6572 183.387 62.7314C183.387 61.8174 182.778 61.1494 181.946 61.1377C181.119 61.1494 180.528 61.8174 180.528 62.7314ZM185.098 67.0088V57.3643H185.965V61.501H187.348V57.1064H188.227V67.5244H187.348V62.2627H185.965V67.0088H185.098ZM194.749 58.583C194.743 59.9775 196.6 61.1611 198.417 61.4307L198.077 62.1572C196.454 61.8818 194.866 61.0146 194.233 59.7607C193.6 61.0146 192.012 61.8818 190.413 62.1572L190.049 61.4307C191.86 61.1611 193.711 59.9775 193.717 58.583V58.5127H190.378V57.7627H198.077V58.5127H194.749V58.583ZM189.487 63.8096V63.0479H198.979V63.8096H194.667V67.5244H193.764V63.8096H189.487ZM202.712 60.0713C202.712 61.7295 203.52 63.5166 204.903 64.3369L204.376 65.0518C203.368 64.4424 202.647 63.3291 202.284 62.0576C201.903 63.4463 201.13 64.6416 200.087 65.2744L199.501 64.583C200.942 63.7393 201.821 61.8936 201.821 60.1064V58.0908H202.712V60.0713ZM203.755 61.6299V60.8447H205.524V57.3291H206.391V66.9971H205.524V61.6299H203.755ZM207.657 67.5244V57.1064H208.548V67.5244H207.657ZM219.288 65.415V66.1885H209.749V65.415H212.116V62.6084C211.226 62.1455 210.687 61.3955 210.687 60.4463C210.687 58.835 212.269 57.7744 214.495 57.7627C216.722 57.7744 218.304 58.835 218.304 60.4463C218.304 61.3779 217.782 62.1162 216.921 62.5791V65.415H219.288ZM211.577 60.4463C211.571 61.6123 212.784 62.3916 214.495 62.3916C216.189 62.3916 217.413 61.6123 217.413 60.4463C217.413 59.2803 216.189 58.5127 214.495 58.5244C212.784 58.5127 211.571 59.2803 211.577 60.4463ZM213.019 65.415H215.995V62.9365C215.544 63.0537 215.04 63.1182 214.495 63.1182C213.962 63.1182 213.464 63.0596 213.019 62.9424V65.415ZM220.982 66.6455C220.572 66.6396 220.22 66.2998 220.232 65.8838C220.22 65.4736 220.572 65.1338 220.982 65.1338C221.398 65.1338 221.738 65.4736 221.732 65.8838C221.738 66.2998 221.398 66.6396 220.982 66.6455Z" fill="#666666"/>
<rect x="6.5" y="7.0752" width="359" height="89" rx="9.5" stroke="#E6E6E6" shape-rendering="crispEdges"/>
</g>
<defs>
<filter id="filter0_d_1_4330" x="0" y="0.575195" width="378" height="108" filterUnits="userSpaceOnUse" color-interpolation-filters="sRGB">
<feFlood flood-opacity="0" result="BackgroundImageFix"/>
<feColorMatrix in="SourceAlpha" type="matrix" values="0 0 0 0 0 0 0 0 0 0 0 0 0 0 0 0 0 0 127 0" result="hardAlpha"/>
<feOffset dx="3" dy="3"/>
<feGaussianBlur stdDeviation="4.5"/>
<feComposite in2="hardAlpha" operator="out"/>
<feColorMatrix type="matrix" values="0 0 0 0 0.808333 0 0 0 0 0.808333 0 0 0 0 0.808333 0 0 0 0.47 0"/>
<feBlend mode="normal" in2="BackgroundImageFix" result="effect1_dropShadow_1_4330"/>
<feBlend mode="normal" in="SourceGraphic" in2="effect1_dropShadow_1_4330" result="shape"/>
</filter>
</defs>
</svg>
