<svg width="379" height="109" viewBox="0 0 379 109" fill="none" xmlns="http://www.w3.org/2000/svg">
<g filter="url(#filter0_d_1_4322)">
<rect x="6.81885" y="6.94312" width="358.547" height="89" rx="9.5" fill="white" stroke="#E6E6E6"/>
<path d="M37.8501 44.8845V46.3201H26.4614V44.8845H31.2603V43.0115H27.7739V38.8279H34.8149V37.4607H27.7603V36.0662H36.5376V40.1951H29.5239V41.5896H36.8247V43.0115H32.9966V44.8845H37.8501ZM48.2342 36.408V37.8982C48.2273 39.6072 48.2273 41.2957 47.783 43.8728L46.0193 43.7224C46.491 41.3298 46.491 39.5525 46.4978 37.8982V37.8025H39.4568V36.408H48.2342ZM38.281 46.074V44.6384H49.6287V46.074H38.281ZM60.5186 35.2732V44.2146H58.7686V35.2732H60.5186ZM50.2921 39.197C50.2921 37.3718 51.7823 36.0593 53.6963 36.0662C55.6036 36.0593 57.0938 37.3718 57.1006 39.197C57.0938 41.0496 55.6036 42.3552 53.6963 42.3552C51.7823 42.3552 50.2921 41.0496 50.2921 39.197ZM52.001 39.197C51.9874 40.2361 52.7188 40.8376 53.6963 40.8376C54.6397 40.8376 55.3712 40.2361 55.378 39.197C55.3712 38.1853 54.6397 37.5769 53.6963 37.5837C52.7188 37.5769 51.9874 38.1853 52.001 39.197ZM52.1788 47.4822V43.3123H53.9424V46.0876H60.8467V47.4822H52.1788ZM75.2711 35.2595V41.5623H73.5348V35.2595H75.2711ZM64.8121 40.2224C66.8903 39.6003 67.8199 38.0349 67.8199 36.49V35.533H69.6383V36.49C69.6246 38.0007 70.527 39.4431 72.5641 40.031L71.7164 41.3708C70.2877 40.9607 69.3033 40.0925 68.736 38.9851C68.1754 40.1951 67.1569 41.1453 65.6735 41.5896L64.8121 40.2224ZM66.9313 43.449V42.0955H75.2848V45.4724H68.6676V46.238H75.6266V47.6189H66.9586V44.1736H73.5485V43.449H66.9313ZM87.4735 35.2595V47.7009H85.8056V41.4666H84.7802V47.0994H83.1395V35.4646H84.7802V40.0583H85.8056V35.2595H87.4735ZM76.5497 43.4216H77.6024V38.0759H76.7821V36.6677H82.5243V38.0759H81.7177V43.2439C82.039 43.2097 82.3466 43.1755 82.6337 43.1345L82.7294 44.406C80.8222 44.8093 78.2792 44.8572 76.7411 44.8572L76.5497 43.4216ZM79.1747 43.3943C79.496 43.3806 79.831 43.3738 80.1591 43.3533V38.0759H79.1747V43.3943Z" fill="#333333"/>
<path d="M34.8813 60.3259V60.9939H27.7681V57.2439H34.8228V57.9119H28.6938V58.7673H34.5415V59.4119H28.6938V60.3259H34.8813ZM26.5259 62.5291V61.7908H36.0063V62.5291H26.5259ZM27.6626 64.0056V63.3259H34.7876V65.5759H28.6001V66.5837H35.104V67.2751H27.686V64.9197H33.8853V64.0056H27.6626ZM45.2351 56.9861V64.6501H44.3328V56.9861H45.2351ZM37.1726 58.4744V57.7244H41.9304V60.7361H38.0867V62.4001C40.0261 62.4001 41.3913 62.3416 43.0437 62.0486L43.1374 62.8103C41.4382 63.1033 40.0378 63.1619 38.0398 63.1736H37.196V60.0095H41.0163V58.4744H37.1726ZM38.4031 67.1697V64.0525H39.3288V66.3962H45.5398V67.1697H38.4031ZM58.091 56.9744V67.3923H57.177V56.9744H58.091ZM49.6067 64.615C50.4973 64.6091 51.5168 64.6033 52.5715 64.5681V63.4314C51.3176 63.3025 50.509 62.5876 50.5207 61.5447C50.509 60.3669 51.511 59.6052 53.0168 59.6111C54.5227 59.6052 55.5422 60.3669 55.5363 61.5447C55.5422 62.5759 54.7336 63.2908 53.4973 63.4314V64.533C54.5051 64.4861 55.5246 64.4158 56.4856 64.2869L56.5559 64.99C54.2297 65.365 51.6809 65.4001 49.7473 65.4001L49.6067 64.615ZM49.8293 59.0134V58.2634H52.5715V56.9861H53.4973V58.2634H56.216V59.0134H49.8293ZM51.3762 61.5447C51.3703 62.2654 52.05 62.74 53.0168 62.7283C53.9895 62.74 54.6633 62.2654 54.6574 61.5447C54.6633 60.8181 53.9895 60.3259 53.0168 60.3259C52.05 60.3259 51.3703 60.8181 51.3762 61.5447ZM68.269 56.9861V64.8962H67.3432V63.8181H65.187V63.1501H67.3432V56.9861H68.269ZM59.6206 61.8142C61.56 61.8025 64.1733 61.7849 66.4057 61.5095L66.4643 62.1775C65.5385 62.324 64.56 62.4177 63.6049 62.4763V64.533H62.6792V62.5232C61.6245 62.5642 60.6225 62.5642 59.7495 62.5642L59.6206 61.8142ZM60.4643 59.2244C60.4585 58.1287 61.5014 57.408 63.0424 57.408C64.5717 57.408 65.6147 58.1287 65.6206 59.2244C65.6147 60.3376 64.5717 61.0291 63.0424 61.0291C61.5014 61.0291 60.4585 60.3376 60.4643 59.2244ZM61.1206 67.1697V64.1228H62.0463V66.3962H68.5268V67.1697H61.1206ZM61.3432 59.2244C61.3315 59.9041 62.0229 60.3435 63.0424 60.3494C64.0327 60.3435 64.7358 59.9041 64.7417 59.2244C64.7358 58.5564 64.0327 58.0994 63.0424 58.1111C62.0229 58.0994 61.3315 58.5564 61.3432 59.2244ZM78.447 56.9744V63.1853H77.5212V60.4548H75.4235V59.6931H77.5212V56.9744H78.447ZM69.8571 62.3533C71.404 61.7966 72.5056 60.3845 72.5056 58.8962V58.5095H70.1501V57.7361H75.7634V58.5095H73.4313V58.8845C73.4313 60.2439 74.4743 61.5388 75.9978 62.0603L75.5173 62.7986C74.3513 62.3767 73.4431 61.4978 72.9919 60.4255C72.5466 61.6443 71.5798 62.6169 70.3376 63.0916L69.8571 62.3533ZM71.4978 65.447C71.4919 64.2224 72.822 63.5076 74.9899 63.5134C77.1521 63.5076 78.4821 64.2224 78.4821 65.447C78.4821 66.6775 77.1521 67.3806 74.9899 67.3923C72.822 67.3806 71.4919 66.6775 71.4978 65.447ZM72.4118 65.447C72.406 66.2029 73.3903 66.6599 74.9899 66.6541C76.5837 66.6599 77.5681 66.2029 77.5681 65.447C77.5681 64.6853 76.5837 64.2283 74.9899 64.2283C73.3903 64.2283 72.406 64.6853 72.4118 65.447ZM89.4804 65.2947V66.0564H79.9413V65.2947H84.2304V63.0447H81.0663V57.7126H81.9921V59.5994H87.4062V57.7126H88.3085V63.0447H85.1328V65.2947H89.4804ZM81.9921 62.2947H87.4062V60.3494H81.9921V62.2947ZM98.674 56.9744V62.5642H97.7599V56.9744H98.674ZM90.3185 59.8806C90.3127 58.4568 91.467 57.4783 93.049 57.49C94.631 57.4783 95.7736 58.4568 95.7795 59.8806C95.7736 61.2986 94.631 62.2771 93.049 62.2712C91.467 62.2771 90.3127 61.2986 90.3185 59.8806ZM91.2209 59.8806C91.2092 60.8298 91.9767 61.5037 93.049 61.5095C94.1096 61.5037 94.8771 60.8298 94.8771 59.8806C94.8771 58.9255 94.1096 58.2576 93.049 58.2634C91.9767 58.2576 91.2092 58.9255 91.2209 59.8806ZM91.924 67.2517V63.0916H92.8381V64.3572H97.7599V63.0916H98.674V67.2517H91.924ZM92.8381 66.5017H97.7599V65.0955H92.8381V66.5017ZM108.793 56.9744V67.3923H107.879V56.9744H108.793ZM100.883 64.7087V58.0056H101.786V63.9119C103.379 63.9001 105.02 63.7771 106.766 63.408L106.895 64.1931C105.043 64.5798 103.397 64.7087 101.727 64.7087H100.883ZM118.397 56.9744V61.0994H120.143V61.8728H118.397V67.4158H117.483V56.9744H118.397ZM110.792 64.8025V57.9939H115.655V58.7556H111.706V64.0291C113.592 64.0232 114.923 63.9412 116.475 63.6541L116.592 64.4509C114.958 64.7439 113.592 64.8025 111.612 64.8025H110.792ZM121.567 66.5134C121.157 66.5076 120.806 66.1677 120.817 65.7517C120.806 65.3416 121.157 65.0017 121.567 65.0017C121.983 65.0017 122.323 65.3416 122.317 65.7517C122.323 66.1677 121.983 66.5076 121.567 66.5134ZM134.083 56.9744V61.0994H135.829V61.8728H134.083V67.4158H133.169V56.9744H134.083ZM126.478 64.8025V57.9939H131.341V58.7556H127.392V64.0291C129.279 64.0232 130.609 63.9412 132.162 63.6541L132.279 64.4509C130.644 64.7439 129.279 64.8025 127.298 64.8025H126.478ZM139.855 59.7751C139.849 61.6794 141.144 63.5896 142.679 64.2869L142.117 65.0134C140.927 64.4392 139.902 63.2029 139.404 61.7205C138.923 63.2908 137.898 64.6091 136.679 65.2244L136.093 64.4509C137.646 63.7419 138.929 61.7498 138.941 59.7751V57.8767H139.855V59.7751ZM143.816 67.4158V56.9744H144.742V67.4158H143.816ZM158.594 65.3298V66.1033H149.055V65.3298H153.344V63.3611H150.25V60.1501H156.484V58.5095H150.227V57.7478H157.387V60.9001H151.164V62.5994H157.633V63.3611H154.246V65.3298H158.594ZM167.401 58.0876V59.1306C167.401 60.4431 167.401 61.9255 167.014 64.1931L166.077 64.0994C166.498 61.9666 166.498 60.408 166.498 59.1306V58.8494H160.217V58.0876H167.401ZM159.186 65.8572V65.0955H168.678V65.8572H159.186ZM177.919 56.9861V64.6033H177.004V56.9861H177.919ZM169.563 60.2673C169.557 58.7673 170.735 57.7185 172.294 57.7126C173.852 57.7185 175.018 58.7673 175.024 60.2673C175.018 61.7849 173.852 62.8396 172.294 62.8337C170.735 62.8396 169.557 61.7849 169.563 60.2673ZM170.465 60.2673C170.454 61.3044 171.239 62.0251 172.294 62.0251C173.331 62.0251 174.122 61.3044 174.122 60.2673C174.122 59.2478 173.331 58.5212 172.294 58.5212C171.239 58.5212 170.454 59.2478 170.465 60.2673ZM171.192 67.1697V63.8298H172.106V66.3962H178.247V67.1697H171.192ZM184.651 58.7791V59.5291H179.425V58.7791H181.593V57.2908H182.507V58.7791H184.651ZM179.8 62.5994C179.8 61.2166 180.743 60.238 182.038 60.2322C183.35 60.238 184.288 61.2166 184.3 62.5994C184.288 63.9998 183.35 64.9841 182.038 64.99C180.743 64.9841 179.8 63.9998 179.8 62.5994ZM180.62 62.5994C180.62 63.5251 181.212 64.1873 182.038 64.1814C182.87 64.1873 183.479 63.5251 183.479 62.5994C183.479 61.6853 182.87 61.0173 182.038 61.0056C181.212 61.0173 180.62 61.6853 180.62 62.5994ZM185.19 66.8767V57.2322H186.057V61.3689H187.44V56.9744H188.319V67.3923H187.44V62.1306H186.057V66.8767H185.19ZM194.841 58.4509C194.835 59.8455 196.692 61.0291 198.509 61.2986L198.169 62.0251C196.546 61.7498 194.958 60.8826 194.325 59.6287C193.692 60.8826 192.105 61.7498 190.505 62.0251L190.142 61.2986C191.952 61.0291 193.804 59.8455 193.81 58.4509V58.3806H190.47V57.6306H198.169V58.3806H194.841V58.4509ZM189.579 63.6775V62.9158H199.071V63.6775H194.759V67.3923H193.857V63.6775H189.579ZM202.804 59.9392C202.804 61.5974 203.613 63.3845 204.995 64.2048L204.468 64.9197C203.46 64.3103 202.74 63.197 202.376 61.9255C201.995 63.3142 201.222 64.5095 200.179 65.1423L199.593 64.4509C201.034 63.6072 201.913 61.7615 201.913 59.9744V57.9587H202.804V59.9392ZM203.847 61.4978V60.7126H205.617V57.197H206.484V66.865H205.617V61.4978H203.847ZM207.749 67.3923V56.9744H208.64V67.3923H207.749ZM219.38 65.283V66.0564H209.841V65.283H212.209V62.4763C211.318 62.0134 210.779 61.2634 210.779 60.3142C210.779 58.7029 212.361 57.6423 214.587 57.6306C216.814 57.6423 218.396 58.7029 218.396 60.3142C218.396 61.2458 217.875 61.9841 217.013 62.447V65.283H219.38ZM211.669 60.3142C211.664 61.4802 212.877 62.2595 214.587 62.2595C216.281 62.2595 217.505 61.4802 217.505 60.3142C217.505 59.1482 216.281 58.3806 214.587 58.3923C212.877 58.3806 211.664 59.1482 211.669 60.3142ZM213.111 65.283H216.087V62.8044C215.636 62.9216 215.132 62.9861 214.587 62.9861C214.054 62.9861 213.556 62.9275 213.111 62.8103V65.283ZM221.074 66.5134C220.664 66.5076 220.312 66.1677 220.324 65.7517C220.312 65.3416 220.664 65.0017 221.074 65.0017C221.49 65.0017 221.83 65.3416 221.824 65.7517C221.83 66.1677 221.49 66.5076 221.074 66.5134Z" fill="#666666"/>
<rect x="258.592" y="36.9431" width="87" height="29" rx="6.5" fill="#F5F8FF"/>
<path d="M300.223 48.5056H301.973V49.572H300.223V53.113H298.924V44.8689H300.223V48.5056ZM290.502 51.7458C291.869 51.7458 292.935 51.7345 293.701 51.7117V50.8914C292.995 50.8139 292.439 50.6179 292.033 50.3035C291.627 49.989 291.427 49.5857 291.432 49.0935C291.427 48.7244 291.543 48.4031 291.78 48.1296C292.022 47.8562 292.363 47.6466 292.806 47.5007C293.248 47.3549 293.76 47.2843 294.344 47.2888C294.922 47.2843 295.431 47.3549 295.868 47.5007C296.31 47.6466 296.652 47.8562 296.893 48.1296C297.135 48.4031 297.256 48.7244 297.256 49.0935C297.256 49.5811 297.053 49.9845 296.647 50.3035C296.246 50.6179 295.697 50.8139 295 50.8914V51.6638C296.221 51.6046 297.297 51.5089 298.226 51.3767L298.336 52.3064C297.174 52.5115 295.977 52.6436 294.747 52.7029C293.521 52.7576 292.152 52.7849 290.639 52.7849L290.502 51.7458ZM300.223 57.1052H298.924V54.699H292.033V53.6873H300.223V57.1052ZM297.885 46.8787H290.816V45.908H293.701V44.7595H295V45.908H297.885V46.8787ZM294.344 48.1775C293.815 48.1684 293.403 48.2458 293.106 48.4099C292.81 48.574 292.662 48.8018 292.662 49.0935C292.662 49.3806 292.81 49.6108 293.106 49.7839C293.407 49.9526 293.82 50.0369 294.344 50.0369C294.859 50.0369 295.264 49.9526 295.56 49.7839C295.861 49.6108 296.012 49.3806 296.012 49.0935C296.012 48.8018 295.863 48.574 295.567 48.4099C295.271 48.2458 294.863 48.1684 294.344 48.1775ZM312.562 53.7693H311.263V44.8689H312.562V53.7693ZM312.931 56.8455H304.55V52.8669H305.862V55.7927H312.931V56.8455ZM305.917 45.6892C306.528 45.6892 307.079 45.8191 307.571 46.0789C308.068 46.3386 308.458 46.6986 308.74 47.1589C309.027 47.6192 309.171 48.141 309.171 48.7244C309.171 49.3168 309.027 49.8455 308.74 50.3103C308.458 50.7706 308.068 51.1306 307.571 51.3904C307.079 51.6456 306.528 51.7732 305.917 51.7732C305.306 51.7732 304.753 51.6456 304.256 51.3904C303.759 51.1306 303.367 50.7683 303.08 50.3035C302.793 49.8386 302.65 49.3123 302.65 48.7244C302.65 48.141 302.793 47.6192 303.08 47.1589C303.367 46.6986 303.759 46.3386 304.256 46.0789C304.753 45.8191 305.306 45.6892 305.917 45.6892ZM305.917 46.824C305.539 46.824 305.197 46.906 304.892 47.0701C304.591 47.2296 304.354 47.4529 304.181 47.74C304.008 48.0271 303.921 48.3552 303.921 48.7244C303.921 49.1026 304.005 49.4376 304.174 49.7292C304.347 50.0164 304.584 50.2397 304.885 50.3992C305.19 50.5587 305.534 50.6384 305.917 50.6384C306.291 50.6384 306.628 50.5587 306.929 50.3992C307.23 50.2397 307.467 50.0141 307.64 49.7224C307.813 49.4307 307.9 49.0981 307.9 48.7244C307.9 48.3598 307.813 48.0339 307.64 47.7468C307.467 47.4552 307.227 47.2296 306.922 47.0701C306.621 46.906 306.286 46.824 305.917 46.824Z" fill="#99BDFF"/>
<rect x="258.592" y="36.9431" width="87" height="29" rx="6.5" stroke="#99BDFF"/>
</g>
<defs>
<filter id="filter0_d_1_4322" x="0.0922852" y="0.443115" width="378" height="108" filterUnits="userSpaceOnUse" color-interpolation-filters="sRGB">
<feFlood flood-opacity="0" result="BackgroundImageFix"/>
<feColorMatrix in="SourceAlpha" type="matrix" values="0 0 0 0 0 0 0 0 0 0 0 0 0 0 0 0 0 0 127 0" result="hardAlpha"/>
<feOffset dx="3" dy="3"/>
<feGaussianBlur stdDeviation="4.5"/>
<feComposite in2="hardAlpha" operator="out"/>
<feColorMatrix type="matrix" values="0 0 0 0 0.808333 0 0 0 0 0.808333 0 0 0 0 0.808333 0 0 0 0.47 0"/>
<feBlend mode="normal" in2="BackgroundImageFix" result="effect1_dropShadow_1_4322"/>
<feBlend mode="normal" in="SourceGraphic" in2="effect1_dropShadow_1_4322" result="shape"/>
</filter>
</defs>
</svg>
