<svg width="579" height="79" viewBox="0 0 579 79" fill="none" xmlns="http://www.w3.org/2000/svg">
<rect x="0.5" y="0.5" width="578" height="78" rx="9.5" fill="white" stroke="#E8E8E8"/>
<path d="M26.704 21.2V35.44H24.816V21.2H26.704ZM14.128 31.28C16.224 30 17.008 27.44 17.008 25.04V24.272H14.672V22.672H21.072V24.272H18.928V25.04C18.912 27.392 19.664 29.776 21.744 30.96L20.56 32.432C19.28 31.68 18.464 30.416 17.984 28.896C17.488 30.544 16.64 31.952 15.344 32.752L14.128 31.28ZM20.08 27.696V26.096H21.936V21.456H23.792V34.768H21.936V27.696H20.08ZM39.2521 21.776V26.8H35.4121V28.144H40.9161V29.744H27.9241V28.144H33.3961V26.8H29.5241V21.776H39.2521ZM29.3641 32.368V30.8H39.3161V35.44H37.3321V32.368H29.3641ZM31.4761 25.232H37.3001V23.344H31.4761V25.232ZM47.9283 21.424C51.1923 21.424 53.0803 22.272 53.0803 23.856C53.0803 25.424 51.1923 26.288 47.9283 26.288C44.6323 26.288 42.7283 25.424 42.7443 23.856C42.7283 22.272 44.6323 21.424 47.9283 21.424ZM41.4323 28.528V26.96H54.4243V28.528H41.4323ZM42.9363 35.344V31.6H50.8723V30.832H42.9363V29.36H52.8243V32.976H44.8883V33.84H53.2083V35.344H42.9363ZM44.8243 23.856C44.8243 24.544 45.8323 24.816 47.9283 24.816C50.0243 24.816 51.0323 24.544 51.0323 23.856C51.0323 23.216 50.0243 22.88 47.9283 22.864C45.8323 22.88 44.8243 23.216 44.8243 23.856ZM70.2119 21.2V28.848H68.2279V21.2H70.2119ZM58.5319 25.168C58.5319 23.184 60.1959 21.808 62.4359 21.808C64.6439 21.808 66.3079 23.184 66.3079 25.168C66.3079 27.12 64.6439 28.512 62.4359 28.528C60.1959 28.512 58.5319 27.12 58.5319 25.168ZM60.4839 25.168C60.4679 26.24 61.2839 26.88 62.4359 26.864C63.5399 26.88 64.3399 26.24 64.3239 25.168C64.3399 24.112 63.5399 23.472 62.4359 23.472C61.2839 23.472 60.4679 24.112 60.4839 25.168ZM60.7079 35.28V29.488H62.6599V30.8H68.2279V29.488H70.2119V35.28H60.7079ZM62.6599 33.68H68.2279V32.368H62.6599V33.68ZM78.632 22.032V26.48H74.344V28.016C76.456 28 77.72 27.936 79.176 27.664L79.336 29.264C77.688 29.552 76.2 29.584 73.448 29.584H72.392V25.008H76.648V23.6H72.36V22.032H78.632ZM73.992 32.208V30.608H83.816V35.44H81.832V32.208H73.992ZM79.464 27.792V26.224H81.832V24.784H79.464V23.216H81.832V21.232H83.816V30H81.832V27.792H79.464ZM92.2041 23.376V24.976H85.2921V23.376H87.7881V21.616H89.7401V23.376H92.2041ZM85.6441 28.976C85.6441 27.008 86.9721 25.616 88.7801 25.616C90.6041 25.616 91.9001 27.008 91.9161 28.976C91.9001 30.976 90.6041 32.368 88.7801 32.368C86.9721 32.368 85.6441 30.976 85.6441 28.976ZM87.4041 28.976C87.3881 30.064 87.9641 30.688 88.7801 30.672C89.5801 30.688 90.1401 30.064 90.1561 28.976C90.1401 27.92 89.5801 27.264 88.7801 27.28C87.9641 27.264 87.3881 27.92 87.4041 28.976ZM92.7161 34.832V21.488H94.5721V26.992H95.7241V21.2H97.6441V35.44H95.7241V28.592H94.5721V34.832H92.7161ZM111.824 29.072V30.672H106.288V35.44H104.304V30.672H98.8323V29.072H111.824ZM99.4723 26.672C102.352 26.336 103.936 24.928 104.144 23.536H100.016V21.968H110.64V23.536H106.512C106.72 24.928 108.288 26.336 111.184 26.672L110.48 28.24C107.968 27.904 106.176 26.832 105.328 25.36C104.464 26.832 102.688 27.904 100.208 28.24L99.4723 26.672ZM116.916 24.784C116.9 27.104 117.54 29.472 119.508 30.736L118.42 32.272C117.188 31.536 116.404 30.304 115.94 28.832C115.444 30.448 114.58 31.792 113.3 32.592L112.084 31.12C114.18 29.808 114.964 27.296 114.964 24.88V22.448H116.916V24.784ZM118.004 27.632V26H119.828V21.424H121.684V34.768H119.828V27.632H118.004ZM122.772 35.44V21.2H124.66V35.44H122.772ZM138.873 32.144V33.776H125.849V32.144H128.761V28.656C127.657 27.984 127.001 26.976 127.001 25.712C127.001 23.44 129.257 21.904 132.345 21.904C135.417 21.904 137.689 23.44 137.689 25.712C137.689 26.96 137.033 27.968 135.961 28.624V32.144H138.873ZM128.953 25.712C128.969 27.12 130.297 27.984 132.345 27.984C134.345 27.984 135.721 27.12 135.737 25.712C135.721 24.304 134.345 23.472 132.345 23.472C130.297 23.472 128.969 24.304 128.953 25.712ZM130.745 32.144H133.945V29.376C133.449 29.472 132.905 29.52 132.345 29.52C131.785 29.52 131.241 29.472 130.745 29.376V32.144ZM141.213 34.128C140.477 34.144 139.869 33.552 139.901 32.816C139.869 32.112 140.477 31.52 141.213 31.536C141.901 31.52 142.509 32.112 142.525 32.816C142.509 33.552 141.901 34.144 141.213 34.128Z" fill="#B3B3B3"/>
<path d="M20.384 49.024V50.224H18.248C18.26 51.472 19.004 52.756 20.744 53.32L19.976 54.472C18.8 54.088 17.984 53.332 17.516 52.372C17.048 53.416 16.196 54.256 14.96 54.664L14.168 53.488C15.92 52.924 16.724 51.556 16.736 50.224H14.576V49.024H20.384ZM15.608 56.488V55.312H22.784V59.08H21.272V56.488H15.608ZM21.272 54.856V48.4H22.784V50.992H24.224V52.24H22.784V54.856H21.272ZM28.4751 49.864C28.4751 51.292 29.2071 52.612 30.9231 53.152L30.1311 54.304C28.9791 53.908 28.1991 53.176 27.7551 52.216C27.2871 53.332 26.4231 54.208 25.1391 54.64L24.3471 53.44C26.1831 52.852 26.9631 51.424 26.9631 49.936V48.976H28.4751V49.864ZM26.1231 57.016C26.1231 55.708 27.5151 54.94 29.7951 54.928C32.0751 54.94 33.4671 55.708 33.4671 57.016C33.4671 58.336 32.0751 59.08 29.7951 59.08C27.5151 59.08 26.1231 58.336 26.1231 57.016ZM27.6111 57.016C27.6111 57.604 28.3791 57.916 29.7951 57.904C31.2111 57.916 31.9791 57.604 31.9791 57.016C31.9791 56.404 31.2111 56.104 29.7951 56.104C28.3791 56.104 27.6111 56.404 27.6111 57.016ZM29.9391 51.592V50.368H31.9551V48.4H33.4431V54.664H31.9551V51.592H29.9391ZM38.5102 51.328C38.5102 52.948 39.3742 54.82 41.1262 55.624L40.2862 56.8C39.0982 56.26 38.2582 55.168 37.7902 53.896C37.3102 55.3 36.4342 56.488 35.1982 57.064L34.3342 55.888C36.1102 55.06 37.0102 53.08 37.0222 51.328V50.656H34.7662V49.432H40.6702V50.656H38.5102V51.328ZM41.4862 59.08V48.4H42.9982V52.48H44.5582V53.728H42.9982V59.08H41.4862Z" fill="#999999"/>
<path d="M57.928 49.816C57.928 51.388 59.308 53.056 61.72 53.464L61.072 54.712C59.212 54.34 57.832 53.296 57.136 51.928C56.44 53.284 55.048 54.328 53.2 54.712L52.552 53.464C54.94 53.044 56.32 51.364 56.344 49.816V49.048H57.928V49.816ZM52.312 57.76V56.536H62.08V57.76H52.312ZM72.3791 52.456V53.68H70.8671V59.056H69.3551V48.4H70.8671V52.456H72.3791ZM62.7791 56.44V49.432H64.2671V55.216C65.6351 55.192 67.0871 55.072 68.6351 54.76L68.8031 56.008C67.0151 56.356 65.2871 56.452 63.7151 56.44H62.7791ZM81.5022 48.4V59.104H79.9902V48.4H81.5022ZM72.8862 52.96C72.8862 50.632 74.0862 49.168 75.7182 49.168C77.3262 49.168 78.5142 50.632 78.5262 52.96C78.5142 55.3 77.3262 56.776 75.7182 56.776C74.0862 56.776 72.8862 55.3 72.8862 52.96ZM74.3262 52.96C74.3262 54.556 74.8902 55.408 75.7182 55.408C76.5222 55.408 77.0742 54.556 77.0862 52.96C77.0742 51.376 76.5222 50.512 75.7182 50.512C74.8902 50.512 74.3262 51.376 74.3262 52.96ZM88.8973 49.36V50.56H87.8653V55.276C88.3093 55.24 88.7413 55.192 89.1613 55.144L89.2573 56.224C87.0853 56.608 84.6373 56.644 82.8013 56.656L82.6573 55.432L83.8573 55.42V50.56H82.9693V49.36H88.8973ZM85.3213 55.396L86.4253 55.36V50.56H85.3213V55.396ZM88.5853 53.488V52.288H90.2413V48.4H91.7053V59.08H90.2413V53.488H88.5853ZM102.004 48.424V54.952H100.564V52.312H99.7964V54.904H98.4044V48.544H99.7964V51.088H100.564V48.424H102.004ZM92.7404 53.368L93.6044 53.356V50.488H92.9324V49.264H97.8764V50.488H97.1804V53.212C97.4684 53.188 97.7444 53.164 97.9964 53.128L98.0684 54.208C96.4124 54.532 94.2404 54.568 92.9084 54.568L92.7404 53.368ZM94.4684 56.608V55.408H102.004V59.08H100.516V56.608H94.4684ZM94.9724 53.332L95.8364 53.296V50.488H94.9724V53.332ZM111.679 53.704V54.88H108.583V56.68H112.735V57.88H102.967V56.68H107.095V54.88H104.119V49.144H111.583V50.344H105.655V51.424H111.343V52.576H105.655V53.704H111.679ZM122.051 48.4V59.104H120.563V48.4H122.051ZM113.675 56.608V52.24H117.203V50.512H113.675V49.312H118.739V53.416H115.211V55.384C116.843 55.372 118.223 55.288 119.795 55.024L119.915 56.224C118.175 56.536 116.591 56.608 114.635 56.608H113.675Z" fill="#666666"/>
</svg>
