<svg width="579" height="234" viewBox="0 0 579 234" fill="none" xmlns="http://www.w3.org/2000/svg">
<path d="M0 10C0 4.47715 4.47715 0 10 0H569C574.523 0 579 4.47715 579 10V224C579 229.523 574.523 234 569 234H10C4.47715 234 0 229.523 0 224V10Z" fill="white"/>
<path fill-rule="evenodd" clip-rule="evenodd" d="M569 0.8H10C4.91898 0.8 0.8 4.91898 0.8 10V224C0.8 229.081 4.91898 233.2 10 233.2H569C574.081 233.2 578.2 229.081 578.2 224V10C578.2 4.91898 574.081 0.8 569 0.8ZM10 0C4.47715 0 0 4.47715 0 10V224C0 229.523 4.47715 234 10 234H569C574.523 234 579 229.523 579 224V10C579 4.47715 574.523 0 569 0H10Z" fill="#CCCCCC"/>
<path d="M32.4219 36.2656H31.2188V29.0781H29.2188V35.5469H28.0625V22.6875H29.2188V28.0312H31.2188V22.375H32.4219V36.2656ZM22.4844 31.5781C23.2604 31.5677 24.0156 31.5312 24.75 31.4688C25.4844 31.401 26.2448 31.2865 27.0312 31.125L27.1875 32.2188C26.2656 32.3802 25.3958 32.4974 24.5781 32.5703C23.7604 32.638 22.9427 32.6719 22.125 32.6719H21.2656V24.0781H22.4844V31.5781Z" fill="#B3B3B3"/>
<path d="M46.7269 30.2656H34.0706V29.25H37.2113V27.2969C36.6488 27.0781 36.2191 26.7943 35.9222 26.4453C35.6253 26.0911 35.4769 25.6823 35.4769 25.2188C35.4769 24.6771 35.6748 24.2135 36.0706 23.8281C36.4665 23.4427 37.0316 23.1484 37.7659 22.9453C38.5055 22.7422 39.3831 22.6406 40.3988 22.6406C41.404 22.6406 42.2738 22.7422 43.0081 22.9453C43.7477 23.1484 44.3154 23.4427 44.7113 23.8281C45.1071 24.2135 45.305 24.6771 45.305 25.2188C45.305 25.6771 45.1566 26.0833 44.8597 26.4375C44.568 26.7865 44.1435 27.0703 43.5863 27.2891V29.25H46.7269V30.2656ZM40.3988 31.3281C41.3935 31.3281 42.2477 31.4219 42.9613 31.6094C43.6748 31.7969 44.2217 32.0755 44.6019 32.4453C44.9821 32.8099 45.1748 33.2552 45.18 33.7812C45.1748 34.3021 44.9821 34.7448 44.6019 35.1094C44.2217 35.4792 43.6748 35.7578 42.9613 35.9453C42.2477 36.138 41.3935 36.2344 40.3988 36.2344C39.3935 36.2344 38.5316 36.138 37.8128 35.9453C37.0993 35.7578 36.5524 35.4792 36.1722 35.1094C35.792 34.7448 35.6019 34.3021 35.6019 33.7812C35.6019 33.2552 35.7894 32.8099 36.1644 32.4453C36.5446 32.0755 37.0941 31.7969 37.8128 31.6094C38.5316 31.4219 39.3935 31.3281 40.3988 31.3281ZM40.3988 32.2656C39.2738 32.276 38.3988 32.4141 37.7738 32.6797C37.154 32.9401 36.8467 33.3073 36.8519 33.7812C36.8467 34.0938 36.9847 34.362 37.2659 34.5859C37.5472 34.8099 37.9534 34.9818 38.4847 35.1016C39.0211 35.2214 39.6592 35.2812 40.3988 35.2812C41.1279 35.2812 41.7581 35.2214 42.2894 35.1016C42.8258 34.9818 43.2347 34.8099 43.5159 34.5859C43.8024 34.362 43.9456 34.0938 43.9456 33.7812C43.9456 33.3073 43.6305 32.9401 43.0003 32.6797C42.3753 32.4141 41.5081 32.276 40.3988 32.2656ZM40.3988 23.6094C39.6488 23.6094 38.9977 23.6745 38.4456 23.8047C37.8935 23.9349 37.4691 24.1224 37.1722 24.3672C36.8805 24.6068 36.7373 24.8906 36.7425 25.2188C36.7373 25.5521 36.8805 25.8411 37.1722 26.0859C37.4691 26.3255 37.8909 26.5104 38.4378 26.6406C38.9899 26.7656 39.6435 26.8281 40.3988 26.8281C41.1488 26.8281 41.7972 26.7656 42.3441 26.6406C42.8909 26.5104 43.3128 26.3255 43.6097 26.0859C43.9066 25.8411 44.055 25.5521 44.055 25.2188C44.055 24.8906 43.9066 24.6068 43.6097 24.3672C43.3128 24.1224 42.8883 23.9349 42.3363 23.8047C41.7894 23.6745 41.1435 23.6094 40.3988 23.6094ZM42.3675 29.25V27.625C41.7685 27.7292 41.1123 27.7812 40.3988 27.7812C39.6852 27.7812 39.029 27.7292 38.43 27.625V29.25H42.3675Z" fill="#B3B3B3"/>
<path d="M53.9069 22.625C54.9381 22.625 55.8209 22.7188 56.5553 22.9062C57.2897 23.0885 57.8496 23.3594 58.235 23.7188C58.6204 24.0729 58.8131 24.5052 58.8131 25.0156C58.8131 25.7969 58.386 26.3958 57.5319 26.8125C56.6777 27.2292 55.4694 27.4427 53.9069 27.4531C52.8756 27.4479 51.9902 27.3516 51.2506 27.1641C50.5163 26.9766 49.9538 26.7031 49.5631 26.3438C49.1777 25.9792 48.985 25.5365 48.985 25.0156C48.985 24.5052 49.1777 24.0729 49.5631 23.7188C49.9538 23.3594 50.5163 23.0885 51.2506 22.9062C51.9902 22.7188 52.8756 22.625 53.9069 22.625ZM53.9069 23.5469C53.1413 23.5469 52.485 23.6068 51.9381 23.7266C51.3913 23.8411 50.9746 24.0104 50.6881 24.2344C50.4017 24.4531 50.261 24.7135 50.2663 25.0156C50.261 25.4948 50.5761 25.8646 51.2116 26.125C51.847 26.3854 52.7454 26.5156 53.9069 26.5156C55.0631 26.5156 55.9616 26.3854 56.6022 26.125C57.2428 25.8646 57.5631 25.4948 57.5631 25.0156C57.5631 24.7135 57.4173 24.4531 57.1256 24.2344C56.834 24.0156 56.4147 23.8464 55.8678 23.7266C55.3209 23.6068 54.6673 23.5469 53.9069 23.5469ZM60.235 29.3906H47.5788V28.3906H60.235V29.3906ZM58.61 33.7031H50.36V35.1406H59.0319V36.1094H49.1413V32.7969H57.4069V31.5312H49.11V30.5938H58.61V33.7031Z" fill="#B3B3B3"/>
<path d="M76.2513 29.8281H75.0325V22.375H76.2513V29.8281ZM68.47 32.2188H75.0325V30.5312H76.2513V36.0781H67.2513V30.5312H68.47V32.2188ZM75.0325 35.0781V33.2031H68.47V35.0781H75.0325ZM68.7513 23.0625C69.4492 23.0573 70.0742 23.1875 70.6263 23.4531C71.1783 23.7188 71.6106 24.0964 71.9231 24.5859C72.2356 25.0703 72.3919 25.625 72.3919 26.25C72.3919 26.8698 72.2356 27.4219 71.9231 27.9062C71.6106 28.3906 71.1783 28.7682 70.6263 29.0391C70.0742 29.3047 69.4492 29.4375 68.7513 29.4375C68.0533 29.4375 67.4283 29.3047 66.8763 29.0391C66.3242 28.7682 65.8919 28.3906 65.5794 27.9062C65.2669 27.4219 65.1106 26.8698 65.1106 26.25C65.1106 25.625 65.2669 25.0703 65.5794 24.5859C65.8919 24.0964 66.3242 23.7188 66.8763 23.4531C67.4283 23.1875 68.0533 23.0573 68.7513 23.0625ZM68.7513 24.0938C68.2825 24.0885 67.8606 24.1797 67.4856 24.3672C67.1158 24.5495 66.8268 24.8047 66.6184 25.1328C66.4101 25.4609 66.3085 25.8333 66.3138 26.25C66.3085 26.6667 66.4101 27.0417 66.6184 27.375C66.8268 27.7031 67.1158 27.9609 67.4856 28.1484C67.8606 28.3307 68.2825 28.4219 68.7513 28.4219C69.2148 28.4219 69.6315 28.3307 70.0013 28.1484C70.371 27.9609 70.6601 27.7031 70.8684 27.375C71.082 27.0417 71.1888 26.6667 71.1888 26.25C71.1888 25.8333 71.082 25.4609 70.8684 25.1328C70.6601 24.8047 70.371 24.5495 70.0013 24.3672C69.6315 24.1797 69.2148 24.0885 68.7513 24.0938Z" fill="#B3B3B3"/>
<path d="M84.8844 27.125H80.1031V29.2812C81.5146 29.2812 82.6057 29.2604 83.3766 29.2188C84.1474 29.1771 84.9208 29.0833 85.6969 28.9375L85.8219 29.9531C84.9938 30.0885 84.1656 30.1771 83.3375 30.2188C82.5146 30.2604 81.3583 30.2812 79.8688 30.2812H78.8844V26.1875H83.6656V24.2188H78.8531V23.2344H84.8844V27.125ZM89.8063 30.9219H88.5719V28.3438H85.8063V27.3281H88.5719V25.4531H85.8063V24.4531H88.5719V22.3906H89.8063V30.9219ZM89.8063 36.2969H88.5719V32.6719H80.4469V31.6719H89.8063V36.2969Z" fill="#B3B3B3"/>
<path d="M98.7363 25.7812H91.7675V24.7812H94.6581V22.7969H95.8769V24.7812H98.7363V25.7812ZM95.2519 26.7188C95.83 26.7188 96.3456 26.8542 96.7988 27.125C97.2571 27.3906 97.6139 27.763 97.8691 28.2422C98.1295 28.7214 98.2623 29.2656 98.2675 29.875C98.2623 30.4896 98.1295 31.0391 97.8691 31.5234C97.6139 32.0026 97.2571 32.3802 96.7988 32.6562C96.3456 32.9271 95.83 33.0625 95.2519 33.0625C94.679 33.0625 94.1659 32.9271 93.7128 32.6562C93.2597 32.3802 92.9055 32 92.6503 31.5156C92.3951 31.0312 92.2675 30.4844 92.2675 29.875C92.2675 29.2708 92.3951 28.7292 92.6503 28.25C92.9055 27.7656 93.2597 27.3906 93.7128 27.125C94.1659 26.8542 94.679 26.7188 95.2519 26.7188ZM95.2519 27.75C94.8925 27.7552 94.567 27.8516 94.2753 28.0391C93.9889 28.2214 93.7649 28.474 93.6034 28.7969C93.442 29.1146 93.3613 29.474 93.3613 29.875C93.3613 30.2812 93.442 30.6458 93.6034 30.9688C93.7701 31.2917 93.9967 31.5443 94.2831 31.7266C94.5696 31.9036 94.8925 31.9896 95.2519 31.9844C95.6165 31.9896 95.9446 31.9036 96.2363 31.7266C96.5279 31.5443 96.7571 31.2917 96.9238 30.9688C97.0904 30.6458 97.1738 30.2812 97.1738 29.875C97.1738 29.474 97.0904 29.1146 96.9238 28.7969C96.7571 28.474 96.5279 28.2214 96.2363 28.0391C95.9446 27.8516 95.6165 27.7552 95.2519 27.75ZM103.627 36.2656H102.455V29.25H100.611V35.5781H99.455V22.7188H100.611V28.2344H102.455V22.375H103.627V36.2656Z" fill="#B3B3B3"/>
<path d="M112.323 24.3438C112.317 24.9375 112.549 25.5052 113.018 26.0469C113.487 26.5833 114.099 27.0365 114.854 27.4062C115.609 27.776 116.395 28.0208 117.213 28.1406L116.76 29.1094C116.026 28.9844 115.317 28.776 114.635 28.4844C113.958 28.1927 113.356 27.8281 112.83 27.3906C112.304 26.9479 111.906 26.4557 111.635 25.9141C111.364 26.4557 110.966 26.9453 110.44 27.3828C109.914 27.8203 109.312 28.1875 108.635 28.4844C107.963 28.776 107.265 28.9844 106.541 29.1094L106.057 28.1406C106.869 28.0208 107.653 27.776 108.408 27.4062C109.164 27.0365 109.776 26.5833 110.244 26.0469C110.713 25.5052 110.948 24.9375 110.948 24.3438V24.25H106.494V23.25H116.76V24.25H112.323V24.3438ZM117.963 31.3125H112.213V36.2656H111.01V31.3125H105.307V30.2969H117.963V31.3125Z" fill="#B3B3B3"/>
<path d="M122.94 26.3281C122.94 27.0677 123.057 27.8073 123.292 28.5469C123.526 29.2865 123.862 29.9609 124.299 30.5703C124.742 31.1797 125.263 31.6615 125.862 32.0156L125.159 32.9688C124.508 32.5729 123.943 32.0286 123.463 31.3359C122.989 30.638 122.625 29.8542 122.37 28.9844C122.109 29.9219 121.726 30.7656 121.221 31.5156C120.716 32.2656 120.122 32.849 119.44 33.2656L118.659 32.3438C119.284 31.9792 119.831 31.4818 120.299 30.8516C120.768 30.2161 121.128 29.5104 121.378 28.7344C121.628 27.9531 121.753 27.1667 121.753 26.375V23.6875H122.94V26.3281ZM130.721 36.2656H129.534V22.375H130.721V36.2656ZM127.846 35.5625H126.69V28.4062H124.331V27.3594H126.69V22.6719H127.846V35.5625Z" fill="#B3B3B3"/>
<path d="M145.042 34.4844H132.323V33.4531H135.479V29.7031C134.875 29.3906 134.406 28.9896 134.073 28.5C133.74 28.0052 133.573 27.4479 133.573 26.8281C133.573 26.1198 133.789 25.4974 134.222 24.9609C134.654 24.4193 135.253 24 136.018 23.7031C136.789 23.4062 137.667 23.2552 138.651 23.25C139.636 23.2552 140.511 23.4062 141.276 23.7031C142.047 24 142.649 24.4193 143.081 24.9609C143.513 25.4974 143.729 26.1198 143.729 26.8281C143.729 27.4375 143.568 27.987 143.245 28.4766C142.922 28.9609 142.469 29.3594 141.886 29.6719V33.4531H145.042V34.4844ZM138.651 24.2656C137.896 24.2604 137.224 24.3646 136.636 24.5781C136.047 24.7917 135.586 25.0938 135.253 25.4844C134.925 25.8698 134.761 26.3177 134.761 26.8281C134.761 27.3385 134.925 27.7917 135.253 28.1875C135.586 28.5781 136.047 28.8828 136.636 29.1016C137.224 29.3151 137.896 29.4219 138.651 29.4219C139.401 29.4219 140.071 29.3125 140.659 29.0938C141.248 28.875 141.709 28.5703 142.042 28.1797C142.375 27.7891 142.542 27.3385 142.542 26.8281C142.542 26.3177 142.375 25.8698 142.042 25.4844C141.709 25.0938 141.248 24.7917 140.659 24.5781C140.071 24.3646 139.401 24.2604 138.651 24.2656ZM140.651 33.4531V30.1484C140.031 30.3099 139.365 30.3906 138.651 30.3906C137.933 30.3906 137.276 30.3125 136.683 30.1562V33.4531H140.651Z" fill="#B3B3B3"/>
<path d="M147.3 35.0938C147.118 35.0938 146.948 35.0495 146.792 34.9609C146.641 34.8672 146.519 34.7422 146.425 34.5859C146.336 34.4297 146.295 34.2604 146.3 34.0781C146.295 33.901 146.336 33.737 146.425 33.5859C146.519 33.4297 146.641 33.3073 146.792 33.2188C146.948 33.125 147.118 33.0781 147.3 33.0781C147.477 33.0781 147.641 33.125 147.792 33.2188C147.948 33.3073 148.071 33.4297 148.159 33.5859C148.253 33.737 148.3 33.901 148.3 34.0781C148.3 34.2604 148.253 34.4297 148.159 34.5859C148.071 34.7422 147.948 34.8672 147.792 34.9609C147.641 35.0495 147.477 35.0938 147.3 35.0938Z" fill="#B3B3B3"/>
</svg>
