<svg width="246" height="41" viewBox="0 0 246 41" fill="none" xmlns="http://www.w3.org/2000/svg">
<rect x="1" y="0.678223" width="244" height="39" rx="9.5" fill="white" stroke="#E6E6E6"/>
<path d="M225.699 22.7863H224.864L224.569 22.5013C225.836 21.024 226.49 19.0086 226.131 16.8665C225.635 13.933 223.186 11.5904 220.229 11.2316C215.763 10.6829 212.004 14.4395 212.553 18.9031C212.912 21.8577 215.256 24.3058 218.192 24.8017C220.335 25.1605 222.352 24.5063 223.83 23.24L224.115 23.5355V24.3691L228.602 28.8537C229.035 29.2864 229.742 29.2864 230.175 28.8537C230.608 28.4211 230.608 27.7141 230.175 27.2815L225.699 22.7863ZM219.364 22.7863C216.735 22.7863 214.612 20.6653 214.612 18.0378C214.612 15.4103 216.735 13.2893 219.364 13.2893C221.993 13.2893 224.115 15.4103 224.115 18.0378C224.115 20.6653 221.993 22.7863 219.364 22.7863Z" fill="#CCCCCC"/>
<path d="M22.2676 14.4243C22.263 15.4269 22.0306 16.3384 21.5703 17.1587C21.1146 17.9744 20.4629 18.6785 19.6152 19.271C18.7676 19.8634 17.7559 20.326 16.5801 20.6587L16.1289 19.811C17.0996 19.5376 17.945 19.1799 18.665 18.7378C19.3851 18.2957 19.9548 17.7853 20.374 17.2065C20.7933 16.6278 21.0417 15.9966 21.1191 15.313H16.7578V14.4243H22.2676ZM26.0684 20.5767H24.9883V17.6782H22.2949V16.7759H24.9883V13.645H26.0684V20.5767ZM26.0684 25.6216H18.1797V21.0962H26.0684V25.6216ZM19.2188 24.7466H25.002V21.9575H19.2188V24.7466ZM31.4348 16.0103C31.4348 16.4705 31.5351 16.924 31.7356 17.3706C31.9361 17.8127 32.2233 18.2114 32.597 18.5669C32.9707 18.9224 33.4127 19.2004 33.9231 19.4009L33.3489 20.2349C32.7838 19.9979 32.2939 19.6698 31.8792 19.2505C31.4645 18.8267 31.1477 18.3413 30.929 17.7944C30.6966 18.4006 30.3639 18.9451 29.9309 19.4282C29.498 19.9067 28.9921 20.2759 28.4134 20.5356L27.8255 19.7017C28.345 19.4738 28.7985 19.1593 29.1858 18.7583C29.5777 18.3527 29.8785 17.9106 30.0882 17.4321C30.3024 16.9491 30.4095 16.4751 30.4095 16.0103V14.3833H31.4348V16.0103ZM38.1341 20.9868H37.1087V17.7192H35.4954V20.9185H34.4837V13.8638H35.4954V16.8169H37.1087V13.645H38.1341V20.9868ZM38.1341 25.7856H37.0813V22.5454H29.9446V21.6567H38.1341V25.7856ZM42.899 14.5747C43.4459 14.5793 43.9358 14.7319 44.3687 15.0327C44.8062 15.3335 45.1594 15.7619 45.4283 16.3179C45.6972 16.8739 45.8589 17.5278 45.9136 18.2798H48.6412V13.6313H49.7076V25.813H48.6412V19.1685H45.9273C45.8863 19.9523 45.7336 20.6359 45.4693 21.2192C45.205 21.8026 44.8495 22.2515 44.4029 22.5659C43.9608 22.8804 43.4595 23.0376 42.899 23.0376C42.3065 23.0376 41.7779 22.8644 41.313 22.5181C40.8528 22.1717 40.4927 21.6795 40.233 21.0415C39.9778 20.4035 39.8502 19.6606 39.8502 18.813C39.8502 17.9653 39.9778 17.2225 40.233 16.5845C40.4927 15.9465 40.8528 15.4543 41.313 15.1079C41.7733 14.757 42.302 14.5793 42.899 14.5747ZM42.899 15.5317C42.5025 15.5363 42.1493 15.6753 41.8394 15.9487C41.5341 16.2176 41.2971 16.6004 41.1285 17.0972C40.9599 17.5894 40.8755 18.1613 40.8755 18.813C40.8755 19.4647 40.9599 20.0389 41.1285 20.5356C41.2971 21.0278 41.5341 21.4084 41.8394 21.6772C42.1493 21.9461 42.5025 22.0806 42.899 22.0806C43.2909 22.0806 43.6395 21.9461 43.9449 21.6772C44.2548 21.4084 44.494 21.0278 44.6627 20.5356C44.8358 20.0389 44.9224 19.4647 44.9224 18.813C44.9224 18.1613 44.8358 17.5894 44.6627 17.0972C44.494 16.6004 44.2571 16.2176 43.9517 15.9487C43.6464 15.6753 43.2955 15.5363 42.899 15.5317ZM62.5662 20.1255H51.4373V19.2778H62.5662V20.1255ZM61.1717 23.6802H53.8709V24.8423H61.5682V25.6216H52.7909V22.9419H60.1053V21.9028H52.7772V21.0962H61.1717V23.6802ZM61.1307 16.5161H53.953V17.5825H61.3495V18.3618H52.8866V15.7778H60.0506V14.7798H52.8455V14.0005H61.1307V16.5161ZM76.5395 20.1528H75.473V13.6313H76.5395V20.1528ZM69.7309 22.2446H75.473V20.7681H76.5395V25.6216H68.6645V20.7681H69.7309V22.2446ZM75.473 24.7466V23.106H69.7309V24.7466H75.473ZM69.977 14.2329C70.5876 14.2284 71.1345 14.3423 71.6176 14.5747C72.1006 14.8071 72.4789 15.1375 72.7523 15.5659C73.0258 15.9897 73.1625 16.4751 73.1625 17.022C73.1625 17.5643 73.0258 18.0474 72.7523 18.4712C72.4789 18.895 72.1006 19.2254 71.6176 19.4624C71.1345 19.6948 70.5876 19.811 69.977 19.811C69.3663 19.811 68.8194 19.6948 68.3363 19.4624C67.8533 19.2254 67.475 18.895 67.2016 18.4712C66.9281 18.0474 66.7914 17.5643 66.7914 17.022C66.7914 16.4751 66.9281 15.9897 67.2016 15.5659C67.475 15.1375 67.8533 14.8071 68.3363 14.5747C68.8194 14.3423 69.3663 14.2284 69.977 14.2329ZM69.977 15.1353C69.5668 15.1307 69.1977 15.2104 68.8695 15.3745C68.546 15.534 68.293 15.7573 68.1107 16.0444C67.9284 16.3315 67.8396 16.6574 67.8441 17.022C67.8396 17.3866 67.9284 17.7147 68.1107 18.0063C68.293 18.2935 68.546 18.519 68.8695 18.6831C69.1977 18.8426 69.5668 18.9224 69.977 18.9224C70.3826 18.9224 70.7471 18.8426 71.0707 18.6831C71.3943 18.519 71.6472 18.2935 71.8295 18.0063C72.0163 17.7147 72.1098 17.3866 72.1098 17.022C72.1098 16.6574 72.0163 16.3315 71.8295 16.0444C71.6472 15.7573 71.3943 15.534 71.0707 15.3745C70.7471 15.2104 70.3826 15.1307 69.977 15.1353ZM84.0934 17.7876H79.9098V19.6743C81.1449 19.6743 82.0996 19.6561 82.7741 19.6196C83.4486 19.5832 84.1253 19.5011 84.8044 19.3735L84.9137 20.2622C84.1891 20.3807 83.4645 20.4582 82.7399 20.4946C82.0199 20.5311 81.0082 20.5493 79.7048 20.5493H78.8434V16.9673H83.027V15.2446H78.8161V14.3833H84.0934V17.7876ZM88.4001 21.1099H87.32V18.854H84.9001V17.9653H87.32V16.3247H84.9001V15.4497H87.32V13.645H88.4001V21.1099ZM88.4001 25.813H87.32V22.6411H80.2106V21.7661H88.4001V25.813ZM99.5498 18.6489H101.587V19.5376H99.5498V25.7856H98.4834V13.6313H99.5498V18.6489ZM97.3076 16.4751H90.0752V15.5864H93.206V13.7817H94.2724V15.5864H97.3076V16.4751ZM93.7529 17.4868C94.3226 17.4868 94.833 17.6053 95.2841 17.8423C95.7353 18.0793 96.0885 18.4097 96.3437 18.8335C96.5989 19.2573 96.7288 19.7381 96.7334 20.2759C96.7288 20.8136 96.5989 21.2944 96.3437 21.7183C96.0885 22.1421 95.7353 22.4725 95.2841 22.7095C94.833 22.9465 94.3226 23.0649 93.7529 23.0649C93.1787 23.0649 92.6637 22.9465 92.208 22.7095C91.7568 22.4725 91.4036 22.1421 91.1484 21.7183C90.8932 21.2944 90.7679 20.8136 90.7724 20.2759C90.7679 19.7381 90.8932 19.2573 91.1484 18.8335C91.4036 18.4097 91.7568 18.0793 92.208 17.8423C92.6637 17.6053 93.1787 17.4868 93.7529 17.4868ZM93.7529 18.3892C93.3792 18.3892 93.042 18.4712 92.7412 18.6353C92.4449 18.7948 92.2125 19.0181 92.0439 19.3052C91.8753 19.5923 91.7933 19.9159 91.7978 20.2759C91.7933 20.6405 91.8753 20.9663 92.0439 21.2534C92.2125 21.536 92.4449 21.757 92.7412 21.9165C93.042 22.076 93.3792 22.1535 93.7529 22.1489C94.122 22.1535 94.4547 22.076 94.7509 21.9165C95.0472 21.757 95.2796 21.536 95.4482 21.2534C95.6168 20.9663 95.7034 20.6405 95.708 20.2759C95.7034 19.9159 95.6168 19.5923 95.4482 19.3052C95.2796 19.0181 95.0472 18.7948 94.7509 18.6353C94.4547 18.4712 94.122 18.3892 93.7529 18.3892ZM105.573 17.0903C105.573 17.7375 105.675 18.3846 105.88 19.0317C106.085 19.6789 106.379 20.269 106.762 20.8022C107.149 21.3354 107.605 21.757 108.129 22.0669L107.514 22.9009C106.944 22.5545 106.45 22.0783 106.031 21.4722C105.616 20.8615 105.297 20.1756 105.073 19.4146C104.846 20.2349 104.511 20.9731 104.069 21.6294C103.627 22.2856 103.107 22.7961 102.51 23.1606L101.826 22.354C102.373 22.035 102.852 21.5998 103.262 21.0483C103.672 20.4924 103.987 19.8748 104.205 19.1958C104.424 18.5122 104.533 17.8241 104.533 17.1313V14.7798H105.573V17.0903ZM112.381 25.7856H111.342V13.6313H112.381V25.7856ZM109.865 25.1704H108.854V18.9087H106.789V17.9927H108.854V13.8911H109.865V25.1704ZM124.912 24.2271H113.783V23.3247H116.544V20.0435C116.016 19.77 115.606 19.4191 115.314 18.9907C115.022 18.5578 114.876 18.0701 114.876 17.5278C114.876 16.908 115.066 16.3634 115.444 15.894C115.822 15.4201 116.346 15.0532 117.016 14.7935C117.691 14.5337 118.459 14.4015 119.32 14.397C120.181 14.4015 120.947 14.5337 121.617 14.7935C122.291 15.0532 122.818 15.4201 123.196 15.894C123.574 16.3634 123.763 16.908 123.763 17.5278C123.763 18.061 123.622 18.5418 123.339 18.9702C123.057 19.394 122.66 19.7427 122.15 20.0161V23.3247H124.912V24.2271ZM119.32 15.2856C118.659 15.2811 118.071 15.3722 117.556 15.5591C117.041 15.7459 116.638 16.0103 116.346 16.3521C116.059 16.6893 115.916 17.0812 115.916 17.5278C115.916 17.9744 116.059 18.3709 116.346 18.7173C116.638 19.0591 117.041 19.3257 117.556 19.5171C118.071 19.7039 118.659 19.7974 119.32 19.7974C119.976 19.7974 120.562 19.7017 121.077 19.5103C121.592 19.3188 121.995 19.0522 122.287 18.7104C122.578 18.3687 122.724 17.9744 122.724 17.5278C122.724 17.0812 122.578 16.6893 122.287 16.3521C121.995 16.0103 121.592 15.7459 121.077 15.5591C120.562 15.3722 119.976 15.2811 119.32 15.2856ZM121.07 23.3247V20.4331C120.528 20.5744 119.944 20.645 119.32 20.645C118.691 20.645 118.117 20.5767 117.597 20.4399V23.3247H121.07Z" fill="#B3B3B3"/>
</svg>
