<svg width="246" height="41" viewBox="0 0 246 41" fill="none" xmlns="http://www.w3.org/2000/svg">
<rect x="1.01953" y="1.18896" width="244" height="39" rx="9.5" fill="white" stroke="#B2CDFF"/>
<path d="M225.718 23.297H224.884L224.588 23.0121C225.855 21.5348 226.51 19.5193 226.151 17.3772C225.655 14.4437 223.205 12.1012 220.249 11.7424C215.783 11.1937 212.024 14.9502 212.573 19.4138C212.932 22.3684 215.276 24.8165 218.211 25.3125C220.354 25.6712 222.371 25.017 223.849 23.7507L224.134 24.0462V24.8798L228.622 29.3645C229.055 29.7971 229.762 29.7971 230.195 29.3645C230.628 28.9318 230.628 28.2249 230.195 27.7922L225.718 23.297ZM219.383 23.297C216.754 23.297 214.632 21.176 214.632 18.5485C214.632 15.921 216.754 13.8001 219.383 13.8001C222.012 13.8001 224.134 15.921 224.134 18.5485C224.134 21.176 222.012 23.297 219.383 23.297Z" fill="#669BFF"/>
<path d="M26.0332 14.5249V15.3726H24.1602V17.7241H25.9922V18.5581H17.0918V17.7241H18.9238V15.3726H17.0508V14.5249H26.0332ZM16.0117 20.4448V19.5835H27.0859V20.4448H16.0117ZM17.3516 22.3452V21.5386H25.6641V24.1772H18.4453V25.3394H26.0332V26.1597H17.3789V23.3979H24.6113V22.3452H17.3516ZM19.9902 17.7241H23.0938V15.3726H19.9902V17.7241ZM37.8938 14.1421V26.3237H36.8274V19.7202H34.4622V18.8179H36.8274V14.1421H37.8938ZM28.2552 16.1655V15.2769H33.7239V19.5288H29.3626V22.4819C31.4612 22.4819 32.9788 22.4136 34.7493 22.0854L34.8313 22.9878C33.0061 23.3159 31.427 23.3911 29.2259 23.3979H28.2962V18.6401H32.6848V16.1655H28.2552ZM49.7271 14.1421V26.3237H48.6607V19.6245H46.0904V18.7358H48.6607V14.1421H49.7271ZM40.2115 23.3843V15.2632H45.8853V16.1519H41.2916V18.6812H45.3521V19.5562H41.2916V22.4956C43.5201 22.4888 44.9556 22.4272 46.6236 22.1265L46.7466 23.0151C44.9761 23.3022 43.4927 23.3843 41.1412 23.3843H40.2115Z" fill="#333333"/>
</svg>
