<svg width="423" height="49" viewBox="0 0 423 49" fill="none" xmlns="http://www.w3.org/2000/svg">
<rect x="0.375" y="0.405273" width="422" height="48" rx="10" fill="#F3F3F3"/>
<path d="M20.9707 17.8174V30.0947H19.6719V17.8174H20.9707ZM11.25 23.0264C11.25 20.4082 12.5693 18.7402 14.4219 18.7334C16.2402 18.7402 17.5801 20.4082 17.5801 23.0264C17.5801 25.6719 16.2402 27.3398 14.4219 27.333C12.5693 27.3398 11.25 25.6719 11.25 23.0264ZM12.5078 23.0264C12.501 24.9746 13.2803 26.1709 14.4219 26.1709C15.543 26.1709 16.3223 24.9746 16.3223 23.0264C16.3223 21.1055 15.543 19.9023 14.4219 19.8955C13.2803 19.9023 12.501 21.1055 12.5078 23.0264ZM27.8138 19.1982V22.3838H29.4544V18.0498H30.6985V29.4658H29.4544V23.4502H27.8138V26.8408H23.0559V19.1982H27.8138ZM24.2864 25.8018H26.597V20.2236H24.2864V25.8018ZM31.9427 30.0674V17.8174H33.1868V30.0674H31.9427ZM37.938 18.2275C39.7838 18.2412 41.1441 19.3691 41.1509 20.9756C41.1441 22.5889 39.7838 23.71 37.938 23.71C36.0718 23.71 34.7183 22.5889 34.7115 20.9756C34.7183 19.3691 36.0718 18.2412 37.938 18.2275ZM35.983 20.9756C35.9761 21.9873 36.8101 22.6572 37.938 22.6572C39.0591 22.6572 39.8931 21.9873 39.8931 20.9756C39.8931 19.9775 39.0591 19.3076 37.938 19.3213C36.8101 19.3076 35.9761 19.9775 35.983 20.9756ZM36.5709 25.6514V24.6123H44.6236V27.7021H37.8697V28.8779H45.0338V29.917H36.6119V26.7314H43.3384V25.6514H36.5709ZM43.3248 24.0518V17.8174H44.6236V24.0518H43.3248ZM60.5929 24.7217V25.7744H55.6163V30.0537H54.3448V25.7744H49.423V24.7217H60.5929ZM50.0519 22.7666C52.3351 22.4521 54.2355 21.0918 54.2765 19.5811H50.462V18.542H59.5402V19.5811H55.753C55.7736 21.0918 57.6603 22.4521 59.9777 22.7666L59.4991 23.792C57.4894 23.4775 55.753 22.4863 55.0079 21.0918C54.256 22.4863 52.5265 23.4775 50.5441 23.792L50.0519 22.7666ZM72.4535 27.4424V28.5088H61.2426V27.4424H66.1508V24.5303H67.4359V27.4424H72.4535ZM61.6254 23.6826C63.9838 23.2861 66.0893 21.4678 66.0961 19.5264V18.5967H67.4633V19.5264C67.4633 21.4678 69.5961 23.2861 71.9613 23.6826L71.4008 24.749C69.4115 24.3594 67.5932 23.1289 66.7865 21.4541C65.9799 23.1221 64.1752 24.3594 62.1996 24.749L61.6254 23.6826Z" fill="#CCCCCC"/>
</svg>
