<svg width="423" height="69" viewBox="0 0 423 69" fill="none" xmlns="http://www.w3.org/2000/svg">
<rect x="0.375" y="20.4053" width="422" height="48" rx="10" fill="#F3F3F3"/>
<path d="M20.9707 37.8174V50.0947H19.6719V37.8174H20.9707ZM11.25 43.0264C11.25 40.4082 12.5693 38.7402 14.4219 38.7334C16.2402 38.7402 17.5801 40.4082 17.5801 43.0264C17.5801 45.6719 16.2402 47.3398 14.4219 47.333C12.5693 47.3398 11.25 45.6719 11.25 43.0264ZM12.5078 43.0264C12.501 44.9746 13.2803 46.1709 14.4219 46.1709C15.543 46.1709 16.3223 44.9746 16.3223 43.0264C16.3223 41.1055 15.543 39.9023 14.4219 39.8955C13.2803 39.9023 12.501 41.1055 12.5078 43.0264ZM27.8138 39.1982V42.3838H29.4544V38.0498H30.6985V49.4658H29.4544V43.4502H27.8138V46.8408H23.0559V39.1982H27.8138ZM24.2864 45.8018H26.597V40.2236H24.2864V45.8018ZM31.9427 50.0674V37.8174H33.1868V50.0674H31.9427ZM37.938 38.2275C39.7838 38.2412 41.1441 39.3691 41.1509 40.9756C41.1441 42.5889 39.7838 43.71 37.938 43.71C36.0718 43.71 34.7183 42.5889 34.7115 40.9756C34.7183 39.3691 36.0718 38.2412 37.938 38.2275ZM35.983 40.9756C35.9761 41.9873 36.8101 42.6572 37.938 42.6572C39.0591 42.6572 39.8931 41.9873 39.8931 40.9756C39.8931 39.9775 39.0591 39.3076 37.938 39.3213C36.8101 39.3076 35.9761 39.9775 35.983 40.9756ZM36.5709 45.6514V44.6123H44.6236V47.7021H37.8697V48.8779H45.0338V49.917H36.6119V46.7314H43.3384V45.6514H36.5709ZM43.3248 44.0518V37.8174H44.6236V44.0518H43.3248ZM60.5929 44.7217V45.7744H55.6163V50.0537H54.3448V45.7744H49.423V44.7217H60.5929ZM50.0519 42.7666C52.3351 42.4521 54.2355 41.0918 54.2765 39.5811H50.462V38.542H59.5402V39.5811H55.753C55.7736 41.0918 57.6603 42.4521 59.9777 42.7666L59.4991 43.792C57.4894 43.4775 55.753 42.4863 55.0079 41.0918C54.256 42.4863 52.5265 43.4775 50.5441 43.792L50.0519 42.7666ZM72.4535 47.4424V48.5088H61.2426V47.4424H66.1508V44.5303H67.4359V47.4424H72.4535ZM61.6254 43.6826C63.9838 43.2861 66.0893 41.4678 66.0961 39.5264V38.5967H67.4633V39.5264C67.4633 41.4678 69.5961 43.2861 71.9613 43.6826L71.4008 44.749C69.4115 44.3594 67.5932 43.1289 66.7865 41.4541C65.9799 43.1221 64.1752 44.3594 62.1996 44.749L61.6254 43.6826Z" fill="#CCCCCC"/>
<path d="M21.1621 2.22168V14.6904H19.3984V2.22168H21.1621ZM11.1133 7.52637C11.1064 4.8125 12.4941 3.09668 14.4082 3.09668C16.2812 3.09668 17.6758 4.8125 17.6758 7.52637C17.6758 10.2607 16.2812 11.9697 14.4082 11.9697C12.4941 11.9697 11.1064 10.2607 11.1133 7.52637ZM12.7949 7.52637C12.7881 9.37891 13.4375 10.3906 14.4082 10.3838C15.3516 10.3906 15.9873 9.37891 15.9941 7.52637C15.9873 5.68066 15.3516 4.66895 14.4082 4.66895C13.4375 4.66895 12.7881 5.68066 12.7949 7.52637ZM27.8684 3.50684V6.74707H29.1126V2.39941H30.7532V14.0889H29.1126V8.1416H27.8684V11.5322H22.9192V3.50684H27.8684ZM24.5462 10.165H26.2415V4.8877H24.5462V10.165ZM31.6829 14.6631V2.22168H33.3509V14.6631H31.6829ZM37.9244 2.59082C39.8179 2.58398 41.2398 3.77344 41.2466 5.43457C41.2398 7.08203 39.8179 8.25781 37.9244 8.26465C36.0035 8.25781 34.5748 7.08203 34.5748 5.43457C34.5748 3.77344 36.0035 2.58398 37.9244 2.59082ZM36.2701 5.43457C36.2564 6.32324 36.9605 6.84961 37.9244 6.85645C38.8677 6.84961 39.5582 6.32324 39.565 5.43457C39.5582 4.53906 38.8677 4.0127 37.9244 4.0127C36.9673 4.0127 36.2564 4.53906 36.2701 5.43457ZM36.4478 10.3154V8.97559H44.8013V12.3525H38.1841V13.1592H45.1431V14.5264H36.4752V11.0811H43.065V10.3154H36.4478ZM43.0513 8.45605V2.22168H44.8013V8.45605H43.0513Z" fill="#337AFF"/>
</svg>
