<svg width="423" height="88" viewBox="0 0 423 88" fill="none" xmlns="http://www.w3.org/2000/svg">
<rect x="0.375" y="20.4053" width="422" height="48" rx="10" fill="#F3F3F3"/>
<path d="M20.9707 37.8174V50.0947H19.6719V37.8174H20.9707ZM11.25 43.0264C11.25 40.4082 12.5693 38.7402 14.4219 38.7334C16.2402 38.7402 17.5801 40.4082 17.5801 43.0264C17.5801 45.6719 16.2402 47.3398 14.4219 47.333C12.5693 47.3398 11.25 45.6719 11.25 43.0264ZM12.5078 43.0264C12.501 44.9746 13.2803 46.1709 14.4219 46.1709C15.543 46.1709 16.3223 44.9746 16.3223 43.0264C16.3223 41.1055 15.543 39.9023 14.4219 39.8955C13.2803 39.9023 12.501 41.1055 12.5078 43.0264ZM27.8138 39.1982V42.3838H29.4544V38.0498H30.6985V49.4658H29.4544V43.4502H27.8138V46.8408H23.0559V39.1982H27.8138ZM24.2864 45.8018H26.597V40.2236H24.2864V45.8018ZM31.9427 50.0674V37.8174H33.1868V50.0674H31.9427ZM37.938 38.2275C39.7838 38.2412 41.1441 39.3691 41.1509 40.9756C41.1441 42.5889 39.7838 43.71 37.938 43.71C36.0718 43.71 34.7183 42.5889 34.7115 40.9756C34.7183 39.3691 36.0718 38.2412 37.938 38.2275ZM35.983 40.9756C35.9761 41.9873 36.8101 42.6572 37.938 42.6572C39.0591 42.6572 39.8931 41.9873 39.8931 40.9756C39.8931 39.9775 39.0591 39.3076 37.938 39.3213C36.8101 39.3076 35.9761 39.9775 35.983 40.9756ZM36.5709 45.6514V44.6123H44.6236V47.7021H37.8697V48.8779H45.0338V49.917H36.6119V46.7314H43.3384V45.6514H36.5709ZM43.3248 44.0518V37.8174H44.6236V44.0518H43.3248ZM60.5929 44.7217V45.7744H55.6163V50.0537H54.3448V45.7744H49.423V44.7217H60.5929ZM50.0519 42.7666C52.3351 42.4521 54.2355 41.0918 54.2765 39.5811H50.462V38.542H59.5402V39.5811H55.753C55.7736 41.0918 57.6603 42.4521 59.9777 42.7666L59.4991 43.792C57.4894 43.4775 55.753 42.4863 55.0079 41.0918C54.256 42.4863 52.5265 43.4775 50.5441 43.792L50.0519 42.7666ZM72.4535 47.4424V48.5088H61.2426V47.4424H66.1508V44.5303H67.4359V47.4424H72.4535ZM61.6254 43.6826C63.9838 43.2861 66.0893 41.4678 66.0961 39.5264V38.5967H67.4633V39.5264C67.4633 41.4678 69.5961 43.2861 71.9613 43.6826L71.4008 44.749C69.4115 44.3594 67.5932 43.1289 66.7865 41.4541C65.9799 43.1221 64.1752 44.3594 62.1996 44.749L61.6254 43.6826Z" fill="#CCCCCC"/>
<path d="M21.1621 2.22168V14.6904H19.3984V2.22168H21.1621ZM11.1133 7.52637C11.1064 4.8125 12.4941 3.09668 14.4082 3.09668C16.2812 3.09668 17.6758 4.8125 17.6758 7.52637C17.6758 10.2607 16.2812 11.9697 14.4082 11.9697C12.4941 11.9697 11.1064 10.2607 11.1133 7.52637ZM12.7949 7.52637C12.7881 9.37891 13.4375 10.3906 14.4082 10.3838C15.3516 10.3906 15.9873 9.37891 15.9941 7.52637C15.9873 5.68066 15.3516 4.66895 14.4082 4.66895C13.4375 4.66895 12.7881 5.68066 12.7949 7.52637ZM27.8684 3.50684V6.74707H29.1126V2.39941H30.7532V14.0889H29.1126V8.1416H27.8684V11.5322H22.9192V3.50684H27.8684ZM24.5462 10.165H26.2415V4.8877H24.5462V10.165ZM31.6829 14.6631V2.22168H33.3509V14.6631H31.6829ZM37.9244 2.59082C39.8179 2.58398 41.2398 3.77344 41.2466 5.43457C41.2398 7.08203 39.8179 8.25781 37.9244 8.26465C36.0035 8.25781 34.5748 7.08203 34.5748 5.43457C34.5748 3.77344 36.0035 2.58398 37.9244 2.59082ZM36.2701 5.43457C36.2564 6.32324 36.9605 6.84961 37.9244 6.85645C38.8677 6.84961 39.5582 6.32324 39.565 5.43457C39.5582 4.53906 38.8677 4.0127 37.9244 4.0127C36.9673 4.0127 36.2564 4.53906 36.2701 5.43457ZM36.4478 10.3154V8.97559H44.8013V12.3525H38.1841V13.1592H45.1431V14.5264H36.4752V11.0811H43.065V10.3154H36.4478ZM43.0513 8.45605V2.22168H44.8013V8.45605H43.0513Z" fill="#337AFF"/>
<path d="M19.3867 74.9365V85.3779H18.4609V74.9365H19.3867ZM11.1836 79.3779C11.1895 77.1631 12.291 75.751 13.8438 75.7451C15.3906 75.751 16.5098 77.1631 16.5039 79.3779C16.5098 81.5986 15.3906 83.0049 13.8438 82.999C12.291 83.0049 11.1895 81.5986 11.1836 79.3779ZM12.0742 79.3779C12.0742 81.0713 12.8008 82.1846 13.8438 82.1787C14.8926 82.1846 15.6133 81.0713 15.6133 79.3779C15.6133 77.6846 14.8926 76.5713 13.8438 76.5654C12.8008 76.5713 12.0742 77.6846 12.0742 79.3779ZM25.2991 76.1553V78.874H26.8811V75.1592H27.76V84.8271H26.8811V79.6357H25.2991V82.5537H21.3147V76.1553H25.2991ZM22.1819 81.8154H24.4319V76.8936H22.1819V81.8154ZM28.967 85.3545V74.9365H29.8577V85.3545H28.967ZM34.0122 75.3232C35.5708 75.3291 36.7016 76.2783 36.7075 77.6318C36.7016 78.9912 35.5708 79.9287 34.0122 79.9287C32.436 79.9287 31.2993 78.9912 31.3052 77.6318C31.2993 76.2783 32.436 75.3291 34.0122 75.3232ZM32.2075 77.6318C32.1958 78.5459 32.9634 79.1787 34.0122 79.1787C35.0434 79.1787 35.8169 78.5459 35.8169 77.6318C35.8169 76.7295 35.0434 76.0908 34.0122 76.0967C32.9634 76.0908 32.1958 76.7295 32.2075 77.6318ZM32.8872 81.5342V80.7959H39.6606V83.3037H33.813V84.4756H40.0356V85.2139H32.9106V82.6123H38.7466V81.5342H32.8872ZM38.7466 80.292V74.9365H39.6606V80.292H38.7466ZM49.2236 76.4131C49.2177 77.8076 51.0752 78.9912 52.8916 79.2607L52.5517 79.9873C50.9287 79.7119 49.3408 78.8447 48.708 77.5908C48.0752 78.8447 46.4873 79.7119 44.8877 79.9873L44.5244 79.2607C46.3349 78.9912 48.1865 77.8076 48.1923 76.4131V76.3428H44.8525V75.5928H52.5517V76.3428H49.2236V76.4131ZM43.9619 81.6396V80.8779H53.4541V81.6396H49.1416V85.3545H48.2392V81.6396H43.9619ZM63.632 83.2334V83.9951H54.093V83.2334H58.3586V80.6787H59.2609V83.2334H63.632ZM54.468 80.0342C56.2902 79.7236 58.3176 78.2002 58.3234 76.4482V75.6514H59.2844V76.4482C59.2902 78.1885 61.3469 79.7236 63.1633 80.0342L62.7531 80.7959C61.1652 80.4678 59.4895 79.3955 58.8156 77.8955C58.1301 79.3896 56.4719 80.4678 54.8781 80.7959L54.468 80.0342ZM73.7514 79.7764V80.5029H64.2123V79.7764H73.7514ZM65.3608 82.0264V81.335H72.5561V83.5498H66.2983V84.5459H72.8959V85.2139H65.3725V82.917H71.642V82.0264H65.3608ZM65.4194 75.9209V75.2529H72.5209V77.4092H66.3686V78.3232H72.7084V78.9912H65.4545V76.7764H71.5952V75.9209H65.4194ZM85.7284 74.9365V80.5264H84.8144V74.9365H85.7284ZM77.373 77.8428C77.3671 76.4189 78.5214 75.4404 80.1034 75.4521C81.6855 75.4404 82.828 76.4189 82.8339 77.8428C82.828 79.2607 81.6855 80.2393 80.1034 80.2334C78.5214 80.2393 77.3671 79.2607 77.373 77.8428ZM78.2753 77.8428C78.2636 78.792 79.0312 79.4658 80.1034 79.4717C81.164 79.4658 81.9316 78.792 81.9316 77.8428C81.9316 76.8877 81.164 76.2197 80.1034 76.2256C79.0312 76.2197 78.2636 76.8877 78.2753 77.8428ZM78.9784 85.2139V81.0537H79.8925V82.3193H84.8144V81.0537H85.7284V85.2139H78.9784ZM79.8925 84.4639H84.8144V83.0576H79.8925V84.4639ZM92.2033 75.5811V78.499H88.6173V80.1162C90.5744 80.1221 91.588 80.0811 92.8127 79.8584L92.9064 80.6201C91.6115 80.8311 90.5509 80.8662 88.4416 80.8662H87.7033V77.7959H91.2892V76.3193H87.6798V75.5811H92.2033ZM88.8752 82.6592V81.9092H95.8947V85.3779H94.9689V82.6592H88.8752ZM92.8947 79.4131V78.6514H94.9689V77.2451H92.8947V76.4951H94.9689V74.9482H95.8947V81.3467H94.9689V79.4131H92.8947ZM102.592 76.7412V77.4912H97.3656V76.7412H99.5336V75.2529H100.448V76.7412H102.592ZM97.7406 80.5615C97.7406 79.1787 98.684 78.2002 99.9789 78.1943C101.291 78.2002 102.229 79.1787 102.241 80.5615C102.229 81.9619 101.291 82.9463 99.9789 82.9521C98.684 82.9463 97.7406 81.9619 97.7406 80.5615ZM98.5609 80.5615C98.5609 81.4873 99.1527 82.1494 99.9789 82.1436C100.811 82.1494 101.42 81.4873 101.42 80.5615C101.42 79.6475 100.811 78.9795 99.9789 78.9678C99.1527 78.9795 98.5609 79.6475 98.5609 80.5615ZM103.131 84.8389V75.1943H103.998V79.3311H105.381V74.9365H106.26V85.3545H105.381V80.0928H103.998V84.8389H103.131ZM112.782 76.4131C112.776 77.8076 114.633 78.9912 116.45 79.2607L116.11 79.9873C114.487 79.7119 112.899 78.8447 112.266 77.5908C111.633 78.8447 110.046 79.7119 108.446 79.9873L108.083 79.2607C109.893 78.9912 111.745 77.8076 111.751 76.4131V76.3428H108.411V75.5928H116.11V76.3428H112.782V76.4131ZM107.52 81.6396V80.8779H117.012V81.6396H112.7V85.3545H111.798V81.6396H107.52ZM120.745 77.9014C120.745 79.5596 121.554 81.3467 122.936 82.167L122.409 82.8818C121.401 82.2725 120.681 81.1592 120.317 79.8877C119.936 81.2764 119.163 82.4717 118.12 83.1045L117.534 82.4131C118.975 81.5693 119.854 79.7236 119.854 77.9365V75.9209H120.745V77.9014ZM121.788 79.46V78.6748H123.558V75.1592H124.425V84.8271H123.558V79.46H121.788ZM125.69 85.3545V74.9365H126.581V85.3545H125.69ZM137.321 83.2451V84.0186H127.782V83.2451H130.15V80.4385C129.259 79.9756 128.72 79.2256 128.72 78.2764C128.72 76.665 130.302 75.6045 132.528 75.5928C134.755 75.6045 136.337 76.665 136.337 78.2764C136.337 79.208 135.816 79.9463 134.954 80.4092V83.2451H137.321ZM129.61 78.2764C129.605 79.4424 130.817 80.2217 132.528 80.2217C134.222 80.2217 135.446 79.4424 135.446 78.2764C135.446 77.1104 134.222 76.3428 132.528 76.3545C130.817 76.3428 129.605 77.1104 129.61 78.2764ZM131.052 83.2451H134.028V80.7666C133.577 80.8838 133.073 80.9482 132.528 80.9482C131.995 80.9482 131.497 80.8896 131.052 80.7725V83.2451ZM139.015 84.4756C138.605 84.4697 138.253 84.1299 138.265 83.7139C138.253 83.3037 138.605 82.9639 139.015 82.9639C139.431 82.9639 139.771 83.3037 139.765 83.7139C139.771 84.1299 139.431 84.4697 139.015 84.4756Z" fill="#999999"/>
</svg>
